<svg width="105" height="36" fill="none" xmlns="http://www.w3.org/2000/svg"><g clip-path="url(#a)"><path d="M96.635 0H6.617c-.562 0-1.186 0-1.748.128S3.745.384 3.184.705c-.5.256-1 .64-1.436 1.089-.437.448-.75.896-1.061 1.473-.25.576-.437 1.089-.562 1.73C0 5.572 0 6.213-.063 6.79V29.274c0 .576 0 1.217.188 1.794.125.576.25 1.153.562 1.73.25.512.624 1.024 1.06 1.472a6.13 6.13 0 0 0 1.437 1.09c.561.256 1.06.448 1.685.576.562.128 1.186.128 1.748.128h91.766c.562 0 1.186 0 1.748-.128s1.123-.256 1.685-.577c.5-.256.999-.64 1.436-1.089.437-.448.749-.896 1.061-1.473.25-.576.437-1.089.562-1.73.125-.576.125-1.216.187-1.793V6.79c0-.576 0-1.217-.187-1.794-.125-.576-.25-1.153-.562-1.73a5.816 5.816 0 0 0-1.061-1.472 6.129 6.129 0 0 0-1.436-1.09c-.562-.256-1.061-.448-1.685-.576C99.569 0 98.945 0 98.383 0H96.635z" fill="#2F2F2F"/><path d="M7.429 35.23h-.812c-.5 0-1.061 0-1.623-.127-.562-.129-.999-.257-1.436-.513a8.918 8.918 0 0 1-1.248-.897c-.375-.384-.687-.768-.874-1.28-.25-.45-.375-.962-.5-1.474-.124-.577-.124-1.217-.124-1.666V6.79c0-.448 0-1.089.124-1.665.125-.577.25-1.025.5-1.473a9.16 9.16 0 0 1 .874-1.282c.374-.384.749-.704 1.248-.896.437-.257.937-.385 1.436-.513C5.556.832 6.18.832 6.617.832H98.383c.437 0 1.061 0 1.623.128.499.064.999.256 1.436.513.437.256.874.576 1.248.896.375.385.687.77.874 1.282.25.448.375.96.5 1.473.124.576.124 1.153.124 1.73V29.272c0 .513 0 1.09-.124 1.666-.063.576-.25 1.025-.5 1.473-.25.449-.562.897-.874 1.217-.374.385-.749.705-1.248.897-.437.256-.937.384-1.436.512-.562.129-1.124.129-1.623.129H96.635l-89.206.064z" fill="#000"/><path d="M21.724 18.258c0-2.499 1.997-3.652 2.06-3.716-1.124-1.665-2.872-1.921-3.496-1.921-1.498-.129-2.872.896-3.683.896-.812 0-1.935-.896-3.184-.832-1.623 0-3.121.96-3.933 2.434-1.685 3.01-.437 7.43 1.187 9.864.811 1.218 1.747 2.499 2.996 2.499 1.186 0 1.685-.769 3.121-.769s1.873.769 3.121.769c1.311 0 2.123-1.217 2.934-2.434.937-1.346 1.311-2.69 1.311-2.755 0 0-2.559-.96-2.559-3.971l.125-.064zM19.352 11.018c.624-.833 1.123-1.986.999-3.14-.937 0-2.123.641-2.81 1.474-.624.705-1.123 1.922-.998 3.01 1.06.065 2.185-.576 2.809-1.408v.064zM37.143 24.406h-4.182l-1 3.011h-1.747l3.933-11.21h1.81l3.933 11.21h-1.81l-1-3.01h.063zm-3.745-1.409h3.308l-1.623-4.932-1.623 4.932h-.062zM48.38 23.38c0 2.563-1.311 4.165-3.309 4.165-1.123 0-2.06-.513-2.497-1.41v4.036h-1.623V19.345h1.56v1.346c.438-.897 1.437-1.41 2.56-1.41 1.998 0 3.371 1.666 3.371 4.164l-.062-.064zm-1.686 0c0-1.665-.811-2.754-2.122-2.754s-2.06 1.09-2.06 2.755c0 1.665.811 2.754 2.06 2.754 1.248 0 2.122-1.089 2.122-2.754zM57.12 23.38c0 2.563-1.311 4.165-3.309 4.165-1.124 0-2.06-.513-2.497-1.41v4.036h-1.623V19.345h1.56v1.346c.438-.897 1.436-1.41 2.56-1.41 1.998 0 3.371 1.666 3.371 4.164l-.062-.064zm-1.686 0c0-1.665-.811-2.754-2.122-2.754s-2.06 1.09-2.06 2.755c0 1.665.811 2.754 2.06 2.754 1.248 0 2.122-1.089 2.122-2.754zM62.925 24.342c.125 1.089 1.186 1.858 2.622 1.858s2.372-.705 2.372-1.73c0-.897-.624-1.41-1.998-1.73l-1.436-.32c-1.997-.512-2.934-1.473-2.934-3.01 0-1.922 1.624-3.267 3.996-3.267s3.87 1.345 3.933 3.267h-1.624c-.124-1.09-.998-1.794-2.31-1.794-1.31 0-2.184.704-2.184 1.665 0 .77.562 1.282 1.997 1.602l1.187.32c2.247.512 3.183 1.473 3.183 3.075 0 2.114-1.623 3.395-4.182 3.395-2.435 0-4.058-1.281-4.183-3.331h1.686-.125zM73.1 17.36v1.921h1.498v1.345H73.1v4.484c0 .705.312 1.025.937 1.025h.561v1.345s-.561.064-.936.064c-1.623 0-2.247-.64-2.247-2.178V20.69h-1.187v-1.345h1.187v-1.922h1.623l.062-.064zM75.535 23.383c0-2.563 1.498-4.164 3.746-4.164 2.247 0 3.745 1.601 3.745 4.163 0 2.563-1.436 4.164-3.745 4.164-2.31 0-3.746-1.601-3.746-4.163zm5.868 0c0-1.73-.811-2.82-2.122-2.82s-2.123 1.026-2.123 2.82c0 1.793.812 2.818 2.123 2.818 1.31 0 2.122-1.025 2.122-2.819zM84.4 19.28h1.56v1.41c.25-.897.999-1.474 1.935-1.474h.562v1.538s-.437-.128-.749-.128c-1.061 0-1.686.704-1.686 1.857v4.805H84.4v-8.136.128zM95.948 25.046c-.25 1.473-1.623 2.498-3.433 2.498-2.31 0-3.746-1.602-3.746-4.164 0-2.562 1.436-4.228 3.683-4.228 2.248 0 3.558 1.538 3.558 4.036v.576h-5.618v.129c0 1.409.874 2.306 2.123 2.306.936 0 1.623-.449 1.81-1.153h1.623zm-5.493-2.435h3.995c0-1.217-.812-2.05-1.935-2.05-1.124 0-1.936.833-1.998 2.05h-.063zM32.212 10.122h.686c.562 0 .999-.32.999-.833 0-.513-.375-.833-.999-.833s-.999.32-1.061.833h-.75c0-.96.75-1.601 1.874-1.601 1.06 0 1.748.576 1.748 1.473 0 .576-.375 1.089-.937 1.217.687.128 1.186.64 1.186 1.345 0 .897-.874 1.601-1.935 1.601s-1.935-.64-1.998-1.6h.812c0 .511.5.832 1.186.832.687 0 1.124-.384 1.124-.897 0-.512-.437-.833-1.124-.833h-.75v-.704h-.062zM35.832 12.107c0-.705.5-1.153 1.498-1.217h1.062v-.385c0-.448-.25-.64-.812-.64-.437 0-.75.192-.812.448h-.749c.063-.704.75-1.153 1.623-1.153 1 0 1.561.513 1.561 1.345v2.755h-.75v-.577c-.249.385-.686.64-1.185.64-.75 0-1.311-.447-1.311-1.216h-.125zm2.56-.32v-.32h-.937c-.562.127-.811.32-.811.64s.312.576.749.576c.562 0 .998-.384.998-.896zM41.2 9.865v3.395h-.748V9.225h2.622v.704h-1.81l-.063-.064zM47.755 11.211c0 1.282-.624 2.114-1.623 2.114-.561 0-.998-.256-1.186-.704v1.986h-.749V9.226h.75v.64c.25-.448.686-.768 1.248-.768.999 0 1.623.832 1.623 2.113h-.063zm-.811 0c0-.832-.375-1.345-1.061-1.345-.687 0-1.062.513-1.062 1.41 0 .896.438 1.345 1.062 1.345.624 0 1.061-.513 1.061-1.41zM48.817 14.67v-.704h.25c.374 0 .561-.128.686-.576v-.193l-1.373-4.1h.874l.999 3.204.998-3.203h.812l-1.498 4.227c-.312.961-.687 1.282-1.498 1.282h-.313l.063.064zM52.687 12.108h.75c.062.385.374.513.873.513.5 0 .812-.256.812-.577 0-.384-.313-.576-.812-.576h-.562v-.64h.562c.5 0 .687-.193.687-.513s-.25-.513-.687-.513c-.437 0-.749.192-.812.513h-.749c.063-.705.687-1.217 1.561-1.217.936 0 1.498.448 1.498 1.089 0 .384-.25.768-.624.832.5.192.75.513.75.961 0 .769-.625 1.281-1.624 1.281-.874 0-1.56-.384-1.623-1.217v.064zM57.12 13.26V9.225h.748v2.818l1.81-2.818h.75v4.035h-.75v-2.818l-1.81 2.818h-.749zM64.798 9.865h-1.249v3.395h-.811V9.865h-1.249V9.16h3.246v.705h.063zM68.98 12.106c-.187.705-.811 1.153-1.685 1.153-1.124 0-1.81-.769-1.81-2.114 0-1.345.686-2.114 1.81-2.114 1.123 0 1.748.769 1.748 2.05v.256h-2.81c0 .769.438 1.217 1.062 1.217.5 0 .811-.192.936-.512h.75v.064zm-2.746-1.281h1.997c0-.64-.374-1.025-.999-1.025-.624 0-.998.448-.998 1.025zM72.289 9.16h1.81c.749 0 1.248.384 1.248 1.025 0 .384-.312.769-.686.833.5.128.874.512.874 1.025 0 .704-.5 1.153-1.374 1.153h-1.81V9.16h-.062zm.749.64v1.026h.749c.5 0 .686-.193.686-.513s-.187-.512-.624-.512h-.874.063zm0 1.666v1.217h.936c.437 0 .687-.192.687-.576 0-.385-.25-.577-.812-.577h-.811v-.064z" fill="#fff"/></g><defs><clipPath id="a"><path fill="#fff" d="M0 0h105v36H0z"/></clipPath></defs></svg>