<svg width="114" height="39" fill="none" xmlns="http://www.w3.org/2000/svg"><g clip-path="url(#a)"><path d="M8.026 37.989H7.15c-.54 0-1.146 0-1.752-.139-.607-.138-1.078-.276-1.55-.553A9.635 9.635 0 0 1 2.5 36.33c-.404-.415-.741-.83-.943-1.383-.27-.484-.405-1.037-.54-1.59-.134-.623-.134-1.314-.134-1.798V7.286c0-.484 0-1.175.135-1.798.134-.622.27-1.106.539-1.59.27-.484.606-.968.943-1.383.404-.415.809-.76 1.348-.968.472-.277 1.01-.415 1.55-.553C6.004.855 6.678.855 7.15.855h99.061c.472 0 1.145 0 1.752.139.539.069 1.078.276 1.55.553s.943.622 1.348.968c.404.415.741.83.943 1.383.27.484.404 1.037.539 1.59.135.623.135 1.245.135 1.867v24.203c0 .553 0 1.175-.135 1.798-.067.622-.269 1.106-.539 1.59-.269.484-.606.968-.943 1.314-.405.415-.809.76-1.348.968-.472.277-1.011.415-1.55.553-.607.139-1.213.139-1.752.139h-1.887l-96.298.069z" fill="#303030"/><path d="M23.457 19.654c0-2.697 2.156-3.942 2.224-4.01-1.213-1.799-3.1-2.075-3.774-2.075-1.617-.139-3.1.968-3.976.968-.876 0-2.089-.968-3.437-.9-1.752 0-3.369 1.038-4.245 2.628-1.82 3.25-.472 8.022 1.28 10.65.876 1.313 1.887 2.696 3.235 2.696 1.28 0 1.82-.83 3.37-.83s2.021.83 3.369.83c1.415 0 2.291-1.314 3.167-2.627 1.01-1.453 1.415-2.905 1.415-2.974 0 0-2.763-1.037-2.763-4.287l.135-.07zM20.897 11.84c.674-.9 1.213-2.144 1.078-3.389-1.01 0-2.291.692-3.032 1.59-.674.761-1.213 2.075-1.079 3.25 1.146.07 2.36-.622 3.033-1.52v.068zM40.105 26.304H35.59l-1.078 3.25h-1.887l4.245-12.1h1.955l4.245 12.1h-1.954l-1.078-3.25h.067zm-4.043-1.521h3.571l-1.752-5.325-1.752 5.325h-.067zM52.234 25.195c0 2.766-1.415 4.495-3.572 4.495-1.212 0-2.223-.553-2.695-1.521v4.356h-1.752V20.839H45.9v1.452c.471-.968 1.55-1.521 2.763-1.521 2.156 0 3.639 1.797 3.639 4.494l-.068-.069zm-1.82 0c0-1.798-.876-2.973-2.29-2.973-1.416 0-2.224 1.175-2.224 2.973 0 1.798.876 2.974 2.223 2.974 1.348 0 2.292-1.176 2.292-2.974zM61.668 25.195c0 2.766-1.416 4.495-3.572 4.495-1.213 0-2.224-.553-2.695-1.521v4.356h-1.753V20.839h1.685v1.452c.472-.968 1.55-1.521 2.763-1.521 2.157 0 3.639 1.797 3.639 4.494l-.067-.069zm-1.82 0c0-1.798-.876-2.973-2.291-2.973s-2.224 1.175-2.224 2.973c0 1.798.876 2.974 2.224 2.974 1.348 0 2.291-1.176 2.291-2.974zM67.935 26.236c.135 1.175 1.28 2.005 2.83 2.005s2.56-.76 2.56-1.867c0-.968-.673-1.521-2.156-1.867l-1.55-.346c-2.156-.553-3.167-1.59-3.167-3.25 0-2.074 1.752-3.526 4.313-3.526 2.56 0 4.178 1.452 4.245 3.526h-1.752c-.134-1.175-1.078-1.936-2.493-1.936-1.415 0-2.359.76-2.359 1.798 0 .83.607 1.383 2.157 1.729l1.28.346c2.426.553 3.437 1.59 3.437 3.319 0 2.282-1.752 3.665-4.515 3.665-2.628 0-4.38-1.383-4.515-3.596h1.82-.135zM78.916 18.695v2.075h1.618v1.452h-1.618v4.84c0 .761.337 1.107 1.011 1.107h.607v1.452s-.607.07-1.011.07c-1.752 0-2.426-.692-2.426-2.352v-5.048h-1.28V20.84h1.28v-2.074h1.752l.067-.07zM81.547 25.198c0-2.766 1.617-4.495 4.043-4.495s4.043 1.729 4.043 4.495-1.55 4.494-4.043 4.494c-2.493 0-4.043-1.728-4.043-4.494zm6.334 0c0-1.867-.876-3.043-2.29-3.043-1.416 0-2.292 1.107-2.292 3.043 0 1.936.876 3.042 2.291 3.042s2.291-1.106 2.291-3.042zM91.117 20.773h1.685v1.521c.27-.968 1.078-1.59 2.089-1.59h.606v1.66s-.471-.139-.808-.139c-1.146 0-1.82.76-1.82 2.005v5.187h-1.752v-8.782.138zM103.586 26.997c-.27 1.59-1.752 2.696-3.707 2.696-2.493 0-4.043-1.728-4.043-4.494s1.55-4.564 3.976-4.564 3.841 1.66 3.841 4.356v.622h-6.065v.139c0 1.521.944 2.49 2.291 2.49 1.011 0 1.752-.485 1.955-1.245h1.752zm-5.93-2.628h4.312c0-1.314-.876-2.213-2.089-2.213s-2.089.899-2.156 2.213h-.068zM34.788 10.897h.742c.606 0 1.078-.345 1.078-.899 0-.553-.405-.899-1.078-.899-.674 0-1.079.346-1.146.9h-.809c0-1.038.809-1.73 2.022-1.73 1.145 0 1.887.623 1.887 1.591 0 .622-.405 1.176-1.011 1.314.741.138 1.28.691 1.28 1.452 0 .968-.943 1.729-2.089 1.729-1.145 0-2.089-.692-2.156-1.73h.876c0 .554.539.9 1.28.9.742 0 1.213-.415 1.213-.968 0-.553-.471-.9-1.213-.9h-.808v-.76h-.068zM38.7 13.038c0-.76.538-1.244 1.616-1.313h1.146v-.415c0-.485-.27-.692-.876-.692-.472 0-.809.207-.876.484h-.809c.068-.76.809-1.245 1.752-1.245 1.079 0 1.685.554 1.685 1.453v2.973h-.809v-.622c-.269.415-.74.691-1.28.691-.809 0-1.415-.484-1.415-1.314h-.135zm2.762-.345v-.346h-1.01c-.607.138-.877.346-.877.691 0 .346.337.623.809.623.606 0 1.078-.415 1.078-.968zM44.496 10.623v3.665h-.809V9.932h2.83v.76h-1.953l-.068-.069zM51.568 12.073c0 1.383-.674 2.282-1.752 2.282-.607 0-1.079-.277-1.28-.76v2.143h-.81V9.929h.81v.692c.269-.484.74-.83 1.347-.83 1.078 0 1.752.899 1.752 2.282h-.067zm-.876 0c0-.899-.405-1.452-1.146-1.452-.741 0-1.146.553-1.146 1.521 0 .968.472 1.452 1.146 1.452.674 0 1.146-.553 1.146-1.521zM52.714 15.807v-.76h.27c.404 0 .606-.139.74-.623v-.207L52.243 9.79h.944l1.078 3.457 1.078-3.457h.876l-1.617 4.564c-.337 1.037-.742 1.383-1.617 1.383h-.337l.067.069zM56.895 13.041h.808c.068.415.404.553.944.553.539 0 .876-.276.876-.622 0-.415-.337-.622-.876-.622h-.607v-.692h.607c.539 0 .74-.207.74-.553 0-.346-.269-.553-.74-.553-.472 0-.809.207-.876.553h-.81c.068-.76.742-1.314 1.686-1.314 1.01 0 1.617.484 1.617 1.176 0 .415-.27.83-.674.899.54.207.809.553.809 1.037 0 .83-.674 1.383-1.752 1.383-.944 0-1.685-.415-1.752-1.314v.069zM61.68 14.288V9.932h.808v3.042l1.955-3.042h.808v4.356h-.808v-3.043l-1.955 3.043h-.808zM69.97 10.618h-1.348v3.665h-.876v-3.665h-1.348v-.76h3.505v.76h.067zM74.477 13.042c-.202.76-.876 1.245-1.82 1.245-1.213 0-1.954-.83-1.954-2.282 0-1.453.741-2.282 1.954-2.282s1.887.83 1.887 2.212v.277h-3.032c0 .83.472 1.314 1.145 1.314.54 0 .876-.208 1.011-.553h.809v.069zm-2.965-1.383h2.156c0-.692-.404-1.107-1.078-1.107s-1.078.485-1.078 1.107zM78.055 9.857h1.954c.809 0 1.348.415 1.348 1.107 0 .415-.337.83-.742.899.54.138.944.553.944 1.106 0 .76-.54 1.245-1.483 1.245h-1.954V9.857h-.067zm.808.692v1.106h.809c.54 0 .741-.207.741-.553 0-.346-.202-.553-.674-.553h-.943.067zm0 1.798v1.314h1.011c.472 0 .741-.208.741-.623 0-.415-.27-.622-.876-.622h-.876v-.07z" fill="#fff"/></g><defs><clipPath id="a"><path fill="#fff" d="M0 0h113.347v38.862H0z"/></clipPath></defs></svg>