<svg width="64" height="57" fill="none" xmlns="http://www.w3.org/2000/svg"><g clip-path="url(#a)" filter="url(#b)"><path d="M5.625 39.375h33.75" stroke="#FBF9F5" stroke-width="3" stroke-linecap="round" stroke-linejoin="round"/><path d="M16.875 15h1.875M16.875 22.5h1.875M16.875 30h1.875M26.25 15h1.875M26.25 22.5h1.875M26.25 30h1.875" stroke="#fff" stroke-width="3.75" stroke-linecap="round" stroke-linejoin="round"/><path d="M9.375 39.375v-30a3.75 3.75 0 0 1 3.75-3.75h18.75a3.75 3.75 0 0 1 3.75 3.75v30" stroke="#FBF9F5" stroke-width="3" stroke-linecap="round" stroke-linejoin="round"/><path d="m40.456 37.37 2.462-2.397a2.002 2.002 0 0 0 0-2.882 2.103 2.103 0 0 0-2.923 0l-2.481 2.414-2.479-2.414a2.103 2.103 0 0 0-2.923 0 2.002 2.002 0 0 0 0 2.882l2.462 2.397-2.462 2.398a2.002 2.002 0 0 0 0 2.882 2.09 2.09 0 0 0 1.463.591 2.09 2.09 0 0 0 1.46-.591l2.479-2.414 2.48 2.414c.407.396.935.591 1.461.591a2.09 2.09 0 0 0 1.463-.591 2.002 2.002 0 0 0 0-2.882l-2.462-2.398z" fill="#E56553" stroke="#0C0C0C"/></g><defs><clipPath id="a"><path fill="#fff" d="M0 0h45v45H0z"/></clipPath><filter id="b" x="-1" y="-2" width="65" height="60" filterUnits="userSpaceOnUse" color-interpolation-filters="sRGB"><feFlood flood-opacity="0" result="BackgroundImageFix"/><feColorMatrix in="SourceAlpha" values="0 0 0 0 0 0 0 0 0 0 0 0 0 0 0 0 0 0 127 0" result="hardAlpha"/><feOffset dx="1"/><feGaussianBlur stdDeviation="1"/><feColorMatrix values="0 0 0 0 0.898039 0 0 0 0 0.396078 0 0 0 0 0.32549 0 0 0 0.2 0"/><feBlend in2="BackgroundImageFix" result="effect1_dropShadow_1292_4229"/><feColorMatrix in="SourceAlpha" values="0 0 0 0 0 0 0 0 0 0 0 0 0 0 0 0 0 0 127 0" result="hardAlpha"/><feOffset dx="3" dy="2"/><feGaussianBlur stdDeviation="2"/><feColorMatrix values="0 0 0 0 0.898039 0 0 0 0 0.396078 0 0 0 0 0.32549 0 0 0 0.17 0"/><feBlend in2="effect1_dropShadow_1292_4229" result="effect2_dropShadow_1292_4229"/><feColorMatrix in="SourceAlpha" values="0 0 0 0 0 0 0 0 0 0 0 0 0 0 0 0 0 0 127 0" result="hardAlpha"/><feOffset dx="7" dy="4"/><feGaussianBlur stdDeviation="2.5"/><feColorMatrix values="0 0 0 0 0.898039 0 0 0 0 0.396078 0 0 0 0 0.32549 0 0 0 0.1 0"/><feBlend in2="effect2_dropShadow_1292_4229" result="effect3_dropShadow_1292_4229"/><feColorMatrix in="SourceAlpha" values="0 0 0 0 0 0 0 0 0 0 0 0 0 0 0 0 0 0 127 0" result="hardAlpha"/><feOffset dx="13" dy="7"/><feGaussianBlur stdDeviation="3"/><feColorMatrix values="0 0 0 0 0.898039 0 0 0 0 0.396078 0 0 0 0 0.32549 0 0 0 0.03 0"/><feBlend in2="effect3_dropShadow_1292_4229" result="effect4_dropShadow_1292_4229"/><feBlend in="SourceGraphic" in2="effect4_dropShadow_1292_4229" result="shape"/></filter></defs></svg>