<svg width="62" height="62" fill="none" xmlns="http://www.w3.org/2000/svg"><g clip-path="url(#a)" stroke-linecap="round" stroke-linejoin="round"><path d="M10.328 20.66v-5.167a5.167 5.167 0 0 1 5.167-5.167h5.167M10.328 41.326v5.167a5.167 5.167 0 0 0 5.167 5.166h5.167M41.328 10.326h5.167a5.167 5.167 0 0 1 5.166 5.167v5.167M41.328 51.66h5.167a5.167 5.167 0 0 0 5.166-5.167v-5.167" stroke="#fff" stroke-width="2.638"/><path d="M23.25 25.826h.024M38.75 25.826h.024" stroke="#E56553" stroke-width="5.167"/><path d="M24.547 38.75a9.042 9.042 0 0 0 12.917 0" stroke="#E56553" stroke-width="2.638"/></g><defs><clipPath id="a"><path fill="#fff" d="M0 0h62v62H0z"/></clipPath></defs></svg>