<svg width="64" height="64" viewBox="0 0 64 64" fill="none" xmlns="http://www.w3.org/2000/svg">
<mask id="mask0_1310_3442" style="mask-type:luminance" maskUnits="userSpaceOnUse" x="-1" y="0" width="54" height="53">
<path fill-rule="evenodd" clip-rule="evenodd" d="M26.2641 52.5392C40.7714 52.5392 52.532 40.7787 52.532 26.2715C52.532 11.7643 40.7714 0.00390625 26.2641 0.00390625C11.7567 0.00390625 -0.00390625 11.7643 -0.00390625 26.2715C-0.00390625 40.7787 11.7567 52.5392 26.2641 52.5392ZM32.9015 32.0327C33.2343 31.3672 33.4006 30.6055 33.4006 29.7474C33.4006 28.3289 32.8753 27.2082 31.8245 26.3851C30.7738 25.5621 29.3991 24.9842 27.7005 24.6515L27.2802 24.5727V19.8971C27.9807 20.0372 28.5498 20.3174 28.9876 20.7377C29.4254 21.1579 29.6881 21.6745 29.7756 22.2874H33.0329C32.9103 20.764 32.3149 19.5556 31.2467 18.6625C30.1959 17.7519 28.8738 17.2091 27.2802 17.0339V14.8537H25.3101V17.0339C24.487 17.104 23.7165 17.2879 22.9985 17.5855C22.2805 17.8657 21.6588 18.2423 21.1334 18.7151C20.608 19.1704 20.1965 19.7132 19.8988 20.3437C19.6011 20.9741 19.4522 21.6746 19.4522 22.445C19.4522 23.7409 19.8988 24.7916 20.7919 25.5971C21.7025 26.3851 23.0073 26.9543 24.7059 27.3045L25.3101 27.4358V32.453C24.5045 32.3304 23.8216 32.0239 23.2612 31.5336C22.7008 31.0433 22.3681 30.3866 22.263 29.5635H18.9532C19.1108 31.3497 19.7762 32.7156 20.9495 33.6613C22.1404 34.6069 23.5939 35.1498 25.3101 35.2899V37.3913H27.2802V35.2899C28.1033 35.2198 28.8825 35.0535 29.618 34.7908C30.3711 34.5281 31.019 34.1691 31.5619 33.7138C32.1223 33.241 32.5688 32.6806 32.9015 32.0327ZM23.3925 23.4432C23.0073 23.1455 22.8146 22.7077 22.8146 22.1298C22.8146 21.5345 23.051 21.0441 23.5239 20.6589C23.9967 20.2561 24.5921 19.9934 25.3101 19.8709V24.1787C24.4345 23.986 23.7953 23.7409 23.3925 23.4432ZM29.2766 28.723C29.7669 29.0557 30.0121 29.5197 30.0121 30.1151C30.0121 30.7631 29.7581 31.2884 29.2503 31.6912C28.7424 32.094 28.0857 32.3566 27.2802 32.4792V27.8561C28.1383 28.0838 28.8037 28.3727 29.2766 28.723Z" fill="white"/>
</mask>
<g mask="url(#mask0_1310_3442)">
<path d="M32.903 32.0322L34.8504 33.0323L34.8609 33.0113L32.903 32.0322ZM27.702 24.651L28.1227 22.503L28.1052 22.4997L27.702 24.651ZM27.2817 24.5722H25.0927V26.389L26.8783 26.7237L27.2817 24.5722ZM27.2817 19.8966L27.711 17.7502L25.0927 17.2265V19.8966H27.2817ZM29.7772 22.2869L27.61 22.5966L27.8786 24.4759H29.7772V22.2869ZM33.0344 22.2869V24.4759H35.4064L35.2162 22.1114L33.0344 22.2869ZM31.2482 18.6621L29.8144 20.3162L29.829 20.3289L29.8439 20.3414L31.2482 18.6621ZM27.2817 17.0334H25.0927V18.995L27.0424 19.2093L27.2817 17.0334ZM27.2817 14.8533H29.4707V12.6643H27.2817V14.8533ZM25.3116 14.8533V12.6643H23.1226V14.8533H25.3116ZM25.3116 17.0334L25.4972 19.2145L27.5006 19.044V17.0334H25.3116ZM23 17.5851L23.7957 19.6243L23.8172 19.6159L23.8384 19.6071L23 17.5851ZM21.1349 18.7146L22.5686 20.3688L22.5841 20.3553L22.5992 20.3416L21.1349 18.7146ZM20.7934 25.5966L19.3273 27.2222L19.344 27.2373L19.361 27.2519L20.7934 25.5966ZM24.7074 27.304L25.1724 25.165L25.1494 25.1602L24.7074 27.304ZM25.3116 27.4354H27.5006V25.6713L25.7765 25.2965L25.3116 27.4354ZM25.3116 32.4525L24.9822 34.6167L27.5006 34.9998V32.4525H25.3116ZM22.2645 29.563L24.4358 29.2859L24.1917 27.3741H22.2645V29.563ZM18.9547 29.563V27.3741H16.564L16.7741 29.7555L18.9547 29.563ZM20.951 33.6608L19.5773 35.3653L19.5897 35.375L20.951 33.6608ZM25.3116 35.2894H27.5006V33.2718L25.4896 33.1079L25.3116 35.2894ZM25.3116 37.3908H23.1226V39.5798H25.3116V37.3908ZM27.2817 37.3908V39.5798H29.4707V37.3908H27.2817ZM27.2817 35.2894L27.0961 33.1083L25.0927 33.2788V35.2894H27.2817ZM29.6195 34.7903L28.8985 32.7235L28.8832 32.729L29.6195 34.7903ZM31.5634 33.7133L32.97 35.3905L32.9748 35.3864L31.5634 33.7133ZM23.394 23.4427L22.0555 25.1748L22.0741 25.1893L22.0929 25.2031L23.394 23.4427ZM23.5254 20.6584L24.9079 22.3554L24.9266 22.3403L24.9447 22.3248L23.5254 20.6584ZM25.3116 19.8704H27.5006V17.276L24.9432 17.7126L25.3116 19.8704ZM25.3116 24.1782L24.8412 26.3161L27.5006 26.9013V24.1782H25.3116ZM29.2781 28.7225L27.975 30.4815L28.0113 30.5085L28.0489 30.5339L29.2781 28.7225ZM27.2817 32.4787H25.0927V35.0261L27.6109 34.643L27.2817 32.4787ZM27.2817 27.8556L27.843 25.74L25.0927 25.0102V27.8556H27.2817ZM50.3445 26.2711C50.3445 39.5693 39.5639 50.3497 26.2656 50.3497V54.7276C41.9819 54.7276 54.7225 41.9872 54.7225 26.2711H50.3445ZM26.2656 2.19239C39.5639 2.19239 50.3445 12.9728 50.3445 26.2711H54.7225C54.7225 10.5549 41.9819 -2.18555 26.2656 -2.18555V2.19239ZM2.18659 26.2711C2.18659 12.9728 12.9671 2.19239 26.2656 2.19239V-2.18555C10.5492 -2.18555 -2.19141 10.5549 -2.19141 26.2711H2.18659ZM26.2656 50.3497C12.9671 50.3497 2.18659 39.5693 2.18659 26.2711H-2.19141C-2.19141 41.9872 10.5492 54.7276 26.2656 54.7276V50.3497ZM31.2131 29.7469C31.2131 30.3174 31.1041 30.7352 30.945 31.0533L34.8609 33.0113C35.3672 31.9983 35.5911 30.8926 35.5911 29.7469H31.2131ZM30.4761 28.108C30.9599 28.4869 31.2131 28.9525 31.2131 29.7469H35.5911C35.5911 27.7046 34.7935 25.9287 33.1758 24.6615L30.4761 28.108ZM27.281 26.7992C28.738 27.0847 29.7658 27.5516 30.4761 28.108L33.1758 24.6615C31.7847 23.5718 30.063 22.883 28.1227 22.503L27.281 26.7992ZM26.8783 26.7237L27.2986 26.8025L28.1052 22.4997L27.6849 22.4209L26.8783 26.7237ZM25.0927 19.8966V24.5722H29.4707V19.8966H25.0927ZM30.505 19.1581C29.7165 18.4012 28.7466 17.9573 27.711 17.7502L26.8522 22.0431C27.2176 22.1162 27.3859 22.2326 27.473 22.3162L30.505 19.1581ZM31.944 21.9774C31.7888 20.8911 31.3031 19.9243 30.505 19.1581L27.473 22.3162C27.5505 22.3907 27.5901 22.457 27.61 22.5966L31.944 21.9774ZM33.0344 20.098H29.7772V24.4759H33.0344V20.098ZM29.8439 20.3414C30.4155 20.8191 30.7718 21.4613 30.8524 22.4625L35.2162 22.1114C35.0515 20.0657 34.2171 18.2912 32.6522 16.9827L29.8439 20.3414ZM27.0424 19.2093C28.2639 19.3436 29.1491 19.7396 29.8144 20.3162L32.6817 17.0079C31.2458 15.7633 29.4865 15.0736 27.5207 14.8576L27.0424 19.2093ZM25.0927 14.8533V17.0334H29.4707V14.8533H25.0927ZM25.3116 17.0422H27.2817V12.6643H25.3116V17.0422ZM27.5006 17.0334V14.8533H23.1226V17.0334H27.5006ZM23.8384 19.6071C24.3355 19.401 24.8845 19.2667 25.4972 19.2145L25.126 14.8524C24.0925 14.9403 23.1003 15.1738 22.1614 15.563L23.8384 19.6071ZM22.5992 20.3416C22.9114 20.0607 23.3012 19.8172 23.7957 19.6243L22.2041 15.5459C21.2625 15.9133 20.4091 16.4228 19.6705 17.0875L22.5992 20.3416ZM21.8797 21.2779C22.0478 20.9218 22.2737 20.6242 22.5686 20.3688L19.7013 17.0604C18.9453 17.7156 18.3482 18.5037 17.9209 19.4085L21.8797 21.2779ZM21.6428 22.4445C21.6428 21.9629 21.734 21.5865 21.8797 21.2779L17.9209 19.4085C17.4712 20.3607 17.2648 21.3852 17.2648 22.4445H21.6428ZM22.2595 23.9713C21.8652 23.6156 21.6428 23.1748 21.6428 22.4445H17.2648C17.2648 24.3062 17.9354 25.9668 19.3273 27.2222L22.2595 23.9713ZM25.1494 25.1602C23.6659 24.8544 22.7559 24.4004 22.2258 23.9415L19.361 27.2519C20.652 28.3692 22.3514 29.0534 24.2653 29.4479L25.1494 25.1602ZM25.7765 25.2965L25.1724 25.165L24.2423 29.4431L24.8464 29.5744L25.7765 25.2965ZM27.5006 32.4525V27.4354H23.1226V32.4525H27.5006ZM21.8211 33.1805C22.7249 33.9712 23.8047 34.4374 24.9822 34.6167L25.6408 30.2885C25.2072 30.2226 24.9211 30.0757 24.7042 29.8859L21.8211 33.1805ZM20.0931 29.8404C20.2575 31.1288 20.8114 32.2971 21.8211 33.1805L24.7042 29.8859C24.5932 29.7887 24.4815 29.6436 24.4358 29.2859L20.0931 29.8404ZM18.9547 31.752H22.2645V27.3741H18.9547V31.752ZM22.3247 31.9565C21.7017 31.4545 21.2512 30.6858 21.1352 29.3706L16.7741 29.7555C16.9733 32.0129 17.8537 33.9762 19.5773 35.3653L22.3247 31.9565ZM25.4896 33.1079C24.1464 32.9982 23.1202 32.5882 22.3122 31.9466L19.5897 35.375C21.1636 36.6249 23.0442 37.3006 25.1334 37.4711L25.4896 33.1079ZM27.5006 37.3908V35.2894H23.1226V37.3908H27.5006ZM27.2817 35.2018H25.3116V39.5798H27.2817V35.2018ZM25.0927 35.2894V37.3908H29.4707V35.2894H25.0927ZM28.8832 32.729C28.3353 32.9246 27.7418 33.0534 27.0961 33.1083L27.4673 37.4705C28.4675 37.3853 29.4326 37.1815 30.3557 36.8519L28.8832 32.729ZM30.1565 32.0361C29.8406 32.3012 29.4324 32.5372 28.8985 32.7235L30.3404 36.8571C31.3125 36.5181 32.2002 36.0363 32.97 35.3905L30.1565 32.0361ZM30.9557 31.0323C30.7561 31.421 30.4923 31.7531 30.1517 32.0403L32.9748 35.3864C33.755 34.7281 34.3846 33.9397 34.8504 33.0323L30.9557 31.0323ZM20.6271 22.1293C20.6271 23.243 21.0305 24.3828 22.0555 25.1748L24.7324 21.7107C24.8237 21.7811 24.9106 21.8877 24.9642 22.0096C25.0128 22.1201 25.0051 22.1768 25.0051 22.1293H20.6271ZM22.1426 18.9614C21.174 19.7507 20.6271 20.8575 20.6271 22.1293H25.0051C25.0051 22.126 25.0054 22.1405 24.9992 22.1683C24.9931 22.1967 24.9822 22.2307 24.9651 22.2657C24.9281 22.3425 24.8902 22.3699 24.9079 22.3554L22.1426 18.9614ZM24.9432 17.7126C23.9047 17.8899 22.9267 18.2927 22.1058 18.9921L24.9447 22.3248C25.0695 22.2184 25.2823 22.096 25.68 22.0282L24.9432 17.7126ZM27.5006 24.1782V19.8704H23.1226V24.1782H27.5006ZM22.0929 25.2031C22.8671 25.7753 23.8655 26.1014 24.8412 26.3161L25.7818 22.0404C25.4202 21.9608 25.1514 21.8797 24.9594 21.8061C24.7617 21.7303 24.6917 21.6799 24.695 21.6824L22.0929 25.2031ZM32.2026 30.1147C32.2026 28.798 31.6012 27.6536 30.5072 26.9113L28.0489 30.5339C28.0362 30.5253 27.9594 30.4664 27.8942 30.3428C27.8289 30.2193 27.8246 30.125 27.8246 30.1147H32.2026ZM30.612 33.4058C31.6431 32.588 32.2026 31.4311 32.2026 30.1147H27.8246C27.8211 30.1317 27.8246 30.1333 27.8246 30.1147C27.8285 30.0969 27.8381 30.0711 27.8521 30.0422C27.8662 30.0131 27.8815 29.991 27.8929 29.977C27.9038 29.9636 27.9075 29.9654 27.8929 29.977L30.612 33.4058ZM27.6109 34.643C28.6978 34.4775 29.738 34.099 30.612 33.4058L27.8929 29.977C27.7512 30.0895 27.4765 30.2351 26.9523 30.3147L27.6109 34.643ZM25.0927 27.8556V32.4787H29.4707V27.8556H25.0927ZM30.581 26.9636C29.8025 26.3868 28.846 26.006 27.843 25.74L26.7202 29.9715C27.4336 30.1606 27.8079 30.3576 27.975 30.4815L30.581 26.9636Z" fill="white"/>
</g>
<path d="M43.082 39.6367L46.2342 61.9978L51.4878 53.8665H61.9949L43.082 39.6367Z" stroke="#E0563E" stroke-width="2.10141" stroke-linejoin="round"/>
</svg>
