<svg width="151" height="62" viewBox="0 0 151 62" fill="none" xmlns="http://www.w3.org/2000/svg">
<path fill-rule="evenodd" clip-rule="evenodd" d="M76.6087 26.2435C76.6087 22.8582 76.6087 19.473 76.6087 16.0877C75.8753 16.0877 75.1417 16.0877 74.4083 16.0877C74.4083 19.3601 74.4083 22.6326 74.4083 25.905C73.3694 25.6243 72.3538 25.2575 71.3616 24.8048C70.8538 24.7484 70.346 24.6919 69.8382 24.6355C68.1304 23.5988 66.6916 22.2729 65.522 20.6578C65.0491 19.8031 64.7106 18.9002 64.5064 17.9496C64.1046 17.6045 63.7661 17.2096 63.4909 16.7648C63.424 16.4806 63.4523 16.1986 63.5755 15.9185C63.1667 15.1732 63.0257 14.3833 63.1523 13.5488C63.7913 12.0955 64.0735 10.5722 63.9987 8.97872C64.7827 6.36528 66.1085 4.08024 67.9763 2.1236C68.4633 1.93287 68.9711 1.82002 69.4997 1.78507C70.1798 1.27375 70.8003 0.709545 71.3616 0.0924479C72.3771 -0.0203993 73.3927 -0.0203993 74.4083 0.0924479C74.8228 0.215095 75.2179 0.384358 75.5931 0.600235C75.9362 0.684494 76.2748 0.656278 76.6087 0.515604C76.8719 0.55318 77.0977 0.666027 77.2858 0.854129C77.5923 0.644345 77.9308 0.531498 78.3013 0.515604C79.2164 0.630161 80.0063 0.996902 80.671 1.61581C83.7299 2.2487 85.6201 4.08237 86.3413 7.11684C87.2617 7.84704 87.713 8.80608 87.6954 9.9943C87.9241 12.3411 87.7548 14.6544 87.1876 16.9341C86.322 18.628 85.5886 20.377 84.9872 22.1812C83.1879 23.5277 81.298 24.7408 79.3169 25.8203C78.4486 26.1724 77.5459 26.3134 76.6087 26.2435Z" fill="#AE2626"/>
<path fill-rule="evenodd" clip-rule="evenodd" d="M76.6067 26.2436C76.6067 29.6289 76.6067 33.0141 76.6067 36.3994C75.8732 36.3994 75.1397 36.3994 74.4062 36.3994C74.4062 32.9012 74.4062 29.4033 74.4062 25.9051C74.4062 22.6328 74.4062 19.3602 74.4062 16.0879C75.1397 16.0879 75.8732 16.0879 76.6067 16.0879C76.6067 19.4731 76.6067 22.8584 76.6067 26.2436Z" fill="#11191B"/>
<path fill-rule="evenodd" clip-rule="evenodd" d="M0.609375 50.1099C4.16998 50.0395 7.72449 50.1241 11.2729 50.3638C12.1764 50.7035 12.7123 51.3525 12.8809 52.3103C13.1573 53.8293 12.7907 55.1553 11.7807 56.288C11.2961 56.5248 10.7883 56.6941 10.2573 56.7958C9.01732 56.8804 7.77611 56.9085 6.53356 56.8804C6.53356 58.3474 6.53356 59.8142 6.53356 61.2812C7.05353 61.2276 7.56132 61.2839 8.05692 61.4505C5.57689 61.6196 3.09445 61.6761 0.609375 61.6198C0.94922 61.3518 1.34416 61.1826 1.79421 61.112C1.79421 57.6138 1.79421 54.1159 1.79421 50.6177C1.34416 50.5471 0.94922 50.3779 0.609375 50.1099Z" fill="#131A1D"/>
<path fill-rule="evenodd" clip-rule="evenodd" d="M24.6446 61.4513C22.4998 61.4796 20.3558 61.4513 18.2126 61.3667C18.5863 61.3344 18.9248 61.2498 19.2282 61.1128C18.946 60.0972 18.664 59.0817 18.3818 58.0661C17.0413 58.0128 15.7155 58.0691 14.4042 58.2354C14.2298 59.1567 14.3991 60.003 14.912 60.7743C15.3461 61.0585 15.8256 61.1714 16.3507 61.1128C16.3507 61.2821 16.3507 61.4513 16.3507 61.6206C14.9402 61.6206 13.5296 61.6206 12.1191 61.6206C12.6758 60.9645 13.1554 60.231 13.5579 59.4202C14.6183 56.3797 15.6621 53.333 16.6892 50.28C17.9821 50.1113 19.2796 50.0547 20.5823 50.1108C21.6865 53.7905 22.8431 57.4579 24.0521 61.1128C24.2725 61.2118 24.47 61.3246 24.6446 61.4513Z" fill="#141B1E"/>
<path fill-rule="evenodd" clip-rule="evenodd" d="M32.4313 55.8643C32.0747 55.7005 31.6796 55.6439 31.2464 55.695C31.2464 57.5569 31.2464 59.4188 31.2464 61.2807C31.6835 61.2003 32.022 61.3132 32.262 61.6192C29.8854 61.7291 27.5721 61.6162 25.3223 61.2807C25.7737 61.2807 26.2249 61.2807 26.6764 61.2807C26.6764 57.6698 26.6764 54.0588 26.6764 50.4479C26.2249 50.4479 25.7737 50.4479 25.3223 50.4479C26.8697 50.2224 28.4777 50.1097 30.1462 50.1094C31.7542 50.1376 33.3622 50.1657 34.9702 50.194C37.085 50.3832 37.9596 51.54 37.5938 53.6639C37.2944 54.5838 36.7019 55.2326 35.8165 55.6104C36.3626 55.8132 36.8421 56.1234 37.2553 56.5413C37.4685 57.7082 37.5813 58.8931 37.5938 60.0959C37.7067 60.3215 37.8194 60.3215 37.9323 60.0959C38.0141 59.9354 38.0422 59.7661 38.0169 59.5881C38.1862 59.5881 38.3555 59.5881 38.5247 59.5881C38.3394 61.1827 37.4365 61.9161 35.8165 61.7885C34.7143 61.844 33.8963 61.3927 33.3622 60.4344C33.0389 58.9868 32.8697 57.5199 32.8544 56.0336C32.7409 55.9063 32.5999 55.8497 32.4313 55.8643Z" fill="#141A1D"/>
<path fill-rule="evenodd" clip-rule="evenodd" d="M39.709 50.1094C43.2071 50.1094 46.7051 50.1094 50.2033 50.1094C50.2591 51.2996 50.2027 52.4845 50.034 53.6639C49.7782 52.4794 49.1576 51.5484 48.1721 50.8711C47.8444 50.7334 47.5059 50.6488 47.1565 50.6172C46.6276 50.4515 46.0634 50.3949 45.4639 50.4479C45.4084 52.2275 45.4649 53.9765 45.6332 55.695C46.3864 55.7556 46.9788 55.4736 47.4104 54.8487C47.5973 54.2252 47.7946 53.6046 48.0028 52.9868C48.2285 54.9051 48.2285 56.8235 48.0028 58.7418C47.8767 58.0982 47.6794 57.4775 47.4104 56.8799C46.9539 56.3095 46.3615 56.0837 45.6332 56.2028C45.4649 57.8648 45.4086 59.5574 45.4639 61.2807C45.9717 61.2807 46.4795 61.2807 46.9873 61.2807C44.6242 61.6163 42.1982 61.7292 39.709 61.6192C40.0101 61.3071 40.405 61.1944 40.8938 61.2807C40.8938 57.6698 40.8938 54.0588 40.8938 50.4479C40.405 50.5342 40.0101 50.4215 39.709 50.1094Z" fill="#131A1D"/>
<path fill-rule="evenodd" clip-rule="evenodd" d="M58.3278 50.4479C57.9329 50.4479 57.5378 50.4479 57.1429 50.4479C57.0871 53.8626 57.1434 57.2478 57.3122 60.6036C57.3247 60.9271 57.494 61.1246 57.82 61.1961C59.5131 61.4078 60.6133 60.7025 61.1206 59.0803C61.2709 56.7037 61.2144 54.334 60.9513 51.9713C60.7731 50.9748 60.1807 50.5234 59.1741 50.6172C59.1741 50.4479 59.1741 50.2786 59.1741 50.1094C60.5282 50.1094 61.8823 50.1094 63.2364 50.1094C63.2364 50.2786 63.2364 50.4479 63.2364 50.6172C62.2882 50.7499 61.7521 51.314 61.6284 52.3098C61.572 54.6795 61.5155 57.0491 61.4591 59.4188C61.0796 60.7573 60.2051 61.5754 58.8356 61.8731C56.9747 62.182 55.2257 61.8999 53.5884 61.0268C52.8738 60.4352 52.5353 59.6735 52.5728 58.7418C52.5728 55.9772 52.5728 53.2125 52.5728 50.4479C52.1214 50.4479 51.6702 50.4479 51.2188 50.4479C52.3415 50.2228 53.5263 50.1099 54.7733 50.1094C56.0202 50.1099 57.2051 50.2228 58.3278 50.4479Z" fill="#131A1D"/>
<path fill-rule="evenodd" clip-rule="evenodd" d="M79.9933 50.1109C79.632 50.4272 79.1805 50.5401 78.6392 50.4494C78.6392 54.0603 78.6392 57.6713 78.6392 61.2822C79.1805 61.1915 79.632 61.3044 79.9933 61.6207C77.6237 61.6207 75.254 61.6207 72.8843 61.6207C73.2457 61.3044 73.6971 61.1915 74.2384 61.2822C74.2667 58.1221 74.2384 54.9626 74.1538 51.8035C74.0324 51.8956 73.9478 52.0085 73.8999 52.142C72.7843 55.1783 71.6841 58.225 70.5993 61.2822C70.2565 61.6588 69.8616 61.7153 69.4144 61.4515C68.2629 58.2788 67.0781 55.1192 65.8599 51.9728C65.747 54.3988 65.747 56.825 65.8599 59.2511C66.0343 60.4662 66.683 61.1998 67.8064 61.4515C66.4512 61.4796 65.0971 61.4515 63.7441 61.3668C63.8383 61.302 63.8946 61.2174 63.9134 61.1129C64.4803 60.9125 64.8469 60.5176 65.0136 59.9281C65.2838 56.9454 65.3403 53.955 65.1829 50.9572C65.1196 50.8022 65.0349 50.661 64.929 50.534C64.5774 50.5015 64.2389 50.4169 63.9134 50.2801C65.9422 50.0828 67.9733 50.0545 70.0068 50.1955C70.7895 52.0071 71.5229 53.8407 72.2073 55.6965C72.9171 53.9057 73.5942 52.1004 74.2384 50.2801C76.1534 50.1111 78.0717 50.0547 79.9933 50.1109Z" fill="#141A1D"/>
<path fill-rule="evenodd" clip-rule="evenodd" d="M86.5938 61.2818C86.9886 61.2818 87.3837 61.2818 87.7786 61.2818C87.7786 57.6709 87.7786 54.0599 87.7786 50.449C87.3837 50.449 86.9886 50.449 86.5938 50.449C87.9998 50.2237 89.4666 50.1108 90.9946 50.1105C97.729 49.0301 100.465 51.7947 99.2038 58.4044C98.5738 60.0508 97.4171 61.0946 95.7339 61.5357C94.2106 61.564 92.6872 61.5921 91.1638 61.6203C89.5797 61.62 88.0563 61.5073 86.5938 61.2818Z" fill="#13191C"/>
<path fill-rule="evenodd" clip-rule="evenodd" d="M111.138 50.111C111.244 51.3657 111.131 52.5506 110.799 53.6655C110.685 52.3955 110.065 51.4646 108.937 50.8727C108.217 50.6502 107.484 50.5093 106.737 50.4495C106.737 52.1421 106.737 53.8348 106.737 55.5274C107.49 55.588 108.082 55.306 108.514 54.6811C108.783 54.0834 108.98 53.4627 109.106 52.8192C109.332 54.7374 109.332 56.6558 109.106 58.5741C109.078 56.9678 108.288 56.065 106.737 55.8659C106.737 57.6149 106.737 59.364 106.737 61.113C107.946 61.1332 109.018 60.7664 109.953 60.0128C110.582 59.1719 111.09 58.2975 111.476 57.3893C111.476 58.7434 111.476 60.0975 111.476 61.4516C107.922 61.4516 104.367 61.4516 100.812 61.4516C101.169 61.2877 101.564 61.2312 101.997 61.2823C101.997 57.6714 101.997 54.0604 101.997 50.4495C101.587 50.5016 101.192 50.4451 100.812 50.2802C104.252 50.111 107.694 50.0546 111.138 50.111Z" fill="#131A1D"/>
<path fill-rule="evenodd" clip-rule="evenodd" d="M111.137 50.1094C111.305 51.3193 111.362 52.5605 111.307 53.8331C111.088 53.8733 110.919 53.8169 110.799 53.6639C111.131 52.549 111.244 51.3641 111.137 50.1094Z" fill="#8D9091"/>
<path fill-rule="evenodd" clip-rule="evenodd" d="M118.246 50.111C120.506 50.0546 122.763 50.1111 125.017 50.2802C124.696 50.4437 124.357 50.5001 124.001 50.4495C124.723 52.7836 125.513 55.0969 126.371 57.3892C127.229 55.7169 127.85 53.9678 128.233 52.1421C128.371 51.0959 127.919 50.5881 126.878 50.6187C126.878 50.4495 126.878 50.2802 126.878 50.111C128.176 50.111 129.474 50.111 130.772 50.111C130.46 50.6797 130.037 51.1875 129.502 51.6343C128.003 54.9212 126.62 58.2501 125.355 61.6208C124.452 61.6208 123.55 61.6208 122.647 61.6208C121.496 57.9431 120.311 54.2757 119.092 50.6187C118.749 50.5388 118.466 50.3696 118.246 50.111Z" fill="#141B1E"/>
<path fill-rule="evenodd" clip-rule="evenodd" d="M138.558 50.4479C138.106 50.4479 137.655 50.4479 137.203 50.4479C137.203 54.0588 137.203 57.6698 137.203 61.2807C137.655 61.2807 138.106 61.2807 138.558 61.2807C137.406 61.506 136.193 61.6187 134.918 61.6192C133.643 61.6187 132.43 61.506 131.279 61.2807C131.731 61.2807 132.182 61.2807 132.633 61.2807C132.633 57.6698 132.633 54.0588 132.633 50.4479C132.182 50.4479 131.731 50.4479 131.279 50.4479C132.43 50.2226 133.643 50.1099 134.918 50.1094C136.193 50.1099 137.406 50.2226 138.558 50.4479Z" fill="#12191C"/>
<path fill-rule="evenodd" clip-rule="evenodd" d="M146.343 50.6173C146.103 50.4564 145.821 50.4 145.496 50.4481C145.496 52.1407 145.496 53.8333 145.496 55.526C145.821 55.574 146.103 55.5177 146.343 55.3567C146.712 55.2991 147.022 55.1299 147.274 54.8489C147.502 54.1223 147.756 53.4452 148.035 52.8178C148.064 54.6805 148.035 56.5424 147.951 58.4034C147.915 58.1397 147.831 57.9141 147.697 57.7264C147.645 56.8272 147.193 56.2629 146.343 56.0337C146.103 55.8728 145.821 55.8164 145.496 55.8645C145.496 57.67 145.496 59.4754 145.496 61.2809C145.767 61.3262 145.993 61.2697 146.173 61.1116C148.328 60.7633 149.682 59.5221 150.236 57.3878C150.405 58.7939 150.461 60.2044 150.405 61.6194C146.851 61.6194 143.296 61.6194 139.742 61.6194C140.043 61.3073 140.438 61.1946 140.926 61.2809C140.926 57.67 140.926 54.059 140.926 50.4481C140.475 50.4481 140.024 50.4481 139.572 50.4481C143.009 50.1116 146.507 49.9987 150.067 50.1096C150.122 51.2998 150.066 52.4846 149.897 53.6641C149.433 51.788 148.248 50.7724 146.343 50.6173Z" fill="#131A1D"/>
<path fill-rule="evenodd" clip-rule="evenodd" d="M0.607572 50.1094C0.947417 50.3773 1.34236 50.5466 1.79241 50.6172C1.34104 50.6172 0.889681 50.6172 0.438309 50.6172C0.398143 50.3986 0.454558 50.2294 0.607572 50.1094Z" fill="#999C9D"/>
<path fill-rule="evenodd" clip-rule="evenodd" d="M118.246 50.1094C118.467 50.368 118.749 50.5373 119.093 50.6172C118.754 50.6172 118.415 50.6172 118.077 50.6172C118.037 50.3986 118.093 50.2294 118.246 50.1094Z" fill="#929597"/>
<path fill-rule="evenodd" clip-rule="evenodd" d="M6.5332 50.4495C7.1742 50.3334 7.71025 50.5026 8.1412 50.9573C8.16946 51.7753 8.19756 52.5935 8.22583 53.4116C8.24614 54.3606 8.16151 55.2916 7.97193 56.2044C7.53778 56.4886 7.05826 56.6015 6.5332 56.5429C6.5332 54.5118 6.5332 52.4806 6.5332 50.4495Z" fill="#FBFBFB"/>
<path fill-rule="evenodd" clip-rule="evenodd" d="M25.3223 50.4492C25.7737 50.4492 26.2249 50.4492 26.6764 50.4492C26.6764 54.0601 26.6764 57.6711 26.6764 61.282C26.2249 61.282 25.7737 61.282 25.3223 61.282C25.6789 61.1182 26.074 61.0616 26.5071 61.1128C26.5071 57.6146 26.5071 54.1166 26.5071 50.6185C26.074 50.6696 25.6789 50.6131 25.3223 50.4492Z" fill="#666A6C"/>
<path fill-rule="evenodd" clip-rule="evenodd" d="M32.2607 50.6185C31.9786 50.6185 31.6966 50.6185 31.4144 50.6185C31.4144 52.1982 31.4144 53.7781 31.4144 55.3578C31.2462 53.7522 31.1898 52.1161 31.2452 50.4492C31.6235 50.3993 31.962 50.4558 32.2607 50.6185Z" fill="#C3C5C6"/>
<path fill-rule="evenodd" clip-rule="evenodd" d="M32.2623 50.6186C32.4861 50.5898 32.6836 50.6462 32.8547 50.7879C32.9676 52.142 32.9676 53.4961 32.8547 54.8502C32.4903 55.2943 32.0106 55.4636 31.416 55.358C31.416 53.7782 31.416 52.1983 31.416 50.6186C31.6982 50.6186 31.9802 50.6186 32.2623 50.6186Z" fill="#FCFCFC"/>
<path fill-rule="evenodd" clip-rule="evenodd" d="M39.7072 50.1094C40.0083 50.4215 40.4032 50.5342 40.892 50.4479C40.892 54.0588 40.892 57.6698 40.892 61.2807C40.4032 61.1944 40.0083 61.3071 39.7072 61.6192C39.5541 61.4992 39.4978 61.3299 39.5379 61.1114C39.9328 61.1114 40.3278 61.1114 40.7227 61.1114C40.7227 57.6133 40.7227 54.1153 40.7227 50.6172C40.3278 50.6172 39.9328 50.6172 39.5379 50.6172C39.4978 50.3986 39.5541 50.2294 39.7072 50.1094Z" fill="#B8BABB"/>
<path fill-rule="evenodd" clip-rule="evenodd" d="M47.1566 50.6162C46.6488 50.6162 46.141 50.6162 45.6333 50.6162C45.6333 52.3088 45.6333 54.0015 45.6333 55.6941C45.465 53.9756 45.4085 52.2266 45.464 50.447C46.0635 50.394 46.6277 50.4505 47.1566 50.6162Z" fill="#6D7173"/>
<path fill-rule="evenodd" clip-rule="evenodd" d="M51.2188 50.4492C51.6702 50.4492 52.1214 50.4492 52.5728 50.4492C52.5728 53.2138 52.5728 55.9785 52.5728 58.7431C52.4043 56.0645 52.3477 53.3563 52.4036 50.6185C51.9704 50.6696 51.5754 50.6131 51.2188 50.4492Z" fill="#9A9D9E"/>
<path fill-rule="evenodd" clip-rule="evenodd" d="M58.3268 50.4492C58.028 50.6119 57.6895 50.6684 57.3112 50.6185C57.3112 53.9474 57.3112 57.2761 57.3112 60.605C57.1425 57.2492 57.0861 53.8639 57.1419 50.4492C57.5368 50.4492 57.9319 50.4492 58.3268 50.4492Z" fill="#909394"/>
<path fill-rule="evenodd" clip-rule="evenodd" d="M79.9928 50.1094C80.1458 50.2294 80.2021 50.3986 80.162 50.6172C79.7106 50.6172 79.2594 50.6172 78.8079 50.6172C78.8079 54.1153 78.8079 57.6133 78.8079 61.1114C79.2594 61.1114 79.7106 61.1114 80.162 61.1114C80.2021 61.3299 80.1458 61.4992 79.9928 61.6192C79.6314 61.3029 79.18 61.19 78.6387 61.2807C78.6387 57.6698 78.6387 54.0588 78.6387 50.4479C79.18 50.5386 79.6314 50.4257 79.9928 50.1094Z" fill="#5C6062"/>
<path fill-rule="evenodd" clip-rule="evenodd" d="M86.5938 50.4492C86.9886 50.4492 87.3837 50.4492 87.7786 50.4492C87.7786 54.0601 87.7786 57.6711 87.7786 61.282C87.3837 61.282 86.9886 61.282 86.5938 61.282C86.8925 61.1194 87.231 61.0628 87.6093 61.1128C87.6093 57.6146 87.6093 54.1166 87.6093 50.6185C87.231 50.6684 86.8925 50.6119 86.5938 50.4492Z" fill="#D8D9DA"/>
<path fill-rule="evenodd" clip-rule="evenodd" d="M93.873 50.6179C93.4215 50.6179 92.9703 50.6179 92.5189 50.6179C92.5189 54.1161 92.5189 57.614 92.5189 61.1122C92.9138 61.1122 93.3088 61.1122 93.7037 61.1122C93.2894 61.2769 92.8379 61.3332 92.3496 61.2815C92.3496 57.6706 92.3496 54.0595 92.3496 50.4487C92.8934 50.3962 93.4012 50.4526 93.873 50.6179Z" fill="#505557"/>
<path fill-rule="evenodd" clip-rule="evenodd" d="M93.8736 50.6172C94.1304 50.619 94.3279 50.7318 94.466 50.9557C94.5789 54.0588 94.5789 57.1621 94.466 60.2651C94.4132 60.7406 94.1593 61.0228 93.7044 61.1115C93.3095 61.1115 92.9144 61.1115 92.5195 61.1115C92.5195 57.6133 92.5195 54.1153 92.5195 50.6172C92.971 50.6172 93.4222 50.6172 93.8736 50.6172Z" fill="#FAFAFB"/>
<path fill-rule="evenodd" clip-rule="evenodd" d="M131.279 50.4492C131.731 50.4492 132.182 50.4492 132.633 50.4492C132.633 54.0601 132.633 57.6711 132.633 61.282C132.182 61.282 131.731 61.282 131.279 61.282C131.636 61.1182 132.031 61.0616 132.464 61.1128C132.464 57.6146 132.464 54.1166 132.464 50.6185C132.031 50.6696 131.636 50.6131 131.279 50.4492Z" fill="#9A9D9E"/>
<path fill-rule="evenodd" clip-rule="evenodd" d="M138.559 50.4492C138.203 50.6131 137.807 50.6696 137.374 50.6185C137.374 54.1166 137.374 57.6146 137.374 61.1128C137.807 61.0616 138.203 61.1182 138.559 61.282C138.108 61.282 137.657 61.282 137.205 61.282C137.205 57.6711 137.205 54.0601 137.205 50.4492C137.657 50.4492 138.108 50.4492 138.559 50.4492Z" fill="#8E9193"/>
<path fill-rule="evenodd" clip-rule="evenodd" d="M139.573 50.4492C140.024 50.4492 140.476 50.4492 140.927 50.4492C140.927 54.0601 140.927 57.6711 140.927 61.282C140.438 61.1957 140.043 61.3084 139.742 61.6205C139.589 61.5005 139.533 61.3313 139.573 61.1128C139.968 61.1128 140.363 61.1128 140.758 61.1128C140.758 57.6146 140.758 54.1166 140.758 50.6185C140.325 50.6696 139.93 50.6131 139.573 50.4492Z" fill="#929697"/>
<path fill-rule="evenodd" clip-rule="evenodd" d="M146.342 50.6175C146.117 50.6175 145.891 50.6175 145.665 50.6175C145.665 52.1972 145.665 53.7771 145.665 55.3568C145.891 55.3568 146.117 55.3568 146.342 55.3568C146.102 55.5178 145.82 55.5742 145.496 55.5261C145.496 53.8335 145.496 52.1409 145.496 50.4482C145.82 50.4002 146.102 50.4565 146.342 50.6175Z" fill="#989B9C"/>
<path fill-rule="evenodd" clip-rule="evenodd" d="M72.8849 61.618C72.7319 61.498 72.6755 61.3287 72.7156 61.1102C73.1671 61.1102 73.6183 61.1102 74.0697 61.1102C74.1256 58.0904 74.0692 55.1 73.9005 52.1393C73.9484 52.0058 74.033 51.8929 74.1544 51.8008C74.239 54.9599 74.2673 58.1193 74.239 61.2795C73.6977 61.1888 73.2463 61.3016 72.8849 61.618Z" fill="#666B6D"/>
<path fill-rule="evenodd" clip-rule="evenodd" d="M18.0441 57.5557C16.9007 57.6612 15.8288 57.5483 14.8281 57.2172C15.2345 55.5341 15.7704 53.898 16.4361 52.3086C17.0516 54.0374 17.5874 55.7864 18.0441 57.5557Z" fill="#F4F5F5"/>
<path fill-rule="evenodd" clip-rule="evenodd" d="M148.038 52.8164C148.206 54.7044 148.263 56.6228 148.207 58.5713C148.038 58.5713 147.868 58.5713 147.699 58.5713C147.699 58.2892 147.699 58.0072 147.699 57.725C147.833 57.9127 147.918 58.1384 147.953 58.4021C148.038 56.541 148.066 54.6791 148.038 52.8164Z" fill="#686C6E"/>
<path fill-rule="evenodd" clip-rule="evenodd" d="M32.429 55.8633C32.0905 55.8633 31.7519 55.8633 31.4134 55.8633C31.4134 57.6122 31.4134 59.3614 31.4134 61.1104C31.7519 61.1104 32.0905 61.1104 32.429 61.1104C32.4691 61.3289 32.4127 61.4982 32.2597 61.6182C32.0197 61.3121 31.6812 61.1993 31.2441 61.2796C31.2441 59.4178 31.2441 57.5559 31.2441 55.694C31.6773 55.6429 32.0723 55.6994 32.429 55.8633Z" fill="#BCBEBF"/>
<path fill-rule="evenodd" clip-rule="evenodd" d="M146.342 56.0335C146.117 56.0335 145.891 56.0335 145.665 56.0335C145.665 57.7261 145.665 59.4188 145.665 61.1114C145.835 61.1114 146.004 61.1114 146.173 61.1114C145.992 61.2695 145.767 61.326 145.496 61.2806C145.496 59.4751 145.496 57.6698 145.496 55.8642C145.82 55.8162 146.102 55.8725 146.342 56.0335Z" fill="#96999B"/>
<path fill-rule="evenodd" clip-rule="evenodd" d="M45.6332 56.2031C45.6332 57.8394 45.6332 59.4755 45.6332 61.1117C46.1215 61.0599 46.5729 61.1163 46.9873 61.281C46.4795 61.281 45.9717 61.281 45.4639 61.281C45.4086 59.5577 45.4649 57.8651 45.6332 56.2031Z" fill="#6C7072"/>
<path fill-rule="evenodd" clip-rule="evenodd" d="M14.8283 57.2188C15.8289 57.5498 16.9009 57.6627 18.0442 57.5573C16.9476 57.725 15.8191 57.7814 14.659 57.7265C14.6189 57.508 14.6752 57.3388 14.8283 57.2188Z" fill="#AFB1B2"/>
<path fill-rule="evenodd" clip-rule="evenodd" d="M1.79241 61.1113C1.34236 61.1819 0.947417 61.3512 0.607572 61.6191C0.454558 61.4991 0.398143 61.3298 0.438309 61.1113C0.889681 61.1113 1.34104 61.1113 1.79241 61.1113Z" fill="#8D9091"/>
<path fill-rule="evenodd" clip-rule="evenodd" d="M19.2278 61.1113C18.9245 61.2483 18.586 61.3329 18.2122 61.3652C20.3554 61.4499 22.4995 61.4781 24.6442 61.4499C22.4738 61.6183 20.2733 61.6748 18.043 61.6191C18.043 61.4499 18.043 61.2806 18.043 61.1113C18.4379 61.1113 18.8329 61.1113 19.2278 61.1113Z" fill="#373E40"/>
<path fill-rule="evenodd" clip-rule="evenodd" d="M63.9135 61.1113C63.8947 61.2158 63.8384 61.3004 63.7443 61.3652C65.0972 61.4499 66.4513 61.478 67.8066 61.4499C66.4271 61.6179 65.0166 61.6743 63.575 61.6191C63.5386 61.3349 63.6515 61.1657 63.9135 61.1113Z" fill="#353C3E"/>
<path fill-rule="evenodd" clip-rule="evenodd" d="M111.476 57.3867C111.644 58.7662 111.7 60.1767 111.645 61.6183C108.005 61.6743 104.394 61.6178 100.812 61.449C104.367 61.449 107.922 61.449 111.476 61.449C111.476 60.0949 111.476 58.7408 111.476 57.3867Z" fill="#3C4244"/>
</svg>
