<svg width="240" height="270" viewBox="0 0 240 270" fill="none" xmlns="http://www.w3.org/2000/svg">
<g clip-path="url(#clip0_940_2275)">
<path d="M189.899 154.08C190.101 154.099 190.304 154.055 190.481 153.955C190.657 153.854 190.798 153.702 190.885 153.519C190.972 153.335 191 153.13 190.966 152.929C190.932 152.729 190.838 152.545 190.695 152.4C190.675 152.3 190.661 152.228 190.64 152.128C190.65 152.106 190.66 152.085 190.67 152.064C190.897 151.592 191.257 151.197 191.708 150.929C192.158 150.661 192.677 150.532 193.2 150.559C193.723 150.585 194.227 150.765 194.648 151.077C195.069 151.388 195.388 151.818 195.566 152.31C196.277 154.277 197.207 156.257 197.363 158.308C197.431 159.215 197.342 160.127 197.099 161.003C199.171 156.987 200.356 152.572 200.572 148.058C200.625 146.925 200.615 145.79 200.541 144.658C200.48 143.73 200.378 142.807 200.236 141.889C199.458 136.905 197.508 132.178 194.548 128.094C193.066 127.193 191.895 125.859 191.193 124.272C190.939 123.701 190.769 123.097 190.688 122.477C190.858 122.508 191.032 122.53 191.203 122.549C191.256 122.554 191.313 122.56 191.366 122.565L191.386 122.567C191.574 122.584 191.763 122.547 191.931 122.459C192.098 122.371 192.237 122.237 192.33 122.072C192.422 121.907 192.466 121.719 192.454 121.531C192.443 121.342 192.377 121.161 192.265 121.009C192.195 120.914 192.125 120.819 192.055 120.725C191.949 120.579 191.84 120.436 191.734 120.29C191.722 120.276 191.71 120.261 191.699 120.246C191.577 120.079 191.455 119.916 191.333 119.749C191.587 119.394 191.919 119.101 192.304 118.895C193.636 118.196 195.401 118.805 196.283 120.022C197.168 121.239 197.269 122.894 196.874 124.344C196.495 125.577 195.909 126.736 195.141 127.772C195.208 127.865 195.277 127.956 195.343 128.049C196.552 129.762 197.589 131.59 198.442 133.506C198.311 131.398 198.682 129.289 199.525 127.353C200.372 125.551 201.872 124.07 203.203 122.54C204.801 120.702 207.858 121.679 208.012 124.11C208.013 124.134 208.015 124.157 208.016 124.181C207.824 124.277 207.636 124.381 207.452 124.491C207.22 124.63 207.036 124.837 206.924 125.083C206.812 125.329 206.776 125.603 206.823 125.869C206.869 126.136 206.994 126.382 207.183 126.576C207.371 126.77 207.614 126.903 207.879 126.956L207.906 126.962C207.808 127.632 207.66 128.293 207.462 128.94C206.891 130.747 205.953 132.416 204.707 133.843C203.461 135.269 201.934 136.423 200.222 137.232C200.109 137.284 200 137.335 199.887 137.383C200.707 140.102 201.169 142.916 201.263 145.755C201.313 147.429 201.227 149.105 201.007 150.765L201.018 150.707C201.465 148.869 202.531 147.243 204.038 146.101C206.275 144.432 209.349 143.922 211.739 142.607C211.993 142.46 212.284 142.389 212.578 142.402C212.871 142.415 213.155 142.511 213.396 142.68C213.636 142.849 213.823 143.083 213.935 143.355C214.047 143.627 214.078 143.925 214.026 144.214C214.022 144.235 214.018 144.255 214.014 144.276C213.661 144.401 213.316 144.548 212.981 144.716C212.789 144.812 212.602 144.916 212.417 145.026C212.186 145.165 212.002 145.372 211.889 145.618C211.777 145.864 211.741 146.138 211.788 146.404C211.834 146.671 211.959 146.917 212.148 147.111C212.336 147.305 212.579 147.438 212.844 147.491L212.871 147.497C212.891 147.5 212.908 147.504 212.927 147.508C212.269 148.894 211.378 150.156 210.292 151.24C208.952 152.55 207.358 153.573 205.609 154.246C203.859 154.918 201.991 155.227 200.118 155.151L200.115 155.151C199.504 157.336 198.667 159.452 197.619 161.464L189.77 161.099C189.746 161.01 189.725 160.919 189.703 160.831C190.428 160.91 191.159 160.901 191.881 160.802C191.332 160.061 190.783 159.313 190.234 158.571C190.222 158.557 190.21 158.543 190.2 158.527C189.921 158.148 189.64 157.771 189.361 157.391L189.361 157.391C189.398 156.269 189.578 155.156 189.899 154.08L189.899 154.08Z" fill="#FBF9F5"/>
<path d="M31.7432 86.1935C31.5427 86.2247 31.3375 86.1935 31.1553 86.1041C30.9732 86.0147 30.8229 85.8715 30.7248 85.6938C30.6268 85.5162 30.5857 85.3127 30.6071 85.1109C30.6286 84.9091 30.7116 84.7188 30.8448 84.5657C30.8589 84.4644 30.869 84.3916 30.8831 84.2903C30.8718 84.2698 30.8606 84.2494 30.8493 84.2289C30.5941 83.7714 30.2095 83.3996 29.7437 83.16C29.278 82.9205 28.7518 82.8239 28.2313 82.8825C27.7109 82.9411 27.2193 83.1522 26.8184 83.4893C26.4176 83.8264 26.1252 84.2744 25.9781 84.7772C25.3898 86.7838 24.5842 88.8174 24.5552 90.8746C24.5427 91.7839 24.688 92.6884 24.9847 93.548C22.6685 89.6675 21.2137 85.3342 20.7188 80.8419C20.5958 79.7145 20.5359 78.5811 20.5394 77.447C20.5432 76.5172 20.5877 75.5896 20.6731 74.6641C21.1422 69.642 22.7956 64.8029 25.4977 60.544C26.9219 59.5531 28.0082 58.1493 28.6101 56.5219C28.8286 55.9366 28.9613 55.3228 29.004 54.6996C28.8357 54.7405 28.6636 54.7734 28.494 54.8032C28.4411 54.8118 28.3854 54.8207 28.3325 54.8293L28.3126 54.8324C28.1258 54.8612 27.9346 54.8354 27.7621 54.7582C27.5896 54.6809 27.4432 54.5554 27.3403 54.3968C27.2375 54.2381 27.1827 54.0532 27.1825 53.8642C27.1824 53.6751 27.2368 53.4901 27.3394 53.3313C27.4032 53.2325 27.4672 53.1337 27.5311 53.035C27.6279 52.8828 27.7278 52.7331 27.8245 52.5809C27.836 52.5662 27.8466 52.5508 27.8564 52.5349C27.9678 52.3613 28.0795 52.1904 28.191 52.0168C27.9162 51.6774 27.5667 51.4061 27.1699 51.224C25.7969 50.6083 24.0731 51.3257 23.2677 52.5949C22.4595 53.8644 22.4613 55.5218 22.9447 56.9455C23.3991 58.1522 24.0556 59.2728 24.886 60.2592C24.8257 60.3565 24.7623 60.4512 24.7021 60.5484C23.6015 62.3333 22.6784 64.2217 21.9461 66.1866C21.9465 64.0745 21.4455 61.9925 20.4843 60.1119C19.5276 58.3658 17.9397 56.9803 16.5169 55.5357C14.8079 53.8004 11.817 54.9642 11.814 57.4C11.814 57.4235 11.814 57.4471 11.8141 57.4707C12.0113 57.5553 12.2053 57.6468 12.396 57.7451C12.6358 57.8702 12.8323 58.0648 12.9596 58.3034C13.0869 58.5421 13.1392 58.8136 13.1096 59.0825C13.08 59.3513 12.9699 59.605 12.7937 59.8102C12.6175 60.0154 12.3834 60.1626 12.1222 60.2324L12.0954 60.2396C12.2344 60.9021 12.4236 61.5531 12.6613 62.187C13.3426 63.9546 14.3816 65.5624 15.7133 66.9095C17.0449 68.2567 18.6404 69.3142 20.3999 70.0157C20.5152 70.0598 20.6276 70.1043 20.7426 70.1456C20.0929 72.9102 19.8053 75.7475 19.8871 78.5862C19.9407 80.2604 20.1296 81.9275 20.4519 83.5713L20.4371 83.5134C19.878 81.7074 18.7129 80.1497 17.1386 79.1034C14.8031 77.5752 11.7036 77.2561 9.23668 76.0918C8.97371 75.9607 8.67873 75.9076 8.38654 75.9386C8.09436 75.9697 7.81714 76.0837 7.5876 76.2672C7.35807 76.4506 7.18577 76.6959 7.09104 76.9741C6.99632 77.2523 6.98311 77.5518 7.05297 77.8372C7.05831 77.8575 7.06371 77.8778 7.06916 77.898C7.42922 78.001 7.78252 78.1262 8.127 78.2731C8.3242 78.3578 8.51818 78.4493 8.70893 78.5476C8.94873 78.6727 9.14516 78.8673 9.27249 79.1059C9.39982 79.3445 9.45211 79.6161 9.4225 79.8849C9.3929 80.1538 9.28278 80.4074 9.10659 80.6126C8.93039 80.8179 8.69632 80.965 8.43506 81.0349L8.40828 81.0421C8.38899 81.047 8.37249 81.0516 8.35323 81.0566C9.09535 82.3994 10.063 83.6043 11.2139 84.6188C12.6325 85.844 14.2864 86.7664 16.0741 87.3296C17.8619 87.8928 19.7458 88.0848 21.6104 87.8939L21.6132 87.8936C22.3581 90.0369 23.3236 92.0969 24.4943 94.0406L32.3061 93.1908C32.3247 93.1009 32.3401 93.0085 32.3559 92.919C31.6378 93.0431 30.9071 93.0788 30.1803 93.0253C30.6826 92.251 31.1842 91.471 31.6864 90.6967C31.6979 90.682 31.7085 90.6666 31.7182 90.6507C31.9726 90.2547 32.2301 89.8611 32.4845 89.4651L32.4846 89.4647C32.379 88.347 32.1298 87.2477 31.7435 86.1937L31.7432 86.1935Z" fill="#FBF9F5"/>
<path d="M139.669 83.2989C140.056 83.4053 140.414 83.5952 140.72 83.8553C141.025 84.1153 141.27 84.4391 141.436 84.8039C141.603 85.1687 141.688 85.5656 141.684 85.9667C141.681 86.3678 141.59 86.7633 141.417 87.1253L145.609 91.7867L143.398 95.0254L137.571 88.3595C136.982 88.0291 136.535 87.4942 136.314 86.8561C136.093 86.2179 136.114 85.5209 136.372 84.8972C136.631 84.2734 137.109 83.7661 137.717 83.4716C138.325 83.177 139.019 83.1156 139.669 83.2989Z" fill="#A0616A"/>
<path d="M178.914 94.7431C178.536 94.1279 178.041 93.5933 177.456 93.1701C176.871 92.7469 176.208 92.4434 175.506 92.2769C174.803 92.1104 174.075 92.0842 173.362 92.1999C172.65 92.3156 171.967 92.5709 171.353 92.9511L157.567 101.491L142.695 88.8477L138.995 92.2932L155.424 113.612L176.776 102.479C176.278 102.739 179.516 95.7233 178.914 94.7431Z" fill="#CCCCCC"/>
<path d="M151.603 123.14C151.604 129.95 150.264 136.694 147.659 142.985C145.054 149.277 141.235 154.994 136.42 159.81C131.606 164.625 125.89 168.445 119.599 171.05C113.308 173.656 106.565 174.996 99.7564 174.995C71.1229 174.995 47.9102 151.778 47.9102 123.14C47.9052 117.569 48.7981 112.034 50.5543 106.748C54.0024 96.4238 60.6082 87.4449 69.4376 81.081C78.267 74.7172 88.8732 71.2903 99.7564 71.2852C109.142 71.2819 118.353 73.828 126.405 78.6516C134.458 83.4752 141.049 90.3953 145.476 98.6731C146.574 100.715 147.531 102.83 148.342 105.002C148.454 105.305 148.564 105.607 148.67 105.913V105.915C149.146 107.258 149.564 108.625 149.926 110.018C151.043 114.302 151.606 118.712 151.603 123.14Z" fill="#3F3D56"/>
<path d="M94.0832 88.153C91.7533 86.8928 89.1663 86.1814 86.5197 86.0731C83.8731 85.9648 81.2368 86.4625 78.8117 87.5281C76.6764 88.4575 74.4281 90.1247 73.7158 93.1355C76.5967 91.435 80.3259 94.1217 81.0672 98.4318L80.8942 98.4795C80.5026 101.465 81.3767 104.715 83.0689 106.566C83.2911 104.643 84.5552 103.335 85.7985 102.517C87.0418 101.7 88.4173 101.106 89.3662 99.7009C90.4913 98.0352 90.777 95.6006 91.2239 93.3798C91.6708 91.1589 92.5188 88.7718 94.0832 88.153Z" fill="white"/>
<path d="M77.9583 113.557C77.1604 114.756 76.0947 115.508 75.1384 116.444C74.1851 117.383 73.2777 118.651 73.0876 120.278C72.9666 121.321 73.1539 122.381 73.1279 123.436C73.102 124.49 72.7506 125.677 72.0334 125.939C70.9014 126.348 70.0373 124.245 68.8737 124.098C67.9491 123.983 67.1167 125.438 67.3845 126.7C67.6524 127.961 68.9111 128.52 69.6341 127.696C70.2879 128.794 69.8271 130.785 68.8449 131.122C68.7412 131.813 68.6375 132.502 68.5367 133.193C66.0538 131.456 63.545 129.69 61.4338 127.146C59.0856 124.341 57.6292 120.898 57.2515 117.259C56.9779 114.335 57.384 110.991 56.0418 108.741C54.9674 106.94 53.1239 106.543 51.4648 106.655C51.1624 106.675 50.8571 106.71 50.5547 106.747C51.5331 103.808 52.7758 100.964 54.2674 98.2487C54.605 98.1038 54.9187 97.9085 55.1978 97.6697C56.7417 96.3589 57.4272 93.7056 58.6801 91.8705C58.7608 91.7524 58.8443 91.6372 58.9307 91.5249C60.2125 89.8511 61.9292 88.9897 63.5883 88.1888C67.2607 86.4056 71.0397 84.5994 74.9166 84.8471L73.8135 84.9537C72.526 88.5605 71.2375 92.1673 69.948 95.7741C69.7522 96.3272 69.5544 96.8812 69.3547 97.4363C68.6231 99.4874 67.8684 101.671 67.9808 103.967C68.047 105.327 68.5194 106.779 69.4181 107.245C70.2562 107.678 71.1722 107.148 71.9815 106.623C72.3243 106.404 72.6642 106.185 73.007 105.963C74.2369 105.171 75.5993 104.359 76.8983 104.889C78.0879 105.373 78.9664 106.989 79.1335 108.732C79.2866 110.426 78.8733 112.123 77.9583 113.557Z" fill="white"/>
<path d="M85.2721 138.182C81.68 135.97 78.088 133.758 74.4959 131.546L74.5568 131.389C72.3235 132.239 71.3962 136.21 71.7653 139.457C72.1344 142.704 73.3859 145.607 74.0182 148.771C74.8707 153.101 74.5489 157.58 73.0863 161.743C77.8097 156.442 81.9898 150.681 85.564 144.546C86.0633 143.773 86.4437 142.929 86.6927 142.043C86.9209 141.1 86.8858 139.967 86.4288 139.211C86.1347 138.777 85.7372 138.423 85.2721 138.182Z" fill="white"/>
<path d="M71.0962 97.938C70.7148 98.7958 70.568 99.9395 70.9141 100.827C71.2676 101.733 72.015 102.143 72.703 102.484L74.6878 103.468C75.3481 103.795 76.0598 104.126 76.7329 103.857C77.5448 103.532 78.1077 102.259 77.9621 101.077C77.8071 99.8194 77.0145 98.9544 76.2815 98.2177C75.2557 97.1868 74.2299 96.1559 73.2041 95.125L72.626 95.8332C72.0007 96.4432 71.4834 97.1549 71.0962 97.938Z" fill="white"/>
<path d="M140.962 111.383C141.855 111.593 142.748 111.803 143.641 112.014C143.485 115.03 141.99 117.822 139.985 118.833C139.15 119.253 138.22 119.409 137.528 120.195C136.903 120.91 136.587 122.022 136.296 123.085C135.786 124.94 135.276 126.795 134.766 128.65C134.219 130.65 133.516 132.871 132.093 133.591C130.872 134.21 129.475 133.453 128.536 132.182C127.597 130.912 127.024 129.204 126.468 127.539C126.503 129.353 125.659 131.134 124.463 131.765C123.265 132.396 121.808 131.825 121.007 130.416C120.431 129.405 120.192 128.071 119.627 127.046C119.063 126.02 117.879 125.433 117.262 126.395C116.856 127.034 116.908 128.014 116.706 128.826C116.393 130.088 115.442 130.88 114.5 130.949C113.561 131.019 112.645 130.477 111.859 129.742C110.237 128.221 109.042 125.807 108.578 123.125C108.374 121.93 108.316 120.627 108.67 119.507C109.025 118.386 109.88 117.522 110.73 117.735C111.289 116.554 110.185 114.987 109.192 115.125C108.195 115.263 107.414 116.332 106.596 117.153C105.781 117.974 104.641 118.57 103.82 117.755C103.826 118.513 103.209 119.014 102.676 118.951C102.146 118.89 101.674 118.464 101.187 118.161C99.3063 116.989 96.9185 117.767 95.582 119.985C96.4173 116.43 97.6415 112.351 100.208 111.515C101.256 111.173 102.4 111.455 103.391 110.861C105.145 109.81 105.499 105.837 103.984 104.198C104.177 105.748 104.14 107.557 103.322 108.617C102.504 109.677 100.787 108.986 100.891 107.419C100.654 108.499 99.4791 108.663 98.9376 107.834C98.3933 107.004 98.4393 105.647 98.8253 104.656C99.2113 103.665 99.868 102.954 100.505 102.271C101.873 100.804 103.261 99.3208 104.845 98.3989C106.432 97.4771 108.264 97.166 109.854 98.0821C110.692 98.5661 111.43 99.3727 112.285 99.7991C113.141 100.228 114.226 100.174 114.794 99.171C115.43 98.0533 115.131 96.3939 115.367 94.9967C115.791 92.5279 118.259 91.3727 119.627 93.0032C118.605 92.741 117.548 93.951 117.421 95.4173C117.291 96.8837 118.031 98.3644 119.022 98.8081C120.687 99.5455 122.317 97.6903 123.576 95.9733C124.89 94.1757 126.205 92.379 127.522 90.5833C127.733 90.2776 127.969 89.9904 128.228 89.7248C128.64 89.3226 129.19 89.0923 129.766 89.0806C130.342 89.0688 130.901 89.2764 131.33 89.6615C132.661 90.7475 133.286 92.9744 134.377 94.507C135.962 96.7339 138.332 97.2754 140.538 97.7076C142.183 98.0273 143.829 98.349 145.475 98.6726C146.573 100.715 147.531 102.83 148.341 105.002C145.553 106.186 142.981 108.401 140.962 111.383Z" fill="white"/>
<path d="M146.28 146.046C145.046 148.552 143.61 150.954 141.988 153.228C140.951 152.785 139.836 153.577 138.866 154.32C137.852 155.098 136.633 155.856 135.594 155.147C134.531 154.421 134.188 152.39 134.525 150.78C134.862 149.172 135.703 147.893 136.518 146.677C137.382 145.387 138.307 144.047 139.508 143.546C140.712 143.045 142.259 143.753 142.61 145.464L143.463 145.436C142.985 144.779 143.235 143.419 143.878 143.18C144.618 142.901 145.26 143.917 145.698 144.816C145.894 145.222 146.093 145.632 146.28 146.046Z" fill="white"/>
<path d="M113.627 133.876C111.794 133.991 110.343 131.735 109.378 129.515C108.414 127.295 107.534 124.757 105.88 123.627C104.935 122.982 103.858 122.893 102.833 122.58C101.808 122.267 100.736 121.62 100.246 120.302L99.0833 119.832C97.5481 120.695 95.9926 121.575 94.6697 122.98C93.186 124.556 92.2619 126.577 92.0398 128.73C91.8177 131.057 92.6377 133.652 94.1699 134.526C95.3806 135.217 96.7902 134.782 98.0165 135.414C99.5487 136.204 100.458 138.5 100.803 140.766C101.147 143.032 101.06 145.387 101.306 147.679C101.553 149.971 102.231 152.356 103.637 153.53C105.395 155 107.975 153.779 108.764 151.103C109.151 149.791 109.138 148.31 109.427 146.948C109.937 144.549 111.312 142.769 112.403 140.801C113.494 138.833 114.353 136.16 113.627 133.876Z" fill="white"/>
<path d="M95.5175 110.305C95.6884 110.462 95.8479 110.632 95.9948 110.812C96.1468 111.074 96.2243 111.372 96.2192 111.675C96.214 111.978 96.1263 112.274 95.9655 112.531C96.1862 112.518 96.4019 112.46 96.599 112.36C96.7961 112.259 96.9703 112.119 97.1106 111.948C97.4451 111.567 97.7393 111.153 97.9886 110.712C98.1755 110.407 98.3743 109.995 98.2475 109.632C98.1609 109.385 97.9562 109.28 97.8126 109.094C97.5852 108.8 97.5288 108.332 97.411 107.927C97.1568 107.054 96.5476 106.412 95.8864 106.32L95.9782 106.338C95.702 106.433 95.5091 106.871 95.5702 107.266C95.6258 107.625 95.8568 107.924 95.8338 108.291C95.8008 108.818 95.2739 109.065 95.2414 109.593C95.2363 109.857 95.3355 110.113 95.5175 110.305Z" fill="white"/>
<path d="M92.3779 101.341C92.3806 101.34 92.3834 101.34 92.3861 101.339C92.4422 101.288 92.4942 101.233 92.5417 101.174L92.3779 101.341Z" fill="#E6E6E6"/>
<path d="M92.9272 103.819C93.3324 103.558 93.5586 102.838 93.4247 102.234C93.2915 101.635 92.8204 101.232 92.3857 101.343C92.2597 101.47 92.1032 101.564 91.9309 101.615C91.7587 101.665 91.5764 101.672 91.4012 101.632C91.1325 101.563 90.8375 101.385 90.6045 101.588C90.4712 101.739 90.3779 101.921 90.3331 102.118C90.2468 102.382 90.1606 102.647 90.0743 102.912C90.0334 103.007 90.0227 103.112 90.0437 103.213C90.0603 103.254 90.0869 103.289 90.1212 103.316C90.1554 103.344 90.1961 103.362 90.2393 103.369C90.7568 103.521 91.2743 103.674 91.7919 103.826C92.169 103.937 92.5762 104.045 92.9272 103.819Z" fill="white"/>
<path d="M131.997 137.984C131.758 137.593 131.519 137.201 131.279 136.809C131.044 136.355 130.723 135.952 130.334 135.621C130.248 135.55 130.149 135.496 130.042 135.463C129.935 135.43 129.823 135.419 129.712 135.43C129.601 135.441 129.493 135.474 129.395 135.528C129.297 135.581 129.21 135.654 129.141 135.741L129.17 135.965C129.715 136.649 130.292 137.409 130.43 138.425C130.485 138.825 130.466 139.239 130.514 139.641C130.561 140.043 130.697 140.46 130.957 140.634C131.334 140.885 131.776 140.514 132.044 140.061C132.284 139.69 132.391 139.248 132.349 138.807C132.289 138.512 132.17 138.232 131.997 137.984Z" fill="white"/>
<path d="M142.643 123.023C142.713 122.57 142.782 122.116 142.851 121.662C142.963 121.164 142.977 120.648 142.892 120.144C142.873 120.034 142.832 119.929 142.771 119.835C142.711 119.741 142.632 119.661 142.54 119.597C142.448 119.534 142.344 119.49 142.234 119.468C142.125 119.446 142.012 119.446 141.903 119.467L141.781 119.657C141.757 120.532 141.709 121.485 141.161 122.351C140.945 122.693 140.664 122.997 140.442 123.336C140.219 123.674 140.055 124.081 140.142 124.38C140.268 124.816 140.845 124.817 141.342 124.643C141.765 124.513 142.131 124.244 142.383 123.88C142.528 123.615 142.616 123.324 142.643 123.023Z" fill="#E6E6E6"/>
<path d="M135.75 138.494C135.867 138.158 135.698 137.772 135.662 137.401C135.645 136.92 135.772 136.446 136.027 136.039C136.281 135.655 136.473 135.234 136.597 134.791C136.649 134.589 136.639 134.377 136.569 134.18C136.49 134.002 136.298 133.921 136.188 134.062L136.424 134.214C136.106 134.157 135.779 134.173 135.468 134.26C135.291 134.328 135.132 134.437 135.006 134.58C134.88 134.722 134.79 134.892 134.744 135.076C134.705 135.364 134.642 135.647 134.554 135.923C134.414 136.212 134.142 136.308 133.971 136.562C133.855 136.786 133.796 137.036 133.8 137.289C133.804 137.542 133.871 137.79 133.995 138.011C134.21 138.372 134.551 138.64 134.952 138.764C135.24 138.867 135.618 138.872 135.75 138.494Z" fill="white"/>
<path d="M142.434 140.51C142.538 140.78 142.677 141.036 142.848 141.27C143.168 141.592 143.603 141.394 143.991 141.316C144.343 141.26 144.704 141.301 145.035 141.434C145.366 141.566 145.654 141.786 145.871 142.07C145.72 141.319 145.392 140.615 144.913 140.018C144.434 139.42 143.819 138.946 143.119 138.636C142.204 138.263 141.24 138.227 140.288 138.193L140.124 138.235C140.543 139.455 141.858 139.428 142.434 140.51Z" fill="white"/>
<path d="M114.127 143.006L114.129 143.011C114.145 142.981 114.161 142.95 114.177 142.92L114.127 143.006Z" fill="#E6E6E6"/>
<path d="M113.114 144.967C112.893 145.369 112.703 145.786 112.546 146.217C112.337 146.914 112.199 147.63 112.133 148.355C112.082 148.767 112.066 149.294 112.324 149.494C112.398 149.544 112.488 149.564 112.576 149.552C112.664 149.54 112.745 149.497 112.803 149.429C112.947 149.278 113.064 149.103 113.15 148.913C113.658 148.039 114.052 147.104 114.323 146.13C114.57 145.105 114.567 143.898 114.131 143.01C113.792 143.662 113.453 144.315 113.114 144.967Z" fill="white"/>
<path d="M103.333 92.6766C103.494 92.834 103.698 92.9409 103.919 92.984C104.14 93.0272 104.368 93.0047 104.577 92.9194C105.008 92.7307 105.404 92.4691 105.747 92.1461C106.031 91.936 106.272 91.6732 106.457 91.372C106.559 91.192 106.624 90.9937 106.649 90.7884C106.674 90.5832 106.658 90.375 106.602 90.1759C106.442 89.7071 106.035 89.5499 105.676 89.4435C105.102 89.2731 104.527 89.1027 103.953 88.9324L104.368 88.5578C103.941 88.3283 103.468 88.7542 103.201 89.2815C103.029 89.6258 102.91 89.9936 102.846 90.3729C102.703 91.2005 102.843 92.1861 103.333 92.6766Z" fill="#E6E6E6"/>
<path d="M113.475 89.2703C113.637 89.4488 113.86 89.5591 114.101 89.5786C114.341 89.5981 114.579 89.5256 114.768 89.3756C114.93 89.2536 115.065 89.0988 115.164 88.9212C115.262 88.7437 115.322 88.5474 115.34 88.3451C115.381 87.8931 115.157 87.3908 114.838 87.3518L114.911 86.9287C114.297 86.8177 113.54 86.7955 113.211 87.542C113.1 87.828 113.066 88.1381 113.112 88.4414C113.158 88.7447 113.283 89.0305 113.475 89.2703Z" fill="#E6E6E6"/>
<path d="M112.12 66.7698C108.517 66.3633 104.9 67.4051 102.064 69.6661C99.2285 71.9272 97.4072 75.2222 97.0007 78.8263C96.1543 86.3315 100.108 102.629 107.315 109.376C110.709 96.4499 122.601 88.783 124.175 81.8921C125.856 74.5289 119.624 67.6164 112.12 66.7698Z" fill="#E56553"/>
<path d="M109.627 83.4552C112.09 83.4552 114.087 81.4584 114.087 78.9952C114.087 76.532 112.09 74.5352 109.627 74.5352C107.164 74.5352 105.168 76.532 105.168 78.9952C105.168 81.4584 107.164 83.4552 109.627 83.4552Z" fill="white"/>
<path d="M104.938 115.807C106.551 115.807 107.859 114.499 107.859 112.886C107.859 111.273 106.551 109.965 104.938 109.965C103.325 109.965 102.018 111.273 102.018 112.886C102.018 114.499 103.325 115.807 104.938 115.807Z" fill="#E56553"/>
<path opacity="0.2" d="M113.317 75.801C113.819 76.1026 114.257 76.5002 114.605 76.971C114.953 77.4419 115.206 77.9767 115.347 78.545C115.489 79.1133 115.517 79.7039 115.431 80.2832C115.344 80.8624 115.144 81.4189 114.843 81.921C114.541 82.423 114.143 82.8607 113.673 83.2091C113.202 83.5574 112.667 83.8097 112.099 83.9513C110.952 84.2375 109.737 84.0559 108.724 83.4467C109.757 83.6767 110.839 83.5312 111.775 83.0364C112.711 82.5416 113.441 81.7297 113.833 80.7461C114.225 79.7625 114.255 78.6713 113.916 77.6678C113.578 76.6644 112.893 75.8143 111.985 75.2695C112.455 75.3736 112.905 75.5531 113.317 75.801Z" fill="#231F20"/>
<path opacity="0.2" d="M124.191 81.9081C122.618 88.799 110.726 96.466 107.332 109.392C106.654 108.751 106.024 108.061 105.448 107.328C109.262 95.178 120.414 87.7952 121.934 81.1374C123.295 75.1785 119.473 69.5153 113.988 67.123C120.627 68.7923 125.732 75.1605 124.191 81.9081Z" fill="#231F20"/>
<path d="M70.3319 84.1741C67.6258 83.8688 64.9092 84.6512 62.7798 86.3492C60.6505 88.0471 59.2827 90.5215 58.9775 93.2281C58.3418 98.8642 61.3106 111.103 66.7233 116.17C69.2719 106.463 78.2027 100.705 79.3844 95.5304C80.647 90.0009 75.9671 84.8099 70.3319 84.1741Z" fill="#E56553"/>
<path d="M68.4601 96.7026C70.3096 96.7026 71.8089 95.203 71.8089 93.3532C71.8089 91.5035 70.3096 90.0039 68.4601 90.0039C66.6106 90.0039 65.1113 91.5035 65.1113 93.3532C65.1113 95.203 66.6106 96.7026 68.4601 96.7026Z" fill="white"/>
<path d="M64.9395 120.997C66.1508 120.997 67.1329 120.015 67.1329 118.803C67.1329 117.592 66.1508 116.609 64.9395 116.609C63.7281 116.609 62.7461 117.592 62.7461 118.803C62.7461 120.015 63.7281 120.997 64.9395 120.997Z" fill="#E56553"/>
<path opacity="0.2" d="M71.2308 90.9538C71.6078 91.1803 71.9364 91.4789 72.198 91.8325C72.4595 92.186 72.6489 92.5877 72.7553 93.0144C72.8617 93.4412 72.883 93.8848 72.818 94.3198C72.753 94.7548 72.6029 95.1727 72.3764 95.5497C72.1499 95.9267 71.8514 96.2554 71.4979 96.517C71.1444 96.7786 70.7428 96.968 70.3161 97.0744C69.8894 97.1808 69.4459 97.2021 69.011 97.1371C68.5761 97.0721 68.1582 96.922 67.7812 96.6955C68.5574 96.8682 69.3697 96.7589 70.0727 96.3873C70.7758 96.0158 71.3236 95.4061 71.6182 94.6674C71.9129 93.9287 71.9351 93.1093 71.6808 92.3557C71.4266 91.6022 70.9125 90.9638 70.2306 90.5547C70.5833 90.6329 70.9211 90.7676 71.2308 90.9538Z" fill="#231F20"/>
<path opacity="0.2" d="M79.3968 95.5406C78.2151 100.715 69.2844 106.473 66.7358 116.18C66.2267 115.699 65.7539 115.181 65.3213 114.63C68.1852 105.506 76.56 99.9616 77.7018 94.9618C78.7236 90.4868 75.8532 86.234 71.7344 84.4375C76.7202 85.691 80.5539 90.4733 79.3968 95.5406Z" fill="#231F20"/>
<path d="M175.175 205.503H171.498L169.749 191.318L175.176 191.319L175.175 205.503Z" fill="#A0616A"/>
<path d="M177.153 212.485H174.544L174.078 210.022L172.886 212.485H165.966C165.634 212.485 165.311 212.379 165.044 212.183C164.777 211.986 164.579 211.709 164.481 211.393C164.382 211.076 164.387 210.736 164.495 210.422C164.603 210.109 164.809 209.838 165.082 209.649L170.608 205.832V203.342L176.42 203.689L177.153 212.485Z" fill="#2F2E41"/>
<path d="M160.934 205.503H157.257L155.508 191.318L160.935 191.319L160.934 205.503Z" fill="#A0616A"/>
<path d="M162.912 212.485H160.303L159.837 210.022L158.644 212.485H151.725C151.393 212.485 151.07 212.379 150.803 212.183C150.535 211.986 150.338 211.709 150.239 211.393C150.141 211.076 150.146 210.736 150.254 210.422C150.362 210.109 150.568 209.838 150.841 209.649L156.367 205.832V203.342L162.179 203.689L162.912 212.485Z" fill="#2F2E41"/>
<path d="M146.964 168.054C147.668 169.109 155.323 198.128 155.323 198.128L162.11 198.902L161.304 191.601L160.073 178.68L158.166 170.056C158.166 170.056 164.9 154.728 165.325 153.507L165.628 152.631L167.732 171.727C167.982 172.409 168.091 173.134 168.052 173.859C167.989 175.052 169.185 192.998 169.185 192.998L169.76 199.433L175.575 200.241L177.934 189.106C179.904 185.489 178.775 172.635 177.97 171.438C177.164 170.242 177.484 161.91 177.484 161.91C178.513 161.548 184.648 140.625 181.579 140.748C181.776 139.633 181.931 138.637 181.931 138.637L176.604 134.341L163.274 130.875L159.911 129.26C159.911 129.26 153.905 140.368 153.965 140.921C154.047 141.62 153.887 142.327 153.511 142.923L147.446 163.222C147.446 163.222 146.254 166.987 146.964 168.054Z" fill="#2F2E41"/>
<path d="M180.455 95.4153L178.334 90.9121L171.116 91.1896L168.762 95.8745C168.762 95.8745 162.034 103.912 161.816 106.525C161.542 109.812 163.819 125.922 161.542 124.878C161.542 124.878 156.176 131.178 159.351 131.178C162.527 131.178 176.891 140.196 177.833 141.211C178.776 142.225 182.983 142.882 182.631 140.765C182.278 138.648 180.455 127.197 180.455 127.197L185.39 109.191C186.81 105.304 187.252 100.944 184.041 98.3325L180.455 95.4153Z" fill="#CCCCCC"/>
<path d="M153.719 82.1597C152.754 81.7764 151.722 81.587 150.684 81.6024C149.645 81.6178 148.62 81.8377 147.666 82.2494C146.713 82.6612 145.849 83.2567 145.126 84.0021C144.402 84.7475 143.833 85.6282 143.449 86.5938C141.838 90.6546 141.571 100.352 144.57 105.212C148.426 98.5126 156.228 96.0387 158.153 92.4311C160.209 88.5763 157.779 83.7716 153.719 82.1597Z" fill="#E56553"/>
<path d="M150.473 91.1873C151.898 91.1873 153.053 90.0322 153.053 88.6073C153.053 87.1824 151.898 86.0273 150.473 86.0273C149.048 86.0273 147.894 87.1824 147.894 88.6073C147.894 90.0322 149.048 91.1873 150.473 91.1873Z" fill="white"/>
<path d="M142.711 108.503C143.644 108.503 144.401 107.746 144.401 106.813C144.401 105.88 143.644 105.123 142.711 105.123C141.778 105.123 141.021 105.88 141.021 106.813C141.021 107.746 141.778 108.503 142.711 108.503Z" fill="#E56553"/>
<path opacity="0.2" d="M153.017 87.3836C153.489 87.8778 153.746 88.5394 153.731 89.223C153.717 89.9066 153.431 90.5564 152.937 91.0295C152.444 91.5027 151.783 91.7605 151.099 91.7463C150.416 91.7322 149.766 91.4472 149.292 90.954C149.834 91.2393 150.46 91.3223 151.058 91.1883C151.655 91.0542 152.186 90.7118 152.554 90.2223C152.922 89.7328 153.104 89.1282 153.068 88.5167C153.031 87.9052 152.778 87.3267 152.354 86.8848C152.6 87.0142 152.824 87.1827 153.017 87.3836Z" fill="#231F20"/>
<path opacity="0.2" d="M158.161 92.4428C156.236 96.0504 148.434 98.5243 144.578 105.224C144.297 104.764 144.05 104.283 143.84 103.786C147.813 97.5831 155.158 95.1554 157.018 91.6699C158.682 88.5503 157.408 84.8088 154.709 82.6406C158.162 84.5805 160.045 88.9103 158.161 92.4428Z" fill="#231F20"/>
<path d="M141.95 106.23C142.343 106.149 142.749 106.155 143.139 106.248C143.529 106.341 143.894 106.518 144.208 106.768C144.522 107.017 144.778 107.332 144.958 107.691C145.137 108.049 145.235 108.443 145.246 108.844L151.098 111.091L150.601 114.981L142.381 111.692C141.706 111.665 141.065 111.392 140.578 110.924C140.091 110.456 139.793 109.826 139.74 109.152C139.687 108.479 139.883 107.81 140.29 107.271C140.697 106.733 141.288 106.362 141.95 106.23Z" fill="#A0616A"/>
<path d="M182.841 98.2137C182.224 97.8375 181.54 97.5866 180.827 97.4755C180.113 97.3644 179.385 97.3952 178.684 97.5662C177.982 97.7372 177.322 98.045 176.74 98.472C176.157 98.8989 175.665 99.4366 175.291 100.054L166.891 113.928L147.899 109.425L146.169 114.176L170.49 125.699L182.808 106.076C184.652 103.484 185.556 99.8715 182.841 98.2137Z" fill="#CCCCCC"/>
<path d="M183.155 81.21C183.155 82.5472 182.827 83.8641 182.2 85.045C181.573 86.2259 180.666 87.2348 179.558 87.9831C178.45 88.7314 177.175 89.1963 175.846 89.3368C174.516 89.4774 173.172 89.2893 171.932 88.7893C170.692 88.2892 169.594 87.4923 168.734 86.4686C167.874 85.4449 167.278 84.2257 166.999 82.9179C166.72 81.6102 166.766 80.254 167.134 78.9683C167.501 77.6826 168.178 76.5067 169.106 75.544L169.145 75.5048C169.211 75.4362 169.276 75.3676 169.345 75.3022C169.345 75.3022 169.346 75.3021 169.346 75.3019C169.346 75.3018 169.347 75.3015 169.347 75.3012C169.347 75.3009 169.348 75.3006 169.348 75.3002C169.348 75.2998 169.348 75.2993 169.348 75.2989C169.433 75.2205 169.518 75.1421 169.606 75.0669C170.786 74.032 172.24 73.3593 173.792 73.1292C175.345 72.8991 176.931 73.1215 178.361 73.7697C179.79 74.4178 181.003 75.4644 181.853 76.7839C182.703 78.1035 183.155 79.6402 183.155 81.21Z" fill="#2F2E41"/>
<path d="M172.974 89.9501C176.756 89.9501 179.823 86.8832 179.823 83.1001C179.823 79.3169 176.756 76.25 172.974 76.25C169.191 76.25 166.125 79.3169 166.125 83.1001C166.125 86.8832 169.191 89.9501 172.974 89.9501Z" fill="#9E616A"/>
<path d="M180.248 85.0563L179.113 84.8558C178.479 84.7406 177.895 84.4344 177.44 83.9783C176.984 83.5222 176.679 82.938 176.565 82.3036L175.457 84.1597L175.409 84.1757C172.771 85.0518 170.026 84.7898 167.019 83.3758C166.16 82.9679 165.326 82.508 164.522 81.9987L164.463 81.9616L164.458 81.8919C164.305 79.6636 164.804 77.8019 165.866 76.6499C166.273 76.2165 166.768 75.8741 167.317 75.6452C167.866 75.4163 168.457 75.306 169.052 75.3215C169.094 75.3105 169.133 75.289 169.165 75.2591C169.18 75.2479 169.196 75.2368 169.211 75.2262V75.2147L169.29 75.1776C169.459 75.0982 169.631 75.0221 169.803 74.9525C171.158 74.4278 172.634 74.2962 174.061 74.5728C175.487 74.8494 176.807 75.5229 177.868 76.5161C179.978 78.5304 180.945 81.911 180.276 84.9283L180.248 85.0563Z" fill="#2F2E41"/>
<path d="M194.693 90.8917C192.363 89.6885 195.36 85.3217 194.758 82.7686C194.155 80.2155 189.818 79.3943 189.542 76.7856C189.265 74.177 188.615 71.4864 186.894 69.507C185.794 68.2421 184.174 67.3083 182.505 67.4668C181.941 67.5204 181.395 67.695 180.904 67.9788C180.413 68.2627 179.989 68.649 179.66 69.1115C179.332 69.574 179.107 70.1018 179.002 70.659C178.896 71.2162 178.911 71.7896 179.047 72.3403C178.572 71.6671 177.342 71.813 177.038 72.5788C176.768 73.2595 177.365 74.0841 178.069 74.1444C178.989 75.2811 180.043 76.4875 181.485 76.7168C181.714 76.7696 181.953 76.7695 182.183 76.7164C182.412 76.6634 182.627 76.5589 182.81 76.4108C183.15 76.085 183.176 75.4336 182.774 75.1901C184.586 75.91 185.648 77.8695 185.917 79.8009C186.186 81.7323 185.814 83.6865 185.569 85.621C185.323 87.5556 185.218 89.5906 185.976 91.3871C186.872 93.5096 188.935 95.0309 191.187 95.5188C193.438 96.0067 195.836 95.5298 197.874 94.4556C199.912 93.3813 201.611 91.7412 202.999 89.9026C200.608 91.6009 197.3 92.2371 194.693 90.8917Z" fill="#2F2E41"/>
<path d="M179.956 84.8643C179.956 84.8643 177.927 77.29 169.23 75.5418C169.22 75.5386 169.188 75.5255 169.145 75.5059C169.119 75.4896 169.086 75.4732 169.054 75.4569C169.152 75.4013 169.246 75.3524 169.344 75.3033L169.346 75.3031L169.347 75.3024L169.348 75.3013L169.348 75.3C169.433 75.2216 169.518 75.1432 169.606 75.068L169.854 75.0778C169.854 75.0778 178.58 73.6957 179.956 84.8643Z" fill="#FD6584"/>
<path opacity="0.2" d="M175.414 109.168L170.502 114.86L162.386 112.463L171.234 116.541L175.414 109.168Z" fill="black"/>
<path d="M204.896 212.916L129.376 213C129.29 213 129.207 212.965 129.146 212.904C129.085 212.843 129.051 212.76 129.051 212.674C129.051 212.588 129.085 212.505 129.146 212.444C129.207 212.383 129.29 212.348 129.376 212.348L204.896 212.264C204.983 212.264 205.066 212.298 205.127 212.359C205.188 212.42 205.222 212.503 205.222 212.59C205.222 212.676 205.188 212.759 205.127 212.82C205.066 212.882 204.983 212.916 204.896 212.916Z" fill="#CACACA"/>
<path d="M208.211 162.231C204.675 162.231 200.799 162.097 196.583 161.83C174.779 160.445 146.537 155.63 117.058 148.273C87.5786 140.916 60.3851 131.894 40.4868 122.871C30.7938 118.476 23.3545 114.315 18.3757 110.505C13.1044 106.471 10.7987 102.954 11.5223 100.054C12.9322 94.4032 25.4161 93.167 35.6406 93.125L35.6441 93.9468C21.6032 94.0044 13.3197 96.244 12.3196 100.253C11.0456 105.359 21.4359 113.33 40.8261 122.123C60.6807 131.126 87.8241 140.13 117.257 147.476C146.689 154.821 174.88 159.628 196.636 161.009C217.882 162.359 230.799 160.205 232.073 155.099C233.131 150.86 226.158 144.615 212.439 137.514L212.817 136.784C222.785 141.944 234.356 149.344 232.87 155.298C232.147 158.198 228.46 160.219 221.911 161.303C218.179 161.921 213.594 162.231 208.211 162.231Z" fill="#E56553"/>
</g>
<defs>
<clipPath id="clip0_940_2275">
<rect width="226" height="162" fill="white" transform="translate(7 51)"/>
</clipPath>
</defs>
</svg>
