<svg width="240" height="270" fill="none" xmlns="http://www.w3.org/2000/svg"><g clip-path="url(#a)"><path d="m104.447 198.236 11.906 15.519-14.52 1.307 2.614-16.826z" fill="#3F3D56"/><path d="M236 143.188c.001 4.154-.217 8.306-.653 12.436-.006.065-.015.126-.024.191a115.818 115.818 0 0 1-20.157 53.95c-8.076-6.131-16.088-12.892-24.553-18.576a97.726 97.726 0 0 0-12.017-6.983 64.8 64.8 0 0 0-9.061-3.579 53.136 53.136 0 0 0-7.995-1.809 37.465 37.465 0 0 0-4.138-.363 40.902 40.902 0 0 0-7.481.462c-.763.118-1.524.255-2.282.413-6.418 1.306-12.644 3.939-18.656 7.078h-.003c-5.918 3.092-11.625 6.676-17.093 9.984-5.782 3.494-11.294 6.674-16.506 8.63-.767.287-1.528.55-2.283.778-4.856 1.494-9.435 1.766-13.716.039a18.236 18.236 0 0 1-5.265-3.318 80.402 80.402 0 0 0-5.744-4.621 88.036 88.036 0 0 0-7.928-5.182 94.618 94.618 0 0 0-6.273-3.344 104.411 104.411 0 0 0-8.523-3.69 119.188 119.188 0 0 0-34.297-7.434 117.713 117.713 0 0 1-3.944-53.248h227.184A117.425 117.425 0 0 1 236 143.188z" fill="#FBF9F5"/><path d="M167.993 40.872a9.785 9.785 0 0 1-2.579 6.638 9.528 9.528 0 0 1-.395.401 145.685 145.685 0 0 0-15.722-10.643 9.686 9.686 0 0 1 4.751-5.174h.003a113.532 113.532 0 0 1 13.132 4.866 9.815 9.815 0 0 1 .81 3.912z" fill="#E56553"/><path d="m175.853 60.758-.009.102c-6.373-.442-12.746-.886-19.118-1.33-4.604-.32-9.368-.683-13.437-2.88-1.544-.834-3.048-1.946-4.8-2.023-2.172-.098-4.068 1.435-5.558 3.033-8.81 9.461-11.361 23.928-21.244 32.24a317.486 317.486 0 0 1 22.257-44.792c1.585-2.644 3.465-5.468 6.407-6.33 2.808-.825 5.681.378 8.265 1.922.554.331 1.094.679 1.617 1.024a285.6 285.6 0 0 1 11.752 8.188 286.93 286.93 0 0 1 13.868 10.846z" fill="#FBF9F5"/><path d="M196.467 80.825a151.827 151.827 0 0 0-23.584-26.394 154.993 154.993 0 0 0-7.864-6.52 146.323 146.323 0 0 0-15.724-10.644 138.45 138.45 0 0 0-5.439-3.021c-1.425-.747-2.942-1.43-4.586-1.324-1.15.1-2.248.525-3.168 1.229-2.019 1.486-3.356 3.809-4.457 6.022-.964 1.94-1.862 3.92-2.779 5.889a163.76 163.76 0 0 1-1.182 2.503 421.928 421.928 0 0 1-10.165 19.727 425.858 425.858 0 0 1-35.403 54.275c-.961 1.251-1.357 1.541-2.332 2.783-.225.291-.626-.118-.403-.406 8.13-10.361 15.208-20.149 22.345-31.232a424.613 424.613 0 0 0 15.255-25.624 420.033 420.033 0 0 0 4.517-8.45 433.173 433.173 0 0 0 8.643-17.597c1.821-3.934 4.473-9.784 9.595-9.704 1.506.022 2.904.638 4.224 1.319 1.344.697 2.663 1.437 3.98 2.188.527.3 1.052.604 1.574.913a145.803 145.803 0 0 1 6.115 3.788 152.236 152.236 0 0 1 14.235 10.538 152.386 152.386 0 0 1 24.561 25.949 140.904 140.904 0 0 1 2.532 3.505c.212.302-.281.588-.49.288zM181.244 44.402c-2.692 1.546-4.893 3.83-6.961 6.137-.299.334-.596.67-.892 1.005-.246.275-.644-.132-.403-.41 2.314-2.609 4.693-5.277 7.71-7.072.183.112.366.226.546.34z" fill="#E4E4E4"/><path d="m108.134 78.838-7.632-2.815-3.79-1.397a38.521 38.521 0 0 0-3.74-1.3 5.855 5.855 0 0 0-3.386.044 7.796 7.796 0 0 0-2.64 1.65 21.547 21.547 0 0 0-2.167 2.333c-.825 1-1.638 2.01-2.454 3.017a1508.729 1508.729 0 0 0-30.943 39.481c-.219.289-.713.004-.49-.29a1531.109 1531.109 0 0 1 19.904-25.71A1507.169 1507.169 0 0 1 83.52 77.998c.72-.884 1.431-1.778 2.22-2.6 1.45-1.511 3.26-2.846 5.426-2.883 1.273-.02 2.506.387 3.69.818 1.276.466 2.549.94 3.823 1.41l7.685 2.834 1.921.709c.341.125.194.68-.151.553z" fill="#E4E4E4"/><path d="M188.646 49.409a173.53 173.53 0 0 0-12.946 3.329c2.747-1.622 4.896-4.167 7.728-5.634.384-.199.779-.374 1.185-.524 1.365.91 2.709 1.854 4.033 2.829zM87.232 78.865c.752-.921 1.564-1.887 2.687-2.261l1.05.041a119.69 119.69 0 0 1-31.696 36.536l27.96-34.316z" fill="#FBF9F5"/><path d="M120.58 94.26a11.596 11.596 0 0 0 1.096 4.947l.015.032a11.387 11.387 0 0 0 .697 1.265 11.53 11.53 0 0 0 4.052 3.865 11.416 11.416 0 0 0 5.379 1.486l-.114 6.596-1.483-.787-.265.508 1.737.922-.212 12.25-.003.164 1.147.257-.002-.164-.361-19.745a11.39 11.39 0 0 0 4.411-.959 11.481 11.481 0 0 0 3.917-2.831l.008-.008a11.641 11.641 0 0 0 2.095-3.27l-.034.038c4.739-12.01 1.982-17.578-5.456-14.948l-.12-.06a11.426 11.426 0 0 0-8.341-.65 11.531 11.531 0 0 0-6.779 5.578 11.623 11.623 0 0 0-1.384 5.514z" fill="#E5E5E5"/><path d="M107.054 84.045c.139 2.304.73 4.558 1.74 6.63 1.942 3.964 5.352 6.97 9.602 8.09a14.47 14.47 0 0 0 3.295.475h.092c.116.005.231.005.346.005.079 0 .157 0 .236-.005a15.014 15.014 0 0 0 10.507-4.532 15.264 15.264 0 0 0 4.332-10.663v-.168a10.605 10.605 0 0 0-.415-2.866c0-.004-.005-.01-.005-.014a9.946 9.946 0 0 0-2.625-4.248c-3.023-3.014-7.808-4.908-12.03-7.904-9.247-6.56-16.039-.033-15.075 15.2z" fill="#E5E5E5"/><path opacity=".2" d="M108.794 90.673c1.943 3.964 5.353 6.97 9.602 8.091a14.738 14.738 0 0 0 3.281.442h.106c.194.005.388.005.582 0 3.967-.1 7.736-1.77 10.491-4.65a15.29 15.29 0 0 0 3.933-13.546c0-.005-.004-.01-.004-.014a9.948 9.948 0 0 0-2.626-4.248 15.314 15.314 0 0 1-2.194 11.524 15.124 15.124 0 0 1-4.191 4.237 15 15 0 0 1-5.488 2.277c-.143.028-.286.056-.429.08-.415.07-.83.12-1.25.153a14.938 14.938 0 0 1-6.378-.87 15.041 15.041 0 0 1-5.435-3.476z" fill="#000"/><path d="m121.618 108.728-2.276-1.209.347-.665 1.944 1.032.146-8.465v-.001l.004-.18v-.031l.075-4.343.106-6.12.081-4.703h.043l.079 4.34v.002l.117 6.403.08 4.418.001.037.023 1.26.461 25.287.004.168-1.54.435.003-.168.302-17.497z" fill="#3F3D56"/><path d="M30.39 94.26a11.698 11.698 0 0 0 1.097 4.947l.015.032.088.182c.183.372.386.734.609 1.083a11.53 11.53 0 0 0 4.051 3.865 11.417 11.417 0 0 0 5.38 1.486l-.114 6.596-1.484-.787-.265.508 1.738.922-.213 12.25-.002.164 1.147.257-.002-.164-.361-19.745a11.39 11.39 0 0 0 4.41-.959 11.473 11.473 0 0 0 3.917-2.831l.008-.008a11.624 11.624 0 0 0 2.095-3.27c-.01.013-.023.025-.034.038 4.74-12.01 1.982-17.578-5.455-14.948l-.12-.06a11.428 11.428 0 0 0-8.342-.65 11.53 11.53 0 0 0-6.778 5.578 11.615 11.615 0 0 0-1.384 5.514z" fill="#E5E5E5"/><path d="M47.014 83.875v.167c0 3.99-1.555 7.82-4.33 10.663a15.012 15.012 0 0 1-10.507 4.534h-.003c-.078.003-.156.003-.235.003-.116 0-.23 0-.345-.003H31.5a14.376 14.376 0 0 1-3.27-.472c-.008 0-.016 0-.024-.002-4.251-1.122-7.66-4.13-9.603-8.09-.026-.057-.052-.11-.079-.165A115.997 115.997 0 0 1 32.453 69.2c4.092 2.793 8.616 4.655 11.518 7.548a9.951 9.951 0 0 1 2.625 4.249l.003.011c.269.932.409 1.897.415 2.867z" fill="#E5E5E5"/><path opacity=".2" d="M18.604 90.673c1.942 3.964 5.352 6.97 9.602 8.091a14.727 14.727 0 0 0 3.28.442h.107c.194.005.387.005.581 0a15.04 15.04 0 0 0 10.491-4.65 15.29 15.29 0 0 0 4.23-10.74 15.696 15.696 0 0 0-.296-2.806c0-.005-.005-.01-.005-.014a9.945 9.945 0 0 0-2.625-4.248c.41 1.972.427 4.006.05 5.984a15.271 15.271 0 0 1-2.244 5.54 15.139 15.139 0 0 1-4.191 4.237 15.006 15.006 0 0 1-5.488 2.277c-.143.028-.286.056-.43.08-.415.07-.83.12-1.25.153a14.939 14.939 0 0 1-6.378-.87 15.042 15.042 0 0 1-5.434-3.476z" fill="#000"/><path d="m31.428 108.728-2.276-1.209.348-.665 1.944 1.032.146-8.465v-.001l.003-.18v-.031l.076-4.343.106-6.12.08-4.703h.043l.08 4.34v.002l.116 6.403.081 4.418v.037l.024 1.26.461 25.287.003.168-1.54.435.003-.168.302-17.497z" fill="#3F3D56"/><path d="M211.609 94.26a11.597 11.597 0 0 1-1.096 4.947c-.004.011-.01.022-.015.032a11.18 11.18 0 0 1-.697 1.265 11.526 11.526 0 0 1-4.051 3.865 11.42 11.42 0 0 1-5.38 1.486l.114 6.596 1.484-.787.265.508-1.738.922.213 12.25.002.164-1.147.257.002-.164.362-19.745a11.386 11.386 0 0 1-4.411-.959 11.47 11.47 0 0 1-3.917-2.831l-.008-.008a11.619 11.619 0 0 1-2.095-3.27l.034.038c-4.74-12.01-1.982-17.578 5.455-14.948l.12-.06a11.43 11.43 0 0 1 8.342-.65 11.531 11.531 0 0 1 6.778 5.578 11.6 11.6 0 0 1 1.384 5.514z" fill="#E5E5E5"/><path d="M194.986 83.877v.167c0 3.99 1.555 7.82 4.331 10.663a15.014 15.014 0 0 0 10.506 4.534h.003c.078.003.157.003.235.003.116 0 .23 0 .346-.003h.093a14.388 14.388 0 0 0 3.27-.472c.008 0 .015 0 .023-.003 4.251-1.121 7.661-4.128 9.604-8.09l.078-.164a116 116 0 0 0-13.928-21.31c-4.092 2.793-8.616 4.655-11.517 7.548a9.953 9.953 0 0 0-2.626 4.249l-.002.011a10.61 10.61 0 0 0-.416 2.867z" fill="#E5E5E5"/><path opacity=".2" d="M223.396 90.673c-1.943 3.964-5.353 6.97-9.602 8.091a14.738 14.738 0 0 1-3.281.442h-.106c-.194.005-.388.005-.582 0a15.041 15.041 0 0 1-10.491-4.65 15.295 15.295 0 0 1-4.229-10.74c.015-.943.113-1.882.296-2.806 0-.005.004-.01.004-.014a9.948 9.948 0 0 1 2.626-4.248 15.333 15.333 0 0 0-.051 5.984 15.275 15.275 0 0 0 2.245 5.54 15.124 15.124 0 0 0 4.191 4.237 15 15 0 0 0 13.545 1.64 15.041 15.041 0 0 0 5.435-3.476z" fill="#000"/><path d="m210.572 108.728 2.276-1.209-.347-.665-1.944 1.032-.147-8.465v-.001l-.003-.18v-.031l-.076-4.343-.105-6.12-.081-4.703h-.043l-.079 4.34v.002l-.117 6.403-.081 4.418v.037l-.023 1.26-.462 25.287-.003.168 1.54.435-.003-.168-.302-17.497z" fill="#3F3D56"/><path d="M235.347 155.624c-.006.064-.015.126-.023.19-5.968 2.641-14.131 4.269-23.143 4.269-9.841 0-18.681-1.941-24.742-5.024-3.659-1.86-6.305-4.135-7.548-6.647a7.3 7.3 0 0 1-.801-3.28 6.603 6.603 0 0 1 .055-.866 7.188 7.188 0 0 1 .386-1.576 10.368 10.368 0 0 1 2.509-3.736c.247-.243.509-.486.782-.723 2.085-1.804 4.96-3.391 8.418-4.67-4.594 2.313-7.614 5.282-8.296 8.553a1.612 1.612 0 0 0-.032.172c-.078.41-.117.827-.117 1.245 0 .041 0 .085.003.126 0 0 .003.003 0 .003.047 2.612 1.577 5.062 4.229 7.191 5.671 4.553 16.471 7.631 28.863 7.631 7.272 0 13.994-1.063 19.457-2.858z" fill="#E6E6E6"/><path d="M179.564 139.23c-5.924 2.986-9.53 6.929-9.53 11.253 0 9.316 16.719 16.868 37.342 16.868 8.967 0 17.193-1.429 23.63-3.808-6.837 3.446-16.762 5.615-27.812 5.615-20.624 0-37.342-7.552-37.342-16.868 0-5.265 5.343-9.966 13.712-13.06z" fill="#E6E6E6"/><path d="M195.71 136.059c-3.698 1.864-5.95 4.325-5.95 7.025 0 5.817 10.438 10.532 23.315 10.532a43.473 43.473 0 0 0 14.754-2.377c-4.269 2.151-10.466 3.506-17.365 3.506-12.877 0-23.316-4.716-23.316-10.532 0-3.288 3.337-6.223 8.562-8.154z" fill="#E6E6E6"/><path d="M228.975 140.809a2.282 2.282 0 0 0-.844-1.051 2.247 2.247 0 0 0-1.285-.387h-26.531c-.361 0-.713.113-1.008.324a1.756 1.756 0 0 0-.661 1.919c.101.35.308.659.592.884 2.703 2.144 7.701 4.697 16.166 4.697 7.606 0 11.306-2.105 13.069-3.868a2.285 2.285 0 0 0 .502-2.518zM209.895 120.273a10.002 10.002 0 0 1 7.245-1.998c-4.581 1.14-.966 7.523-5.138 14.143-2.273 3.608 2.148 5.377 6.36 5.861a10.017 10.017 0 0 1-6.72-.71 10.136 10.136 0 0 1-4.77-4.824 10.256 10.256 0 0 1-.685-6.777 10.187 10.187 0 0 1 3.708-5.695z" fill="#3F3D56"/><path d="M215.568 116.945h-.977v23.447h.977v-23.447z" fill="#3F3D56"/><path d="m90.696 35.914-.011.14-11.733-.816c2.5-.993 5.03-1.898 7.612-2.715a340.364 340.364 0 0 1 4.132 3.391z" fill="#FBF9F5"/><path d="M119.354 63.083a.421.421 0 0 1-.338.218.416.416 0 0 1-.362-.17 205.615 205.615 0 0 0-27.705-31.897c.294-.082.59-.16.883-.234a206.45 206.45 0 0 1 27.487 31.738.32.32 0 0 1 .035.345z" fill="#E4E4E4"/><path d="M136.438 101.55a3.054 3.054 0 0 1 2.537.575 3.106 3.106 0 0 1 1.191 2.331l23.124 9.002-4.366 3.655-21.928-9.402a3.073 3.073 0 0 1-2.03-.842 3.132 3.132 0 0 1-.373-4.12 3.09 3.09 0 0 1 1.845-1.199z" fill="#FFB6B6"/><path d="M182.308 128.607c-.964.226-2.405.12-4.482-.942-4.782-2.448-14.121-7.164-14.121-7.164l-4.296-2.072-12.762-6.139.127-.385 1.428-4.324.396-1.183 11.871 4.859 7.517 3.074 8.188 1.318 5.656 5.733c.127 1.793.306 4.407.478 7.225z" fill="#3F3D56"/><path d="m56.9 118.64 1.042-6.663c4.238-1.047 14 1.143 14 1.143l16.628-1.676a2.934 2.934 0 0 1 2.939-.442c.485.195.91.516 1.232.93a2.997 2.997 0 0 1-.528 4.201 2.936 2.936 0 0 1-2.948.379l-20 2.806-12.365-.678z" fill="#FFB6B6"/><path d="m58.351 119.213-8.94-3.555-3.115-3.993a5.509 5.509 0 0 1-.112-5.779 5.423 5.423 0 0 1 3.16-2.433 5.383 5.383 0 0 1 3.957.398c3.702 1.924 8.151 4.838 8.328 7.794l.001.03.168.519-2.56 7.077-.887-.058z" fill="#3F3D56"/><path d="M117.045 153.32c0 32.881-9.601 69.452-21.665 71.639a6.2 6.2 0 0 1-2.28 0c-12.065-2.187-21.666-38.758-21.666-71.639 0-32.88 9.6-49.993 21.665-51a13.503 13.503 0 0 1 2.28 0c12.065 1.007 21.666 18.12 21.666 51z" fill="#E56553"/><path d="M95.38 102.32v122.639a6.2 6.2 0 0 1-2.281 0V102.32a13.507 13.507 0 0 1 2.28 0z" fill="#F2F2F2"/><path d="M171.586 153.32c0 32.881-9.601 69.452-21.665 71.639a6.203 6.203 0 0 1-2.281 0c-12.064-2.187-21.665-38.758-21.665-71.639 0-32.88 9.601-49.993 21.665-51a13.508 13.508 0 0 1 2.281 0c12.064 1.007 21.665 18.12 21.665 51z" fill="#E56553"/><path d="M149.92 102.32v122.639a6.198 6.198 0 0 1-2.28 0V102.32a13.49 13.49 0 0 1 2.28 0z" fill="#F2F2F2"/><path d="m182.04 148.445-18.889-.317-1.574-13.015h20.463v13.332z" fill="#9E616A"/><path d="M164.578 228.069h-4.361l-2.074-16.96 6.436.001-.001 16.959zM192.358 228.009l-4.361-.031-1.956-16.974 5.671 1.312.646 15.693zM170.424 100.596c3.815 0 6.907-3.118 6.907-6.964 0-3.846-3.092-6.964-6.907-6.964-3.814 0-6.906 3.118-6.906 6.964 0 3.846 3.092 6.964 6.906 6.964z" fill="#FFB6B6"/><path d="m192.469 213.012-1.929-22.664-3.778-26.982c2.719-15.14-3.463-21.268-3.463-21.268l-.879.042-19.904 3.786.005-.019c-4.071 11.195-5.42 16.726-5.197 28.648l.777 38.457 6.696-.264 7.941-50.397 6.55 24.428 6.926 27.934c1.772 1.313 6.837-1.467 6.255-1.701z" fill="#2F2E41"/><path d="m182.757 143.705-19.426 3.013c-.672.174-3.362-15.315-3.736-18.08a43.084 43.084 0 0 1-.186-10.207c.059-.648.134-1.281.216-1.906.187-1.424.419-2.818.665-4.234l.18-1.032c.119-.693.246-1.386.366-2.102a3.768 3.768 0 0 1 1.276-2.238 3.71 3.71 0 0 1 2.407-.881h.075a.146.146 0 0 0 .093-.038.155.155 0 0 0 .049-.09c.063-.508.309-.975.69-1.313a2.075 2.075 0 0 1 1.379-.525h7.845a2.217 2.217 0 0 1 1.579.656c.207.208.372.456.484.729.113.272.171.565.171.86 0 .037.014.073.039.099a.135.135 0 0 0 .096.044l2.652.174c.193.026.381.085.554.175a4.258 4.258 0 0 1 1.907 1.824c.428.796.595 1.708.477 2.606l-.958 7.727v.022c.015.106.082 1.002.179 2.396.127 1.793.307 4.407.478 7.224.426 6.901.837 14.999.449 15.097z" fill="#3F3D56"/><path d="M177.82 87.44c1.286.386 2.487-.7 3.382-1.727l-.318.38c2.107 1.496 3.366 3.933 4.184 6.4.817 2.465 1.273 5.046 2.196 7.475.922 2.426 2.411 4.773 4.69 5.983 3.054 1.621 6.795.884 10.043-.285.043-.017.084-.03.127-.047a20.99 20.99 0 0 1-2.368-7.996 18.928 18.928 0 0 0 5.627 6.655 42.993 42.993 0 0 0 6.101-3.421c1.255-.846 2.576-1.94 2.722-3.454.148-1.504-.966-2.878-2.279-3.601-1.314-.724-2.825-.969-4.26-1.404-1.432-.432-2.894-1.142-3.647-2.448-1.734-3.002 1.185-7.237-.677-10.164-.917-1.439-2.697-2.015-4.348-2.415a57.066 57.066 0 0 0-7.656-1.303c-2.263-.228-4.601-.313-6.754.422-2.153.734-4.106 2.44-4.567 4.686-1.257.666-2.587 1.403-3.261 2.668-.675 1.262-.3 3.188 1.063 3.596z" fill="#2F2E41"/><path d="M179.741 86.931c1.232 1.557 1.903 3.24 1.903 4.248 2.559 4.716-1.101 8.768-5.779 11.349a9.52 9.52 0 0 1-6.123 1.076l-.196-.842-.265.758s-3.046 10.144-4.051 10.739c.381-1.806.818-10.164 1.03-11.925.294-2.398-.73-5.968-1.469-8.139a12.926 12.926 0 0 1-.696-4.158v-.062l-.719 2.33-2.619-1.127c.487-2.818 0-6.017 5.842-5.74 3.159-2.19 5.941-2.524 8.227-1.903.295-.46 1.996.402 2.487.16l2.428 3.236z" fill="#2F2E41"/><path d="M129.978 117.118c.129.434.35.834.649 1.173a3.07 3.07 0 0 0 2.388 1.037 3.054 3.054 0 0 0 1.29-.331l7.939 7.305 1.054-5.621-7.705-6.057a3.094 3.094 0 0 0-1.715-1.382 3.066 3.066 0 0 0-2.192.114 3.106 3.106 0 0 0-1.563 1.554 3.139 3.139 0 0 0-.145 2.208z" fill="#FFB6B6"/><path d="M157.609 111.535s2.768-6.307 6.264-5.054c3.496 1.254 1.691 7.374 1.691 7.374l-13.135 19.957s-13.815-8.853-11.512-8.94c2.304-.086 2.242-4.52 2.242-4.52l5.634 1.853.339-1.796.543.547 1.401-1.112 6.533-8.309z" fill="#3F3D56"/><path d="m38.867 217.689 4.08 1.08 6.072-15.351-6.02-1.594-4.132 15.865z" fill="#FFB6B6"/><path d="m37.606 221.943 12.544 3.321.042-.16a5.128 5.128 0 0 0-.523-3.86 5.056 5.056 0 0 0-3.077-2.356l-2.055-3.617-4.512 1.879-1.095-.29-1.324 5.083zM59.78 220.766h4.216l2.007-16.403-6.225.001.001 16.402z" fill="#FFB6B6"/><path d="m59.63 225.204 12.97-.001v-.165a5.11 5.11 0 0 0-1.48-3.599 5.025 5.025 0 0 0-3.569-1.491l-3.59-1.663-3.199 1.663H59.63v5.256z" fill="#FFB6B6"/><path d="M49.23 142.276c-1.019 1.284-.51 5.65-.51 5.65l1.046 28.172c-4.33 3.596-7.471 27.12-7.471 27.12.51 1.541 5.705 1.764 6.724 1.507 1.019-.257 14.196-45.953 14.196-45.953s-3.736 45.165-3.736 46.706c0 1.541 5.196 0 6.724 0 1.528 0 11.808-57.809 11.808-57.809v-3.596l-1.274-1.797s-26.488-1.284-27.507 0z" fill="#2F2E41"/><path d="M48.272 143.705s2.673-6.86 3.195-7.99c-1.278-.418-1.468-6.851-1.468-6.851l-1.68-1.694-.005-.042-.966-8.527-1.405-5.664a12.532 12.532 0 0 1 .13-6.503 12.446 12.446 0 0 1 3.37-5.547l3.248-.52 3.948-3.836h6.366l2.183 2.103c4.291 3.547 5.31 2.006 10.15 8.683l-3.465 9.205s3.99 19.116 3.774 20.205c0 0 1.667 2.049 1.904 3.165 0 0 .78 4.448.606 4.566-1.363.931-8.618-.161-11.954-1.507-3.553-1.432-17.931.754-17.931.754z" fill="#3F3D56"/><path d="M88.14 108.916s-9.797-2.025-14.017-.906l-.93 6.68 11.948 1.069 20.396-3.738a2.938 2.938 0 0 0 2.934-.447 2.998 2.998 0 0 0 .44-4.205 2.947 2.947 0 0 0-2.776-1.055 2.945 2.945 0 0 0-1.398.645l-16.598 1.957z" fill="#FFB6B6"/><path d="m74.422 115.079-7.844.096-3.702-3.625a5.491 5.491 0 0 1-1.477-2.611 5.521 5.521 0 0 1 .112-3.004 5.452 5.452 0 0 1 2.556-3.071 5.382 5.382 0 0 1 3.947-.485c4.03 1.06 5.594.815 6.408 3.66l3.736 1.507-.748 7.533h-2.988z" fill="#3F3D56"/><path d="M60.407 94.388c4.785 0 8.663-3.91 8.663-8.735 0-4.824-3.878-8.735-8.663-8.735-4.784 0-8.663 3.91-8.663 8.735 0 4.824 3.879 8.735 8.663 8.735z" fill="#FFB8B8"/><path d="M52.317 91.195c-.642-.924-1.098-2.403-1.367-3.485a10.574 10.574 0 0 1 1.425-8.408 3.183 3.183 0 0 1 1.236-1.176 1.354 1.354 0 0 1 1.58.266 2.887 2.887 0 0 1 .904-2.087 4.999 4.999 0 0 1 2.008-1.138 8.278 8.278 0 0 1 4.436-.12 8.326 8.326 0 0 1 3.87 2.19c.418.43.27-1.714.733-1.336.45.405 1.04.617 1.642.59.593-.064 1.684 2.067 1.69 1.466.624.63.9 3.289.704 4.158-.195.868-3.099.484-3.931.782-.552.197-1.15.204-1.722.332a4.293 4.293 0 0 0-2.485 1.772 4.356 4.356 0 0 0-.696 2.988 5.71 5.71 0 0 0-1.31-1.281 1.915 1.915 0 0 0-1.748-.22 2.167 2.167 0 0 0-1.065 1.353c-.19.562-.262 1.158-.455 1.719-.565 1.644-.857 3.37-2.432 3.76-1.243.308-2.14-.864-3.017-2.125z" fill="#2F2E41"/><path d="m164.578 232.001-12.97-.001v-.165a5.11 5.11 0 0 1 1.479-3.599 5.026 5.026 0 0 1 3.569-1.491h.001l3.589-1.663 3.2 1.663h1.132v5.256zM192.359 232.001 179.39 232v-.165c0-1.35.532-2.645 1.478-3.599a5.027 5.027 0 0 1 3.57-1.491l3.589-1.663 3.2 1.663h1.132v5.256z" fill="#FFB6B6"/></g><defs><clipPath id="a"><path fill="#fff" transform="translate(6 31)" d="M0 0h230v201H0z"/></clipPath></defs></svg>