<svg width="150" height="28" viewBox="0 0 150 28" fill="none" xmlns="http://www.w3.org/2000/svg">
<path d="M2.06685 27.6527C1.73281 27.8323 1.40882 27.8741 1.0943 27.7777C0.779388 27.6814 0.538665 27.4664 0.371936 27.1326L0.179513 26.7473C-0.000160152 26.4133 -0.0420837 26.0955 0.0543213 25.7939C0.150533 25.4923 0.378312 25.2578 0.738044 25.0911C1.61091 24.6287 2.23686 24.1021 2.61572 23.5117C2.99419 22.9211 3.18391 22.0672 3.18391 20.9501V1.5748C3.18391 1.21546 3.27703 0.936289 3.46327 0.737104C3.64913 0.538111 3.90917 0.438421 4.24321 0.438421H5.26386C5.95744 0.438421 6.30403 0.81728 6.30403 1.5748V20.6228C6.30403 21.5985 6.22038 22.4458 6.05365 23.1651C5.88654 23.884 5.61355 24.5132 5.23508 25.0524C4.85622 25.5918 4.42288 26.0572 3.93506 26.449C3.44704 26.8403 2.82418 27.2415 2.06685 27.6527Z" fill="black"/>
<path d="M32.0115 0.437845C32.3453 0.437845 32.6052 0.537535 32.7916 0.736334C32.9775 0.935711 33.0708 1.21488 33.0708 1.57423V19.2162C33.0708 19.5629 32.9775 19.8392 32.7916 20.0444C32.6052 20.25 32.3453 20.3525 32.0115 20.3525H31.2219C30.8878 20.3525 30.6247 20.25 30.4323 20.0444C30.2397 19.8392 30.1433 19.5629 30.1433 19.2162V17.9451C28.6794 19.8711 26.5929 20.834 23.8839 20.834C21.5342 20.834 19.6434 20.0863 18.2118 18.5902C16.7801 17.0947 16.0645 15.1204 16.0645 12.6678V1.57423C16.0645 1.21488 16.1607 0.935711 16.3533 0.736334C16.5459 0.537535 16.809 0.437845 17.1431 0.437845H18.1637C18.8442 0.437845 19.1844 0.816702 19.1844 1.57423V12.5909C19.1844 14.2348 19.666 15.5568 20.6289 16.5584C21.592 17.5599 22.863 18.0606 24.4424 18.0606C26.1113 18.0606 27.447 17.5406 28.4483 16.5006C29.4499 15.4606 29.9506 14.0738 29.9506 12.3405V1.57423C29.9506 0.816702 30.2972 0.437845 30.9908 0.437845H32.0115Z" fill="black"/>
<path d="M66.5835 0.148041C68.9971 0.148041 70.9039 0.902472 72.3035 2.41095C73.703 3.91982 74.4029 5.90027 74.4029 8.35271V19.2152C74.4029 19.562 74.3067 19.8382 74.1141 20.0434C73.9213 20.249 73.658 20.3516 73.3243 20.3516H72.3035C71.9694 20.3516 71.7161 20.249 71.5429 20.0434C71.3694 19.8382 71.2828 19.562 71.2828 19.2152V8.64154C71.2828 6.89562 70.8207 5.50557 69.896 4.47178C68.9716 3.43837 67.6876 2.92138 66.0441 2.92138C64.3749 2.92138 63.0041 3.44474 61.9323 4.4911C60.8601 5.53764 60.3241 6.92112 60.3241 8.64154V19.2152C60.3241 19.562 60.2341 19.8382 60.0544 20.0434C59.8744 20.249 59.6176 20.3516 59.284 20.3516H58.2633C57.9293 20.3516 57.669 20.249 57.4832 20.0434C57.2969 19.8382 57.204 19.562 57.204 19.2152V8.64154C57.204 6.89562 56.7384 5.50557 55.8076 4.47178C54.8764 3.43837 53.5893 2.92138 51.946 2.92138C50.2767 2.92138 48.906 3.44474 47.834 4.4911C46.7617 5.53764 46.2258 6.92112 46.2258 8.64154V19.2152C46.2258 19.562 46.1358 19.8382 45.9561 20.0434C45.7762 20.249 45.5131 20.3516 45.1667 20.3516H44.1845C43.8503 20.3516 43.5902 20.249 43.4042 20.0434C43.2181 19.8382 43.125 19.562 43.125 19.2152V1.57325C43.125 1.21391 43.2181 0.934736 43.4042 0.73555C43.5902 0.536558 43.8503 0.436869 44.1845 0.436869H44.9739C45.3077 0.436869 45.5678 0.536558 45.7542 0.73555C45.9399 0.934736 46.0334 1.21391 46.0334 1.57325V3.19108C47.5227 1.16232 49.6925 0.148041 52.5429 0.148041C54.148 0.148041 55.541 0.494635 56.7224 1.18802C57.9036 1.8814 58.8025 2.85105 59.4188 4.0964C60.1122 2.86361 61.0751 1.89763 62.3077 1.19768C63.5405 0.498112 64.9657 0.148041 66.5835 0.148041Z" fill="black"/>
<path d="M89.898 20.834C88.5753 20.834 87.2527 20.561 85.9305 20.0154C84.6079 19.4698 83.5229 18.6899 82.6755 17.6754C82.1749 17.0079 82.2004 16.4558 82.7528 16.0191L83.0223 15.7301C83.2277 15.5634 83.4104 15.4446 83.5712 15.3739C83.7317 15.3035 83.9114 15.2968 84.1106 15.3547C84.3092 15.4125 84.5116 15.5504 84.7172 15.7688C86.1038 17.3224 87.7728 18.0991 89.7249 18.0991C90.9443 18.0991 91.9265 17.8423 92.6715 17.3288C93.4159 16.8153 93.7886 16.1283 93.7886 15.268C93.7886 14.7545 93.6827 14.2985 93.4706 13.9006C93.2588 13.5026 92.9248 13.1494 92.4692 12.8411C92.0131 12.5329 91.5703 12.2763 91.1404 12.0708C90.7098 11.8654 90.1483 11.6214 89.455 11.339C89.301 11.2748 89.1855 11.23 89.1084 11.2039C88.402 10.9217 87.8402 10.684 87.4229 10.4914C87.0056 10.2988 86.5145 10.0293 85.9498 9.68249C85.3845 9.33571 84.9483 8.98911 84.6401 8.64252C84.332 8.29592 84.0654 7.86239 83.8407 7.3425C83.6158 6.82241 83.5037 6.25422 83.5037 5.63793C83.5037 3.98165 84.1106 2.65265 85.3236 1.65112C86.5371 0.649593 88.1517 0.149021 90.1677 0.149021C92.5815 0.149021 94.5781 0.990005 96.1575 2.67197C96.7352 3.24982 96.7607 3.8213 96.2344 4.38601L95.9649 4.65572C95.3871 5.23337 94.822 5.25945 94.27 4.7328C93.5382 4.02667 92.867 3.53556 92.2575 3.25948C91.6474 2.98341 90.925 2.84527 90.0906 2.84527C89.0506 2.84527 88.2191 3.07633 87.5966 3.53865C86.9734 4.00097 86.6623 4.61089 86.6623 5.36842C86.6623 6.08749 86.9575 6.67172 87.5483 7.1209C88.1389 7.57047 89.089 8.07761 90.3987 8.64252C92.2476 9.43868 93.4675 10.0165 94.0581 10.3759C95.5988 11.3133 96.5167 12.4945 96.8123 13.9197C96.9019 14.3308 96.9471 14.7672 96.9471 15.2294C96.9471 16.9243 96.3018 18.2822 95.0115 19.3027C93.7209 20.3236 92.0166 20.834 89.898 20.834Z" fill="black"/>
<path d="M112.104 18.1377C113.17 18.1377 114.181 17.9422 115.137 17.5502C116.094 17.1588 116.883 16.5777 117.506 15.8072C118.129 15.0367 118.44 14.1575 118.44 13.1685V11.9166C116.386 10.8896 114.428 10.3759 112.566 10.3759C110.961 10.3759 109.668 10.7514 108.685 11.5028C107.703 12.2536 107.212 13.2329 107.212 14.4398C107.212 15.5568 107.661 16.4523 108.56 17.1265C109.459 17.8006 110.64 18.1377 112.104 18.1377ZM113.163 0.149021C115.77 0.149021 117.795 0.848972 119.24 2.24829C120.684 3.64781 121.406 5.6445 121.406 8.23796V19.2162C121.406 19.9739 121.066 20.3525 120.386 20.3525H119.596C119.249 20.3525 118.986 20.25 118.806 20.0444C118.626 19.8392 118.537 19.5629 118.537 19.2162V17.7525C117.702 18.7154 116.688 19.47 115.494 20.0154C114.3 20.561 113.048 20.834 111.738 20.834C109.439 20.834 107.59 20.2467 106.191 19.0716C104.792 17.8968 104.092 16.3402 104.092 14.4013C104.092 12.424 104.859 10.8318 106.393 9.62473C107.928 8.41783 109.947 7.81428 112.451 7.81428C114.454 7.81428 116.437 8.28317 118.402 9.22037V7.66031C118.402 6.22235 117.907 5.06684 116.919 4.19359C115.93 3.32053 114.627 2.88391 113.009 2.88391C110.826 2.88391 108.842 3.56454 107.058 4.92542C106.506 5.3491 106.005 5.25945 105.555 4.65572L105.305 4.34757C105.074 4.00097 104.994 3.67351 105.064 3.36536C105.135 3.05721 105.324 2.80045 105.633 2.59489C106.942 1.68339 108.188 1.04796 109.369 0.688232C110.55 0.328888 111.815 0.149021 113.163 0.149021Z" fill="black"/>
<path d="M140.142 18.023C141.452 18.023 142.629 17.7506 143.676 17.2046C144.722 16.6589 145.57 15.8082 146.218 14.6527C146.867 13.497 147.191 12.1102 147.191 10.4924C147.191 8.87458 146.864 7.48492 146.209 6.32265C145.554 5.16077 144.703 4.31012 143.657 3.77072C142.61 3.23151 141.439 2.96181 140.142 2.96181C138.01 2.96181 136.287 3.69074 134.971 5.14783C133.654 6.6053 132.997 8.38676 132.997 10.4924C132.997 12.5984 133.654 14.3801 134.971 15.8372C136.287 17.2945 138.01 18.023 140.142 18.023ZM148.924 0.438852C149.258 0.438852 149.521 0.538542 149.714 0.737341C149.907 0.93672 150.003 1.21589 150.003 1.57524V26.7093C150.003 27.0687 149.907 27.3478 149.714 27.547C149.521 27.746 149.258 27.8457 148.924 27.8457H147.903C147.223 27.8457 146.883 27.4668 146.883 26.7093V17.869C144.995 19.8464 142.639 20.835 139.815 20.835C138.363 20.835 137.015 20.5622 135.77 20.0164C134.524 19.471 133.468 18.7357 132.602 17.8113C131.735 16.8868 131.058 15.7889 130.57 14.5179C130.082 13.2466 129.838 11.9051 129.838 10.4924C129.838 8.57938 130.252 6.83965 131.08 5.27302C131.908 3.70658 133.089 2.46104 134.624 1.53679C136.158 0.61215 137.889 0.150024 139.815 0.150024C142.729 0.150024 145.149 1.17744 147.075 3.23151V1.57524C147.075 1.21589 147.168 0.93672 147.355 0.737341C147.541 0.538542 147.801 0.438852 148.135 0.438852H148.924Z" fill="black"/>
</svg>
