<svg width="240" height="270" viewBox="0 0 240 270" fill="none" xmlns="http://www.w3.org/2000/svg">
<g clip-path="url(#clip0_940_2336)">
<path d="M81.9605 115.686C81.9605 115.686 86.7003 120.551 87.1211 123.294L82.9978 125.652L78.2388 117.369L75.7288 106.312C75.4931 106.078 75.3239 105.786 75.2386 105.465C75.1533 105.145 75.1549 104.808 75.2431 104.489C75.3314 104.169 75.5032 103.878 75.7411 103.646C75.979 103.414 76.2746 103.248 76.5978 103.166C76.921 103.084 77.2603 103.088 77.5813 103.178C77.9023 103.269 78.1935 103.442 78.4255 103.68C78.6574 103.918 78.8218 104.213 78.9019 104.534C78.982 104.856 78.9749 105.193 78.8815 105.511L81.9605 115.686Z" fill="#FFB6B6"/>
<path d="M125.921 104.022C125.839 103.701 125.845 103.364 125.937 103.045C126.029 102.727 126.204 102.438 126.445 102.209C126.685 101.979 126.983 101.817 127.307 101.739C127.631 101.66 127.97 101.669 128.29 101.763C128.61 101.857 128.899 102.033 129.128 102.274C129.357 102.515 129.518 102.812 129.595 103.134C129.671 103.457 129.66 103.794 129.563 104.111C129.465 104.427 129.285 104.713 129.041 104.939L126.12 115.896L121.055 123.998L117.022 121.489C117.545 118.763 122.464 114.077 122.464 114.077L125.921 104.022Z" fill="#FFB6B6"/>
<path d="M50.8112 143.763C50.7816 137.306 53.2769 131.22 56.0505 125.493C58.9166 119.576 62.1794 113.771 63.799 107.356C64.7447 103.823 64.9748 100.139 64.4757 96.517C64.3778 95.8713 63.3899 96.1457 63.4872 96.7877C64.4804 103.34 62.3337 109.866 59.6604 115.776C57.0094 121.637 53.7047 127.211 51.6364 133.323C50.4468 136.678 49.8216 140.206 49.7861 143.763C49.7907 143.895 49.8468 144.02 49.9424 144.112C50.038 144.204 50.1657 144.255 50.2987 144.255C50.4316 144.255 50.5594 144.204 50.655 144.112C50.7506 144.02 50.8066 143.895 50.8112 143.763Z" fill="#E6E6E6"/>
<path d="M80.6031 145.93C80.3839 143.181 82.3378 140.887 84.6441 139.626C87.5708 138.024 91.113 138.162 94.3474 138.257C97.6654 138.389 100.989 138.232 104.279 137.788C112.05 136.666 119.444 133.738 125.859 129.241C132.274 124.743 137.529 118.805 141.196 111.908C144.238 106.189 146.379 99.5936 145.524 93.0616C145.421 92.2673 145.273 91.4793 145.083 90.7011C144.927 90.0648 143.938 90.3343 144.095 90.9717C145.687 97.461 143.861 104.258 140.966 110.116C138.306 115.486 134.676 120.327 130.258 124.397C125.631 128.66 120.21 131.984 114.3 134.183C111.231 135.323 108.056 136.16 104.822 136.682C101.544 137.185 98.2244 137.377 94.9094 137.255C91.6136 137.16 88.1208 136.987 85.0234 138.312C82.5993 139.349 80.349 141.403 79.7245 144.028C79.5765 144.65 79.5271 145.292 79.578 145.93C79.6297 146.579 80.6552 146.584 80.6031 145.93Z" fill="#E6E6E6"/>
<path d="M185.008 51.8202C183.801 51.2806 182.616 50.7613 181.481 50.2828C181.31 50.2116 181.139 50.1369 180.969 50.0656L180.948 50.0554C179.926 49.621 178.902 49.1957 177.876 48.7794C177.159 48.4875 176.445 48.199 175.727 47.9174C175.447 47.802 175.167 47.6934 174.883 47.5848C174.428 47.4049 173.971 47.2284 173.516 47.0519C173.14 46.906 172.761 46.7635 172.385 46.6209C171.951 46.4546 171.517 46.2951 171.087 46.1322C170.574 45.9422 170.063 45.7544 169.552 45.5689C169.547 45.5661 169.541 45.5649 169.535 45.5655C169.149 45.4229 168.763 45.2838 168.38 45.148C163.183 43.2882 157.911 41.6253 152.703 40.2033C152.515 40.1524 152.327 40.1015 152.139 40.0506C151.815 39.9623 151.49 39.8741 151.165 39.7859C150.591 39.6331 150.015 39.4838 149.436 39.3379C148.893 39.1953 148.346 39.0596 147.8 38.9238C147.318 38.8051 146.836 38.6863 146.351 38.5709C145.876 38.4555 145.401 38.3435 144.923 38.2349C143.498 37.9023 142.075 37.5878 140.655 37.2914C140.645 37.2886 140.634 37.2875 140.624 37.288C140.282 37.2134 139.944 37.1421 139.602 37.0742C134.415 36.0188 129.139 35.1703 123.922 34.5493C123.665 34.5187 123.409 34.4882 123.153 34.461H123.146C123.102 34.4542 123.054 34.4508 123.009 34.4474C122.579 34.3965 122.148 34.349 121.718 34.3049C121.15 34.2438 120.587 34.1861 120.019 34.1318C118.676 33.9995 117.336 33.8841 115.998 33.7857C115.659 33.7585 115.324 33.7347 114.99 33.7144C114.603 33.6838 114.217 33.6601 113.835 33.6363C113.438 33.6092 113.042 33.5854 112.645 33.5651C112.495 33.5549 112.348 33.5481 112.201 33.5413C112.017 33.5277 111.829 33.5209 111.644 33.5108C111.368 33.4972 111.091 33.4836 110.814 33.47C105.606 33.2223 100.334 33.2019 95.1401 33.4089C94.8531 33.4191 94.5661 33.4327 94.2756 33.4463H94.2654C94.0569 33.4565 93.8485 33.4632 93.6367 33.4734C93.5615 33.4768 93.4829 33.4802 93.4077 33.4836C92.8917 33.5108 92.3758 33.5379 91.8598 33.5684C91.3097 33.599 90.763 33.6329 90.2162 33.6703C89.8711 33.694 89.5294 33.7178 89.1877 33.7415C88.9622 33.7585 88.7367 33.7755 88.5077 33.7924C87.0794 33.901 85.6511 34.0266 84.233 34.1691C83.7581 34.2167 83.2865 34.2642 82.815 34.3151C82.5519 34.3422 82.2922 34.3694 82.0325 34.3999C76.825 34.9837 71.5491 35.8083 66.3552 36.8468C66.0135 36.9147 65.6684 36.986 65.3233 37.0573C65.3165 37.0573 65.3096 37.0606 65.3028 37.0606C65.2516 37.0708 65.1969 37.081 65.1456 37.0946C64.7903 37.1659 64.4315 37.2405 64.0761 37.3186C63.6832 37.4 63.2936 37.4849 62.9007 37.5697C62.5726 37.641 62.2446 37.7157 61.9166 37.7903C61.1443 37.9634 60.3686 38.1399 59.5964 38.3265C58.0246 38.6999 56.4539 39.0947 54.8844 39.511C54.529 39.606 54.1702 39.701 53.8114 39.7994C53.8088 39.7997 53.8063 39.8009 53.8046 39.8028C53.6201 39.8503 53.4321 39.9012 53.2476 39.9522C48.0537 41.3708 42.7813 43.0473 37.5738 44.941C37.1911 45.0802 36.8084 45.2193 36.4222 45.3652C36.4128 45.3659 36.4035 45.3682 36.3949 45.372C35.3596 45.7555 34.3185 46.1492 33.2718 46.5531C32.8925 46.7024 32.5098 46.8517 32.1271 47.001C31.758 47.147 31.3856 47.2929 31.0165 47.4422C30.6919 47.5712 30.3707 47.7002 30.0461 47.8325C29.7864 47.9377 29.5301 48.0429 29.2704 48.1481C28.382 48.5147 27.4947 48.8857 26.6086 49.2613C26.0721 49.4921 25.5322 49.7228 24.9958 49.957C24.8215 50.0317 24.6438 50.1063 24.4695 50.1844C23.1779 50.7512 22.0025 51.2772 20.8749 51.7964C19.6739 52.3481 18.6566 53.2288 17.9423 54.335C17.228 55.4412 16.8466 56.7269 16.8428 58.041V70.0177C16.8428 71.0847 17.0931 72.137 17.5739 73.0912C18.0546 74.0455 18.7526 74.8753 19.6125 75.5149C20.4724 76.1546 21.4706 76.5864 22.5278 76.7762C23.585 76.966 24.6721 76.9086 25.7031 76.6084C26.2122 76.4591 26.7214 76.3097 27.2339 76.1604C27.661 76.0348 28.0916 75.9127 28.5187 75.7905C28.9868 75.6581 29.4515 75.5258 29.9197 75.3934C30.9892 75.0982 32.0656 74.8029 33.1419 74.5178C33.6442 74.3855 34.1465 74.2531 34.6488 74.1207C35.4381 73.9137 36.2275 73.7135 37.0168 73.5133C37.2355 73.459 37.4542 73.4047 37.6729 73.3504C41.107 72.4951 44.5581 71.701 47.982 70.9815C48.3339 70.9068 48.6859 70.8356 49.0344 70.7643C50.473 70.4656 51.9036 70.1828 53.3262 69.9159L54.3513 69.7224H54.3615C54.6964 69.6579 55.0313 69.5968 55.3662 69.5358C56.3024 69.3661 57.2444 69.2009 58.192 69.0403C58.7353 68.9452 59.282 68.8536 59.8288 68.7654C59.8834 68.7552 59.9381 68.745 59.9928 68.7382C60.9359 68.5821 61.8812 68.4317 62.8289 68.2869C63.4713 68.1884 64.1171 68.09 64.7629 67.9984C65.3131 67.9169 65.8632 67.8389 66.4133 67.7608C71.6277 67.0346 76.8933 66.4542 82.0667 66.047C82.5143 66.0096 82.9619 65.9757 83.4095 65.9417C85.1454 65.8128 86.8949 65.6974 88.6478 65.6024C90.8142 65.487 92.9874 65.3953 95.1504 65.3309C100.344 65.1714 105.61 65.1714 110.8 65.3309C112.967 65.3953 115.14 65.487 117.306 65.6024C119.059 65.6974 120.809 65.8128 122.545 65.9417C122.992 65.9757 123.44 66.0096 123.887 66.047C129.057 66.4542 134.323 67.0312 139.544 67.7608C139.794 67.7948 140.04 67.8321 140.289 67.866C140.378 67.8796 140.463 67.8898 140.552 67.9034C140.932 67.9577 141.311 68.0153 141.69 68.0696C143.115 68.2801 144.539 68.5029 145.961 68.7382C146.327 68.7959 146.693 68.857 147.055 68.9181C147.837 69.0504 148.616 69.1851 149.392 69.322C149.843 69.4034 150.291 69.4849 150.738 69.5663C151.022 69.6172 151.309 69.6681 151.593 69.7224C151.938 69.7869 152.283 69.8514 152.625 69.9159C153.188 70.0211 153.752 70.1297 154.319 70.2417C154.675 70.3129 155.034 70.3808 155.392 70.4555C159.216 71.2191 163.077 72.0777 166.921 73.0144C167.321 73.1128 167.721 73.2112 168.121 73.3096C168.175 73.3232 168.227 73.3368 168.281 73.3504C168.695 73.4522 169.108 73.5574 169.522 73.6626C170.113 73.8119 170.705 73.9647 171.298 74.1208C171.801 74.2497 172.303 74.3821 172.805 74.5178C174.357 74.9285 175.908 75.3561 177.449 75.7939C178.389 76.062 179.324 76.3335 180.254 76.6084H180.261C180.632 76.7175 181.012 76.7947 181.396 76.8392C181.668 76.873 181.942 76.89 182.216 76.8901C184.048 76.8863 185.803 76.1602 187.096 74.8716C188.389 73.5829 189.114 71.837 189.111 70.0177V58.0953C189.108 56.768 188.719 55.4699 187.991 54.3568C187.263 53.2437 186.227 52.363 185.008 51.8202Z" fill="#E56553"/>
<path d="M37.3518 45.4896C37.2179 45.3973 37.0638 45.3378 36.9023 45.316C36.7408 45.2942 36.5763 45.3106 36.4224 45.364C36.413 45.3646 36.4037 45.3669 36.3951 45.3708C35.3597 45.7543 34.3187 46.1479 33.2719 46.5518C32.8926 46.7011 32.5099 46.8505 32.1272 46.9998C31.7582 47.1457 31.3857 47.2916 31.0167 47.441C30.6921 47.5699 30.3709 47.6989 30.0463 47.8313C29.7866 47.9365 29.5303 48.0417 29.2706 48.1469C28.3822 48.5134 27.4949 48.8845 26.6088 49.26C26.0723 49.4908 25.5324 49.7216 24.9959 49.9558C24.809 50.0366 24.6499 50.17 24.5382 50.3394C24.4266 50.5088 24.3671 50.7069 24.3672 50.9094V75.606C24.3665 75.7689 24.4045 75.9298 24.4781 76.0754C24.5518 76.2211 24.6589 76.3474 24.7909 76.4442C24.8747 76.5053 24.9667 76.5544 25.0643 76.5902C25.2704 76.6621 25.4942 76.6669 25.7032 76.6037L27.2306 76.1558C27.6578 76.0336 28.0849 75.9114 28.512 75.7892C28.9802 75.6569 29.4483 75.5245 29.9198 75.3922C30.9894 75.0969 32.0657 74.8016 33.1421 74.5166C33.6444 74.3808 34.1467 74.2485 34.649 74.1195C35.4383 73.9125 36.2277 73.7122 37.017 73.512C37.2118 73.4626 37.3885 73.359 37.5261 73.2134L37.5295 73.21C37.705 73.0188 37.8024 72.7695 37.8029 72.5108V46.3448C37.803 46.1766 37.762 46.0109 37.6835 45.862C37.6049 45.713 37.4911 45.5852 37.3518 45.4896Z" fill="#3F3D56"/>
<path d="M66.1711 37.2715C66.0545 37.1761 65.918 37.1074 65.7715 37.0704C65.625 37.0334 65.4721 37.0291 65.3237 37.0577C65.3169 37.0577 65.3101 37.0611 65.3032 37.0611C65.252 37.0713 65.1973 37.0815 65.146 37.0951C64.7907 37.1663 64.4319 37.241 64.0765 37.3191C63.6836 37.4005 63.294 37.4854 62.9011 37.5702C62.573 37.6415 62.245 37.7161 61.917 37.7908C61.1447 37.9639 60.3691 38.1404 59.5968 38.327C58.0216 38.7003 56.4509 39.0951 54.8848 39.5114C54.5567 39.5963 54.2253 39.6845 53.8972 39.7728C53.8683 39.7803 53.8398 39.7893 53.8118 39.7999C53.8092 39.8002 53.8068 39.8014 53.805 39.8033C53.6057 39.8781 53.4339 40.0114 53.3125 40.1853C53.1911 40.3592 53.1257 40.5657 53.125 40.7773V68.7047C53.1246 68.857 53.1582 69.0074 53.2231 69.1453C53.2881 69.2831 53.383 69.4051 53.5009 69.5023C53.5817 69.5694 53.6729 69.6232 53.7708 69.6618C53.8966 69.713 54.0312 69.7395 54.1672 69.7398C54.2291 69.7393 54.2908 69.7336 54.3517 69.7229H54.362C54.6968 69.6584 55.0317 69.5973 55.3666 69.5362C56.3028 69.3665 57.2448 69.2014 58.1924 69.0407C58.7357 68.9457 59.2825 68.8541 59.8292 68.7658C59.8838 68.7557 59.9385 68.7455 59.9932 68.7387C60.9363 68.5826 61.8817 68.4321 62.8293 68.2873C63.4717 68.1889 64.1175 68.0905 64.7633 67.9989C65.064 67.9513 65.3647 67.9106 65.6654 67.8665C65.8645 67.8392 66.0511 67.7542 66.2019 67.6222C66.3142 67.5249 66.4042 67.4049 66.4661 67.2703C66.528 67.1357 66.5602 66.9895 66.5607 66.8416V38.0793C66.5608 37.9243 66.5259 37.7712 66.4584 37.6314C66.391 37.4916 66.2928 37.3686 66.1711 37.2715Z" fill="#3F3D56"/>
<path d="M94.9939 33.7357C94.8001 33.5528 94.5437 33.4497 94.2763 33.4473H94.2251C94.0303 33.4574 93.8321 33.4642 93.6373 33.4744C93.5622 33.4778 93.4836 33.4812 93.4084 33.4846C92.8924 33.5117 92.3765 33.5389 91.8605 33.5694C91.3104 33.6 90.7636 33.6339 90.2169 33.6713C89.8718 33.695 89.5301 33.7188 89.1884 33.7425C88.9629 33.7595 88.7373 33.7765 88.5084 33.7934C87.0801 33.902 85.6518 34.0276 84.2337 34.1701C83.7588 34.2177 83.2872 34.2652 82.8157 34.3161C82.5588 34.3436 82.3214 34.4646 82.1491 34.6557C81.9768 34.8469 81.882 35.0946 81.8828 35.3512V64.9416C81.8825 65.0839 81.9122 65.2247 81.9698 65.3551C82.0275 65.4854 82.1119 65.6023 82.2177 65.6984C82.2814 65.7581 82.3526 65.8095 82.4295 65.8511C82.5828 65.9334 82.7542 65.9765 82.9284 65.9767C82.9523 65.9767 82.9797 65.9733 83.007 65.9733C83.1403 65.9631 83.277 65.9529 83.4102 65.9427C85.1461 65.8138 86.8956 65.6984 88.6485 65.6033C90.5381 65.4981 92.4277 65.4167 94.3071 65.3556C94.5104 65.3525 94.7081 65.2886 94.8743 65.1723C95.0121 65.0766 95.1245 64.949 95.2019 64.8007C95.2793 64.6523 95.3193 64.4876 95.3185 64.3205V34.4892C95.3191 34.3482 95.2906 34.2086 95.2348 34.079C95.1789 33.9495 95.097 33.8326 94.9939 33.7357Z" fill="#3F3D56"/>
<path d="M123.153 34.4621H123.146C123.102 34.4553 123.054 34.4519 123.01 34.4485C122.579 34.3976 122.149 34.3501 121.718 34.306C121.151 34.2449 120.587 34.1872 120.02 34.1329C118.677 34.0006 117.336 33.8852 115.998 33.7868C115.66 33.7596 115.325 33.7358 114.99 33.7155C114.604 33.6849 114.218 33.6612 113.835 33.6374C113.439 33.6103 113.042 33.5865 112.646 33.5662C112.496 33.556 112.349 33.5492 112.202 33.5424C112.045 33.5322 111.891 33.522 111.737 33.5153C111.706 33.5124 111.676 33.5113 111.645 33.5119C111.39 33.5194 111.148 33.6211 110.965 33.7969C110.861 33.894 110.778 34.0113 110.722 34.1415C110.665 34.2717 110.636 34.412 110.637 34.5537V64.3206C110.636 64.4881 110.676 64.6532 110.754 64.8017C110.832 64.9501 110.946 65.0774 111.084 65.1724C111.249 65.2887 111.446 65.3526 111.648 65.3557C113.528 65.4168 115.417 65.4983 117.307 65.6035C119.06 65.6985 120.809 65.8139 122.545 65.9428C122.678 65.953 122.815 65.9632 122.948 65.9734C122.976 65.9734 122.999 65.9768 123.027 65.9768C123.201 65.9767 123.372 65.9335 123.526 65.8512C123.603 65.8096 123.674 65.7583 123.738 65.6985C123.843 65.6019 123.927 65.4849 123.984 65.3547C124.042 65.2245 124.072 65.0839 124.072 64.9417V35.4938C124.072 35.2403 123.978 34.9958 123.809 34.8059C123.639 34.616 123.407 34.4938 123.153 34.4621Z" fill="#3F3D56"/>
<path d="M152.139 40.0534C152.112 40.0428 152.085 40.0338 152.057 40.0262C151.76 39.9448 151.462 39.8667 151.165 39.7887C150.591 39.6359 150.015 39.4866 149.436 39.3407C148.893 39.1982 148.346 39.0624 147.799 38.9266C147.318 38.8079 146.836 38.6891 146.351 38.5737C145.876 38.4583 145.401 38.3463 144.922 38.2377C143.497 37.9051 142.075 37.5906 140.654 37.2942C140.644 37.2914 140.634 37.2903 140.624 37.2908C140.476 37.2635 140.325 37.2684 140.18 37.3054C140.034 37.3423 139.899 37.4103 139.783 37.5047C139.661 37.6017 139.563 37.7247 139.496 37.8645C139.428 38.0043 139.393 38.1574 139.394 38.3124V66.8439C139.394 66.9922 139.426 67.1387 139.489 67.2734C139.551 67.4082 139.642 67.5279 139.756 67.6245C139.905 67.7564 140.091 67.8415 140.289 67.8688C140.378 67.8824 140.463 67.8926 140.552 67.9061C140.931 67.9604 141.311 68.0148 141.69 68.0724C143.115 68.2829 144.538 68.5057 145.961 68.741C146.327 68.7987 146.692 68.8598 147.055 68.9209C147.837 69.0533 148.616 69.1879 149.392 69.3248C149.843 69.4062 150.29 69.4877 150.738 69.5691C151.022 69.62 151.309 69.6709 151.592 69.7252C151.657 69.7359 151.722 69.7416 151.787 69.7422C151.923 69.7422 152.058 69.7157 152.183 69.6641C152.282 69.6263 152.373 69.5724 152.453 69.5046C152.571 69.4074 152.666 69.2855 152.731 69.1476C152.796 69.0097 152.83 68.8593 152.829 68.7071V41.0308C152.829 40.8173 152.762 40.609 152.639 40.4342C152.516 40.2594 152.341 40.1265 152.139 40.0534Z" fill="#3F3D56"/>
<path d="M180.97 50.0657L180.949 50.0556C179.927 49.6212 178.903 49.1958 177.877 48.7795C177.16 48.4876 176.445 48.1992 175.728 47.9175C175.448 47.8021 175.167 47.6935 174.884 47.5849C174.429 47.405 173.972 47.2285 173.517 47.0521C173.141 46.9061 172.762 46.7636 172.386 46.621C171.952 46.4548 171.518 46.2952 171.088 46.1323C170.575 45.9423 170.064 45.7545 169.553 45.569C169.548 45.5662 169.542 45.5651 169.536 45.5656C169.381 45.5102 169.215 45.493 169.052 45.5154C168.889 45.5379 168.734 45.5994 168.6 45.6945C168.462 45.7902 168.349 45.9176 168.271 46.0659C168.193 46.2143 168.152 46.3791 168.152 46.5464V72.5122C168.152 72.7277 168.221 72.9378 168.347 73.1129C168.371 73.1472 168.398 73.18 168.426 73.2113L168.429 73.2147C168.566 73.361 168.743 73.4648 168.938 73.5134C169.133 73.5609 169.328 73.6118 169.523 73.6627C170.114 73.812 170.706 73.9647 171.299 74.1209C171.802 74.2498 172.304 74.3822 172.806 74.5179C174.358 74.9286 175.909 75.3562 177.45 75.794C178.39 76.0621 179.325 76.3336 180.255 76.6085H180.262C180.357 76.6353 180.454 76.649 180.553 76.6492C180.668 76.6488 180.782 76.6293 180.891 76.5915C180.989 76.5572 181.081 76.5079 181.164 76.4456C181.295 76.3481 181.402 76.2215 181.475 76.0759C181.547 75.9304 181.585 75.7699 181.585 75.6073V51.0126C181.585 50.8127 181.527 50.6169 181.418 50.4488C181.309 50.2808 181.153 50.1478 180.97 50.0657Z" fill="#3F3D56"/>
<path d="M27.2566 76.1777C31.7063 79.1557 36.3524 81.8334 41.0347 84.4313C46.0436 87.2104 51.1048 89.8951 56.1147 92.6726C61.1547 95.4669 66.1501 98.3512 70.9689 101.511C75.6546 104.523 80.0848 107.91 84.2153 111.638C88.1271 115.235 91.6702 119.253 94.4554 123.779C94.7876 124.319 95.1086 124.865 95.4185 125.418C95.7401 125.99 96.6259 125.477 96.3036 124.904C93.6509 120.29 90.3483 116.077 86.4958 112.391C82.4673 108.538 78.1057 105.044 73.4614 101.95C68.6741 98.6951 63.6836 95.7459 58.6355 92.9111C53.6022 90.0846 48.5036 87.3753 43.4439 84.5962C38.681 81.9802 33.9419 79.3068 29.3796 76.3554C28.8416 76.0073 28.3064 75.6551 27.774 75.2986C27.2254 74.9315 26.7118 75.8131 27.2566 76.1777Z" fill="#3F3D56"/>
<path d="M44.5522 64.2296C46.6841 69.0012 49.3035 73.543 52.3691 77.7835C55.5064 82.1263 58.8622 86.3093 62.4236 90.3165C65.9861 94.3927 69.6553 98.3751 73.2436 102.429C76.791 106.436 80.2692 110.514 83.4456 114.821C86.5976 119.013 89.3352 123.497 91.6202 128.212C91.8967 128.796 92.164 129.385 92.4221 129.977C92.6837 130.577 93.5671 130.059 93.3072 129.463C91.1753 124.692 88.5559 120.15 85.4904 115.91C82.353 111.567 78.9973 107.384 75.4358 103.377C71.8734 99.3004 68.2041 95.318 64.6159 91.2644C61.0684 87.2569 57.5902 83.1787 54.4138 78.8718C51.2618 74.6798 48.5242 70.1956 46.2392 65.4815C45.9627 64.897 45.6954 64.3084 45.4373 63.7157C45.1757 63.1161 44.2923 63.6339 44.5522 64.2296Z" fill="#3F3D56"/>
<path d="M169.86 70.3005C165.951 74.0058 161.81 77.4631 157.463 80.6517C152.953 84.0235 148.32 87.2293 143.71 90.4645C139.108 93.6944 134.521 96.9526 130.102 100.428C125.838 103.714 121.833 107.319 118.123 111.212C114.661 114.919 111.558 119.003 109.232 123.512C108.953 124.055 108.685 124.603 108.428 125.156C108.154 125.747 109.037 126.265 109.313 125.67C111.478 121.137 114.296 116.942 117.678 113.216C121.255 109.276 125.154 105.637 129.335 102.336C133.679 98.8332 138.216 95.5754 142.779 92.3617C147.393 89.1122 152.042 85.9116 156.586 82.5655C160.975 79.395 165.182 75.9822 169.186 72.3432C169.657 71.9072 170.123 71.4663 170.585 71.0204C171.059 70.563 170.334 69.8434 169.86 70.3005Z" fill="#3F3D56"/>
<path d="M159.295 60.9307C157.163 65.7024 154.544 70.2441 151.478 74.4846C148.339 78.8258 144.979 83.0057 141.412 87.0081C137.846 91.0814 134.176 95.0636 130.591 99.1196C127.046 103.13 123.578 107.215 120.402 111.522C117.25 115.714 114.512 120.199 112.227 124.913C111.951 125.497 111.683 126.086 111.425 126.678C111.166 127.274 112.048 127.793 112.31 127.192C114.442 122.421 117.062 117.879 120.127 113.638C123.267 109.297 126.626 105.117 130.193 101.115C133.759 97.0416 137.429 93.0595 141.015 89.0034C144.56 84.9935 148.027 80.9076 151.204 76.6007C154.356 72.4087 157.093 67.9245 159.378 63.2103C159.655 62.6259 159.922 62.0373 160.18 61.4446C160.44 60.8495 159.557 60.3305 159.295 60.9307Z" fill="#3F3D56"/>
<path d="M83.6191 190.196L84.2653 192.422L93.2185 191.007L92.2649 187.721L83.6191 190.196Z" fill="#FFB6B6"/>
<path d="M81.2578 190.785L83.2445 197.631L83.3317 197.606C84.0432 197.402 84.6441 196.926 85.0022 196.283C85.3604 195.639 85.4464 194.88 85.2414 194.174L85.8337 192.65L84.2013 190.59L84.0279 189.992L81.2578 190.785Z" fill="#2F2E41"/>
<path d="M122.061 201.133L124.337 200.625L123.447 191.664L120.088 192.414L122.061 201.133Z" fill="#FFB6B6"/>
<path d="M121.85 203.672L128.849 202.11L128.829 202.022C128.666 201.304 128.224 200.68 127.598 200.287C126.972 199.893 126.215 199.763 125.493 199.924L123.996 199.246L121.829 200.742L121.218 200.878L121.85 203.672Z" fill="#2F2E41"/>
<path d="M115.094 153.137L125.401 195.138L120.359 195.582L114.773 181.525L106.15 164.981L106.93 183.865L90.8872 193.183L87.1172 188.054L99.9422 181.203L94.3398 156.212L95.831 153.137L115.094 153.137Z" fill="#2F2E41"/>
<path d="M94.4458 156.817C92.775 154.493 95.8659 150.669 96.2448 149.859C95.7948 149.714 95.4093 149.419 95.154 149.023C94.8987 148.627 94.7894 148.156 94.8447 147.689L95.008 146.31L95.1783 144.957L93.9583 143.745L93.9549 143.715L93.2528 137.614L92.232 133.561C91.8473 132.029 91.8801 130.423 92.3269 128.908C92.7738 127.392 93.6185 126.023 94.7746 124.939L97.1342 124.567L100.002 121.822H104.626L106.212 123.327C109.172 123.843 109.681 123.674 112.223 126.705L111.068 136.126L110.78 137.422L110.78 139.18L111.513 139.989C111.777 140.28 111.969 140.629 112.073 141.007C112.178 141.385 112.192 141.782 112.114 142.166L112.018 142.645C112.774 142.966 113.495 148.683 113.667 149.481L113.924 150.674C114.145 150.962 115.598 152.887 115.598 153.413C115.598 153.492 115.539 153.568 115.413 153.653C114.423 154.319 105.753 156.083 103.33 155.12C100.749 154.095 94.4458 156.817 94.4458 156.817Z" fill="#E6E6E6"/>
<path d="M85.1793 128.862L87.2127 131.331C87.978 132.261 88.9207 133.031 89.9868 133.597C91.0528 134.164 92.2211 134.515 93.4244 134.632C94.17 134.701 94.9204 134.562 95.5906 134.23C96.2608 133.898 96.8241 133.386 97.217 132.753C97.7437 131.891 97.9213 130.863 97.7137 129.876C97.5061 128.889 96.9289 128.017 96.0988 127.436C93.5798 125.678 92.2057 122.953 90.2254 123.836L89.7994 122.797L84.2159 118.316L79.6396 122.217L85.1793 128.862Z" fill="#E6E6E6"/>
<path d="M124.54 120.687L120.112 116.621L116.659 118.805L116.195 119.828C114.249 118.872 110.48 123.632 107.897 125.297C107.046 125.846 106.436 126.696 106.192 127.675C105.948 128.654 106.087 129.688 106.581 130.569C106.95 131.216 107.494 131.748 108.151 132.105C108.808 132.461 109.553 132.628 110.301 132.586C111.507 132.514 112.688 132.206 113.774 131.679C114.861 131.152 115.832 130.417 116.631 129.517L118.755 127.124L124.54 120.687Z" fill="#E6E6E6"/>
<path d="M102.002 120.497C104.838 120.497 107.138 118.213 107.138 115.396C107.138 112.579 104.838 110.295 102.002 110.295C99.1656 110.295 96.8662 112.579 96.8662 115.396C96.8662 118.213 99.1656 120.497 102.002 120.497Z" fill="#FFB6B6"/>
<path d="M98.2751 118.99C98.2302 118.951 98.1879 118.909 98.1441 118.869C98.1425 118.873 98.1423 118.877 98.1406 118.882L98.2751 118.99Z" fill="#2F2E41"/>
<path d="M106.823 113.483C106.796 113.466 106.772 113.449 106.745 113.435C106.407 113.172 105.988 113.031 105.559 113.038C105.149 113.089 104.811 113.381 104.418 113.496C103.574 113.741 102.723 113.143 101.848 113.082H101.828C101.549 113.065 101.27 113.102 101.005 113.192C100.741 113.282 100.498 113.423 100.288 113.606C100.079 113.789 99.9077 114.012 99.7849 114.261C99.6621 114.51 99.5899 114.781 99.5724 115.058C99.5553 115.339 99.5929 115.621 99.5587 115.899C99.5494 116.04 99.5052 116.177 99.4301 116.297C99.3551 116.417 99.2513 116.517 99.1282 116.588C98.7421 116.761 98.2227 116.503 97.8947 116.771C97.6042 117.012 97.7101 117.481 97.8844 117.817C98.0878 118.1 98.1879 118.443 98.168 118.791C98.1616 118.818 98.1536 118.846 98.1441 118.872C97.3532 118.141 96.7256 117.253 96.3018 116.265C95.8781 115.278 95.6675 114.213 95.6839 113.14C95.6703 112.667 95.7686 112.197 95.9709 111.769C96.0726 111.555 96.2261 111.37 96.4175 111.23C96.6089 111.089 96.8323 110.998 97.0677 110.965C97.4709 110.931 97.8878 111.111 98.2705 110.982C98.7421 110.826 98.9403 110.286 99.1863 109.852C99.4897 109.334 99.9307 108.909 100.461 108.623C100.991 108.337 101.591 108.202 102.193 108.233C102.627 108.275 103.055 108.36 103.471 108.487L104.284 108.708C104.595 108.78 104.896 108.886 105.183 109.023C105.603 109.263 105.956 109.602 106.212 110.011C106.428 110.34 106.599 110.696 106.721 111.07C106.27 111.093 105.819 111.077 105.371 111.022C105.884 111.338 106.4 111.654 106.912 111.969C106.973 112.475 106.943 112.988 106.823 113.483Z" fill="#2F2E41"/>
<path d="M187.821 37.5523C197.149 37.5523 204.712 30.0414 204.712 20.7762C204.712 11.5109 197.149 4 187.821 4C178.492 4 170.93 11.5109 170.93 20.7762C170.93 30.0414 178.492 37.5523 187.821 37.5523Z" fill="#E56553"/>
<path d="M225.626 12.8331C224.649 9.58187 221.888 7.46076 218.553 6.99581C218.518 6.99242 218.481 6.99919 218.447 6.99581C218.4 6.98092 218.352 6.96958 218.303 6.96188C213.579 6.39108 208.799 7.42451 204.741 9.8941C203.813 10.4704 202.842 10.9764 201.837 11.4077C198.614 12.7571 195.167 13.4983 191.671 13.5933C191.644 13.5933 191.616 13.5967 191.589 13.5967C189.877 13.7097 188.241 14.3442 186.905 15.4136C185.569 16.483 184.598 17.9355 184.123 19.5731C184.073 19.7734 184.088 19.9844 184.166 20.1754C184.245 20.3664 184.383 20.5276 184.56 20.6354C185.07 21.0648 185.674 21.3704 186.323 21.528C187.728 21.8232 189.136 22.0936 190.547 22.3391C193.304 22.8176 196.076 23.2045 198.86 23.4997C200.706 23.6966 202.554 23.8504 204.406 23.9613C208.226 24.1989 212.064 24.2566 215.891 24.1378C217.784 24.0801 219.608 24.019 221.344 23.1875C222.606 22.5691 223.684 21.6344 224.471 20.4759C225.213 19.3628 225.701 18.1019 225.901 16.7816C226.1 15.4613 226.007 14.1136 225.626 12.8331Z" fill="#F2F2F2"/>
<path d="M159.452 137.808C158.748 135.466 156.759 133.936 154.354 133.6C154.327 133.597 154.303 133.603 154.275 133.6C154.242 133.59 154.207 133.582 154.173 133.576C150.766 133.163 147.319 133.908 144.393 135.69C141.574 137.438 138.29 138.229 134.969 138.358C134.95 138.358 134.93 138.359 134.911 138.361C133.677 138.443 132.499 138.9 131.536 139.671C130.573 140.442 129.872 141.488 129.529 142.668C129.493 142.813 129.503 142.965 129.56 143.103C129.616 143.241 129.716 143.357 129.844 143.435C130.211 143.745 130.646 143.965 131.115 144.077C132.126 144.29 133.144 144.484 134.163 144.664C136.148 145.006 138.15 145.285 140.156 145.499C144.233 145.934 148.335 146.088 152.433 145.96C153.797 145.919 155.112 145.875 156.363 145.275C157.274 144.829 158.053 144.155 158.622 143.32C159.156 142.517 159.508 141.607 159.651 140.655C159.795 139.703 159.727 138.731 159.452 137.808Z" fill="#FBF9F5"/>
<path d="M51.4745 109.98C50.7706 107.638 48.7819 106.108 46.3763 105.772C46.349 105.768 46.325 105.775 46.2977 105.772C46.264 105.762 46.2298 105.754 46.1952 105.748C42.7885 105.335 39.3412 106.08 36.4157 107.862C33.5967 109.61 30.3129 110.401 26.9916 110.53C26.9722 110.529 26.9528 110.531 26.9335 110.533C25.6996 110.615 24.5211 111.072 23.5581 111.843C22.5952 112.613 21.8946 113.66 21.5517 114.84C21.515 114.984 21.5256 115.137 21.5822 115.275C21.6387 115.413 21.7382 115.529 21.8661 115.607C22.233 115.917 22.6686 116.137 23.1372 116.248C24.1487 116.462 25.1669 116.656 26.1852 116.836C28.1705 117.178 30.1729 117.457 32.1786 117.67C36.2554 118.106 40.3577 118.26 44.4559 118.132C45.8193 118.091 47.1349 118.047 48.3855 117.446C49.2967 117.001 50.0751 116.327 50.6441 115.492C51.1788 114.689 51.5301 113.779 51.6735 112.827C51.817 111.875 51.749 110.903 51.4745 109.98Z" fill="#FBF9F5"/>
<path d="M79.8109 255.142C80.9659 256.401 82.0866 257.687 83.1732 259C67.0171 256.13 51.5653 250.208 37.6552 241.556C37.3648 241.377 37.0778 241.197 36.7907 241.013C28.8978 236.02 21.5723 230.193 14.9424 223.634C16.1042 222.551 16.8217 221.906 16.8217 221.906C33.0354 204.612 34.8533 198.523 51.067 181.229C56.4591 202.928 79.1309 218.004 91.0221 236.978C87.5547 239.381 83.7616 241.284 79.7562 242.629C79.7289 242.659 79.7016 242.693 79.6742 242.724C78.1649 244.453 77.3454 246.67 77.3706 248.959C77.3958 251.247 78.2639 253.446 79.8109 255.142Z" fill="#FBF9F5"/>
<path d="M219.56 194.005C209.85 211.687 196.104 226.863 179.424 238.318C179.069 238.562 178.713 238.806 178.354 239.047C166.54 246.992 153.475 252.927 139.698 256.61C139.036 256.104 138.293 255.713 137.501 255.453V255.446C138.389 253.797 139.278 252.147 140.166 250.498C137.098 253.607 131.746 254.139 128.118 251.703C128.714 250.364 129.566 249.153 130.626 248.136C129.737 248.54 128.357 247.956 127.974 246.938C127.492 245.665 128.039 244.257 128.613 243.021C134.945 229.419 155.689 207.397 156.014 207.054C155.792 207.19 146.32 213.098 140.825 212.661C140.545 210.991 133.257 208.951 132.444 208.103C135.755 200.708 151.111 186.949 151.111 186.949C167.324 169.655 169.142 163.566 185.356 146.271C189.969 164.835 207.225 178.55 219.56 194.005Z" fill="#FBF9F5"/>
<g opacity="0.2">
<path d="M13 71.213C13.1009 71.0802 13.2066 70.9525 13.3094 70.8217L13.315 70.7695L13 71.213Z" fill="black"/>
<path d="M188.417 72.6135C187.85 73.9521 186.861 75.0716 185.598 75.8036C184.335 76.5357 182.868 76.8406 181.415 76.6725C181.038 76.6274 180.666 76.5514 180.301 76.4451C176.307 75.2641 172.314 74.1781 168.321 73.1871C163.1 71.8839 157.879 70.7379 152.658 69.7492C148.294 68.9211 143.931 68.2028 139.567 67.5941C134.343 66.8645 129.12 66.2921 123.9 65.8769C119.537 65.5273 115.172 65.2886 110.806 65.1608C105.585 65.0013 100.365 65.0013 95.1461 65.1608C90.7825 65.2898 86.4179 65.5285 82.0521 65.8769C76.8309 66.2909 71.6097 66.8634 66.3885 67.5941C62.025 68.205 57.6603 68.9234 53.2945 69.7492C48.0733 70.7368 42.8521 71.8828 37.6309 73.1871C33.6364 74.1815 29.6442 75.2675 25.6543 76.4451C25.29 76.5514 24.9174 76.6274 24.5404 76.6725C23.5948 76.7824 22.6366 76.6922 21.7286 76.4079C20.8207 76.1236 19.9837 75.6516 19.2726 75.0229C18.5615 74.3943 17.9925 73.6232 17.603 72.7604C17.2135 71.8977 17.0123 70.9628 17.0127 70.0173V66.8814C24.7181 59.9615 35.6183 56.7544 46.129 55.6616C58.6285 54.3618 71.3295 55.4715 83.7606 53.6287C93.8954 52.1252 103.965 48.6602 114.141 49.865C123.008 50.9103 131.09 55.424 139.834 57.2295C150.802 59.4932 162.383 57.4128 173.252 60.104C177.513 61.1561 181.689 63.0057 184.733 66.145C186.497 67.9532 187.765 70.1802 188.417 72.6135Z" fill="black"/>
</g>
<path d="M102.569 143.386C106.195 143.386 109.134 140.467 109.134 136.866C109.134 133.265 106.195 130.346 102.569 130.346C98.9431 130.346 96.0039 133.265 96.0039 136.866C96.0039 140.467 98.9431 143.386 102.569 143.386Z" fill="#E56553"/>
<path d="M101.674 140.26C101.56 140.26 101.448 140.234 101.347 140.183C101.246 140.133 101.157 140.06 101.089 139.97L99.2984 137.598C99.2406 137.522 99.1985 137.435 99.1745 137.343C99.1505 137.25 99.1451 137.154 99.1586 137.06C99.1721 136.965 99.2042 136.874 99.2531 136.792C99.302 136.71 99.3667 136.638 99.4435 136.581C99.5203 136.524 99.6077 136.482 99.7008 136.459C99.7938 136.435 99.8906 136.43 99.9857 136.444C100.081 136.457 100.172 136.489 100.255 136.538C100.337 136.587 100.409 136.651 100.467 136.728L101.639 138.279L104.648 133.796C104.755 133.636 104.922 133.524 105.112 133.487C105.302 133.449 105.5 133.488 105.661 133.594C105.822 133.701 105.934 133.867 105.972 134.056C106.01 134.244 105.971 134.44 105.863 134.6L102.281 139.937C102.216 140.033 102.129 140.113 102.027 140.169C101.925 140.225 101.811 140.256 101.694 140.26L101.674 140.26Z" fill="white"/>
<path d="M183.288 174.925C182.977 179.999 182.667 185.073 182.358 190.149C181.812 199.116 181.265 208.083 180.718 217.052C180.288 224.141 179.856 231.23 179.423 238.317C179.068 238.562 178.712 238.806 178.354 239.047C178.562 235.663 178.768 232.28 178.972 228.896C179.519 219.926 180.065 210.959 180.612 201.994C181.162 192.97 181.712 183.947 182.263 174.925C182.3 174.27 183.325 174.27 183.288 174.925Z" fill="white"/>
<path d="M149.648 199.923L167.714 184.795L172.782 180.551C173.287 180.128 172.559 179.411 172.058 179.831L153.992 194.959L148.924 199.203C148.419 199.626 149.147 200.343 149.648 199.923Z" fill="white"/>
<path d="M151.956 228.376L165.129 216.832C165.625 216.398 164.897 215.68 164.404 216.112L151.231 227.656C150.736 228.091 151.463 228.808 151.956 228.376Z" fill="white"/>
<path d="M25.1845 223.286L38.3575 211.742C38.8532 211.308 38.1259 210.59 37.6327 211.022L24.4597 222.566C23.964 223.001 24.6913 223.719 25.1845 223.286Z" fill="white"/>
<path d="M194.984 189.999C196.714 189.926 198.433 190.296 199.976 191.073C201.52 191.85 202.837 193.009 203.799 194.438C204.159 194.984 205.047 194.474 204.684 193.924C203.63 192.343 202.184 191.058 200.485 190.192C198.787 189.326 196.892 188.909 194.984 188.98C194.327 189.011 194.324 190.03 194.984 189.999Z" fill="white"/>
<path d="M51.4314 209.098C60.197 213.241 67.2173 220.313 71.2648 229.077C71.5396 229.672 72.4234 229.155 72.1499 228.563C68.9315 221.659 63.899 215.745 57.5819 211.442C55.7924 210.222 53.9089 209.144 51.9488 208.219C51.3562 207.938 50.8354 208.816 51.4314 209.098Z" fill="white"/>
<path d="M50.7734 202.019C50.0695 205.905 49.2107 209.759 48.197 213.581C46.4057 220.332 44.1381 226.95 41.4108 233.384C40.2422 236.147 38.9904 238.871 37.6555 241.556C37.3651 241.377 37.078 241.197 36.791 241.013C39.8454 234.848 42.4646 228.48 44.6296 221.954C46.8231 215.348 48.545 208.597 49.7825 201.751C49.8987 201.106 50.8896 201.381 50.7734 202.019Z" fill="white"/>
<path d="M60.378 155.817C63.1266 155.817 65.3547 153.604 65.3547 150.874C65.3547 148.145 63.1266 145.932 60.378 145.932C57.6295 145.932 55.4014 148.145 55.4014 150.874C55.4014 153.604 57.6295 155.817 60.378 155.817Z" fill="#BDBDBD"/>
<path d="M59.6993 153.448C59.6134 153.448 59.5286 153.428 59.4518 153.39C59.3749 153.352 59.3081 153.296 59.2565 153.228L57.8988 151.43C57.8107 151.313 57.7729 151.167 57.7937 151.022C57.8144 150.878 57.8921 150.748 58.0095 150.66C58.127 150.573 58.2746 150.535 58.42 150.556C58.5653 150.577 58.6964 150.654 58.7845 150.77L59.6728 151.947L61.9542 148.548C61.9943 148.487 62.0461 148.435 62.1066 148.395C62.167 148.354 62.2349 148.326 62.3064 148.312C62.3779 148.297 62.4515 148.297 62.523 148.311C62.5946 148.325 62.6627 148.353 62.7233 148.393C62.784 148.433 62.8361 148.485 62.8766 148.545C62.9171 148.605 62.9452 148.673 62.9593 148.744C62.9735 148.815 62.9733 148.888 62.9589 148.959C62.9445 149.03 62.9161 149.098 62.8754 149.158L60.16 153.203C60.1109 153.276 60.0448 153.337 59.9673 153.379C59.8899 153.422 59.8032 153.445 59.7147 153.448L59.6993 153.448Z" fill="white"/>
<path d="M69.962 155.817C72.7106 155.817 74.9387 153.604 74.9387 150.874C74.9387 148.145 72.7106 145.932 69.962 145.932C67.2135 145.932 64.9854 148.145 64.9854 150.874C64.9854 153.604 67.2135 155.817 69.962 155.817Z" fill="#BDBDBD"/>
<path d="M69.2843 153.448C69.1984 153.448 69.1136 153.428 69.0367 153.39C68.9599 153.352 68.893 153.296 68.8415 153.228L67.4837 151.43C67.3957 151.313 67.3578 151.167 67.3786 151.022C67.3994 150.878 67.477 150.748 67.5945 150.66C67.7119 150.573 67.8596 150.535 68.0049 150.556C68.1503 150.577 68.2814 150.654 68.3695 150.77L69.2578 151.947L71.5391 148.548C71.5793 148.487 71.6311 148.435 71.6915 148.395C71.752 148.354 71.8199 148.326 71.8914 148.312C71.9628 148.297 72.0364 148.297 72.108 148.311C72.1795 148.325 72.2476 148.353 72.3083 148.393C72.369 148.433 72.421 148.485 72.4616 148.545C72.5021 148.605 72.5302 148.673 72.5443 148.744C72.5584 148.815 72.5583 148.888 72.5439 148.959C72.5295 149.03 72.5011 149.098 72.4604 149.158L69.7449 153.203C69.6958 153.276 69.6297 153.337 69.5523 153.379C69.4748 153.422 69.3882 153.445 69.2997 153.448L69.2843 153.448Z" fill="white"/>
<path d="M65.0401 147.843C67.7887 147.843 70.0168 145.63 70.0168 142.9C70.0168 140.17 67.7887 137.957 65.0401 137.957C62.2916 137.957 60.0635 140.17 60.0635 142.9C60.0635 145.63 62.2916 147.843 65.0401 147.843Z" fill="#BDBDBD"/>
<path d="M64.3624 145.471C64.2765 145.471 64.1917 145.451 64.1148 145.413C64.038 145.375 63.9711 145.319 63.9196 145.251L62.5619 143.453C62.4738 143.336 62.436 143.19 62.4567 143.045C62.4775 142.901 62.5552 142.771 62.6726 142.683C62.7901 142.596 62.9377 142.558 63.083 142.579C63.2284 142.6 63.3595 142.677 63.4476 142.793L64.3359 143.97L66.6173 140.571C66.699 140.45 66.8255 140.367 66.9691 140.339C67.1127 140.31 67.2617 140.34 67.3835 140.42C67.5053 140.501 67.59 140.626 67.619 140.769C67.648 140.911 67.6191 141.059 67.5385 141.181L64.8231 145.226C64.7739 145.299 64.7079 145.36 64.6304 145.402C64.5529 145.445 64.4663 145.468 64.3778 145.471L64.3624 145.471Z" fill="white"/>
<path d="M79.4315 143.239L78.6966 143.312L75.0701 152.831H55.3837L51.7573 143.312L51.0224 143.239C50.7878 143.215 50.5509 143.241 50.3269 143.314C50.103 143.388 49.897 143.507 49.7222 143.664C49.5474 143.821 49.4076 144.013 49.312 144.227C49.2164 144.441 49.167 144.672 49.167 144.907V166.483C49.167 167.326 49.334 168.16 49.6586 168.938C49.9832 169.716 50.4589 170.423 51.0586 171.019C51.6583 171.615 52.3703 172.087 53.1539 172.41C53.9375 172.732 54.7773 172.898 55.6254 172.898H74.8284C75.6766 172.898 76.5164 172.732 77.3 172.41C78.0836 172.087 78.7955 171.615 79.3953 171.019C79.995 170.423 80.4707 169.716 80.7953 168.938C81.1198 168.16 81.2869 167.326 81.2869 166.483V144.907C81.2869 144.672 81.2375 144.441 81.1419 144.227C81.0462 144.013 80.9065 143.821 80.7317 143.664C80.5569 143.507 80.3509 143.388 80.1269 143.314C79.903 143.241 79.6661 143.215 79.4315 143.239Z" fill="#FBF9F5"/>
<path d="M107.18 121.693C106.938 120.984 106 120.849 105.246 120.852C103.563 120.857 101.882 120.928 100.204 121.065L100.372 120.872C99.9261 120.685 99.4351 120.63 98.9585 120.714C98.4954 120.845 98.1149 121.373 98.3241 121.803C98.4812 122.127 98.9203 122.332 98.8888 122.69C98.8354 123.295 97.6556 123.094 97.4721 123.674C97.4469 123.789 97.4582 123.909 97.5045 124.017C97.5508 124.126 97.6297 124.217 97.7305 124.28C97.9348 124.4 98.1641 124.472 98.4008 124.491C100.898 124.851 103.447 124.524 105.77 123.547C106.176 123.4 106.547 123.17 106.858 122.872C107.011 122.721 107.122 122.533 107.178 122.326C107.235 122.119 107.236 121.901 107.18 121.693Z" fill="#E6E6E6"/>
</g>
<defs>
<clipPath id="clip0_940_2336">
<rect width="213" height="255" fill="white" transform="translate(13 4)"/>
</clipPath>
</defs>
</svg>
