<svg width="128" height="39" viewBox="0 0 128 39" fill="none" xmlns="http://www.w3.org/2000/svg">
<g clip-path="url(#clip0_1296_9076)">
<path d="M123.028 -0.0292969H5.04805C2.4521 -0.0292969 0.347656 2.13785 0.347656 4.81116V33.9922C0.347656 36.6655 2.4521 38.8326 5.04805 38.8326H123.028C125.624 38.8326 127.728 36.6655 127.728 33.9922V4.81116C127.728 2.13785 125.624 -0.0292969 123.028 -0.0292969Z" fill="#303030"/>
<path d="M123.028 0.731346C125.244 0.731346 126.99 2.52923 126.99 4.81116V33.9922C126.99 36.2741 125.244 38.072 123.028 38.072H5.04805C2.83215 38.072 1.08629 36.2741 1.08629 33.9922V4.81116C1.08629 2.59838 2.8993 0.731346 5.04805 0.731346H123.028ZM123.028 -0.0292969H5.04805C2.49641 -0.0292969 0.347656 2.18348 0.347656 4.81116V33.9922C0.347656 36.689 2.49641 38.8326 5.04805 38.8326H123.028C125.647 38.8326 127.728 36.6199 127.728 33.9922V4.81116C127.728 2.18348 125.647 -0.0292969 123.028 -0.0292969Z" fill="#303030"/>
<path d="M64.6773 21.1342C62.4614 21.1342 60.6484 22.8629 60.6484 25.2831C60.6484 27.7034 62.4614 29.4321 64.6773 29.4321C66.8932 29.4321 68.7063 27.7034 68.7063 25.2831C68.7063 22.8629 66.8932 21.1342 64.6773 21.1342ZM64.6773 27.7725C63.4687 27.7725 62.3943 26.7353 62.3943 25.2831C62.3943 23.831 63.4687 22.7937 64.6773 22.7937C65.886 22.7937 66.9604 23.831 66.9604 25.2831C66.9604 26.7353 65.886 27.7725 64.6773 27.7725ZM55.8809 21.1342C53.665 21.1342 51.852 22.8629 51.852 25.2831C51.852 27.7034 53.665 29.4321 55.8809 29.4321C58.0968 29.4321 59.9098 27.7034 59.9098 25.2831C59.9098 22.8629 58.0968 21.1342 55.8809 21.1342ZM55.8809 27.7725C54.6722 27.7725 53.5978 26.7353 53.5978 25.2831C53.5978 23.831 54.6722 22.7937 55.8809 22.7937C57.0896 22.7937 58.1639 23.831 58.1639 25.2831C58.1639 26.7353 57.0896 27.7725 55.8809 27.7725ZM45.4057 22.3789V24.1076H49.5018C49.3675 25.0757 49.0317 25.8363 48.5617 26.3204C47.9574 26.9427 47.0173 27.6342 45.4057 27.6342C42.9212 27.6342 40.9068 25.5597 40.9068 23.0012C40.9068 20.4427 42.8541 18.3682 45.4057 18.3682C46.7487 18.3682 47.7559 18.9214 48.4945 19.6129L49.7032 18.3682C48.696 17.4001 47.353 16.5703 45.4057 16.5703C41.9811 16.5703 39.0938 19.4746 39.0938 23.0012C39.0938 26.5278 41.9811 29.4321 45.4057 29.4321C47.2859 29.4321 48.6288 28.8097 49.7704 27.6342C50.9119 26.4587 51.2476 24.8682 51.2476 23.5544C51.2476 23.1395 51.2476 22.7937 51.1805 22.448H45.4729L45.4057 22.3789ZM88.1793 23.7618C87.8436 22.8629 86.8364 21.1342 84.7547 21.1342C82.6731 21.1342 80.9944 22.7938 80.9944 25.2831C80.9944 27.6342 82.6731 29.4321 84.9562 29.4321C86.7692 29.4321 87.8436 28.2565 88.3136 27.6342L86.9706 26.6661C86.5006 27.3576 85.8963 27.8417 85.0233 27.8417C84.1504 27.8417 83.4789 27.4268 83.076 26.597L88.4479 24.315L88.2465 23.831L88.1793 23.7618ZM82.6731 25.1448C82.6731 23.5544 83.8818 22.7246 84.7547 22.7246C85.4262 22.7246 86.0306 23.0703 86.232 23.6235L82.6731 25.1448ZM78.3085 29.1555H80.0544V16.9852H78.3085V29.1555ZM75.4211 22.0331C75.0182 21.5491 74.2796 21.1342 73.3395 21.1342C71.325 21.1342 69.512 22.932 69.512 25.2831C69.512 27.6342 71.325 29.4321 73.3395 29.4321C74.2796 29.4321 75.0854 29.0172 75.4211 28.464V29.0863C75.4211 30.6768 74.6153 31.5066 73.2724 31.5066C72.198 31.5066 71.5265 30.6768 71.2579 30.0544L69.7135 30.7459C70.1835 31.8523 71.325 33.1661 73.2724 33.1661C75.354 33.1661 77.0998 31.9215 77.0998 28.8789V21.4799H75.4211V22.1714V22.0331ZM73.4067 27.7725C72.198 27.7725 71.1908 26.7353 71.1908 25.2831C71.1908 23.831 72.198 22.7937 73.4067 22.7937C74.6153 22.7937 75.5554 23.831 75.5554 25.2831C75.5554 26.7353 74.6153 27.7725 73.4067 27.7725ZM96.4386 16.9852H92.2082V29.1555H93.9541V24.5225H96.4386C98.3859 24.5225 100.333 23.0703 100.333 20.7193C100.333 18.3682 98.3859 16.9161 96.4386 16.9161V16.9852ZM96.4386 22.8629H93.9541V18.7139H96.4386C97.7816 18.7139 98.5202 19.8203 98.5202 20.7884C98.5202 21.7565 97.7816 22.8629 96.4386 22.8629ZM107.317 21.1342C106.041 21.1342 104.698 21.6874 104.161 23.0012L105.705 23.6927C106.041 23.0012 106.645 22.7937 107.317 22.7937C108.257 22.7937 109.13 23.3469 109.197 24.3842V24.5225C109.197 24.5225 108.19 24.0384 107.384 24.0384C105.705 24.0384 103.959 25.0065 103.959 26.8044C103.959 28.464 105.369 29.5012 106.914 29.5012C108.122 29.5012 108.727 28.948 109.13 28.3257V29.2938H110.808V24.6608C110.808 22.5172 109.264 21.2725 107.25 21.2725L107.317 21.1342ZM107.115 27.7725C106.511 27.7725 105.705 27.4959 105.705 26.7353C105.705 25.7672 106.712 25.4214 107.585 25.4214C108.391 25.4214 108.727 25.5597 109.197 25.8363C109.063 26.9427 108.122 27.7725 107.115 27.7725ZM117.12 21.4108L115.106 26.6661L113.024 21.4108H111.144L114.3 28.7406L112.487 32.8204H114.3L119.135 21.3416H117.187L117.12 21.4108ZM101.273 29.1555H103.019V16.9852H101.273V29.1555Z" fill="white"/>
<path d="M10.2161 7.28985C10.2161 7.28985 9.74609 8.0505 9.74609 8.67284V30.1783C9.74609 30.8006 9.88039 31.2155 10.2161 31.5613H10.2833L21.9671 19.5984V19.3218L10.2833 7.2207H10.2161V7.28985Z" fill="url(#paint0_linear_1296_9076)"/>
<path d="M25.8712 23.5421L21.9766 19.5314V19.2548L25.8712 15.2441H25.9383L30.5716 18.0101C31.9145 18.7708 31.9145 20.0154 30.5716 20.8452L25.9383 23.5421H25.8712Z" fill="url(#paint1_linear_1296_9076)"/>
<path d="M25.9315 23.4704L21.9697 19.3906L10.2188 31.4918C10.6216 31.9758 11.3603 32.0449 12.1661 31.4918L25.9315 23.4013" fill="url(#paint2_linear_1296_9076)"/>
<path d="M25.9315 15.3148L12.1661 7.22432C11.3603 6.74027 10.6216 6.80942 10.2188 7.22432L21.9697 19.3255L25.9315 15.2456V15.3148Z" fill="url(#paint3_linear_1296_9076)"/>
<path opacity="0.2" d="M25.8644 23.4023L12.1661 31.4237C11.4274 31.8386 10.6888 31.8386 10.2859 31.4237H10.2188L10.2859 31.562C10.7559 31.9769 11.4274 31.9769 12.1661 31.562L25.9315 23.4715H25.8644V23.4023Z" fill="#181818"/>
<path opacity="0.12" d="M10.2161 31.3537C10.2161 31.3537 9.74609 30.593 9.74609 29.9707V30.109C9.74609 30.7313 9.88039 31.1462 10.2161 31.492H10.2833L10.2161 31.3537Z" fill="#181818"/>
<path opacity="0.12" d="M30.5598 20.6373L25.8594 23.4032H25.9265L30.5598 20.7756C31.2313 20.3607 31.567 19.8766 31.567 19.3926C31.567 19.8766 31.1641 20.2915 30.5598 20.6373Z" fill="#181818"/>
<path opacity="0.25" d="M12.1634 7.36167L30.5621 18.149C31.1665 18.4947 31.5022 18.9788 31.5694 19.3936C31.5694 18.9096 31.2336 18.3564 30.5621 18.0107L12.1634 7.22337C10.8205 6.46272 9.74609 7.08507 9.74609 8.6755V8.8138C9.74609 7.29252 10.8205 6.60102 12.1634 7.36167Z" fill="#181818"/>
<path d="M40.1012 13.8814H39.4297V11.9452H39.9669C40.4369 11.5303 40.7055 10.7696 40.7055 9.7324V6.82812H44.4658V11.9452H45.0702V13.8814H44.3987V12.6367H40.1012V13.8814ZM41.377 9.66325C41.377 10.5622 41.1755 11.3228 40.8398 11.876H43.7272V7.45047H41.377V9.5941V9.66325Z" fill="white"/>
<path d="M50.7737 11.8717C50.2365 12.4941 49.4979 12.7707 48.6921 12.7707C47.8863 12.7707 47.1477 12.4941 46.6105 11.8717C46.0733 11.2494 45.8047 10.5579 45.8047 9.72812C45.8047 8.89832 46.0733 8.13768 46.6105 7.58449C47.1477 6.96214 47.8863 6.68555 48.6921 6.68555C49.4979 6.68555 50.2365 6.96214 50.7737 7.58449C51.3109 8.20683 51.5795 8.89832 51.5795 9.72812C51.5795 10.5579 51.3109 11.3186 50.7737 11.8717ZM47.1477 11.3877C47.5505 11.8026 48.0877 12.01 48.6921 12.01C49.2964 12.01 49.8336 11.8026 50.2365 11.3877C50.6394 10.9728 50.8408 10.4196 50.8408 9.72812C50.8408 9.03662 50.6394 8.48343 50.2365 8.06853C49.8336 7.65364 49.2964 7.44619 48.6921 7.44619C48.0877 7.44619 47.5505 7.65364 47.1477 8.06853C46.7448 8.48343 46.5433 9.03662 46.5433 9.72812C46.5433 10.4196 46.7448 10.9728 47.1477 11.3877Z" fill="white"/>
<path d="M55.2749 12.7707C54.4691 12.7707 53.7304 12.4941 53.1932 11.8717C52.6561 11.3186 52.3203 10.5579 52.3203 9.72812C52.3203 8.89832 52.5889 8.13768 53.1932 7.58449C53.7304 7.03129 54.4691 6.68555 55.2749 6.68555C56.0806 6.68555 56.8193 7.03129 57.3565 7.65364L56.8193 8.13768C56.4164 7.65364 55.8792 7.37704 55.2749 7.37704C54.6705 7.37704 54.1333 7.58449 53.7304 7.99938C53.3275 8.41428 53.1261 8.96747 53.1261 9.65897C53.1261 10.3505 53.3275 10.9037 53.7304 11.3186C54.1333 11.7334 54.6705 11.9409 55.2749 11.9409C55.9463 11.9409 56.5507 11.6643 57.0207 11.1111L57.5579 11.6643C57.5579 11.6643 56.9536 12.2175 56.6178 12.4249C56.2149 12.6324 55.812 12.7015 55.342 12.7015L55.2749 12.7707Z" fill="white"/>
<path d="M60.4439 12.6367H59.7053V7.51962H58.0938V6.82812H61.9884V7.51962H60.3768V12.6367H60.4439Z" fill="white"/>
<path d="M67.0295 6.75391L64.8807 11.6635C64.6121 12.355 64.1421 12.7007 63.5377 12.7007C63.3363 12.7007 63.202 12.7007 63.0005 12.5624L63.202 11.871C63.202 11.871 63.4706 12.0093 63.6049 12.0093C63.8063 12.0093 63.8735 12.0093 64.0078 11.9401C64.1421 11.871 64.2092 11.7327 64.2764 11.5944L64.4778 11.1103L62.5977 6.82306H63.4706L64.8807 10.1422L66.2237 6.82306H67.0966L67.0295 6.75391Z" fill="white"/>
<path d="M67.8359 12.6316V6.75391H71.932V12.5624H71.1934V7.4454H68.5746V12.5624H67.8359V12.6316Z" fill="white"/>
<path d="M73.2734 12.6316V6.75391H74.0121V9.24328H76.8323V6.75391H77.5709V12.5624H76.8323V9.93478H74.0121V12.5624H73.2734V12.6316Z" fill="white"/>
<path d="M83.4768 11.8717C82.9396 12.4941 82.201 12.7707 81.3952 12.7707C80.5894 12.7707 79.8508 12.4941 79.3136 11.8717C78.7764 11.2494 78.5078 10.5579 78.5078 9.72812C78.5078 8.89832 78.7764 8.13768 79.3136 7.58449C79.8508 6.96214 80.5894 6.68555 81.3952 6.68555C82.201 6.68555 82.9396 6.96214 83.4768 7.58449C84.014 8.20683 84.2826 8.89832 84.2826 9.72812C84.2826 10.5579 84.014 11.3186 83.4768 11.8717ZM79.8508 11.3877C80.2537 11.8026 80.7909 12.01 81.3952 12.01C81.9995 12.01 82.5367 11.8026 82.9396 11.3877C83.3425 10.9728 83.544 10.4196 83.544 9.72812C83.544 9.03662 83.3425 8.48343 82.9396 8.06853C82.5367 7.65364 81.9995 7.44619 81.3952 7.44619C80.7909 7.44619 80.2537 7.65364 79.8508 8.06853C79.4479 8.48343 79.2464 9.03662 79.2464 9.72812C79.2464 10.4196 79.4479 10.9728 79.8508 11.3877Z" fill="white"/>
<path d="M87.2351 12.6316V6.75391H89.2496C89.7196 6.75391 90.0554 6.8922 90.3911 7.23795C90.7268 7.51455 90.8611 7.92944 90.8611 8.34434C90.8611 8.62094 90.794 8.89754 90.6597 9.10498C90.5254 9.31243 90.3239 9.45073 90.1225 9.58903C90.1225 9.58903 90.6597 9.86563 90.794 10.1422C90.9954 10.3497 91.0626 10.6263 91.0626 10.972C91.0626 11.4561 90.8611 11.871 90.5254 12.1476C90.1897 12.4933 89.7868 12.6316 89.3167 12.6316H87.168H87.2351ZM87.9738 9.31243H89.3167C89.3167 9.31243 89.7868 9.24328 89.9882 9.03583C90.1225 8.82839 90.2568 8.62094 90.2568 8.41349C90.2568 8.20604 90.1897 7.99859 89.9882 7.79115C89.8539 7.5837 89.5853 7.51455 89.3839 7.51455H88.0409V9.31243H87.9738ZM87.9738 11.9401H89.451C89.451 11.9401 89.9882 11.871 90.1225 11.6635C90.3239 11.4561 90.3911 11.2486 90.3911 10.972C90.3911 10.6954 90.3239 10.488 90.1225 10.3497C89.9211 10.1422 89.7196 10.0731 89.451 10.0731H88.0409V12.0093L87.9738 11.9401Z" fill="white"/>
</g>
<defs>
<linearGradient id="paint0_linear_1296_9076" x1="20.8928" y1="8.46539" x2="4.64764" y2="24.3076" gradientUnits="userSpaceOnUse">
<stop stop-color="#00A1FF"/>
<stop offset="0.26" stop-color="#00BEFF"/>
<stop offset="0.51" stop-color="#00D2FF"/>
<stop offset="0.76" stop-color="#00DFFF"/>
<stop offset="1" stop-color="#00E3FF"/>
</linearGradient>
<linearGradient id="paint1_linear_1296_9076" x1="32.3174" y1="19.3931" x2="9.41979" y2="19.3931" gradientUnits="userSpaceOnUse">
<stop stop-color="#FFE000"/>
<stop offset="0.41" stop-color="#FFBD00"/>
<stop offset="0.78" stop-color="#FFA500"/>
<stop offset="1" stop-color="#FF9C00"/>
</linearGradient>
<linearGradient id="paint2_linear_1296_9076" x1="23.7828" y1="21.6726" x2="1.66451" y2="43.1508" gradientUnits="userSpaceOnUse">
<stop stop-color="#FF3A44"/>
<stop offset="1" stop-color="#C31162"/>
</linearGradient>
<linearGradient id="paint3_linear_1296_9076" x1="7.26422" y1="0.171087" x2="17.0812" y2="9.77117" gradientUnits="userSpaceOnUse">
<stop stop-color="#32A071"/>
<stop offset="0.07" stop-color="#2DA771"/>
<stop offset="0.48" stop-color="#15CF74"/>
<stop offset="0.8" stop-color="#06E775"/>
<stop offset="1" stop-color="#00F076"/>
</linearGradient>
<clipPath id="clip0_1296_9076">
<rect width="127.381" height="38.8619" fill="white" transform="translate(0.347656)"/>
</clipPath>
</defs>
</svg>
