<svg width="121" height="39" viewBox="0 0 121 39" fill="none" xmlns="http://www.w3.org/2000/svg">
<path d="M0.542659 25.924C0.400938 25.0578 0.330078 24.1563 0.330078 23.2371C0.330078 20.3027 1.00324 17.6512 2.34953 15.2826C3.69589 12.9316 5.55586 11.0755 7.94742 9.73202C10.3212 8.37086 12.9961 7.69922 15.9368 7.69922C18.8597 7.69922 21.5169 8.37094 23.873 9.69667C26.229 11.0402 28.0891 12.8961 29.4355 15.2649C30.7995 17.6336 31.4726 20.3027 31.4726 23.2371C31.4726 24.1563 31.4018 25.0578 31.2778 25.924H28.1068C28.2663 25.0578 28.3371 24.1563 28.3371 23.2371C28.3371 20.8508 27.8057 18.6942 26.7251 16.7497C25.6622 14.823 24.1742 13.3028 22.2787 12.2068C20.3832 11.1285 18.2751 10.5806 15.9368 10.5806C13.5807 10.5806 11.4549 11.1285 9.55945 12.2068C7.64626 13.3028 6.1405 14.823 5.05988 16.7497C3.97927 18.6942 3.43015 20.8508 3.43015 23.2371C3.43015 24.1563 3.51873 25.0578 3.67817 25.924H0.542678H0.542659ZM61.5699 35.7169V38.5098H36.4679V36.2826L56.7691 10.7574H36.7688V7.96449H61.0558V10.1918L40.7898 35.7169H61.5699ZM88.6562 35.7169V38.5098H67.6638V7.96421H88.6562V10.7571H70.8888V21.6104H86.7262V24.368H70.8888V35.7163L88.6562 35.7169ZM120.33 7.96468V38.5103H117.655L97.9739 13.7272V38.5103H94.732V7.96468H97.4069L117.123 32.7478V7.96468H120.33Z" fill="#181818"/>
<path fill-rule="evenodd" clip-rule="evenodd" d="M30.8177 27.7633C30.6937 28.2229 30.5343 28.6648 30.3394 29.1068C29.8788 29.3189 29.2942 29.5134 28.3554 29.5134C27.2039 29.5134 26.6016 29.2305 26.0525 28.9654C25.5742 28.7356 25.1313 28.5235 24.2101 28.5235C23.3066 28.5235 22.846 28.7356 22.3678 28.9654C21.8363 29.2305 21.2163 29.5134 20.0648 29.5134C18.9134 29.5134 18.311 29.2305 17.7796 28.9654H17.7619C17.2836 28.7356 16.8408 28.5235 15.9373 28.5235H15.9019C15.459 28.5235 15.1224 28.5765 14.839 28.6472C14.5555 28.7356 14.3252 28.8416 14.0772 28.9654C13.8115 29.0891 13.5281 29.2305 13.1738 29.3366C12.8018 29.4426 12.3589 29.5134 11.792 29.5134C10.6405 29.5134 10.0205 29.2305 9.48907 28.9654C9.01077 28.7356 8.5679 28.5235 7.64672 28.5235C6.72554 28.5235 6.28264 28.7356 5.80437 28.9654H5.78666C5.25521 29.2305 4.65291 29.5134 3.50145 29.5134C2.93458 29.5134 2.49168 29.4426 2.11967 29.3366C1.88938 29.2659 1.69452 29.1952 1.51736 29.1068C1.34021 28.6649 1.16307 28.2229 1.03906 27.7633C1.26935 27.8517 1.46421 27.9401 1.65908 28.0461C2.13738 28.2759 2.59796 28.488 3.50142 28.488C4.42259 28.488 4.8655 28.2759 5.34377 28.0461C5.60949 27.9047 5.89293 27.781 6.26494 27.6749C6.63695 27.5688 7.0621 27.4805 7.64672 27.4805C8.79818 27.4805 9.40052 27.781 9.93192 28.0461C10.4102 28.2759 10.8708 28.488 11.792 28.488C12.2526 28.488 12.5891 28.435 12.8726 28.3466C13.156 28.2759 13.3863 28.1522 13.6343 28.0461C13.9001 27.9047 14.1835 27.781 14.5555 27.6749C14.9098 27.5688 15.3527 27.4805 15.9196 27.4805H15.9373C17.0887 27.4981 17.6911 27.781 18.2225 28.0461C18.4705 28.1522 18.7008 28.2759 18.9842 28.3466C19.2677 28.435 19.6042 28.488 20.0648 28.488C20.986 28.488 21.4466 28.2759 21.9249 28.0461C22.4563 27.781 23.0586 27.4805 24.2101 27.4805C25.3616 27.4805 25.9639 27.781 26.513 28.0461C26.9913 28.2759 27.4342 28.488 28.3554 28.488C29.2765 28.488 29.7194 28.2759 30.1977 28.0461C30.3926 27.9401 30.5874 27.8517 30.8177 27.7633H30.8177ZM29.2942 31.1926C29.0639 31.5815 28.8159 31.9527 28.5502 32.3239H28.3553C27.7885 32.3239 27.3456 32.2532 26.9736 32.1471C26.6015 32.0411 26.3181 31.8997 26.0524 31.7759C25.5741 31.5461 25.1312 31.334 24.21 31.334C23.2889 31.334 22.846 31.5461 22.3677 31.7759C21.8363 32.0411 21.2162 32.3239 20.0648 32.3239C19.4979 32.3239 19.055 32.2532 18.683 32.1471C18.3287 32.0411 18.0453 31.8997 17.7795 31.7759H17.7618C17.2835 31.5461 16.8407 31.334 15.9372 31.334H15.9195C15.4589 31.334 15.1223 31.387 14.8389 31.4577C14.5554 31.5461 14.3251 31.6522 14.0771 31.7759C13.8114 31.8996 13.528 32.0411 13.1737 32.1471C12.8017 32.2532 12.3588 32.3239 11.7919 32.3239C10.6404 32.3239 10.0204 32.0411 9.48898 31.7759C9.01067 31.5461 8.56781 31.334 7.64663 31.334C6.72544 31.334 6.28255 31.5461 5.80428 31.7759H5.78656C5.25512 32.0411 4.65282 32.3239 3.50136 32.3239H3.3065C3.04078 31.9527 2.79278 31.5815 2.56248 31.1926C2.81049 31.2633 3.11163 31.2986 3.50136 31.2986C4.42253 31.2986 4.86544 31.0688 5.34371 30.839C5.60943 30.7153 5.89286 30.5739 6.26488 30.4678C6.63689 30.3618 7.06204 30.2911 7.64666 30.2911C8.79812 30.2911 9.40046 30.5916 9.93186 30.839C10.4102 31.0688 10.8707 31.2986 11.7919 31.2986C12.2525 31.2986 12.5891 31.2456 12.8725 31.1572C13.156 31.0688 13.3863 30.9628 13.6343 30.839C13.9 30.7153 14.1834 30.5739 14.5554 30.4678C14.9097 30.3794 15.3526 30.291 15.9195 30.291H15.9372C17.0887 30.291 17.691 30.5916 18.2224 30.839V30.8567C18.4704 30.9628 18.7007 31.0688 18.9842 31.1572C19.2676 31.2456 19.6042 31.2986 20.0648 31.2986C20.9859 31.2986 21.4466 31.0688 21.9248 30.839C22.4563 30.5916 23.0586 30.2911 24.21 30.2911C24.7946 30.2911 25.2198 30.3618 25.5918 30.4678C25.9638 30.5739 26.2473 30.7153 26.513 30.839C26.9913 31.0688 27.4342 31.2986 28.3553 31.2986C28.7451 31.2986 29.0462 31.2633 29.2942 31.1926L29.2942 31.1926ZM27.2039 33.9501C26.9382 34.2153 26.6725 34.4805 26.3891 34.7456C26.2828 34.6926 26.1588 34.6395 26.0525 34.5865V34.5688C25.5742 34.3567 25.1313 34.1269 24.2101 34.1269C23.289 34.1269 22.8461 34.3567 22.3678 34.5865C21.8363 34.834 21.2163 35.1345 20.0649 35.1345C18.9134 35.1345 18.3111 34.834 17.7797 34.5865L17.762 34.5688C17.2837 34.3567 16.8408 34.1269 15.9373 34.1269H15.9196C15.459 34.1269 15.1224 34.1799 14.839 34.2683C14.5556 34.3567 14.3253 34.4628 14.095 34.5688L14.0772 34.5865C13.5458 34.834 12.9435 35.1345 11.792 35.1345C10.6406 35.1345 10.0205 34.834 9.48913 34.5865C9.01083 34.3567 8.56797 34.1269 7.64678 34.1269C6.7256 34.1269 6.28271 34.3567 5.80444 34.5865C5.69815 34.6395 5.57414 34.6926 5.46785 34.7456C5.18442 34.4804 4.9187 34.2153 4.65298 33.9501C4.9187 33.8618 5.13128 33.7557 5.34385 33.6496C5.89301 33.4022 6.49531 33.1017 7.64677 33.1017C8.79822 33.1017 9.40056 33.4022 9.93197 33.6496C10.4103 33.8794 10.8709 34.1092 11.792 34.1092C12.2526 34.1092 12.5892 34.0562 12.8726 33.9678C13.1561 33.8794 13.3864 33.7734 13.6344 33.6496C14.1658 33.4022 14.7681 33.1017 15.9196 33.1017H15.9373C17.0887 33.1017 17.6911 33.4022 18.2225 33.6496C18.4705 33.7734 18.7008 33.8794 18.9842 33.9678C19.2677 34.0562 19.6042 34.1092 20.0648 34.1092C20.986 34.1092 21.4289 33.8794 21.9072 33.6496H21.9249C22.4564 33.4022 23.0587 33.1017 24.2101 33.1017C24.7947 33.1017 25.2199 33.1724 25.5919 33.2784C25.9639 33.3845 26.2473 33.5259 26.5131 33.6496C26.7256 33.7557 26.9382 33.8618 27.2039 33.9502L27.2039 33.9501ZM24.8833 35.9476C23.8381 36.69 22.6867 37.2911 21.4821 37.7507C21.1101 37.8567 20.6672 37.9451 20.0649 37.9451C18.9134 37.9451 18.3111 37.6446 17.7797 37.3971L17.762 37.3794C17.2837 37.1497 16.8408 36.9375 15.9373 36.9375H15.9196C15.459 36.9375 15.1224 36.9906 14.839 37.0789C14.5555 37.1673 14.3253 37.2734 14.095 37.3794L14.0772 37.3971C13.5458 37.6446 12.9435 37.9451 11.792 37.9451C11.1897 37.9451 10.7469 37.8567 10.3926 37.7507C9.17025 37.2911 8.0188 36.69 6.9736 35.9476C7.18618 35.9299 7.39875 35.9122 7.64677 35.9122C8.79822 35.9122 9.40056 36.2128 9.93197 36.4602C10.4103 36.69 10.8709 36.9021 11.792 36.9021C12.2526 36.9021 12.5892 36.8491 12.8726 36.7784C13.1561 36.69 13.3864 36.584 13.6344 36.4602C14.1658 36.2128 14.7681 35.9123 15.9019 35.9123H15.9373C17.0888 35.9123 17.6911 36.2128 18.2225 36.4602C18.4705 36.584 18.7008 36.69 18.9842 36.7784C19.2677 36.8491 19.6042 36.9021 20.0648 36.9021C20.986 36.9021 21.4466 36.69 21.9249 36.4602C22.4563 36.2127 23.0587 35.9122 24.2101 35.9122C24.4581 35.9122 24.6707 35.9299 24.8833 35.9476H24.8833Z" fill="#31AECD"/>
<path fill-rule="evenodd" clip-rule="evenodd" d="M11.4727 0.628906C12.6065 0.628906 13.5099 1.53042 13.5099 2.6617C13.5099 3.77535 12.6064 4.6945 11.4727 4.6945C10.3567 4.6945 9.43555 3.77531 9.43555 2.6617C9.43555 1.53039 10.3567 0.628906 11.4727 0.628906ZM20.3301 0.628906C21.4638 0.628906 22.3672 1.53042 22.3672 2.6617C22.3672 3.77535 21.4638 4.6945 20.3301 4.6945C19.214 4.6945 18.2929 3.77531 18.2929 2.6617C18.2929 1.53039 19.2141 0.628906 20.3301 0.628906ZM69.2762 10.7402C70.1797 10.7402 70.8882 11.4649 70.8882 12.3664C70.8882 13.2502 70.1797 13.975 69.2762 13.975C68.3905 13.975 67.6642 13.2502 67.6642 12.3664C67.6642 11.4649 68.3905 10.7402 69.2762 10.7402Z" fill="#181818"/>
</svg>
