<svg width="283" height="44" viewBox="0 0 283 44" fill="none" xmlns="http://www.w3.org/2000/svg">
<path d="M163.71 34.2275C161.688 34.2275 160.087 33.6461 158.907 32.4832C157.744 31.3204 157.163 29.7193 157.163 27.6801C157.163 26.3318 157.416 25.169 157.921 24.1915C158.444 23.1972 159.16 22.4304 160.07 21.8911C160.98 21.3349 162.042 21.0568 163.255 21.0568C164.418 21.0568 165.404 21.3096 166.213 21.8152C167.022 22.304 167.637 23.0034 168.058 23.9134C168.48 24.8235 168.69 25.9021 168.69 27.1492V27.9076H158.958V26.5425H167.123L166.693 26.8711C166.693 25.5566 166.398 24.537 165.808 23.8123C165.235 23.0876 164.384 22.7253 163.255 22.7253C162.025 22.7253 161.073 23.155 160.399 24.0145C159.725 24.8572 159.387 26.0116 159.387 27.4779V27.7054C159.387 29.2559 159.767 30.4271 160.525 31.2192C161.3 32.0113 162.37 32.4074 163.736 32.4074C164.494 32.4074 165.202 32.2978 165.859 32.0787C166.516 31.8597 167.148 31.4973 167.755 30.9917L168.513 32.5843C167.94 33.1068 167.224 33.5113 166.365 33.7978C165.522 34.0843 164.637 34.2275 163.71 34.2275ZM169.828 34L175.592 26.8711V28.0087L170.157 21.2843H172.912L176.881 26.3656H176.047L180.016 21.2843H182.746L177.387 27.9582V26.9217L183.075 34H180.294L176.047 28.5649H176.881L172.584 34H169.828ZM185.201 39.4604V24.2926C185.201 23.8039 185.184 23.3067 185.15 22.8011C185.116 22.2955 185.066 21.7899 184.998 21.2843H187.223L187.501 24.2168H187.223C187.476 23.2393 188.015 22.4725 188.841 21.9163C189.667 21.3433 190.653 21.0568 191.799 21.0568C192.928 21.0568 193.914 21.3181 194.756 21.8405C195.599 22.3629 196.248 23.1213 196.703 24.1157C197.175 25.0931 197.411 26.2644 197.411 27.6295C197.411 28.9946 197.175 30.1744 196.703 31.1687C196.248 32.163 195.599 32.9214 194.756 33.4438C193.914 33.9663 192.928 34.2275 191.799 34.2275C190.669 34.2275 189.692 33.9494 188.866 33.3933C188.057 32.8203 187.509 32.0535 187.223 31.0928H187.501V39.4604H185.201ZM191.268 32.4074C192.431 32.4074 193.357 32.0029 194.048 31.194C194.739 30.385 195.085 29.1969 195.085 27.6295C195.085 26.0622 194.739 24.8825 194.048 24.0904C193.357 23.2983 192.431 22.9022 191.268 22.9022C190.105 22.9022 189.178 23.2983 188.487 24.0904C187.813 24.8825 187.476 26.0622 187.476 27.6295C187.476 29.1969 187.813 30.385 188.487 31.194C189.178 32.0029 190.105 32.4074 191.268 32.4074ZM206.296 34.2275C204.273 34.2275 202.672 33.6461 201.492 32.4832C200.33 31.3204 199.748 29.7193 199.748 27.6801C199.748 26.3318 200.001 25.169 200.507 24.1915C201.029 23.1972 201.745 22.4304 202.655 21.8911C203.565 21.3349 204.627 21.0568 205.841 21.0568C207.003 21.0568 207.989 21.3096 208.798 21.8152C209.607 22.304 210.222 23.0034 210.644 23.9134C211.065 24.8235 211.276 25.9021 211.276 27.1492V27.9076H201.543V26.5425H209.708L209.279 26.8711C209.279 25.5566 208.984 24.537 208.394 23.8123C207.821 23.0876 206.97 22.7253 205.841 22.7253C204.61 22.7253 203.658 23.155 202.984 24.0145C202.31 24.8572 201.973 26.0116 201.973 27.4779V27.7054C201.973 29.2559 202.352 30.4271 203.11 31.2192C203.886 32.0113 204.956 32.4074 206.321 32.4074C207.079 32.4074 207.787 32.2978 208.444 32.0787C209.102 31.8597 209.734 31.4973 210.34 30.9917L211.099 32.5843C210.526 33.1068 209.809 33.5113 208.95 33.7978C208.107 34.0843 207.223 34.2275 206.296 34.2275ZM214.257 34V24.3937C214.257 23.8882 214.24 23.3741 214.206 22.8517C214.189 22.3124 214.147 21.7899 214.08 21.2843H216.304L216.582 24.4696L216.203 24.4949C216.372 23.7196 216.658 23.0792 217.063 22.5736C217.484 22.0512 217.981 21.672 218.554 21.436C219.144 21.1832 219.751 21.0568 220.374 21.0568C220.644 21.0568 220.872 21.0653 221.057 21.0821C221.242 21.099 221.428 21.1411 221.613 21.2085L221.563 23.2562C221.31 23.155 221.074 23.0961 220.855 23.0792C220.652 23.0455 220.4 23.0286 220.096 23.0286C219.355 23.0286 218.714 23.1972 218.175 23.5342C217.653 23.8713 217.248 24.3179 216.962 24.8741C216.692 25.4302 216.557 26.0285 216.557 26.6689V34H214.257ZM223.638 34V21.2843H225.939V34H223.638ZM223.436 18.5036V16.0262H226.166V18.5036H223.436ZM235.575 34.2275C233.552 34.2275 231.951 33.6461 230.771 32.4832C229.609 31.3204 229.027 29.7193 229.027 27.6801C229.027 26.3318 229.28 25.169 229.785 24.1915C230.308 23.1972 231.024 22.4304 231.934 21.8911C232.844 21.3349 233.906 21.0568 235.119 21.0568C236.282 21.0568 237.268 21.3096 238.077 21.8152C238.886 22.304 239.501 23.0034 239.923 23.9134C240.344 24.8235 240.555 25.9021 240.555 27.1492V27.9076H230.822V26.5425H238.987L238.558 26.8711C238.558 25.5566 238.263 24.537 237.673 23.8123C237.1 23.0876 236.249 22.7253 235.119 22.7253C233.889 22.7253 232.937 23.155 232.263 24.0145C231.589 24.8572 231.252 26.0116 231.252 27.4779V27.7054C231.252 29.2559 231.631 30.4271 232.389 31.2192C233.165 32.0113 234.235 32.4074 235.6 32.4074C236.358 32.4074 237.066 32.2978 237.723 32.0787C238.381 31.8597 239.013 31.4973 239.619 30.9917L240.378 32.5843C239.805 33.1068 239.088 33.5113 238.229 33.7978C237.386 34.0843 236.501 34.2275 235.575 34.2275ZM243.561 34V24.2926C243.561 23.8039 243.544 23.3067 243.51 22.8011C243.477 22.2955 243.426 21.7899 243.359 21.2843H245.583L245.836 24.0145H245.533C245.92 23.0539 246.519 22.3208 247.328 21.8152C248.137 21.3096 249.08 21.0568 250.159 21.0568C251.659 21.0568 252.788 21.4697 253.546 22.2955C254.305 23.1045 254.684 24.3685 254.684 26.0875V34H252.384V26.2139C252.384 25.051 252.156 24.2168 251.701 23.7112C251.246 23.1887 250.538 22.9275 249.577 22.9275C248.431 22.9275 247.521 23.273 246.847 23.964C246.19 24.655 245.861 25.5903 245.861 26.77V34H243.561ZM263.908 34.2275C262.644 34.2275 261.548 33.9663 260.621 33.4438C259.694 32.9045 258.97 32.1377 258.447 31.1434C257.942 30.1322 257.689 28.9356 257.689 27.5537C257.689 26.1886 257.95 25.0257 258.473 24.0651C258.995 23.0876 259.72 22.3461 260.647 21.8405C261.573 21.3181 262.661 21.0568 263.908 21.0568C264.733 21.0568 265.534 21.2001 266.309 21.4866C267.084 21.7562 267.716 22.1523 268.205 22.6747L267.422 24.2926C266.933 23.8207 266.393 23.4752 265.804 23.2562C265.214 23.0202 264.632 22.9022 264.059 22.9022C262.812 22.9022 261.835 23.3067 261.127 24.1157C260.419 24.9078 260.065 26.0622 260.065 27.579C260.065 29.1126 260.419 30.2923 261.127 31.1181C261.835 31.9439 262.812 32.3568 264.059 32.3568C264.615 32.3568 265.188 32.2473 265.778 32.0282C266.368 31.8091 266.916 31.4636 267.422 30.9917L268.205 32.5843C267.7 33.1236 267.051 33.5365 266.259 33.823C265.483 34.0927 264.7 34.2275 263.908 34.2275ZM276.555 34.2275C274.533 34.2275 272.932 33.6461 271.752 32.4832C270.589 31.3204 270.008 29.7193 270.008 27.6801C270.008 26.3318 270.261 25.169 270.766 24.1915C271.289 23.1972 272.005 22.4304 272.915 21.8911C273.825 21.3349 274.887 21.0568 276.1 21.0568C277.263 21.0568 278.249 21.3096 279.058 21.8152C279.867 22.304 280.482 23.0034 280.903 23.9134C281.325 24.8235 281.535 25.9021 281.535 27.1492V27.9076H271.803V26.5425H279.968L279.538 26.8711C279.538 25.5566 279.243 24.537 278.653 23.8123C278.08 23.0876 277.229 22.7253 276.1 22.7253C274.87 22.7253 273.918 23.155 273.244 24.0145C272.569 24.8572 272.232 26.0116 272.232 27.4779V27.7054C272.232 29.2559 272.612 30.4271 273.37 31.2192C274.145 32.0113 275.215 32.4074 276.58 32.4074C277.339 32.4074 278.047 32.2978 278.704 32.0787C279.361 31.8597 279.993 31.4973 280.6 30.9917L281.358 32.5843C280.785 33.1068 280.069 33.5113 279.21 33.7978C278.367 34.0843 277.482 34.2275 276.555 34.2275Z" fill="white"/>
<path opacity="0.2" d="M174 8L174 43" stroke="#181818"/>
<path fill-rule="evenodd" clip-rule="evenodd" d="M68.4671 22.6421C68.4671 24.185 68.1278 25.5689 67.458 26.7551C66.7945 27.9307 65.8613 28.8613 64.6832 29.5197C63.499 30.1819 62.0997 30.5176 60.5245 30.5176C58.9473 30.5176 57.5407 30.181 56.3415 29.5172C55.1522 28.8597 54.2132 27.9307 53.5496 26.7551C52.8805 25.5689 52.5405 24.185 52.5405 22.6421C52.5405 21.1265 52.8805 19.7563 53.5489 18.5701C54.2132 17.3951 55.1522 16.4655 56.3424 15.807C57.5416 15.1432 58.9489 14.8066 60.5245 14.8066C62.0988 14.8066 63.498 15.1426 64.6832 15.8048C65.8603 16.4645 66.7945 17.3951 67.458 18.5701C68.1278 19.7563 68.4671 21.1265 68.4671 22.6421ZM66.8423 12.4641C65.0628 11.4585 63.0207 10.9492 60.7713 10.9492C58.6708 10.9492 56.748 11.3927 55.0568 12.2679C54.0419 12.7935 53.1439 13.4516 52.371 14.2337L52.2064 11.4716H48.5898V39.8688H52.6229V31.3118C53.3751 32.0157 54.2311 32.6137 55.1851 33.0989C56.8467 33.9461 58.7268 34.3753 60.7713 34.3753C63.0207 34.3753 65.0628 33.8657 66.8423 32.8604C68.6276 31.8526 70.034 30.4366 71.0226 28.6502C72.0029 26.878 72.5001 24.857 72.5001 22.6421C72.5001 20.4264 72.0029 18.4118 71.0209 16.6525C70.0333 14.8822 68.6276 13.4725 66.8423 12.4641Z" fill="white"/>
<path fill-rule="evenodd" clip-rule="evenodd" d="M93.7862 26.7544C93.6505 26.9947 93.4957 27.2174 93.3378 27.4376C92.7205 28.2909 91.9403 28.9926 90.9937 29.5174C89.7944 30.1812 88.3869 30.518 86.8116 30.518C85.237 30.518 83.8378 30.182 82.6526 29.5191C81.4748 28.86 80.5414 27.9294 79.8781 26.7544C79.2112 25.573 78.8732 24.1965 78.8696 22.6615C78.8729 21.1275 79.2112 19.7499 79.8781 18.5695C80.5414 17.3945 81.4748 16.4639 82.6526 15.8049C83.8378 15.1419 85.237 14.806 86.8116 14.806C88.3869 14.806 89.7944 15.1426 90.9937 15.8065C91.9403 16.3304 92.7205 17.0329 93.3378 17.8863C93.4957 18.1057 93.6505 18.3291 93.7862 18.5695C94.453 19.7499 94.7904 21.1275 94.7936 22.6615C94.7903 24.1965 94.453 25.573 93.7862 26.7544ZM95.1296 11.4709L94.988 13.8392L94.722 14.0073C94.0044 13.3264 93.192 12.7407 92.2792 12.2673C91.0009 11.606 89.5903 11.1937 88.0708 11.0305C87.5787 10.9766 87.0773 10.9492 86.5648 10.9492C84.3152 10.9492 82.2732 11.4579 80.4937 12.4634C78.7085 13.4719 77.3028 14.8816 76.3149 16.6518C75.3332 18.4118 74.8359 20.4259 74.8359 22.6414C74.8359 22.6487 74.8367 22.6551 74.8367 22.6615C74.8367 22.6688 74.8359 22.6752 74.8359 22.6815C74.8359 24.8972 75.3332 26.9121 76.3149 28.6719C77.3028 30.4424 78.7085 31.852 80.4937 32.8605C82.2732 33.8658 84.3152 34.3746 86.5648 34.3746C87.0773 34.3746 87.5787 34.3473 88.0708 34.2933C89.5903 34.1311 91.0009 33.7172 92.2792 33.0566C93.192 32.5832 94.0044 31.9973 94.722 31.3166L94.988 31.4847L95.1296 33.853H98.7453V11.4709H95.1296Z" fill="white"/>
<path fill-rule="evenodd" clip-rule="evenodd" d="M144.333 26.7544C144.198 26.9947 144.042 27.2174 143.884 27.4376C143.267 28.2909 142.487 28.9926 141.541 29.5174C140.341 30.1812 138.934 30.518 137.358 30.518C135.784 30.518 134.385 30.182 133.2 29.5191C132.022 28.86 131.088 27.9294 130.425 26.7544C129.757 25.573 129.42 24.1965 129.417 22.6615C129.42 21.1275 129.757 19.7499 130.425 18.5695C131.088 17.3945 132.022 16.4639 133.2 15.8049C134.385 15.1419 135.784 14.806 137.358 14.806C138.934 14.806 140.341 15.1426 141.541 15.8065C142.487 16.3304 143.267 17.0329 143.884 17.8863C144.042 18.1057 144.198 18.3291 144.333 18.5695C145 19.7499 145.338 21.1275 145.341 22.6615C145.337 24.1965 145 25.573 144.333 26.7544ZM145.677 11.4709L145.535 13.8392L145.269 14.0073C144.552 13.3264 143.739 12.7407 142.826 12.2673C141.548 11.606 140.137 11.1937 138.618 11.0305C138.126 10.9766 137.624 10.9492 137.112 10.9492C134.862 10.9492 132.82 11.4579 131.041 12.4634C129.256 13.4719 127.85 14.8816 126.861 16.6518C125.88 18.4118 125.383 20.4259 125.383 22.6414C125.383 22.6487 125.384 22.6551 125.384 22.6615C125.384 22.6688 125.383 22.6752 125.383 22.6815C125.383 24.8972 125.88 26.9121 126.861 28.6719C127.85 30.4424 129.256 31.852 131.041 32.8605C132.82 33.8658 134.862 34.3746 137.112 34.3746C137.624 34.3746 138.126 34.3473 138.618 34.2933C140.137 34.1311 141.548 33.7172 142.826 33.0566C143.739 32.5832 144.552 31.9973 145.269 31.3166L145.535 31.4847L145.677 33.853H149.292V11.4709H145.677Z" fill="white"/>
<path fill-rule="evenodd" clip-rule="evenodd" d="M113.354 10.9492C111.49 10.9492 109.769 11.3759 108.238 12.218C107.396 12.68 106.646 13.2611 105.992 13.9523L105.865 11.4706H102.242V33.8527H106.275V22.2804C106.275 20.7801 106.572 19.4492 107.154 18.3232C107.725 17.2183 108.532 16.3456 109.549 15.7308C110.564 15.1175 111.747 14.8066 113.066 14.8066C114.945 14.8066 116.383 15.3989 117.464 16.6178C118.56 17.8548 119.115 19.5843 119.115 21.758V33.8527H123.148V21.5571C123.148 18.3682 122.269 15.7829 120.534 13.8719C118.774 11.9329 116.357 10.9492 113.354 10.9492Z" fill="white"/>
<path fill-rule="evenodd" clip-rule="evenodd" d="M33.8248 35.1322C33.8248 37.7148 31.7328 39.8091 29.1514 39.8091H8.17283C5.59117 39.8091 3.49916 37.7148 3.49916 35.1322V24.8559C3.49916 23.19 4.38465 21.65 5.82398 20.8121L13.972 16.0709C16.8712 14.3839 20.452 14.3839 23.3512 16.0709L31.5 20.8121C32.9393 21.65 33.8248 23.19 33.8248 24.8559V35.1322ZM30.3256 7.50586H6.99857C3.13311 7.50586 0 10.6418 0 14.5093V36.3066C0 40.175 3.13311 43.311 6.99857 43.311H30.3256C34.191 43.311 37.3239 40.175 37.3239 36.3066V14.5093C37.3239 10.6418 34.191 7.50586 30.3256 7.50586Z" fill="#E56553"/>
</svg>
