<svg width="235" height="265" viewBox="0 0 235 265" fill="none" xmlns="http://www.w3.org/2000/svg">
<g clip-path="url(#clip0_1_1147)">
<path d="M181.166 244.637H109.764C99.3787 244.637 90.9304 236.169 90.9304 225.76V38.8769C90.9304 28.4676 99.3787 20 109.764 20H181.166C191.552 20 200 28.4676 200 38.8769V225.76C200 236.169 191.552 244.637 181.166 244.637Z" fill="#DADBDC"/>
<path d="M181.218 239.527H109.712C102.026 239.527 95.77 233.257 95.77 225.552V38.7177C95.77 31.0135 102.026 24.7434 109.712 24.7434H181.218C188.904 24.7434 195.16 31.0135 195.16 38.7177V225.552C195.16 233.257 188.904 239.527 181.218 239.527Z" fill="white"/>
<path d="M155.577 37.1801H135.357C132.687 37.1801 130.517 35.0048 130.517 32.3293C130.517 29.6538 132.687 27.4785 135.357 27.4785H155.577C158.247 27.4785 160.417 29.6538 160.417 32.3293C160.417 35.0048 158.247 37.1801 155.577 37.1801Z" fill="#DADBDC"/>
<path d="M176.212 94.2326H117.044C115.872 94.2326 114.918 93.0171 114.918 91.5274C114.918 90.0377 115.872 88.8223 117.044 88.8223H176.212C177.384 88.8223 178.338 90.0377 178.338 91.5274C178.338 93.0171 177.384 94.2326 176.212 94.2326Z" fill="#DADBDC"/>
<path d="M176.212 106.221H117.044C115.872 106.221 114.918 105.005 114.918 103.516C114.918 102.026 115.872 100.811 117.044 100.811H176.212C177.384 100.811 178.338 102.026 178.338 103.516C178.338 105.005 177.384 106.221 176.212 106.221Z" fill="#DADBDC"/>
<path d="M159.245 118.209H117.044C115.872 118.209 114.918 116.994 114.918 115.504C114.918 114.014 115.872 112.799 117.044 112.799H159.245C160.417 112.799 161.371 114.014 161.371 115.504C161.371 116.994 160.417 118.209 159.245 118.209Z" fill="#DADBDC"/>
<path d="M145.465 188.692C159.414 188.692 170.721 177.359 170.721 163.378C170.721 149.398 159.414 138.064 145.465 138.064C131.517 138.064 120.209 149.398 120.209 163.378C120.209 177.359 131.517 188.692 145.465 188.692Z" fill="#E56553"/>
<path d="M138.747 163.904C140.052 166.465 141.358 169.029 142.663 171.59C143.036 172.327 144.134 172.094 144.352 171.367C146.064 165.646 149.244 160.432 153.529 156.285C154.387 155.455 153.078 154.147 152.22 154.973C147.71 159.339 144.371 164.856 142.567 170.875L144.256 170.652C142.951 168.092 141.646 165.527 140.341 162.967C139.801 161.903 138.204 162.841 138.744 163.9H138.747V163.904Z" fill="white"/>
<path d="M77.3799 132.758L71.2573 134.851L71.1611 125.991L76.7329 125.928L77.3799 132.758Z" fill="#F3A3A6"/>
<path d="M71.8783 128.436C75.2598 128.436 78.001 125.689 78.001 122.3C78.001 118.911 75.2598 116.163 71.8783 116.163C68.4968 116.163 65.7556 118.911 65.7556 122.3C65.7556 125.689 68.4968 128.436 71.8783 128.436Z" fill="#F3A3A6"/>
<path d="M73.5531 121.674C72.529 121.655 71.845 120.625 71.4346 119.68C71.0242 118.739 70.6027 117.653 69.6525 117.271C68.8724 116.96 67.5266 119.135 66.9054 118.568C66.2584 117.975 66.85 114.885 67.5229 114.325C68.1958 113.766 69.1238 113.647 69.9963 113.595C72.1297 113.473 74.2741 113.621 76.3704 114.036C77.6645 114.292 79.0029 114.685 79.9457 115.611C81.1399 116.786 81.4616 118.576 81.5651 120.251C81.6723 121.963 81.591 123.76 80.7776 125.272C79.9605 126.78 78.2339 127.907 76.559 127.544C76.3815 126.636 76.5405 125.702 76.596 124.775C76.6514 123.853 76.5701 122.856 76.0007 122.126C75.4313 121.396 74.226 121.118 73.579 121.777" fill="#2F2E43"/>
<path d="M81.1066 123.715C81.713 123.259 82.4414 122.874 83.1956 122.959C84.0127 123.048 84.7078 123.715 84.9259 124.508C85.1441 125.301 84.9185 126.179 84.4231 126.835C83.9277 127.491 83.1845 127.929 82.3933 128.151C81.9348 128.281 81.4357 128.336 80.9957 128.151C80.3487 127.88 79.9938 127.061 80.2378 126.402" fill="#2F2E43"/>
<path d="M58.3242 181.691C57.9397 183.711 58.705 185.545 60.0397 185.786C61.3707 186.027 62.7646 184.582 63.1491 182.562C63.3155 181.758 63.2785 180.924 63.0419 180.135L67.7522 148.484L61.4077 147.361L59.3188 179.464C58.8085 180.12 58.4647 180.883 58.3242 181.695V181.691Z" fill="#F3A3A6"/>
<path d="M71.1464 130.786L66.8243 130.834C63.774 131.331 62.9606 132.976 62.3025 136C61.2931 140.614 60.0065 146.761 60.2764 146.847C60.709 146.988 68.1035 150.375 71.8452 149.537L71.1464 130.786Z" fill="#252525"/>
<path d="M76.454 231.378L70.7014 231.443L70.7926 239.621L76.5452 239.556L76.454 231.378Z" fill="#F3A3A6"/>
<path d="M65.2307 244.637C64.6244 244.644 64.0883 244.637 63.6816 244.603C62.1509 244.481 60.6831 243.366 59.9399 242.713C59.6072 242.421 59.4962 241.946 59.6626 241.539C59.7809 241.246 60.025 241.024 60.3281 240.931L64.3545 239.73L70.8432 235.235L70.9171 235.365C70.9467 235.413 71.6011 236.566 71.823 237.348C71.908 237.644 71.8895 237.892 71.7675 238.085C71.6825 238.218 71.5641 238.296 71.468 238.344C71.5863 238.467 71.9598 238.715 73.1059 238.885C74.7734 239.134 75.1098 237.396 75.1209 237.322L75.132 237.262L75.1801 237.229C75.9676 236.707 76.4519 236.469 76.622 236.518C76.7292 236.547 76.903 236.599 77.428 241.313C77.4761 241.461 77.8199 242.543 77.6055 243.584C77.3726 244.718 72.4441 244.381 71.4606 244.303C71.431 244.307 67.7486 244.611 65.2233 244.637H65.2307Z" fill="#2F2E43"/>
<path d="M92.7624 224.756L87.9153 227.862L92.3104 234.753L97.1575 231.647L92.7624 224.756Z" fill="#F3A3A6"/>
<path d="M86.4714 243.277C85.7948 243.284 85.1737 243.21 84.73 243.136C84.2937 243.062 83.9499 242.721 83.8759 242.284C83.8205 241.969 83.9129 241.654 84.1199 241.416L86.9003 238.263L90.0319 231.007L90.165 231.078C90.2131 231.103 91.3777 231.733 91.9804 232.278C92.2096 232.486 92.3242 232.704 92.3242 232.934C92.3242 233.093 92.265 233.223 92.2059 233.312C92.3723 233.353 92.8196 233.364 93.8808 232.901C95.4262 232.226 94.794 230.574 94.7644 230.507L94.7422 230.451L94.7681 230.399C95.16 229.54 95.4484 229.08 95.6148 229.028C95.722 228.999 95.8958 228.947 98.8314 232.667C98.9497 232.767 99.8149 233.501 100.181 234.498C100.58 235.584 96.2248 237.911 95.3449 238.367C95.319 238.389 90.7677 241.78 88.8968 242.751C88.1537 243.136 87.27 243.262 86.464 243.269L86.4714 243.277Z" fill="#2F2E43"/>
<path d="M79.9199 162.922L63.8146 163.1L62.5205 178.131L69.5305 233.546L77.7533 233.453L74.1115 201.443L87.7692 230.229L95.0196 225.019L84.3048 198.123C84.3048 198.123 87.7655 174.551 84.7781 168.722C81.7907 162.893 79.9236 162.915 79.9236 162.915V162.922H79.9199Z" fill="#2F2E43"/>
<path d="M87.9393 163.749L62.3616 164.034L69.6674 130.805L80.8147 130.679L87.9393 163.749Z" fill="#252525"/>
<path d="M90.4387 181.336C90.8676 183.348 90.1429 185.197 88.8156 185.468C87.4883 185.738 86.0648 184.326 85.636 182.314C85.4511 181.514 85.4696 180.68 85.6877 179.883L80.2749 148.344L86.5935 147.08L89.3924 179.131C89.9174 179.776 90.276 180.532 90.4387 181.339V181.336Z" fill="#F3A3A6"/>
<path d="M76.4927 130.727L80.8148 130.679C83.8761 131.109 84.7228 132.735 85.4512 135.744C86.5603 140.336 87.9838 146.45 87.7176 146.543C87.285 146.691 79.9718 150.241 76.2117 149.489L76.4964 130.727H76.4927Z" fill="#252525"/>
<path d="M115.521 244.637C115.521 244.837 115.358 245 115.159 245H36.3623C36.1627 245 36 244.837 36 244.637C36 244.436 36.1627 244.273 36.3623 244.273H115.159C115.358 244.273 115.521 244.436 115.521 244.637Z" fill="#3F3D58"/>
</g>
<defs>
<clipPath id="clip0_1_1147">
<rect width="164" height="225" fill="white" transform="translate(36 20)"/>
</clipPath>
</defs>
</svg>
