<svg width="235" height="265" viewBox="0 0 235 265" fill="none" xmlns="http://www.w3.org/2000/svg">
<g clip-path="url(#clip0_1_1148)">
<path d="M14.5 61C14.5 58.7909 16.2909 57 18.5 57H151C153.209 57 155 58.7909 155 61V137C155 139.209 153.209 141 151 141H18.5C16.2909 141 14.5 139.209 14.5 137V61Z" fill="white"/>
<path d="M159.634 74.368C159.736 75.072 160.109 75.7086 160.674 76.1422C161.238 76.5758 161.95 76.7723 162.658 76.6899C162.801 76.6709 162.943 76.64 163.081 76.5977L168.781 84.2371L173.681 82.7131L164.74 73.0909C164.519 72.5312 164.12 72.0601 163.603 71.7511C163.086 71.4421 162.482 71.3127 161.883 71.3829C161.543 71.4261 161.215 71.5358 160.918 71.7056C160.62 71.8755 160.359 72.1022 160.149 72.3728C159.94 72.6434 159.785 72.9526 159.695 73.2828C159.605 73.613 159.581 73.9577 159.624 74.2971C159.627 74.3208 159.631 74.3444 159.634 74.368Z" fill="#A0616A"/>
<path d="M199.881 108.488C199.881 108.488 178.599 98.5702 173.215 92.2353L163.568 80.2749L168.461 76.2783L177.528 86.7075C177.446 88.8989 188.163 91.1456 193.925 94.3398L199.881 108.488Z" fill="#E6E6E6"/>
<path d="M205.113 222.122L200.939 222.122L198.953 206.043L205.114 206.043L205.113 222.122Z" fill="#A0616A"/>
<path d="M205.26 226.47L192.423 226.47V226.308C192.423 224.984 192.95 223.715 193.887 222.78C194.824 221.844 196.095 221.318 197.42 221.318L199.765 219.542L204.14 221.319L205.261 221.319L205.26 226.47Z" fill="#2F2E41"/>
<path d="M195.161 218.444L191.096 219.391L185.504 204.184L191.504 202.786L195.161 218.444Z" fill="#A0616A"/>
<path d="M196.294 222.646L183.793 225.558L183.756 225.4C183.455 224.111 183.679 222.756 184.378 221.632C185.078 220.509 186.196 219.708 187.486 219.407L187.487 219.407L189.366 217.146L194.031 217.883L195.122 217.629L196.294 222.646Z" fill="#2F2E41"/>
<path d="M154.417 128.233H38.2219C37.4885 128.225 36.7586 128.132 36.0463 127.958C33.9205 127.448 32.0292 126.237 30.6784 124.52C29.3276 122.804 28.5963 120.682 28.6028 118.499V79.0615C28.6069 76.4818 29.6355 74.0091 31.4631 72.1859C33.2907 70.3626 35.7679 69.3377 38.3513 69.336H154.417C155.981 69.3318 157.523 69.7087 158.909 70.4339C159.461 70.7197 159.983 71.0597 160.467 71.449C161.623 72.3528 162.558 73.5085 163.199 74.8278C163.84 76.1471 164.17 77.5951 164.165 79.0615V118.499C164.162 121.08 163.134 123.554 161.307 125.379C159.479 127.204 157.001 128.23 154.417 128.233Z" fill="#F2F2F2"/>
<path d="M146.629 127.372C151.904 114.568 157.462 101.891 163.302 89.3398V110.619C159.252 116.655 154.762 122.319 149.556 127.372H146.629Z" fill="#252525"/>
<path d="M159.926 72.1208C149.487 90.822 138.564 109.239 127.158 127.371H125.172C136.768 108.954 147.881 90.23 158.51 71.1982C159.011 71.4579 159.486 71.767 159.926 72.1208Z" fill="#252525"/>
<path d="M83.3201 92.5382C76.4982 104.582 68.9702 116.213 60.7753 127.371H48.9373C56.6911 117.939 64.4507 108.506 72.216 99.0738C74.4438 96.3578 76.8614 93.5125 80.203 92.4089L83.3201 92.5382Z" fill="#252525"/>
<path d="M67.5879 90.607C66.3532 91.8917 65.1702 93.2281 64.0564 94.6163C61.6041 97.565 59.1865 100.54 56.7602 103.506C55.2491 105.351 53.7381 107.196 52.2443 109.041C51.7699 108.737 51.3196 108.397 50.8973 108.024C48.5113 105.956 47.0314 103.037 46.7746 99.8927C46.5178 96.7484 47.5047 93.6288 49.5237 91.2023C51.5426 88.7758 54.4331 87.2355 57.5757 86.9115C60.7183 86.5875 63.863 87.5055 66.3359 89.4689C66.7816 89.816 67.2001 90.1965 67.5879 90.607Z" fill="#E56553"/>
<path d="M134.359 98.9873L111.667 90.7015L100.399 86.5888C96.7296 85.2524 93.0685 83.7263 89.278 82.7606C85.9815 81.8199 82.4812 81.8648 79.2101 82.8899C76.2932 83.9679 73.6238 85.6217 71.3613 87.7528C70.3597 88.6753 69.3897 89.6266 68.4514 90.6067C67.2167 91.8914 66.0337 93.2278 64.9199 94.6159C62.4676 97.5647 60.05 100.539 57.6237 103.505C56.1126 105.35 54.6016 107.196 53.1078 109.041C48.117 115.136 43.155 121.247 38.2219 127.371C37.5582 127.363 36.8976 127.28 36.2532 127.121C41.3994 120.741 46.5686 114.375 51.7608 108.023C52.3566 107.282 52.9697 106.532 53.5741 105.79C56.104 102.695 58.6368 99.6024 61.1725 96.5128C63.1325 94.1245 65.0753 91.7189 67.1994 89.4686C67.3894 89.2616 67.5794 89.0634 67.7779 88.8564C72.0866 84.4074 77.4659 80.4758 83.9073 80.3723C87.6979 80.3119 91.3589 81.5104 94.8818 82.7778C98.6724 84.1488 102.454 85.5455 106.245 86.9337L129.092 95.2798L134.808 97.3664C135.818 97.7285 135.386 99.3666 134.359 98.9873Z" fill="#252525"/>
<path d="M14.6012 83.4761V59.7997C14.6025 59.0608 14.8972 58.3525 15.4207 57.8303C15.9443 57.3081 16.6539 57.0146 17.3939 57.0142H48.1192V56.4138H17.3939C16.4945 56.4144 15.6321 56.7712 14.9958 57.406C14.3595 58.0408 14.0014 58.9016 14 59.7997V83.4761L14.6012 83.4761Z" fill="#3F3D56"/>
<path d="M16.734 140.477C16.1249 140.331 15.583 139.984 15.196 139.492C14.8089 139 14.5994 138.393 14.6012 137.767V114.094H14V137.767C13.9977 138.527 14.2524 139.266 14.7226 139.863C15.1929 140.461 15.8514 140.883 16.5915 141.06C16.8394 141.121 17.0935 141.153 17.3489 141.156H48.1192V140.556H17.3525C17.144 140.553 16.9365 140.527 16.734 140.477Z" fill="#3F3D56"/>
<path d="M154.385 114.094V137.767C154.384 138.506 154.089 139.215 153.566 139.738C153.042 140.261 152.332 140.555 151.592 140.556H120.867V141.156H151.592C152.492 141.155 153.354 140.798 153.991 140.162C154.627 139.527 154.985 138.666 154.986 137.767V114.094H154.385Z" fill="#3F3D56"/>
<path d="M152.781 57.3291C152.939 57.4109 153.088 57.5082 153.226 57.6196C153.558 57.8783 153.825 58.2093 154.009 58.5872C154.193 58.965 154.288 59.3799 154.287 59.8V83.4763H154.888V59.8C154.889 59.2895 154.774 58.7853 154.551 58.326C154.328 57.8667 154.003 57.4644 153.6 57.1497C153.432 57.0142 153.25 56.8958 153.058 56.7963C152.575 56.5438 152.039 56.4126 151.494 56.4141H120.769V57.0144H151.494C151.942 57.0133 152.384 57.1213 152.781 57.3291Z" fill="#3F3D56"/>
<path d="M208.731 144.053L182.757 145.353L180.954 154.058V161.811L179.847 190.681L187.567 213.192H193.757L193.128 210.34C193.472 209.861 193.665 209.291 193.683 208.702C193.701 208.112 193.544 207.531 193.231 207.032L192.734 206.239L191.926 202.836L190.122 190.229L197.847 161.811L198.84 213.642H205.564L206.55 212.518C207.098 211.893 207.424 211.105 207.478 210.277C207.532 209.448 207.311 208.625 206.849 207.935V206.678L206.055 202.236L213.465 147.091L208.731 144.053Z" fill="#2F2E41"/>
<path d="M197.508 90.0134L189.035 90.4467L188.073 94.4566L181.92 99.1585C180.529 100.222 179.463 101.652 178.844 103.288C178.224 104.924 178.074 106.7 178.412 108.416L181.822 125.741L181.601 136.585L182.093 141.025L182.056 141.698L181.302 142.313C180.79 142.732 180.435 143.313 180.297 143.96C180.159 144.606 180.246 145.281 180.543 145.872C180.543 145.872 176.83 153.888 182.202 154.295C187.574 154.703 190.897 149.125 196.03 151.294C201.163 153.462 205.745 153.716 207.153 151.294C208.56 148.871 212.841 149.435 213.355 147.319C213.87 145.203 211.264 142.807 210.914 139.652C210.564 136.497 209.662 121.789 209.662 121.789L212.184 107.348C212.541 105.304 212.222 103.199 211.277 101.351C210.331 99.5033 208.809 98.0127 206.94 97.1043L198.865 93.1788L197.508 90.0134Z" fill="#E6E6E6"/>
<path d="M153.383 135.226C153.724 134.492 154.338 133.919 155.095 133.63C155.852 133.341 156.692 133.359 157.437 133.679C157.587 133.746 157.731 133.826 157.868 133.917L166.575 127.444L171.418 130.699L158.532 138.279C158.109 138.818 157.52 139.201 156.856 139.37C156.191 139.539 155.49 139.483 154.861 139.212C154.504 139.054 154.183 138.828 153.914 138.546C153.645 138.264 153.434 137.932 153.294 137.569C153.153 137.205 153.086 136.818 153.095 136.429C153.105 136.04 153.191 135.656 153.349 135.3C153.36 135.275 153.371 135.251 153.383 135.226Z" fill="#A0616A"/>
<path d="M180.433 101.087C180.433 101.087 169.148 121.607 164.778 127.642L161.46 130.229L161.761 138.687L169.174 134.602C169.174 134.602 184.134 123.286 183.705 118.575C183.276 113.864 180.433 101.087 180.433 101.087Z" fill="#E6E6E6"/>
<path d="M192.553 89.336C196.974 89.336 200.559 85.7569 200.559 81.3418C200.559 76.9268 196.974 73.3477 192.553 73.3477C188.131 73.3477 184.547 76.9268 184.547 81.3418C184.547 85.7569 188.131 89.336 192.553 89.336Z" fill="#A0616A"/>
<path d="M195.646 88.6808C193.349 88.6055 193.14 87.9996 190.843 87.9243C190.111 87.9004 189.248 87.8003 188.894 87.1604C188.642 86.7047 188.758 86.1308 188.98 85.6597C189.242 85.2101 189.479 84.7459 189.688 84.2695C189.814 83.8959 189.847 83.4972 189.784 83.1079C189.721 82.7187 189.565 82.3506 189.327 82.0354C189.09 81.7202 188.78 81.4674 188.423 81.299C188.066 81.1305 187.673 81.0513 187.279 81.0683C186.579 81.0985 185.923 81.4268 185.226 81.4868C184.269 81.5691 182.155 78.4167 182.595 77.5652C183.024 76.7363 183.886 76.1109 184.022 75.188C184.11 74.5843 183.861 73.9845 183.827 73.3754C183.776 72.4722 186.069 74.5087 185.649 73.7071C184.619 71.7408 194.326 69.3031 195.924 71.7661C196.521 72.6866 197.585 72.6238 198.534 73.1766C199.156 73.539 200.726 74.789 201.083 75.5681C201.411 76.3631 201.566 77.2186 201.538 78.078C201.552 82.0746 200.942 85.7508 197.714 88.1132" fill="#2F2E41"/>
<path d="M155.734 224.629C153.563 224.82 151.377 224.525 149.335 223.764C147.293 223.004 145.447 221.797 143.932 220.233C141.951 218.147 140.592 215.463 139.277 212.866C138.894 212.111 138.498 211.33 138.096 210.581C137.647 209.765 137.453 208.833 137.54 207.905C137.626 206.978 137.989 206.098 138.58 205.378C139.147 204.659 139.917 204.125 140.791 203.847C141.664 203.568 142.601 203.557 143.481 203.815L143.673 203.87L145.4 210.598C145.657 209.595 146.21 207.334 146.56 205.118L146.589 204.933L146.761 205.009C148.564 205.806 150.259 206.826 151.807 208.045C154.549 210.242 156.779 213.008 158.342 216.151C159.905 219.295 160.764 222.741 160.859 226.249L160.864 226.458L155.734 224.629Z" fill="#F2F2F2"/>
<path d="M221.642 226.908L137.847 227C137.752 227 137.662 226.962 137.595 226.895C137.528 226.828 137.49 226.738 137.49 226.643C137.49 226.548 137.528 226.458 137.595 226.391C137.662 226.324 137.752 226.286 137.847 226.286L221.642 226.193C221.689 226.193 221.736 226.202 221.779 226.22C221.823 226.238 221.863 226.264 221.896 226.298C221.929 226.331 221.956 226.37 221.974 226.414C221.992 226.457 222.001 226.504 222.001 226.551C222.001 226.598 221.992 226.644 221.974 226.688C221.956 226.731 221.929 226.771 221.896 226.804C221.863 226.837 221.823 226.863 221.779 226.881C221.736 226.899 221.689 226.908 221.642 226.908Z" fill="#CACACA"/>
<path d="M61.933 165.848C60.3774 165.848 58.8568 165.387 57.5634 164.524C56.2699 163.661 55.2619 162.435 54.6666 161C54.0713 159.565 53.9155 157.986 54.219 156.462C54.5225 154.939 55.2716 153.539 56.3715 152.441C57.4715 151.343 58.8729 150.595 60.3986 150.292C61.9243 149.988 63.5057 150.144 64.9428 150.738C66.38 151.333 67.6083 152.34 68.4726 153.631C69.3368 154.923 69.7981 156.441 69.7981 157.994C69.7981 160.077 68.9694 162.075 67.4944 163.548C66.0195 165.021 64.0189 165.848 61.933 165.848Z" fill="#E6E6E6"/>
<path d="M65.0363 157.22H62.7087V154.896C62.7083 154.69 62.6264 154.494 62.4809 154.349C62.3355 154.204 62.1384 154.122 61.9329 154.122C61.7274 154.122 61.5303 154.204 61.3848 154.349C61.2394 154.494 61.1574 154.69 61.157 154.896V157.22H58.8295C58.624 157.22 58.427 157.302 58.2819 157.447C58.1367 157.592 58.0552 157.789 58.0552 157.994C58.0552 158.2 58.1367 158.396 58.2819 158.542C58.427 158.687 58.624 158.769 58.8295 158.769H61.157V161.093C61.1574 161.299 61.2394 161.495 61.3848 161.64C61.5303 161.785 61.7274 161.867 61.9329 161.867C62.1384 161.867 62.3355 161.785 62.4809 161.64C62.6264 161.495 62.7083 161.299 62.7087 161.093V158.769H65.0362C65.1383 158.769 65.2393 158.749 65.3336 158.711C65.4279 158.672 65.5136 158.615 65.5858 158.543C65.658 158.471 65.7153 158.385 65.7544 158.291C65.7935 158.197 65.8136 158.096 65.8136 157.994C65.8136 157.893 65.7935 157.792 65.7544 157.698C65.7153 157.603 65.658 157.518 65.5858 157.446C65.5136 157.374 65.4279 157.317 65.3336 157.278C65.2393 157.239 65.1383 157.219 65.0363 157.22Z" fill="white"/>
<path d="M84.944 165.848C83.3884 165.848 81.8677 165.387 80.5743 164.524C79.2809 163.661 78.2728 162.435 77.6776 161C77.0823 159.565 76.9265 157.986 77.23 156.462C77.5335 154.939 78.2825 153.539 79.3825 152.441C80.4824 151.343 81.8839 150.595 83.4096 150.292C84.9352 149.988 86.5166 150.144 87.9538 150.738C89.391 151.333 90.6193 152.34 91.4835 153.631C92.3478 154.923 92.8091 156.441 92.8091 157.994C92.8091 160.077 91.9804 162.075 90.5054 163.548C89.0304 165.021 87.0299 165.848 84.944 165.848Z" fill="#E6E6E6"/>
<path d="M88.0472 157.219H81.8405C81.635 157.22 81.438 157.302 81.2929 157.447C81.1477 157.592 81.0662 157.789 81.0662 157.994C81.0662 158.199 81.1477 158.396 81.2929 158.541C81.438 158.687 81.635 158.769 81.8405 158.769H88.0472C88.253 158.769 88.4503 158.687 88.5958 158.542C88.7413 158.397 88.8231 158.2 88.8231 157.994C88.8231 157.789 88.7413 157.592 88.5958 157.446C88.4503 157.301 88.253 157.219 88.0472 157.219Z" fill="white"/>
<path d="M107.955 165.848C106.399 165.848 104.878 165.387 103.585 164.524C102.292 163.661 101.284 162.435 100.688 161C100.093 159.565 99.9373 157.986 100.241 156.462C100.544 154.939 101.293 153.539 102.393 152.441C103.493 151.343 104.895 150.595 106.42 150.292C107.946 149.988 109.527 150.144 110.965 150.738C112.402 151.333 113.63 152.34 114.494 153.631C115.359 154.923 115.82 156.441 115.82 157.994C115.82 160.077 114.991 162.075 113.516 163.548C112.041 165.021 110.041 165.848 107.955 165.848Z" fill="#E6E6E6"/>
<path d="M112.38 157.621L110.15 154.371C110.101 154.3 110.038 154.238 109.965 154.191C109.893 154.144 109.811 154.111 109.726 154.095C109.641 154.079 109.553 154.08 109.468 154.098C109.383 154.116 109.302 154.151 109.231 154.2C109.159 154.249 109.098 154.311 109.05 154.384C109.003 154.457 108.97 154.538 108.954 154.623C108.938 154.708 108.939 154.796 108.957 154.881C108.975 154.965 109.01 155.046 109.059 155.118L110.501 157.219H104.852C104.75 157.219 104.649 157.239 104.555 157.278C104.46 157.317 104.375 157.374 104.303 157.446C104.231 157.518 104.174 157.604 104.135 157.698C104.096 157.791 104.076 157.892 104.076 157.994C104.076 158.096 104.096 158.196 104.135 158.29C104.174 158.384 104.231 158.47 104.303 158.542C104.375 158.614 104.46 158.671 104.555 158.71C104.649 158.749 104.75 158.769 104.852 158.769H110.572L109.059 160.974C108.96 161.118 108.922 161.296 108.954 161.468C108.987 161.64 109.086 161.793 109.231 161.892C109.375 161.991 109.553 162.028 109.726 161.996C109.898 161.964 110.051 161.865 110.15 161.72L112.38 158.47C112.452 158.341 112.49 158.194 112.49 158.046C112.49 157.897 112.452 157.751 112.38 157.621Z" fill="white"/>
<path d="M84.944 55.6777C89.5561 55.6777 93.2949 51.9443 93.2949 47.3389C93.2949 42.7334 89.5561 39 84.944 39C80.3319 39 76.593 42.7334 76.593 47.3389C76.593 51.9443 80.3319 55.6777 84.944 55.6777Z" fill="#252525"/>
<path d="M83.8048 51.6789C83.6606 51.6789 83.5183 51.6453 83.3894 51.5809C83.2604 51.5165 83.1482 51.423 83.0617 51.3078L80.7834 48.2744C80.71 48.177 80.6565 48.0661 80.626 47.948C80.5956 47.8299 80.5887 47.7069 80.6059 47.5862C80.6231 47.4654 80.6639 47.3493 80.7261 47.2443C80.7883 47.1394 80.8706 47.0477 80.9683 46.9745C81.066 46.9013 81.1772 46.8481 81.2955 46.8179C81.4138 46.7877 81.5369 46.7811 81.6578 46.7984C81.7787 46.8158 81.895 46.8568 82 46.9191C82.105 46.9814 82.1966 47.0637 82.2697 47.1614L83.7602 49.1457L87.5885 43.4118C87.6561 43.3103 87.7431 43.2232 87.8444 43.1553C87.9458 43.0874 88.0596 43.0401 88.1793 43.0161C88.2989 42.9922 88.4222 42.992 88.5419 43.0156C88.6617 43.0393 88.7756 43.0862 88.8771 43.1538C88.9787 43.2214 89.0659 43.3084 89.1338 43.4097C89.2017 43.511 89.249 43.6246 89.2728 43.7441C89.2967 43.8637 89.2968 43.9867 89.273 44.1063C89.2492 44.2258 89.2021 44.3395 89.1343 44.4409L84.5778 51.2658C84.4954 51.3892 84.3845 51.4911 84.2545 51.5629C84.1245 51.6348 83.9791 51.6744 83.8306 51.6786C83.822 51.6787 83.8134 51.6789 83.8048 51.6789Z" fill="white"/>
</g>
<defs>
<clipPath id="clip0_1_1148">
<rect width="208" height="188" fill="white" transform="translate(14 39)"/>
</clipPath>
</defs>
</svg>
