<svg width="235" height="265" viewBox="0 0 235 265" fill="none" xmlns="http://www.w3.org/2000/svg">
<g clip-path="url(#clip0_1_1243)">
<path d="M31.7289 178.524C31.5345 178.196 30.6936 178.547 30.539 178.249C30.385 177.953 31.1663 177.502 31.6126 176.47C31.6931 176.284 32.2004 175.112 31.8249 174.75C31.1131 174.064 27.8559 176.894 26.7161 175.968C26.4659 175.765 26.2911 175.359 25.534 174.701C25.2328 174.439 25.0507 174.32 24.8745 174.364C24.6244 174.427 24.6045 174.761 24.3364 175.419C23.9342 176.406 23.6963 176.347 23.4619 177.134C23.288 177.719 23.3277 178.059 23.123 178.125C22.8333 178.218 22.5667 177.598 22.1996 177.654C21.825 177.711 21.5985 178.433 21.527 178.973C21.3927 179.987 21.7652 180.657 21.9717 181.36C22.1961 182.125 22.3292 183.288 21.8111 184.935L16.6824 199.384C17.8146 196.419 21.0931 188.291 22.4707 185.271C22.8683 184.399 23.3074 183.515 24.2091 183.166C25.0771 182.83 26.2692 183.03 27.7891 182.664C27.9666 182.622 28.4591 182.496 28.5211 182.207C28.5724 181.967 28.2827 181.833 28.3272 181.609C28.3869 181.308 28.9566 181.305 29.6568 180.957C30.1505 180.713 30.4581 180.422 30.7226 180.171C30.8023 180.096 31.9876 178.96 31.7289 178.524Z" fill="#F2F2F2"/>
<path d="M11.5512 186.13C11.3342 186.131 11.2638 186.645 11.0732 186.635C10.8833 186.625 10.8871 186.111 10.5096 185.595C10.4415 185.502 10.0125 184.914 9.72656 184.994C9.18465 185.146 9.63367 187.561 8.8503 187.853C8.67838 187.917 8.42884 187.886 7.88711 188.067C7.67161 188.139 7.56099 188.195 7.53174 188.294C7.49023 188.435 7.6488 188.541 7.89444 188.862C8.26284 189.345 8.16495 189.444 8.48384 189.786C8.72057 190.04 8.89884 190.119 8.87228 190.239C8.83469 190.408 8.45342 190.36 8.37475 190.556C8.29447 190.756 8.58347 191.075 8.82813 191.267C9.28726 191.625 9.72326 191.635 10.1283 191.737C10.5684 191.848 11.1778 192.118 11.8365 192.847L17.4489 199.533C16.3203 198.122 13.2768 194.168 12.1918 192.621C11.8786 192.174 11.5712 191.703 11.6601 191.16C11.7456 190.637 12.188 190.11 12.4468 189.258C12.4771 189.159 12.5577 188.881 12.4334 188.767C12.3306 188.673 12.1814 188.776 12.0841 188.69C11.9537 188.574 12.1162 188.293 12.1479 187.849C12.1702 187.536 12.116 187.301 12.0695 187.099C12.0554 187.038 11.84 186.129 11.5512 186.13Z" fill="#F2F2F2"/>
<path d="M15.8792 187.102L15.7485 185.935L15.8083 185.847C16.0846 185.438 16.2255 185.038 16.2271 184.659C16.2274 184.599 16.2246 184.539 16.2218 184.477C16.2105 184.234 16.1964 183.931 16.3542 183.579C16.4426 183.382 16.6911 182.927 17.0646 182.983C17.1652 182.997 17.2413 183.043 17.299 183.097C17.3075 183.084 17.3162 183.07 17.3255 183.056C17.4418 182.878 17.534 182.802 17.6227 182.729C17.6909 182.673 17.7613 182.615 17.8717 182.477C17.9202 182.417 17.9579 182.364 17.9897 182.32C18.0864 182.185 18.2126 182.024 18.4351 182.027C18.6729 182.038 18.7974 182.235 18.8799 182.365C19.0272 182.597 19.094 182.765 19.1382 182.876C19.1543 182.916 19.1726 182.962 19.1819 182.976C19.2585 183.088 19.8814 182.983 20.116 182.945C20.6431 182.857 21.0992 182.781 21.2871 183.113C21.4217 183.351 21.3217 183.665 20.9808 184.073C20.8746 184.199 20.7617 184.296 20.6614 184.371C20.7445 184.421 20.8189 184.497 20.849 184.616C20.92 184.899 20.6769 185.182 20.1267 185.46C19.9901 185.529 19.8061 185.621 19.5484 185.666C19.427 185.687 19.3177 185.692 19.2242 185.695C19.2222 185.749 19.2095 185.807 19.1765 185.867C19.0799 186.045 18.8788 186.129 18.5757 186.109C18.2421 186.092 17.9675 186.028 17.7252 185.972C17.5137 185.924 17.3314 185.883 17.1883 185.892C16.9229 185.914 16.7184 186.126 16.4784 186.402L15.8792 187.102Z" fill="#F2F2F2"/>
<path d="M16.4857 180.155L15.3902 180.577L15.2895 180.542C14.8237 180.378 14.4016 180.344 14.0344 180.438C13.976 180.453 13.9184 180.471 13.8598 180.489C13.6272 180.562 13.3381 180.652 12.9569 180.589C12.7443 180.554 12.2409 180.429 12.2007 180.053C12.1888 179.952 12.2142 179.867 12.2519 179.797C12.2366 179.793 12.2214 179.788 12.2048 179.782C12.0036 179.715 11.9067 179.645 11.8134 179.578C11.7416 179.526 11.6676 179.473 11.5066 179.401C11.436 179.369 11.3752 179.346 11.3241 179.327C11.1693 179.267 10.982 179.186 10.9282 178.97C10.8788 178.737 11.0374 178.567 11.1424 178.454C11.3296 178.253 11.4745 178.146 11.5706 178.075C11.6058 178.049 11.6453 178.02 11.6566 178.007C11.7461 177.904 11.4862 177.329 11.3896 177.112C11.1709 176.624 10.9817 176.202 11.2556 175.936C11.4514 175.746 11.7809 175.763 12.2613 175.989C12.4109 176.06 12.5327 176.144 12.6312 176.222C12.6581 176.129 12.7128 176.038 12.8207 175.979C13.0762 175.838 13.412 176.002 13.8197 176.463C13.9214 176.578 14.0574 176.732 14.1659 176.97C14.2168 177.083 14.2494 177.187 14.2759 177.277C14.3287 177.265 14.3886 177.262 14.4553 177.279C14.6515 177.327 14.7842 177.5 14.8415 177.799C14.9092 178.126 14.9173 178.408 14.9248 178.656C14.9316 178.873 14.938 179.06 14.9836 179.196C15.0716 179.447 15.3289 179.591 15.6563 179.753L16.4857 180.155Z" fill="#F2F2F2"/>
<path d="M15.8792 176.718L15.7485 175.551L15.8083 175.463C16.0846 175.054 16.2255 174.654 16.2271 174.275C16.2274 174.215 16.2246 174.155 16.2218 174.093C16.2105 173.85 16.1964 173.547 16.3542 173.195C16.4426 172.998 16.6911 172.543 17.0646 172.599C17.1652 172.613 17.2413 172.66 17.299 172.714C17.3075 172.7 17.3162 172.687 17.3255 172.672C17.4418 172.495 17.534 172.419 17.6227 172.345C17.6909 172.289 17.7613 172.231 17.8717 172.093C17.9202 172.033 17.9579 171.98 17.9897 171.936C18.0864 171.801 18.2126 171.641 18.4351 171.643C18.6729 171.655 18.7974 171.851 18.8799 171.981C19.0272 172.213 19.094 172.381 19.1382 172.492C19.1543 172.532 19.1726 172.578 19.1819 172.592C19.2585 172.705 19.8814 172.599 20.116 172.561C20.6431 172.473 21.0992 172.397 21.2871 172.729C21.4217 172.967 21.3217 173.282 20.9808 173.689C20.8746 173.816 20.7617 173.912 20.6614 173.987C20.7445 174.037 20.8189 174.113 20.849 174.233C20.92 174.515 20.6769 174.799 20.1267 175.076C19.9901 175.145 19.8061 175.238 19.5484 175.282C19.427 175.303 19.3177 175.308 19.2242 175.311C19.2222 175.365 19.2095 175.423 19.1765 175.484C19.0799 175.661 18.8788 175.746 18.5757 175.725C18.2421 175.708 17.9675 175.644 17.7252 175.588C17.5137 175.54 17.3314 175.499 17.1883 175.508C16.9229 175.53 16.7184 175.742 16.4784 176.018L15.8792 176.718Z" fill="#F2F2F2"/>
<path d="M17.0731 199.365L16.8285 199.212L16.5435 199.244C16.5389 199.218 16.5235 199.157 16.5001 199.062C16.3725 198.54 15.9834 196.953 15.6589 194.453C15.4324 192.707 15.3043 190.913 15.2778 189.119C15.2513 187.322 15.3364 185.961 15.4045 184.868C15.4561 184.043 15.5186 183.258 15.58 182.493C15.7434 180.449 15.8975 178.518 15.7829 176.381C15.7575 175.904 15.7043 174.911 15.124 173.854C14.7873 173.241 14.3237 172.697 13.7456 172.237L14.1051 171.785C14.7431 172.293 15.2561 172.896 15.6299 173.577C16.2733 174.748 16.3313 175.831 16.3592 176.351C16.4758 178.526 16.3201 180.475 16.155 182.538C16.0941 183.301 16.0316 184.082 15.9803 184.904C15.9127 185.987 15.8285 187.336 15.8547 189.11C15.8806 190.883 16.0074 192.655 16.2308 194.378C16.5513 196.847 16.9347 198.411 17.0607 198.924C17.1277 199.199 17.1418 199.256 17.0731 199.365Z" fill="#F2F2F2"/>
<path d="M12.6875 173.153C12.6639 173.153 12.6399 173.153 12.6157 173.151C12.1244 173.124 11.6695 172.83 11.2633 172.277C11.0728 172.017 10.9754 171.72 10.781 171.128C10.7508 171.037 10.6044 170.574 10.5153 169.936C10.457 169.52 10.4644 169.346 10.5469 169.192C10.6384 169.021 10.7866 168.902 10.9534 168.821C10.9461 168.766 10.952 168.709 10.9759 168.651C11.0742 168.41 11.3357 168.442 11.4771 168.457C11.5486 168.466 11.6379 168.478 11.7343 168.473C11.8858 168.466 11.9672 168.42 12.0906 168.353C12.2086 168.288 12.3554 168.208 12.5732 168.163C13.0025 168.073 13.3622 168.195 13.4808 168.235C14.1048 168.443 14.4124 168.928 14.7685 169.49C14.8394 169.602 15.0831 170.013 15.244 170.575C15.36 170.98 15.3437 171.161 15.3088 171.295C15.2378 171.57 15.0702 171.728 14.6445 172.076C14.2 172.441 13.9769 172.623 13.7853 172.734C13.3394 172.991 13.0594 173.153 12.6875 173.153Z" fill="#F2F2F2"/>
<path d="M196.064 178.892C195.87 178.564 195.029 178.915 194.874 178.618C194.72 178.322 195.501 177.87 195.948 176.838C196.028 176.652 196.536 175.48 196.16 175.118C195.448 174.433 192.191 177.262 191.051 176.336C190.801 176.133 190.626 175.728 189.869 175.069C189.568 174.807 189.386 174.689 189.21 174.733C188.96 174.795 188.94 175.13 188.672 175.788C188.269 176.775 188.031 176.715 187.797 177.503C187.623 178.087 187.663 178.427 187.458 178.493C187.169 178.587 186.902 177.967 186.535 178.022C186.16 178.079 185.934 178.801 185.862 179.341C185.728 180.356 186.1 181.025 186.307 181.729C186.531 182.494 186.664 183.657 186.146 185.303L181.018 199.752C182.15 196.787 185.428 188.66 186.806 185.64C187.204 184.768 187.643 183.883 188.544 183.534C189.412 183.198 190.604 183.399 192.124 183.033C192.302 182.99 192.794 182.865 192.856 182.575C192.908 182.336 192.618 182.202 192.662 181.978C192.722 181.677 193.292 181.673 193.992 181.326C194.486 181.081 194.793 180.79 195.058 180.54C195.138 180.464 196.323 179.328 196.064 178.892Z" fill="#F2F2F2"/>
<path d="M175.886 186.499C175.669 186.499 175.599 187.013 175.408 187.003C175.219 186.993 175.222 186.48 174.845 185.963C174.777 185.87 174.348 185.283 174.062 185.363C173.52 185.514 173.969 187.929 173.185 188.221C173.014 188.285 172.764 188.254 172.222 188.436C172.007 188.508 171.896 188.563 171.867 188.662C171.825 188.803 171.984 188.909 172.23 189.231C172.598 189.713 172.5 189.813 172.819 190.155C173.056 190.409 173.234 190.487 173.207 190.607C173.17 190.776 172.789 190.728 172.71 190.924C172.63 191.124 172.919 191.444 173.163 191.635C173.622 191.993 174.058 192.004 174.463 192.106C174.904 192.216 175.513 192.486 176.172 193.216L181.784 199.902C180.655 198.49 177.612 194.537 176.527 192.989C176.214 192.542 175.906 192.072 175.995 191.528C176.081 191.005 176.523 190.478 176.782 189.627C176.812 189.527 176.893 189.249 176.769 189.135C176.666 189.041 176.517 189.145 176.419 189.058C176.289 188.942 176.451 188.661 176.483 188.218C176.505 187.905 176.451 187.67 176.405 187.468C176.391 187.407 176.175 186.497 175.886 186.499Z" fill="#F2F2F2"/>
<path d="M180.214 187.47L180.084 186.303L180.143 186.215C180.42 185.806 180.561 185.407 180.562 185.028C180.563 184.967 180.56 184.907 180.557 184.846C180.546 184.602 180.532 184.3 180.689 183.947C180.778 183.75 181.026 183.295 181.4 183.352C181.5 183.366 181.576 183.412 181.634 183.466C181.643 183.452 181.651 183.439 181.661 183.424C181.777 183.247 181.869 183.171 181.958 183.097C182.026 183.041 182.096 182.983 182.207 182.846C182.255 182.785 182.293 182.732 182.325 182.688C182.422 182.553 182.548 182.393 182.77 182.396C183.008 182.407 183.133 182.603 183.215 182.734C183.362 182.966 183.429 183.133 183.473 183.244C183.489 183.285 183.508 183.33 183.517 183.344C183.594 183.457 184.217 183.352 184.451 183.313C184.978 183.225 185.434 183.149 185.622 183.482C185.757 183.719 185.657 184.034 185.316 184.441C185.21 184.568 185.097 184.664 184.997 184.74C185.08 184.789 185.154 184.865 185.184 184.985C185.255 185.267 185.012 185.551 184.462 185.828C184.325 185.897 184.141 185.99 183.884 186.034C183.762 186.055 183.653 186.06 183.559 186.063C183.557 186.117 183.545 186.176 183.512 186.236C183.415 186.413 183.214 186.498 182.911 186.478C182.577 186.46 182.303 186.396 182.06 186.341C181.849 186.292 181.667 186.251 181.523 186.261C181.258 186.282 181.054 186.494 180.814 186.77L180.214 187.47Z" fill="#F2F2F2"/>
<path d="M180.821 180.523L179.725 180.946L179.625 180.91C179.159 180.747 178.737 180.712 178.37 180.806C178.311 180.821 178.254 180.84 178.195 180.858C177.962 180.93 177.673 181.021 177.292 180.958C177.08 180.922 176.576 180.797 176.536 180.422C176.524 180.321 176.549 180.235 176.587 180.166C176.572 180.161 176.557 180.156 176.54 180.151C176.339 180.083 176.242 180.014 176.149 179.946C176.077 179.895 176.003 179.841 175.842 179.769C175.771 179.738 175.71 179.715 175.659 179.695C175.505 179.636 175.317 179.554 175.263 179.339C175.214 179.106 175.373 178.935 175.478 178.823C175.665 178.621 175.81 178.514 175.906 178.443C175.941 178.417 175.981 178.388 175.992 178.376C176.081 178.273 175.821 177.697 175.725 177.48C175.506 176.992 175.317 176.571 175.591 176.305C175.787 176.114 176.116 176.131 176.597 176.357C176.746 176.428 176.868 176.513 176.966 176.591C176.993 176.498 177.048 176.406 177.156 176.347C177.411 176.207 177.747 176.37 178.155 176.832C178.257 176.946 178.393 177.101 178.501 177.339C178.552 177.451 178.585 177.555 178.611 177.645C178.664 177.633 178.724 177.631 178.79 177.647C178.987 177.696 179.119 177.869 179.177 178.167C179.244 178.494 179.252 178.776 179.26 179.024C179.267 179.241 179.273 179.428 179.319 179.564C179.407 179.815 179.664 179.959 179.992 180.121L180.821 180.523Z" fill="#F2F2F2"/>
<path d="M180.214 177.086L180.084 175.92L180.143 175.831C180.42 175.422 180.561 175.023 180.562 174.644C180.563 174.583 180.56 174.523 180.557 174.462C180.546 174.218 180.532 173.916 180.689 173.563C180.778 173.367 181.026 172.911 181.4 172.968C181.5 172.982 181.576 173.028 181.634 173.082C181.643 173.069 181.651 173.055 181.661 173.04C181.777 172.863 181.869 172.787 181.958 172.714C182.026 172.657 182.096 172.599 182.207 172.462C182.255 172.402 182.293 172.349 182.325 172.304C182.422 172.169 182.548 172.009 182.77 172.012C183.008 172.023 183.133 172.22 183.215 172.35C183.362 172.582 183.429 172.749 183.473 172.86C183.489 172.901 183.508 172.946 183.517 172.96C183.594 173.073 184.217 172.968 184.451 172.929C184.978 172.842 185.434 172.766 185.622 173.098C185.757 173.336 185.657 173.65 185.316 174.057C185.21 174.184 185.097 174.28 184.997 174.356C185.08 174.405 185.154 174.481 185.184 174.601C185.255 174.884 185.012 175.167 184.462 175.444C184.325 175.514 184.141 175.606 183.884 175.65C183.762 175.671 183.653 175.676 183.559 175.679C183.557 175.733 183.545 175.792 183.512 175.852C183.415 176.03 183.214 176.114 182.911 176.094C182.577 176.076 182.303 176.013 182.06 175.957C181.849 175.908 181.667 175.867 181.523 175.877C181.258 175.898 181.054 176.111 180.814 176.386L180.214 177.086Z" fill="#F2F2F2"/>
<path d="M181.409 199.733L181.164 199.58L180.879 199.613C180.874 199.586 180.859 199.526 180.836 199.43C180.708 198.909 180.319 197.321 179.994 194.821C179.768 193.076 179.64 191.282 179.613 189.487C179.587 187.69 179.672 186.33 179.74 185.236C179.792 184.411 179.854 183.626 179.916 182.861C180.079 180.817 180.233 178.887 180.118 176.749C180.093 176.272 180.04 175.279 179.459 174.222C179.123 173.609 178.659 173.065 178.081 172.605L178.441 172.154C179.079 172.662 179.592 173.264 179.965 173.945C180.609 175.117 180.667 176.199 180.695 176.719C180.811 178.894 180.656 180.843 180.49 182.907C180.43 183.669 180.367 184.451 180.316 185.272C180.248 186.356 180.164 187.704 180.19 189.478C180.216 191.251 180.343 193.023 180.566 194.747C180.887 197.215 181.27 198.779 181.396 199.293C181.463 199.567 181.477 199.625 181.409 199.733Z" fill="#F2F2F2"/>
<path d="M177.023 173.522C176.999 173.522 176.975 173.521 176.951 173.519C176.46 173.493 176.005 173.199 175.598 172.646C175.408 172.385 175.311 172.088 175.116 171.496C175.086 171.405 174.94 170.942 174.851 170.305C174.792 169.889 174.8 169.714 174.882 169.561C174.974 169.389 175.122 169.27 175.289 169.189C175.281 169.134 175.287 169.077 175.311 169.019C175.409 168.779 175.671 168.81 175.812 168.826C175.884 168.835 175.973 168.846 176.069 168.841C176.221 168.834 176.302 168.789 176.426 168.721C176.544 168.657 176.691 168.576 176.908 168.531C177.338 168.442 177.697 168.564 177.816 168.604C178.44 168.811 178.748 169.296 179.104 169.858C179.175 169.971 179.418 170.381 179.579 170.943C179.695 171.349 179.679 171.529 179.644 171.663C179.573 171.939 179.405 172.096 178.98 172.444C178.535 172.809 178.312 172.991 178.121 173.102C177.675 173.36 177.395 173.522 177.023 173.522Z" fill="#F2F2F2"/>
<path d="M101.758 112.042C115.627 112.042 126.87 100.8 126.87 86.9326C126.87 73.0649 115.627 61.823 101.758 61.823C87.889 61.823 76.646 73.0649 76.646 86.9326C76.646 100.8 87.889 112.042 101.758 112.042Z" fill="#E56553"/>
<path d="M198.468 199.027C198.468 199.279 198.357 199.483 198.219 199.483H25.5532V198.572H198.219C198.357 198.572 198.468 198.776 198.468 199.027Z" fill="#E6E6E6"/>
<path d="M166.384 199.187C166.384 213.259 167.862 223.558 152.536 224.666C136.079 225.855 138.687 213.259 138.687 199.187C138.687 185.116 136.472 171.123 152.536 173.708C160.087 174.923 166.384 185.116 166.384 199.187Z" fill="#3F3D56"/>
<path d="M143.119 216.911C144.343 216.911 145.335 208.976 145.335 199.187C145.335 189.398 144.343 181.463 143.119 181.463C141.895 181.463 140.903 189.398 140.903 199.187C140.903 208.976 141.895 216.911 143.119 216.911Z" fill="#E6E6E6"/>
<path d="M55.4628 176.527C55.4628 188.945 56.7664 198.034 43.2418 199.012C28.719 200.062 31.0208 188.945 31.0208 176.527C31.0208 164.109 29.0654 151.762 43.2418 154.043C49.9056 155.115 55.4628 164.109 55.4628 176.527Z" fill="#3F3D56"/>
<path d="M34.9314 192.169C36.0114 192.169 36.8868 185.166 36.8868 176.527C36.8868 167.889 36.0114 160.886 34.9314 160.886C33.8515 160.886 32.9761 167.889 32.9761 176.527C32.9761 185.166 33.8515 192.169 34.9314 192.169Z" fill="#E6E6E6"/>
<path d="M76.4616 199.003C76.4616 213.074 77.9387 223.374 62.6131 224.482C46.1563 225.671 48.7646 213.074 48.7646 199.003C48.7646 184.931 46.5489 170.939 62.6131 173.524C70.1642 174.739 76.4616 184.931 76.4616 199.003Z" fill="#3F3D56"/>
<path d="M53.1962 216.727C54.4199 216.727 55.412 208.792 55.412 199.003C55.412 189.214 54.4199 181.278 53.1962 181.278C51.9725 181.278 50.9805 189.214 50.9805 199.003C50.9805 208.792 51.9725 216.727 53.1962 216.727Z" fill="#E6E6E6"/>
<path d="M32.7005 146.752V155.486L30.3 159.492L31.0386 173.523L31.6362 173.893L31.2233 159.676C35.4307 158.11 36.8065 160.995 36.3934 166.692L35.6548 176.293L47.4721 183.678L48.9493 168.538L54.4887 165.954L60.582 191.617H162.672C166.881 191.617 170.244 188.115 170.073 183.911L168.785 152.106L165.308 148.63L162.088 111.385C161.285 102.097 153.408 95.0277 144.087 95.2285L80.2238 96.6048C76.7591 96.6794 73.3362 97.3769 70.1187 98.6638L54.6733 104.841L44.7039 114.81L43.2253 138.813L39.4557 138.485C36.7442 138.25 34.2712 140.041 33.6509 142.691L32.7005 146.752Z" fill="#E6E6E6"/>
<path d="M65.752 181.279C67.7915 181.279 69.4449 179.625 69.4449 177.586C69.4449 175.547 67.7915 173.894 65.752 173.894C63.7125 173.894 62.0591 175.547 62.0591 177.586C62.0591 179.625 63.7125 181.279 65.752 181.279Z" fill="#3F3D56"/>
<path d="M74.2457 181.279C76.2852 181.279 77.9386 179.625 77.9386 177.586C77.9386 175.547 76.2852 173.894 74.2457 173.894C72.2061 173.894 70.5527 175.547 70.5527 177.586C70.5527 179.625 72.2061 181.279 74.2457 181.279Z" fill="#3F3D56"/>
<path d="M156.967 181.279C159.007 181.279 160.66 179.625 160.66 177.586C160.66 175.547 159.007 173.894 156.967 173.894C154.928 173.894 153.274 175.547 153.274 177.586C153.274 179.625 154.928 181.279 156.967 181.279Z" fill="#3F3D56"/>
<path d="M165.461 181.279C167.5 181.279 169.154 179.625 169.154 177.586C169.154 175.547 167.5 173.894 165.461 173.894C163.421 173.894 161.768 175.547 161.768 177.586C161.768 179.625 163.421 181.279 165.461 181.279Z" fill="#3F3D56"/>
<path d="M159.698 142.902H72.8794C72.2157 142.902 71.5979 142.637 71.1399 142.157C70.6819 141.677 70.4467 141.047 70.4781 140.384L71.7465 113.567C71.8065 112.299 72.8479 111.293 74.1169 111.277L156.094 110.222C157.305 110.21 158.354 111.108 158.51 112.32L162.082 140.192C162.17 140.877 161.959 141.567 161.503 142.086C161.046 142.604 160.389 142.902 159.698 142.902Z" fill="white"/>
<path d="M60.7578 141.583H55.1247C54.4564 141.583 53.8129 141.302 53.3594 140.811C52.9057 140.32 52.6756 139.657 52.7281 138.99L54.3495 118.415C54.4384 117.285 55.2841 116.384 56.406 116.224L62.2271 115.392C62.9559 115.289 63.6817 115.519 64.2172 116.024C64.753 116.53 65.0245 117.241 64.9625 117.975L63.1534 139.382C63.0473 140.637 62.0173 141.583 60.7578 141.583Z" fill="white"/>
<path d="M47.8038 141.06C47.7455 141.06 47.6869 141.058 47.6283 141.054L46.9669 141.007C46.3136 140.96 45.7213 140.658 45.2993 140.157C44.8774 139.656 44.681 139.022 44.7461 138.37L46.5657 120.175C46.6735 119.098 47.4945 118.221 48.5627 118.043C49.2907 117.921 50.0221 118.136 50.5693 118.631C51.1168 119.125 51.4038 119.83 51.3571 120.566L50.1988 138.808C50.1578 139.453 49.8675 140.042 49.381 140.467C48.9391 140.853 48.3846 141.06 47.8038 141.06Z" fill="white"/>
<path d="M38.644 178.182L37.6861 157.276C37.6861 157.276 35.4703 154.322 33.9931 155.061C32.516 155.799 30.322 159.906 30.322 159.906C30.322 159.906 34.6036 159.626 34.483 164.175C34.3624 168.723 35.2166 176.082 35.2166 176.082L38.644 178.182Z" fill="#CCCCCC"/>
<path d="M47.562 183.644L48.026 168.048L52.7235 162.5C52.7235 162.5 59.0015 161.144 58.8685 168.257C58.7354 175.37 60.7665 191.802 60.7665 191.802L56.1759 188.919C56.1759 188.919 55.0425 171.309 51.7189 169.462C48.3953 167.616 49.5031 169.093 49.5031 169.093L47.562 183.644Z" fill="#CCCCCC"/>
<path d="M42.6696 143.663L39.03 141.583H39.4274C39.9951 141.583 40.4553 141.123 40.4553 140.556V131.533C40.4553 130.966 39.9951 130.506 39.4274 130.506H35.5745C35.0068 130.506 34.5466 130.966 34.5466 131.533V140.556C34.5466 141.123 35.0068 141.583 35.5745 141.583H37.5415L42.3032 144.304L42.6696 143.663Z" fill="#3F3D56"/>
<path d="M47.5873 157.181L44.748 156.365C44.062 156.168 43.3459 156.564 43.1487 157.25C42.9514 157.936 43.3476 158.652 44.0336 158.849L46.8729 159.666C47.5589 159.863 48.275 159.467 48.4723 158.781C48.6696 158.095 48.2734 157.379 47.5873 157.181Z" fill="#3F3D56"/>
<path d="M163.256 130.967L151.116 130.443C150.402 130.412 149.799 130.965 149.768 131.678C149.738 132.392 150.291 132.995 151.004 133.025L163.144 133.549C163.858 133.58 164.461 133.027 164.491 132.314C164.522 131.601 163.969 130.998 163.256 130.967Z" fill="#3F3D56"/>
<path d="M174.704 155.338L162.564 154.814C161.851 154.783 161.248 155.336 161.217 156.049C161.186 156.762 161.739 157.365 162.452 157.396L174.593 157.92C175.306 157.951 175.909 157.398 175.94 156.685C175.97 155.972 175.417 155.369 174.704 155.338Z" fill="#3F3D56"/>
<path d="M125.208 183.494C140.709 183.494 153.274 170.929 153.274 155.43C153.274 139.931 140.709 127.367 125.208 127.367C109.708 127.367 97.1418 139.931 97.1418 155.43C97.1418 170.929 109.708 183.494 125.208 183.494Z" fill="#3F3D56"/>
<path d="M125.208 172.047C134.386 172.047 141.826 164.607 141.826 155.43C141.826 146.253 134.386 138.813 125.208 138.813C116.03 138.813 108.59 146.253 108.59 155.43C108.59 164.607 116.03 172.047 125.208 172.047Z" fill="#E6E6E6"/>
<path d="M162.393 99.6969C162.534 101.335 163.494 102.59 164.537 102.5C165.579 102.41 166.31 101.009 166.168 99.3703C166.121 98.715 165.917 98.0805 165.574 97.52L164.888 90.5867L161.641 90.978L162.662 97.7715C162.42 98.3826 162.328 99.0428 162.393 99.6969Z" fill="#FFB6B6"/>
<path d="M152.995 59.5611C152.995 59.5611 156.578 58.552 157.955 60.2605C159.332 61.969 164.469 78.7469 164.469 78.7469L166.064 96.8041L160.978 95.2651L158.999 81.0245L155.675 73.6394L152.995 59.5611Z" fill="#252525"/>
<path d="M151.825 48.6985H140.906V59.052H151.825V48.6985Z" fill="#2F2E41"/>
<path d="M146.25 53.9739C149.19 53.9739 151.574 51.5905 151.574 48.6504C151.574 45.7103 149.19 43.3269 146.25 43.3269C143.31 43.3269 140.926 45.7103 140.926 48.6504C140.926 51.5905 143.31 53.9739 146.25 53.9739Z" fill="#FFB6B6"/>
<path d="M143.73 40.0397C140.327 40.5663 140.489 41.8305 139.4 42.4869C137.48 43.6431 136.723 46.9821 137.737 49.1854C138.007 49.7741 138.579 50.5772 138.301 51.4443C138.089 52.11 137.475 52.5027 137.36 52.5738C136.417 53.1559 137.033 52.4634 136.607 52.9503C136.137 53.4877 136.865 54.2468 136.419 55.2092C136.023 56.0625 135.207 55.9904 135.101 56.527C134.918 57.4508 137.013 59.3085 139.243 59.1624C141.228 59.0323 142.702 57.3543 143.196 55.774C143.527 54.7154 143.67 52.8945 142.82 52.0091C142.7 51.8849 142.375 51.5842 142.067 51.0678C141.823 50.6593 141.502 50.1214 141.69 49.7501C141.89 49.3546 142.458 49.5628 142.82 49.1854C143.31 48.6736 142.727 47.8089 142.82 46.9265C142.976 45.4322 145.093 43.6349 147.338 43.9145C149.884 44.2317 150.818 47.0004 150.915 47.3029C151.115 47.93 151.111 48.5367 151.103 49.7501C151.092 51.4914 151.085 52.5828 150.538 53.7033C149.753 55.3148 148.752 55.1407 148.468 56.3387C148.024 58.2066 150.111 60.0825 150.35 60.2918C152.12 61.8436 154.794 62.3101 155.245 61.6096C155.651 60.9782 153.868 59.9962 153.927 58.0329C153.978 56.3316 155.355 55.8129 155.057 54.6445C154.728 53.3583 152.974 53.6517 152.233 52.1973C151.541 50.8398 152.816 50.0865 152.609 47.3029C152.566 46.7141 152.381 45.0241 151.292 43.3498C150.812 42.6122 150.324 41.862 149.409 41.4674C148.385 41.0256 145.53 39.7611 143.73 40.0397Z" fill="#2F2E41"/>
<path d="M141.471 44.7457C141.609 45.9114 143.359 46.4826 144.106 46.6281C144.423 46.6898 145.492 46.898 146.554 46.4399C146.946 46.2706 147.089 46.1174 147.495 46.0634C148.044 45.9903 148.321 46.1992 149.189 46.4399C150.155 46.7075 150.638 46.8414 150.884 46.6281C151.286 46.2796 150.977 45.1393 150.507 44.3692C149.639 42.9451 148.048 42.5042 147.307 42.2985C146.46 42.0635 144.74 41.5866 143.165 42.4867C142.955 42.6071 141.33 43.5613 141.471 44.7457Z" fill="#2F2E41"/>
<path d="M167.386 149.485L170.103 149.549L171.618 137.342L167.608 137.247L167.386 149.485Z" fill="#FFB6B6"/>
<path d="M176.709 155.153C176.709 155.612 176.383 155.984 175.981 155.984H170.588C170.588 155.984 170.057 153.851 167.893 152.933L167.743 155.984H164.961L165.298 151.078C165.298 151.078 164.554 148.453 166.1 147.111C167.645 145.769 166.393 145.956 166.393 145.956L167.001 142.919L171.206 143.413L171.237 148.18L173.277 152.912L176.27 154.39C176.536 154.522 176.709 154.822 176.709 155.153Z" fill="#2F2E41"/>
<path d="M155.032 125.576L157.689 125.004L156.312 112.781L152.391 113.625L155.032 125.576Z" fill="#FFB6B6"/>
<path d="M165.42 128.912C165.527 129.358 165.297 129.796 164.907 129.889L159.662 131.148C159.662 131.148 158.648 129.198 156.329 128.81L156.896 131.812L154.191 132.462L153.373 127.612C153.373 127.612 152.037 125.233 153.226 123.568C154.416 121.902 153.242 122.376 153.242 122.376L153.125 119.281L157.328 118.78L158.471 123.409L161.56 127.533L164.815 128.272C165.105 128.338 165.343 128.589 165.42 128.912Z" fill="#2F2E41"/>
<path d="M149.951 54.623L143.303 54.9923L141.457 58.6849L134.44 62.3775L135.548 80.586L133.017 89.7443L133.332 92.2874L158.075 91.5489L156.598 64.2238L156.967 59.7927L152.166 58.3156L149.951 54.623Z" fill="#252525"/>
<path d="M133.517 88.7789C133.517 88.7789 127.978 98.5657 133.517 99.9497C135.982 100.565 138.592 100.98 140.731 101.251C143.292 101.575 145.649 99.8178 146.073 97.2718L151.982 117.581L157.891 116.104L158.999 105.532L166.178 112.711L165.276 141.583L171.924 141.214L178.94 109.827C178.94 109.827 179.31 107.611 173.77 104.657C168.231 101.703 158.26 92.1022 158.26 92.1022L141.273 86.9326L133.517 88.7789Z" fill="#2F2E41"/>
<path d="M145.15 95.2415L135.548 88.9641L147.365 76.4093C147.365 76.4093 154.013 73.8245 155.859 83.7945C157.706 93.7644 158.814 102.627 158.814 102.627L145.15 95.2415Z" fill="#2F2E41"/>
<path d="M125.339 76.5004L125.76 73.6393C126.067 71.5542 124.684 69.7345 122.808 69.2866V68.1004C122.808 67.0808 121.981 66.2542 120.961 66.2542C119.942 66.2542 119.115 67.0808 119.115 68.1004V69.6827L112.098 71.1709V69.2082C112.098 68.1885 111.272 67.3619 110.252 67.3619C109.232 67.3619 108.405 68.1885 108.405 69.2082V71.0735L107.708 70.8916C105.625 70.3482 103.979 72.7381 105.275 74.4572C105.291 74.4794 105.308 74.5017 105.326 74.5239C107.055 76.7474 107.549 78.7239 107.549 78.7239L106.314 85.3945L107.721 99.2629C107.902 101.05 109.441 102.39 111.237 102.323L124.898 101.817C126.692 101.751 128.128 100.304 128.177 98.5098C128.351 92.1177 128.371 78.2057 125.339 76.5004Z" fill="#3F3D56"/>
<path d="M113.108 100.464C112.917 100.464 112.755 100.316 112.741 100.122L111.999 90.2397C111.984 90.0363 112.137 89.8591 112.34 89.8439C112.542 89.828 112.721 89.9811 112.736 90.1845L113.477 100.067C113.492 100.27 113.34 100.447 113.136 100.463C113.127 100.463 113.118 100.464 113.108 100.464Z" fill="#FFB6B6"/>
<path d="M107.549 79.0934C107.369 79.0934 107.211 78.9612 107.184 78.7777C107.155 78.5759 107.294 78.3884 107.496 78.3588L125.343 75.7434C125.545 75.7142 125.733 75.8534 125.762 76.0551C125.792 76.2569 125.652 76.4444 125.451 76.474L107.603 79.0894C107.585 79.0921 107.567 79.0934 107.549 79.0934Z" fill="#FFB6B6"/>
<path d="M209.219 144.016L209.389 130.821L204.323 129.427L204.476 144.018L203.311 154.799L203.341 154.811C202.853 155.302 202.456 156.086 202.287 157.013C201.979 158.704 202.544 160.224 203.548 160.407C204.553 160.589 205.617 159.366 205.925 157.675C206.051 156.981 206.028 156.317 205.891 155.762L205.936 155.778L209.219 144.016Z" fill="#A0616A"/>
<path d="M200.007 112.999C200.007 112.999 202.305 111.241 203.928 113.81C205.551 116.379 210.014 129.36 210.014 129.36C210.014 129.36 211.304 135.309 210.997 136.188C210.69 137.067 210.284 144.803 210.284 144.803L203.944 143.653L204.097 136.188L198.055 126.545L200.007 112.999Z" fill="#CCCCCC"/>
<path d="M157.544 108.207L166.429 117.964L171.082 115.525L161.008 104.968L154.498 96.294L154.469 96.3064C154.49 95.6139 154.244 94.7703 153.735 93.9779C152.805 92.5317 151.355 91.8069 150.497 92.3588C149.638 92.9108 149.695 94.5307 150.625 95.9768C151.007 96.5704 151.476 97.0398 151.956 97.3519L151.912 97.3704L157.544 108.207Z" fill="#A0616A"/>
<path d="M185.96 124.582C185.96 124.582 185.481 127.436 182.541 126.667C179.601 125.897 167.478 119.458 167.478 119.458C167.478 119.458 162.473 115.992 162.097 115.14C161.721 114.288 156.736 108.359 156.736 108.359L162.154 104.871L167.139 110.43L178.137 113.352L185.96 124.582Z" fill="#CCCCCC"/>
<path d="M187.644 105.539C191.541 105.539 194.701 102.38 194.701 98.4836C194.701 94.5869 191.541 91.428 187.644 91.428C183.747 91.428 180.588 94.5869 180.588 98.4836C180.588 102.38 183.747 105.539 187.644 105.539Z" fill="#A0616A"/>
<path d="M200.023 222.087L195.643 222.087L193.56 205.196L200.024 205.196L200.023 222.087Z" fill="#A0616A"/>
<path d="M185.018 221.988C184.882 222.218 184.81 222.959 184.81 223.226C184.81 224.047 185.475 224.712 186.296 224.712H199.859C200.419 224.712 200.873 224.258 200.873 223.698V223.134C200.873 223.134 201.544 221.437 200.163 219.345C200.163 219.345 198.446 220.983 195.88 218.418L195.124 217.048L189.648 221.052L186.613 221.426C185.949 221.507 185.36 221.413 185.018 221.988Z" fill="#2F2E41"/>
<path d="M187.467 222.087L183.087 222.087L181.004 205.196L187.468 205.196L187.467 222.087Z" fill="#A0616A"/>
<path d="M172.462 221.988C172.326 222.218 172.254 222.959 172.254 223.226C172.254 224.047 172.919 224.712 173.74 224.712H187.303C187.863 224.712 188.317 224.258 188.317 223.698V223.134C188.317 223.134 188.988 221.437 187.607 219.345C187.607 219.345 185.89 220.983 183.325 218.418L182.568 217.048L177.092 221.052L174.057 221.426C173.393 221.507 172.804 221.413 172.462 221.988Z" fill="#2F2E41"/>
<path d="M203.129 148.784L174.693 150.261L180.971 214.512L187.249 214.142L189.465 175.37L190.388 161.523L194.154 213.08L200.544 213.035L203.129 148.784Z" fill="#2F2E41"/>
<path d="M194.705 107.427L183.935 107.058L176.724 114.228V137.716L173.908 152.476C173.908 152.476 192.848 150.63 196.562 154.323C200.276 158.015 206.96 155.43 206.96 155.43L203.618 135.902L202.132 113.335L194.705 107.427Z" fill="#CCCCCC"/>
<path d="M190.751 105.396L184.748 103.978L183.822 100.339C183.822 100.339 183.799 98.6234 182.989 98.4321C182.179 98.2407 180.751 97.0482 180.751 97.0482L182.135 94.8099C182.135 94.8099 178.799 94.4495 179.801 93.8309C180.802 93.2124 180.947 93.491 181.089 91.9976C181.383 88.9074 190.839 89.3584 191.574 91.0539C191.574 91.0539 192.789 91.3409 193.407 92.3421C194.026 93.3434 194.335 93.844 194.74 93.9396C195.145 94.0353 195.359 94.9408 195.359 94.9408C195.359 94.9408 196.787 96.1334 196.287 96.4427C195.786 96.7519 195.403 98.3717 195.403 98.3717C195.403 98.3717 196.736 99.9692 193.755 103.54L192.166 106.096L190.751 105.396Z" fill="#2F2E41"/>
<path d="M198.459 115.773L198.88 112.912C199.187 110.827 197.804 109.007 195.928 108.559V107.373C195.928 106.353 195.101 105.527 194.081 105.527C193.062 105.527 192.235 106.353 192.235 107.373V108.955L185.218 110.444V108.481C185.218 107.461 184.392 106.635 183.372 106.635C182.352 106.635 181.525 107.461 181.525 108.481V110.346L180.828 110.164C178.745 109.621 177.099 112.011 178.395 113.73C178.412 113.752 178.429 113.774 178.446 113.797C180.175 116.02 180.67 117.997 180.67 117.997L179.434 124.667L180.841 138.536C181.023 140.323 182.561 141.662 184.357 141.596L198.018 141.09C199.812 141.024 201.248 139.577 201.297 137.782C201.471 131.39 201.491 117.478 198.459 115.773Z" fill="#3F3D56"/>
<path d="M186.229 139.736C186.037 139.736 185.875 139.589 185.861 139.395L185.119 129.512C185.104 129.309 185.257 129.132 185.46 129.117C185.662 129.101 185.841 129.254 185.856 129.457L186.597 139.34C186.613 139.543 186.46 139.72 186.257 139.735C186.247 139.736 186.238 139.736 186.229 139.736Z" fill="#FFB6B6"/>
<path d="M180.669 118.366C180.489 118.366 180.331 118.234 180.304 118.05C180.275 117.848 180.414 117.661 180.616 117.631L198.464 115.016C198.665 114.987 198.853 115.126 198.882 115.328C198.912 115.529 198.772 115.717 198.571 115.746L180.723 118.362C180.705 118.365 180.687 118.366 180.669 118.366Z" fill="#FFB6B6"/>
<path d="M181.483 140.328L174.509 123.49L176.355 124.229L183.783 139.147L181.483 140.328Z" fill="#3F3D56"/>
<path d="M225 224.69C225 224.861 224.861 225 224.69 225H9.68774V224.38H224.69C224.861 224.38 225 224.519 225 224.69Z" fill="#E6E6E6"/>
<path d="M148.791 93.0516C149.989 94.1782 151.541 94.4735 152.258 93.7113C152.975 92.949 152.585 91.4181 151.387 90.2912C150.914 89.8345 150.339 89.4976 149.71 89.3086L144.575 84.5991L142.416 87.0557L147.707 91.4376C147.935 92.0544 148.306 92.6079 148.791 93.0516Z" fill="#FFB6B6"/>
<path d="M144.397 68.6512C144.397 68.6512 138.136 60.8529 135.733 61.4537C132.778 62.1922 133.517 65.1462 130.461 73.0469C129.696 75.0256 128.892 76.9433 130.436 78.3978L134.695 82.4083L143.774 90.0623L147.426 86.2393L140.17 76.8835L144.397 68.6512Z" fill="#252525"/>
</g>
<defs>
<clipPath id="clip0_1_1243">
<rect width="215" height="185" fill="white" transform="translate(10 40)"/>
</clipPath>
</defs>
</svg>
