<svg width="235" height="265" viewBox="0 0 235 265" fill="none" xmlns="http://www.w3.org/2000/svg">
<g clip-path="url(#clip0_1_1208)">
<path d="M117.764 52.7312C117.754 53.2831 117.635 53.8277 117.414 54.3338C117.194 54.84 116.875 55.2977 116.477 55.681C116.08 56.0642 115.61 56.3654 115.095 56.5674C114.581 56.7694 114.032 56.8682 113.479 56.8582H93.6019C93.5299 56.8563 93.4579 56.8545 93.3858 56.849C93.1996 56.837 93.0144 56.8117 92.8318 56.7733V49.7475C92.8317 49.4664 92.9176 49.192 93.078 48.9609C93.2384 48.7299 93.4656 48.5533 93.7293 48.4548H113.63C114.746 48.4759 115.808 48.938 116.582 49.7397C117.357 50.5413 117.782 51.6172 117.764 52.7312Z" fill="#E6E6E6"/>
<path d="M222.705 48H94.5143C94.2381 47.9992 93.9642 48.05 93.7066 48.1497C93.2698 48.3129 92.8933 48.6054 92.6276 48.9881C92.3618 49.3708 92.2195 49.8255 92.2197 50.2912V189.9C92.2199 190.508 92.4618 191.091 92.892 191.52C93.3223 191.95 93.9058 192.191 94.5143 192.192H222.705C223.314 192.191 223.897 191.95 224.328 191.52C224.758 191.091 225 190.508 225 189.9V50.2912C225 49.6836 224.758 49.101 224.328 48.6713C223.897 48.2417 223.314 48.0002 222.705 48ZM224.082 189.9C224.082 190.265 223.936 190.614 223.678 190.872C223.42 191.13 223.07 191.275 222.705 191.275H94.5143C94.1493 191.275 93.7995 191.13 93.5414 190.872C93.2833 190.614 93.1381 190.265 93.1376 189.9V50.2912C93.1381 49.9268 93.2833 49.5774 93.5414 49.3197C93.7995 49.062 94.1493 48.917 94.5143 48.9165H222.705C223.07 48.917 223.42 49.062 223.678 49.3197C223.936 49.5774 224.082 49.9268 224.082 50.2912V189.9Z" fill="white"/>
<path d="M224.082 189.9C224.082 190.265 223.936 190.614 223.678 190.872C223.42 191.13 223.07 191.275 222.705 191.275H94.5143C94.1493 191.275 93.7995 191.13 93.5414 190.872C93.2833 190.614 93.1381 190.265 93.1376 189.9V50.2912C93.1381 49.9268 93.2833 49.5774 93.5414 49.3197C93.7995 49.062 94.1493 48.917 94.5143 48.9165H222.705C223.07 48.917 223.42 49.062 223.678 49.3197C223.936 49.5774 224.082 49.9268 224.082 50.2912V189.9Z" fill="white"/>
<path d="M222.705 48H94.5143C94.2381 47.9992 93.9642 48.05 93.7066 48.1497C93.2698 48.3129 92.8933 48.6054 92.6276 48.9881C92.3618 49.3708 92.2195 49.8255 92.2197 50.2912V189.9C92.2199 190.508 92.4618 191.091 92.892 191.52C93.3223 191.95 93.9058 192.191 94.5143 192.192H222.705C223.314 192.191 223.897 191.95 224.328 191.52C224.758 191.091 225 190.508 225 189.9V50.2912C225 49.6836 224.758 49.101 224.328 48.6713C223.897 48.2417 223.314 48.0002 222.705 48ZM224.082 189.9C224.082 190.265 223.936 190.614 223.678 190.872C223.42 191.13 223.07 191.275 222.705 191.275H94.5143C94.1493 191.275 93.7995 191.13 93.5414 190.872C93.2833 190.614 93.1381 190.265 93.1376 189.9V50.2912C93.1381 49.9268 93.2833 49.5774 93.5414 49.3197C93.7995 49.062 94.1493 48.917 94.5143 48.9165H222.705C223.07 48.917 223.42 49.062 223.678 49.3197C223.936 49.5774 224.082 49.9268 224.082 50.2912V189.9Z" fill="#E6E6E6"/>
<path d="M154.669 95.9687C156.332 95.9687 157.68 94.6225 157.68 92.9618C157.68 91.3011 156.332 89.9548 154.669 89.9548C153.005 89.9548 151.657 91.3011 151.657 92.9618C151.657 94.6225 153.005 95.9687 154.669 95.9687Z" fill="#252525"/>
<path d="M167.216 95.9687C168.879 95.9687 170.228 94.6225 170.228 92.9618C170.228 91.3011 168.879 89.9548 167.216 89.9548C165.553 89.9548 164.205 91.3011 164.205 92.9618C164.205 94.6225 165.553 95.9687 167.216 95.9687Z" fill="#252525"/>
<path d="M129.573 120.817C131.237 120.817 132.585 119.471 132.585 117.81C132.585 116.149 131.237 114.803 129.573 114.803C127.91 114.803 126.562 116.149 126.562 117.81C126.562 119.471 127.91 120.817 129.573 120.817Z" fill="#252525"/>
<path d="M142.121 120.817C143.784 120.817 145.132 119.471 145.132 117.81C145.132 116.149 143.784 114.803 142.121 114.803C140.458 114.803 139.11 116.149 139.11 117.81C139.11 119.471 140.458 120.817 142.121 120.817Z" fill="#252525"/>
<path d="M154.669 133.241C156.332 133.241 157.68 131.895 157.68 130.234C157.68 128.574 156.332 127.228 154.669 127.228C153.005 127.228 151.657 128.574 151.657 130.234C151.657 131.895 153.005 133.241 154.669 133.241Z" fill="#252525"/>
<path d="M167.216 133.241C168.879 133.241 170.228 131.895 170.228 130.234C170.228 128.574 168.879 127.228 167.216 127.228C165.553 127.228 164.205 128.574 164.205 130.234C164.205 131.895 165.553 133.241 167.216 133.241Z" fill="#252525"/>
<path d="M179.764 133.241C181.427 133.241 182.775 131.895 182.775 130.234C182.775 128.574 181.427 127.228 179.764 127.228C178.101 127.228 176.752 128.574 176.752 130.234C176.752 131.895 178.101 133.241 179.764 133.241Z" fill="#252525"/>
<path d="M104.305 50.2214C104.238 50.2884 104.2 50.3793 104.2 50.4741C104.2 50.5689 104.238 50.6598 104.305 50.7269L105.842 52.2613H102.052C101.957 52.2616 101.867 52.2994 101.8 52.3664C101.733 52.4334 101.695 52.5241 101.695 52.6188C101.695 52.7134 101.733 52.8041 101.8 52.8711C101.867 52.9381 101.957 52.9759 102.052 52.9762H105.842L104.305 54.5107C104.238 54.5777 104.2 54.6686 104.2 54.7634C104.2 54.8582 104.238 54.9491 104.305 55.0161C104.372 55.0832 104.463 55.1208 104.558 55.1208C104.653 55.1208 104.744 55.0832 104.811 55.0162L106.959 52.8715C107.026 52.8045 107.064 52.7136 107.064 52.6188C107.064 52.524 107.026 52.4331 106.959 52.366L104.811 50.2214C104.744 50.1544 104.653 50.1167 104.558 50.1167C104.463 50.1167 104.372 50.1544 104.305 50.2214Z" fill="white"/>
<path d="M195.062 99.3766H114.203C113.89 99.3766 113.636 99.2398 113.636 99.0711C113.636 98.9024 113.89 98.7656 114.203 98.7656H195.062C195.375 98.7656 195.629 98.9024 195.629 99.0711C195.629 99.2398 195.375 99.3766 195.062 99.3766Z" fill="#E6E6E6"/>
<path d="M195.062 85.8808H114.203C113.89 85.8808 113.636 85.744 113.636 85.5753C113.636 85.4066 113.89 85.2698 114.203 85.2698H195.062C195.375 85.2698 195.629 85.4066 195.629 85.5753C195.629 85.744 195.375 85.8808 195.062 85.8808Z" fill="#E6E6E6"/>
<path d="M195.323 111.982H114.014C113.933 111.982 113.855 111.95 113.798 111.893C113.741 111.836 113.708 111.758 113.708 111.677C113.708 111.596 113.741 111.518 113.798 111.461C113.855 111.404 113.933 111.371 114.014 111.371H195.323C195.404 111.371 195.482 111.404 195.539 111.461C195.597 111.518 195.629 111.596 195.629 111.677C195.629 111.758 195.597 111.836 195.539 111.893C195.482 111.95 195.404 111.982 195.323 111.982Z" fill="#E6E6E6"/>
<path d="M195.323 124.202H114.014C113.933 124.202 113.855 124.169 113.798 124.112C113.741 124.055 113.708 123.977 113.708 123.896C113.708 123.815 113.741 123.737 113.798 123.68C113.855 123.623 113.933 123.591 114.014 123.591H195.323C195.404 123.591 195.482 123.623 195.539 123.68C195.597 123.737 195.629 123.815 195.629 123.896C195.629 123.977 195.597 124.055 195.539 124.112C195.482 124.169 195.404 124.202 195.323 124.202Z" fill="#E6E6E6"/>
<path d="M195.323 136.727H114.014C113.933 136.727 113.855 136.695 113.798 136.637C113.741 136.58 113.708 136.502 113.708 136.421C113.708 136.34 113.741 136.263 113.798 136.205C113.855 136.148 113.933 136.116 114.014 136.116H195.323C195.404 136.116 195.482 136.148 195.539 136.205C195.597 136.263 195.629 136.34 195.629 136.421C195.629 136.502 195.597 136.58 195.539 136.637C195.482 136.695 195.404 136.727 195.323 136.727Z" fill="#E6E6E6"/>
<path d="M185.839 136.098V85.7651C185.839 85.6605 185.976 85.5757 186.145 85.5757C186.314 85.5757 186.451 85.6605 186.451 85.7651V136.098C186.451 136.202 186.314 136.287 186.145 136.287C185.976 136.287 185.839 136.202 185.839 136.098Z" fill="#E6E6E6"/>
<path d="M173.295 136.098V85.7651C173.295 85.6605 173.432 85.5757 173.601 85.5757C173.77 85.5757 173.907 85.6605 173.907 85.7651V136.098C173.907 136.202 173.77 136.287 173.601 136.287C173.432 136.287 173.295 136.202 173.295 136.098Z" fill="#E6E6E6"/>
<path d="M160.751 136.098V85.7651C160.751 85.6605 160.888 85.5757 161.057 85.5757C161.226 85.5757 161.363 85.6605 161.363 85.7651V136.098C161.363 136.202 161.226 136.287 161.057 136.287C160.888 136.287 160.751 136.202 160.751 136.098Z" fill="#E6E6E6"/>
<path d="M148.514 136.098V85.7651C148.514 85.6605 148.651 85.5757 148.82 85.5757C148.989 85.5757 149.126 85.6605 149.126 85.7651V136.098C149.126 136.202 148.989 136.287 148.82 136.287C148.651 136.287 148.514 136.202 148.514 136.098Z" fill="#E6E6E6"/>
<path d="M135.664 148.88V85.813C135.681 85.7451 135.721 85.685 135.776 85.642C135.832 85.599 135.9 85.5757 135.97 85.5757C136.04 85.5757 136.108 85.599 136.164 85.642C136.219 85.685 136.259 85.7451 136.276 85.813V148.88C136.259 148.948 136.219 149.009 136.164 149.051C136.108 149.094 136.04 149.118 135.97 149.118C135.9 149.118 135.832 149.094 135.776 149.051C135.721 149.009 135.681 148.948 135.664 148.88Z" fill="#E6E6E6"/>
<path d="M122.814 148.88V85.813C122.832 85.7451 122.871 85.685 122.927 85.642C122.982 85.599 123.05 85.5757 123.12 85.5757C123.191 85.5757 123.259 85.599 123.314 85.642C123.369 85.685 123.409 85.7451 123.426 85.813V148.88C123.409 148.948 123.369 149.009 123.314 149.051C123.259 149.094 123.191 149.118 123.12 149.118C123.05 149.118 122.982 149.094 122.927 149.051C122.871 149.009 122.832 148.948 122.814 148.88Z" fill="#E6E6E6"/>
<path d="M114.014 149.252C113.933 149.252 113.855 149.22 113.798 149.163C113.74 149.106 113.708 149.028 113.708 148.947C113.708 148.866 113.74 148.788 113.797 148.731C113.854 148.673 113.932 148.641 114.013 148.641L145.147 148.506C145.227 148.508 145.304 148.54 145.361 148.597C145.419 148.654 145.452 148.73 145.454 148.81C145.454 148.851 145.447 148.89 145.431 148.927C145.416 148.965 145.394 148.998 145.365 149.027C145.337 149.055 145.304 149.078 145.266 149.093C145.229 149.109 145.19 149.117 145.15 149.117L114.016 149.252H114.014Z" fill="#E6E6E6"/>
<path d="M136.777 72.4938C136.696 72.4939 136.618 72.4617 136.56 72.4045C136.503 72.3472 136.471 72.2696 136.471 72.1885C136.471 72.1075 136.503 72.0298 136.56 71.9724C136.618 71.9151 136.695 71.8829 136.776 71.8828L180.443 71.8284H180.443C180.524 71.8283 180.602 71.8604 180.659 71.9177C180.717 71.9749 180.749 72.0526 180.749 72.1336C180.749 72.2147 180.717 72.2924 180.66 72.3497C180.602 72.407 180.525 72.4393 180.444 72.4394L136.777 72.4938H136.777Z" fill="#E6E6E6"/>
<path d="M151.562 172.091C150.35 172.091 149.165 171.732 148.157 171.06C147.149 170.387 146.363 169.431 145.899 168.313C145.435 167.195 145.314 165.964 145.55 164.777C145.787 163.589 146.371 162.499 147.228 161.643C148.085 160.787 149.177 160.204 150.367 159.968C151.556 159.732 152.788 159.853 153.908 160.316C155.028 160.779 155.986 161.564 156.659 162.57C157.333 163.577 157.692 164.76 157.692 165.971C157.692 166.775 157.534 167.57 157.225 168.313C156.917 169.056 156.466 169.73 155.897 170.299C155.328 170.867 154.652 171.318 153.908 171.625C153.164 171.933 152.367 172.091 151.562 172.091Z" fill="#E6E6E6"/>
<path d="M153.981 165.367H152.167V163.556C152.167 163.396 152.103 163.242 151.99 163.129C151.877 163.016 151.723 162.952 151.562 162.952C151.402 162.952 151.248 163.016 151.135 163.129C151.021 163.242 150.958 163.396 150.958 163.556V165.367H149.144C148.983 165.367 148.83 165.431 148.716 165.544C148.603 165.657 148.539 165.811 148.539 165.971C148.539 166.131 148.603 166.284 148.716 166.398C148.83 166.511 148.983 166.574 149.144 166.574H150.958V168.386C150.958 168.465 150.973 168.544 151.003 168.617C151.034 168.691 151.078 168.757 151.134 168.814C151.19 168.87 151.257 168.914 151.331 168.945C151.404 168.975 151.483 168.991 151.562 168.991C151.642 168.991 151.721 168.975 151.794 168.945C151.868 168.914 151.934 168.87 151.99 168.814C152.047 168.757 152.091 168.691 152.121 168.617C152.152 168.544 152.167 168.465 152.167 168.386V166.574H153.981C154.141 166.574 154.295 166.511 154.409 166.398C154.522 166.284 154.586 166.131 154.586 165.971C154.586 165.811 154.522 165.657 154.409 165.544C154.295 165.431 154.141 165.367 153.981 165.367Z" fill="white"/>
<path d="M165.636 172.091C164.423 172.091 163.238 171.732 162.23 171.06C161.222 170.387 160.437 169.431 159.973 168.313C159.509 167.195 159.387 165.964 159.624 164.777C159.86 163.589 160.444 162.499 161.301 161.643C162.159 160.787 163.251 160.204 164.44 159.968C165.629 159.732 166.862 159.853 167.982 160.316C169.102 160.779 170.059 161.564 170.733 162.57C171.406 163.577 171.766 164.76 171.766 165.971C171.766 166.775 171.607 167.57 171.299 168.313C170.991 169.056 170.539 169.73 169.97 170.299C169.401 170.867 168.725 171.318 167.982 171.625C167.238 171.933 166.441 172.091 165.636 172.091Z" fill="#E6E6E6"/>
<path d="M168.738 168.575L167.141 166.709C167.515 166.18 167.678 165.532 167.596 164.89C167.515 164.248 167.197 163.66 166.703 163.241C166.209 162.822 165.577 162.603 164.929 162.627C164.282 162.65 163.667 162.915 163.205 163.368C162.743 163.822 162.468 164.432 162.434 165.078C162.4 165.724 162.609 166.359 163.021 166.859C163.432 167.358 164.016 167.686 164.657 167.777C165.298 167.869 165.95 167.718 166.486 167.353L168.04 169.17C168.119 169.262 168.232 169.319 168.353 169.328C168.474 169.337 168.594 169.298 168.686 169.219C168.778 169.141 168.835 169.029 168.845 168.908C168.855 168.787 168.817 168.668 168.738 168.575ZM163.341 165.207C163.341 164.875 163.44 164.55 163.625 164.273C163.81 163.997 164.072 163.782 164.38 163.655C164.687 163.527 165.026 163.494 165.352 163.559C165.679 163.624 165.978 163.784 166.214 164.019C166.449 164.254 166.609 164.553 166.674 164.879C166.739 165.205 166.706 165.543 166.578 165.85C166.451 166.157 166.235 166.419 165.959 166.604C165.682 166.789 165.357 166.887 165.024 166.887C164.578 166.887 164.15 166.709 163.835 166.394C163.519 166.079 163.342 165.652 163.341 165.207Z" fill="white"/>
<path d="M80.8969 212.663L84.7998 212.663L86.6566 197.632L80.8962 197.632L80.8969 212.663Z" fill="#FFB6B6"/>
<path d="M79.9028 211.39V216.44H92.4864V216.281C92.4861 214.984 91.97 213.74 91.0515 212.823C90.1329 211.906 88.8872 211.391 87.5882 211.39L85.2875 209.649L85.1681 209.698L81.0012 211.39H79.9028Z" fill="#2F2E41"/>
<path d="M45.6328 207.596L49.1258 209.334L57.5029 196.709L52.3474 194.143L45.6328 207.596Z" fill="#FFB6B6"/>
<path d="M43.0549 210.535L54.3168 216.138L54.3871 215.997C54.6745 215.423 54.8456 214.797 54.8907 214.156C54.9357 213.516 54.854 212.872 54.65 212.263C54.4459 211.654 54.1237 211.091 53.7017 210.607C53.2797 210.122 52.7661 209.725 52.1904 209.438L50.9085 206.857L50.7739 206.848L46.2949 206.503L46.2031 206.457L45.3097 206.014L43.0549 210.535Z" fill="#2F2E41"/>
<path d="M83.544 131.871L62.0235 132.623L61.8735 132.406C61.8735 132.406 60.0379 136.683 60.0379 140.349C60.0379 141.567 60.8868 149.539 60.4552 151.048C60.4016 151.235 60.7709 151.695 60.6498 152.568C60.5712 153.135 60.1375 152.699 60.0379 153.485C59.9663 154.049 60.7296 154.36 60.6498 155.012C60.5625 155.725 59.5126 158.033 59.4181 158.826C58.4119 167.265 57.0723 179.492 57.0723 179.492C57.0723 179.492 51.6918 193.881 50.5536 194.115C48.6431 194.507 47.3532 197.976 48.412 198.697C48.9161 199.041 55.4317 201.352 55.4317 201.352C55.7897 201.416 56.9097 200.855 56.1962 199.529C56.0649 199.285 56.8482 199.906 56.9784 199.614C57.1169 199.303 56.8451 198.066 57.0036 197.721C58.4276 194.622 60.6138 190.328 62.6856 188.123C65.7468 184.865 67.6854 180.716 68.2186 176.281L72.9706 149.97L74.5993 157.348L75.947 158.678L75.5773 161.779L75.6411 164.788L79.0065 177.313C79.0065 177.313 79.5112 200.704 78.7005 201.447C78.2615 201.849 76.3984 206.804 79.9243 207.251L86.3302 206.758C86.3302 206.758 87.1934 204.941 86.7618 204.295C86.3303 203.649 86.3561 203.825 86.8827 202.767C87.4092 201.71 87.1934 199.917 87.1934 199.917C88.0325 191.493 88.3636 183.027 88.1848 174.564C87.8637 160.663 85.9176 144.694 85.9176 144.368C85.9014 144.036 85.9627 143.704 86.0969 143.399V142.521L85.2703 139.413L83.544 131.871Z" fill="#2F2E41"/>
<path d="M55.6825 139.687C55.5021 139.379 55.3914 139.035 55.3584 138.68C55.3253 138.325 55.3707 137.967 55.4913 137.631C55.6118 137.295 55.8047 136.99 56.0562 136.736C56.3077 136.483 56.6118 136.288 56.9471 136.165L56.7925 120.725L60.6065 123.134L60.1681 137.768C60.3382 138.344 60.2908 138.962 60.0348 139.506C59.7788 140.049 59.332 140.48 58.7791 140.717C58.2262 140.953 57.6056 140.979 57.0349 140.789C56.4642 140.6 55.983 140.207 55.6825 139.687Z" fill="#FFB8B8"/>
<path d="M56.5533 133.215L56.8779 133.199L56.9166 133.2L58.1177 133.196L60.0961 133.192L60.2394 133.19L60.3039 133.202L60.9792 133.319L61.0072 133.138L62.3237 130.627L63.3358 129.237L62.9676 127.599L62.2413 126.696L63.4749 125.203L63.6307 124.466L64.6632 119.618L68.0856 103.537L68.0858 103.528L68.1577 103.186L69.2707 97.9624L68.9278 96.6488L68.5457 95.2066C68.3013 94.291 67.7348 93.494 66.9499 92.9614C66.6092 92.7312 66.2343 92.5564 65.8389 92.4433C65.3349 92.2942 64.8056 92.2507 64.2841 92.3155L64.2782 92.3173C63.9823 92.354 63.6914 92.4242 63.4113 92.5265L63.2999 92.5699C63.1448 92.6327 62.9939 92.7053 62.848 92.7871C62.3959 93.0381 61.9984 93.3764 61.6785 93.7823C61.3586 94.1882 61.1228 94.6535 60.9847 95.1513L57.3585 99.1846L56.7206 101.467L56.5155 102.2L55.8582 106.107L55.868 121.483L55.7509 122.18L55.5845 126.04L56.2348 126.925L55.5001 127.998L55.4749 128.587L55.47 128.738L56.4513 129.733L56.5139 131.879L56.5533 133.215Z" fill="#3F3D56"/>
<path d="M60.0955 136.898C65.5293 137.836 69.1731 137.479 71.4154 134.148C74.3409 130.429 79.661 134.821 84.1497 136.454L84.6821 135.88L85.5877 134.905L84.7555 133.964L85.5877 132.15L84.8932 129.91L84.0059 129.748L84.2446 127.821L84.6178 126.693L83.5225 125.493L82.5925 122.496L83.2625 116.224C84.1794 107.628 82.4028 98.9584 78.1777 91.4123L75.6353 89.1333L74.5798 88.1863L73.1632 85.5469L71.6672 85.721L67.6165 86.1884L67.4788 86.5183L66.4845 88.9134L62.8723 92.7877C62.3614 93.3357 61.9732 93.986 61.7336 94.6954C61.4939 95.4048 61.4082 96.157 61.4823 96.902L61.5863 97.9468L61.6628 98.6983L62.0238 102.315L63.4954 117.092L63.6055 117.877L64.7895 126.373C62.8651 128.23 62.748 127.825 61.9311 131.094C61.8393 131.457 60.7746 132.267 60.7073 132.621C60.6125 133.122 60.0955 136.898 60.0955 136.898Z" fill="#3F3D56"/>
<path d="M71.1284 83.9897C75.014 83.9897 78.1639 80.8445 78.1639 76.9646C78.1639 73.0847 75.014 69.9395 71.1284 69.9395C67.2427 69.9395 64.0928 73.0847 64.0928 76.9646C64.0928 80.8445 67.2427 83.9897 71.1284 83.9897Z" fill="#FFB6B6"/>
<path d="M63.7674 71.6762C64.7118 70.6944 66.2204 70.2102 67.5013 70.6761C67.7878 69.8576 68.2936 69.1333 68.9638 68.582C69.634 68.0307 70.4428 67.6736 71.3021 67.5495C72.1615 67.4254 73.0385 67.5391 73.8376 67.8783C74.6367 68.2174 75.3274 68.769 75.8343 69.4729C76.0661 69.3689 76.3208 69.3265 76.5739 69.3497C76.8269 69.373 77.0696 69.461 77.2786 69.6054C77.6934 69.8999 78.0276 70.2937 78.2506 70.7506C78.8258 71.8418 79.0939 73.0682 79.0264 74.2995C78.9589 75.5307 78.5583 76.7206 77.8672 77.7426C78.1426 77.1875 77.3684 78.1435 76.6139 77.893C75.9658 77.7234 73.3037 76.0189 72.6392 76.1051C71.9749 76.1913 71.7594 75.6563 71.1095 75.4941C70.473 75.2908 68.8481 77.9183 68.5224 79.6569C68.4607 79.9863 68.3109 80.3957 67.9753 80.4032C67.562 80.4124 67.4382 79.8214 67.0896 79.5994C66.9253 79.516 66.7349 79.4995 66.5587 79.5534C66.3824 79.6074 66.234 79.7275 66.1447 79.8886C66.0633 80.0541 66.0225 80.2366 66.026 80.421C66.0294 80.6054 66.077 80.7864 66.1646 80.9487C66.3427 81.2715 66.5719 81.5633 66.8432 81.8131L66.6627 81.9122C66.4849 82.0393 66.2683 82.1008 66.0501 82.086C65.8319 82.0712 65.6257 81.9811 65.4667 81.8311C64.7948 82.1338 62.9672 80.4267 63.2098 79.3938C62.6995 78.1278 62.4205 76.7808 62.3859 75.4165C62.3577 74.0405 62.8512 72.7045 63.7674 71.6762Z" fill="#2F2E41"/>
<path d="M115.378 113.551C115.037 113.659 114.677 113.69 114.323 113.643C113.968 113.596 113.629 113.473 113.328 113.281C113.027 113.089 112.771 112.833 112.58 112.532C112.388 112.231 112.265 111.891 112.219 111.537L97.1091 108.256L100.309 105.078L114.501 108.758C115.101 108.72 115.694 108.904 116.168 109.274C116.642 109.644 116.963 110.175 117.072 110.766C117.18 111.357 117.067 111.967 116.755 112.48C116.443 112.993 115.953 113.375 115.378 113.551Z" fill="#FFB8B8"/>
<path d="M74.5426 91.7699C73.6668 91.8018 72.8266 92.1242 72.1548 92.6862C71.7831 92.9939 71.4731 93.3691 71.2412 93.7921C70.9861 94.2508 70.8269 94.7566 70.7734 95.2786L70.7735 95.2816C70.6952 96.0504 70.8467 96.8252 71.2089 97.5081C71.571 98.1911 72.1276 98.7516 72.8085 99.119L77.7862 101.813L78.4167 102.153C82.6579 106.469 89.8094 108.726 98.0365 110.222L102.766 111.514L104.356 110.925L104.741 112.435L106.325 112.486L107.186 112.308L108.987 111.602L109.331 110.911L109.331 110.908L110.07 107.633L110.075 107.612L110.075 107.609L110.247 106.86L109.232 106.39L108.348 105.211L106.75 105.243L105.293 105.37L104.866 104.373L86.3994 95.8405L82.5758 94.0721L82.5663 94.0665L82.3842 93.9811L77.3961 91.6768L76.0381 91.7197L74.5426 91.7699Z" fill="#3F3D56"/>
<path d="M114.896 117.353C116.559 117.353 117.907 116.007 117.907 114.346C117.907 112.685 116.559 111.339 114.896 111.339C113.233 111.339 111.884 112.685 111.884 114.346C111.884 116.007 113.233 117.353 114.896 117.353Z" fill="#E56553"/>
<path d="M28.5688 214.893C26.3594 215.087 24.1344 214.787 22.0564 214.013C19.9783 213.238 18.0996 212.011 16.5576 210.419C14.5413 208.296 13.1576 205.564 11.8194 202.922C11.4299 202.153 11.0272 201.358 10.6176 200.596C10.1609 199.765 9.96379 198.816 10.0517 197.873C10.1396 196.929 10.5084 196.033 11.1107 195.301C11.6879 194.569 12.4714 194.026 13.3604 193.742C14.2494 193.458 15.203 193.447 16.0985 193.71L16.2938 193.766L18.0512 200.613C18.3133 199.592 18.8761 197.291 19.2315 195.036L19.2613 194.847L19.4363 194.925C21.2713 195.736 22.9968 196.774 24.572 198.015C27.3625 200.25 29.632 203.065 31.223 206.264C32.8139 209.464 33.6881 212.971 33.7846 216.541L33.7893 216.754L28.5688 214.893Z" fill="#F2F2F2"/>
<path d="M95.6465 216.906L10.3643 217C10.2677 217 10.175 216.961 10.1067 216.893C10.0384 216.825 10 216.732 10 216.636C10 216.539 10.0384 216.447 10.1067 216.379C10.175 216.31 10.2677 216.272 10.3643 216.272L95.6465 216.178C95.7429 216.179 95.8353 216.217 95.9034 216.285C95.9715 216.353 96.0097 216.446 96.0097 216.542C96.0097 216.638 95.9715 216.731 95.9034 216.799C95.8353 216.867 95.7429 216.905 95.6465 216.906Z" fill="#CACACA"/>
<path d="M166.717 68.413H150.502C150.137 68.413 149.787 68.2682 149.529 68.0103C149.271 67.7525 149.125 67.4029 149.125 67.0383C149.125 66.6737 149.271 66.324 149.529 66.0662C149.787 65.8084 150.137 65.6636 150.502 65.6636H166.717C167.082 65.6636 167.433 65.8084 167.691 66.0662C167.949 66.324 168.094 66.6737 168.094 67.0383C168.094 67.4029 167.949 67.7525 167.691 68.0103C167.433 68.2682 167.082 68.413 166.717 68.413Z" fill="#E6E6E6"/>
<path d="M217.79 56.7392C217.123 56.7392 216.472 56.5418 215.917 56.1719C215.363 55.8021 214.931 55.2764 214.676 54.6614C214.421 54.0464 214.354 53.3696 214.484 52.7167C214.614 52.0638 214.935 51.4641 215.406 50.9934C215.878 50.5227 216.479 50.2021 217.132 50.0722C217.786 49.9424 218.464 50.009 219.08 50.2638C219.696 50.5185 220.222 50.9499 220.593 51.5034C220.963 52.0569 221.161 52.7077 221.161 53.3734C221.161 54.266 220.806 55.1221 220.174 55.7534C219.541 56.3846 218.684 56.7392 217.79 56.7392Z" fill="#E6E6E6"/>
</g>
<defs>
<clipPath id="clip0_1_1208">
<rect width="215" height="169" fill="white" transform="translate(10 48)"/>
</clipPath>
</defs>
</svg>
