<svg width="115" height="34" viewBox="0 0 115 34" fill="none" xmlns="http://www.w3.org/2000/svg">
<path fill-rule="evenodd" clip-rule="evenodd" d="M52.4927 17.2599C52.4927 18.4692 52.2325 19.5539 51.719 20.4836C51.2103 21.405 50.4948 22.1345 49.5917 22.6504C48.6838 23.1695 47.611 23.4326 46.4033 23.4326C45.1941 23.4326 44.1157 23.1688 43.1963 22.6485C42.2846 22.1332 41.5646 21.405 41.0559 20.4836C40.5429 19.5539 40.2823 18.4692 40.2823 17.2599C40.2823 16.072 40.5429 14.9981 41.0554 14.0684C41.5646 13.1474 42.2846 12.4188 43.197 11.9027C44.1164 11.3824 45.1954 11.1186 46.4033 11.1186C47.6103 11.1186 48.683 11.3819 49.5917 11.9009C50.4941 12.418 51.2103 13.1474 51.719 14.0684C52.2325 14.9981 52.4927 16.072 52.4927 17.2599ZM51.247 9.28252C49.8827 8.49442 48.3171 8.09521 46.5925 8.09521C44.9822 8.09521 43.508 8.44284 42.2114 9.12878C41.4333 9.54072 40.7449 10.0565 40.1523 10.6695L40.0261 8.50463H37.2534V30.7619H40.3454V24.0551C40.9221 24.6068 41.5784 25.0755 42.3098 25.4558C43.5837 26.1198 45.0251 26.4562 46.5925 26.4562C48.3171 26.4562 49.8827 26.0568 51.247 25.2688C52.6157 24.4789 53.6939 23.3691 54.4518 21.9689C55.2035 20.58 55.5846 18.9959 55.5846 17.2599C55.5846 15.5233 55.2035 13.9443 54.4506 12.5653C53.6934 11.1778 52.6157 10.073 51.247 9.28252V9.28252Z" fill="#FBF9F5"/>
<path fill-rule="evenodd" clip-rule="evenodd" d="M71.9025 20.4833C71.7985 20.6717 71.6799 20.8462 71.5588 21.0188C71.0855 21.6876 70.4874 22.2376 69.7617 22.6489C68.8422 23.1692 67.7631 23.4331 66.5554 23.4331C65.3482 23.4331 64.2754 23.1698 63.3668 22.6502C62.4638 22.1336 61.7482 21.4043 61.2397 20.4833C60.7284 19.5573 60.4692 18.4784 60.4665 17.2754C60.4691 16.073 60.7284 14.9933 61.2397 14.0681C61.7482 13.1472 62.4638 12.4177 63.3668 11.9012C64.2754 11.3817 65.3482 11.1183 66.5554 11.1183C67.7631 11.1183 68.8422 11.3822 69.7617 11.9025C70.4874 12.3131 71.0855 12.8638 71.5588 13.5326C71.6799 13.7046 71.7985 13.8797 71.9025 14.0681C72.4138 14.9933 72.6725 16.073 72.6749 17.2754C72.6724 18.4784 72.4138 19.5573 71.9025 20.4833V20.4833ZM72.9325 8.50438L72.824 10.3606L72.62 10.4923C72.0698 9.95864 71.447 9.49958 70.7472 9.12858C69.7672 8.61026 68.6857 8.28707 67.5207 8.1592C67.1435 8.11694 66.7591 8.09546 66.3662 8.09546C64.6414 8.09546 63.0759 8.49416 61.7117 9.28227C60.343 10.0727 59.2653 11.1776 58.5079 12.5651C57.7552 13.9445 57.374 15.5231 57.374 17.2596C57.374 17.2653 57.3746 17.2703 57.3746 17.2754C57.3746 17.281 57.374 17.2861 57.374 17.2911C57.374 19.0276 57.7552 20.6069 58.5079 21.9862C59.2653 23.3739 60.343 24.4787 61.7117 25.2692C63.0759 26.0571 64.6414 26.4559 66.3662 26.4559C66.7591 26.4559 67.1435 26.4345 67.5207 26.3922C68.6857 26.2651 69.7672 25.9407 70.7472 25.4228C71.447 25.0518 72.0698 24.5926 72.62 24.0591L72.824 24.1909L72.9325 26.0471H75.7045V8.50438H72.9325V8.50438Z" fill="#FBF9F5"/>
<path fill-rule="evenodd" clip-rule="evenodd" d="M110.658 20.4833C110.554 20.6717 110.435 20.8462 110.314 21.0188C109.841 21.6876 109.243 22.2376 108.517 22.6489C107.597 23.1692 106.519 23.4331 105.31 23.4331C104.104 23.4331 103.031 23.1698 102.122 22.6502C101.219 22.1336 100.503 21.4043 99.995 20.4833C99.4833 19.5573 99.2246 18.4784 99.2221 17.2754C99.2246 16.073 99.4833 14.9933 99.995 14.0681C100.503 13.1472 101.219 12.4177 102.122 11.9012C103.031 11.3817 104.104 11.1183 105.31 11.1183C106.519 11.1183 107.597 11.3822 108.517 11.9025C109.243 12.3131 109.841 12.8638 110.314 13.5326C110.435 13.7046 110.554 13.8797 110.658 14.0681C111.169 14.9933 111.428 16.073 111.431 17.2754C111.428 18.4784 111.169 19.5573 110.658 20.4833V20.4833ZM111.688 8.50438L111.579 10.3606L111.376 10.4923C110.825 9.95864 110.203 9.49958 109.503 9.12858C108.523 8.61026 107.441 8.28707 106.276 8.1592C105.899 8.11694 105.515 8.09546 105.122 8.09546C103.397 8.09546 101.831 8.49416 100.467 9.28227C99.0985 10.0727 98.0206 11.1776 97.2628 12.5651C96.5106 13.9445 96.1294 15.5231 96.1294 17.2596C96.1294 17.2653 96.13 17.2703 96.13 17.2754C96.13 17.281 96.1294 17.2861 96.1294 17.2911C96.1294 19.0276 96.5106 20.6069 97.2628 21.9862C98.0206 23.3739 99.0985 24.4787 100.467 25.2692C101.831 26.0571 103.397 26.4559 105.122 26.4559C105.515 26.4559 105.899 26.4345 106.276 26.3922C107.441 26.2651 108.523 25.9407 109.503 25.4228C110.203 25.0518 110.825 24.5926 111.376 24.0591L111.579 24.1909L111.688 26.0471H114.46V8.50438H111.688V8.50438Z" fill="#FBF9F5"/>
<path fill-rule="evenodd" clip-rule="evenodd" d="M86.9065 8.09521C85.4779 8.09521 84.1585 8.42963 82.9842 9.08968C82.3392 9.4518 81.7637 9.90725 81.2627 10.449L81.1649 8.50388H78.3877V26.0466H81.4797V16.9764C81.4797 15.8005 81.7069 14.7574 82.1537 13.8748C82.5916 13.0088 83.2101 12.3248 83.9893 11.8429C84.7674 11.3623 85.6748 11.1186 86.6858 11.1186C88.1264 11.1186 89.2294 11.5828 90.0579 12.5382C90.8978 13.5077 91.3238 14.8633 91.3238 16.567V26.0466H94.4157V16.4095C94.4157 13.9101 93.7412 11.8838 92.4117 10.386C91.0619 8.86619 89.2092 8.09521 86.9065 8.09521Z" fill="#FBF9F5"/>
<path fill-rule="evenodd" clip-rule="evenodd" d="M25.9323 27.0499C25.9323 29.0741 24.3285 30.7156 22.3494 30.7156H6.26584C4.28656 30.7156 2.68269 29.0741 2.68269 27.0499V18.9955C2.68269 17.6899 3.36156 16.4828 4.46505 15.8261L10.7119 12.11C12.9346 10.7877 15.6799 10.7877 17.9026 12.11L24.15 15.8261C25.2535 16.4828 25.9323 17.6899 25.9323 18.9955V27.0499ZM23.2496 5.39685H5.36557C2.40205 5.39685 0 7.85476 0 10.886V27.9704C0 31.0024 2.40205 33.4603 5.36557 33.4603H23.2496C26.2131 33.4603 28.615 31.0024 28.615 27.9704V10.886C28.615 7.85476 26.2131 5.39685 23.2496 5.39685Z" fill="#E56553"/>
</svg>
