<svg width="115" height="34" viewBox="0 0 115 34" fill="none" xmlns="http://www.w3.org/2000/svg">
<path fill-rule="evenodd" clip-rule="evenodd" d="M52.4928 17.2599C52.4928 18.4692 52.2327 19.5539 51.7191 20.4836C51.2104 21.405 50.495 22.1345 49.5918 22.6504C48.6839 23.1695 47.6111 23.4326 46.4034 23.4326C45.1943 23.4326 44.1158 23.1688 43.1964 22.6485C42.2847 22.1332 41.5647 21.405 41.056 20.4836C40.5431 19.5539 40.2824 18.4692 40.2824 17.2599C40.2824 16.072 40.5431 14.9981 41.0555 14.0684C41.5647 13.1474 42.2847 12.4188 43.1971 11.9027C44.1165 11.3824 45.1955 11.1186 46.4034 11.1186C47.6104 11.1186 48.6831 11.3819 49.5918 11.9009C50.4942 12.418 51.2104 13.1474 51.7191 14.0684C52.2327 14.9981 52.4928 16.072 52.4928 17.2599ZM51.2471 9.28252C49.8828 8.49442 48.3172 8.09521 46.5927 8.09521C44.9823 8.09521 43.5082 8.44284 42.2115 9.12878C41.4334 9.54072 40.745 10.0565 40.1524 10.6695L40.0262 8.50463H37.2535V30.7619H40.3456V24.0551C40.9222 24.6068 41.5785 25.0755 42.3099 25.4558C43.5838 26.1198 45.0252 26.4562 46.5927 26.4562C48.3172 26.4562 49.8828 26.0568 51.2471 25.2688C52.6158 24.4789 53.694 23.3691 54.452 21.9689C55.2036 20.58 55.5847 18.9959 55.5847 17.2599C55.5847 15.5233 55.2036 13.9443 54.4507 12.5653C53.6935 11.1778 52.6158 10.073 51.2471 9.28252V9.28252Z" fill="#181818"/>
<path fill-rule="evenodd" clip-rule="evenodd" d="M71.9028 20.4833C71.7987 20.6717 71.6801 20.8462 71.559 21.0188C71.0857 21.6876 70.4876 22.2376 69.7619 22.6489C68.8425 23.1692 67.7633 23.4331 66.5556 23.4331C65.3484 23.4331 64.2757 23.1698 63.367 22.6502C62.4641 22.1336 61.7485 21.4043 61.2399 20.4833C60.7287 19.5573 60.4695 18.4784 60.4668 17.2754C60.4693 16.073 60.7287 14.9933 61.2399 14.0681C61.7485 13.1472 62.4641 12.4177 63.367 11.9012C64.2757 11.3817 65.3484 11.1183 66.5556 11.1183C67.7633 11.1183 68.8425 11.3822 69.7619 11.9025C70.4876 12.3131 71.0857 12.8638 71.559 13.5326C71.6801 13.7046 71.7987 13.8797 71.9028 14.0681C72.414 14.9933 72.6727 16.073 72.6752 17.2754C72.6726 18.4784 72.414 19.5573 71.9028 20.4833V20.4833ZM72.9327 8.50438L72.8242 10.3606L72.6203 10.4923C72.0701 9.95864 71.4473 9.49958 70.7474 9.12858C69.7674 8.61026 68.686 8.28707 67.521 8.1592C67.1437 8.11694 66.7593 8.09546 66.3664 8.09546C64.6417 8.09546 63.0762 8.49416 61.7119 9.28227C60.3432 10.0727 59.2655 11.1776 58.5082 12.5651C57.7555 13.9445 57.3743 15.5231 57.3743 17.2596C57.3743 17.2653 57.3748 17.2703 57.3748 17.2754C57.3748 17.281 57.3743 17.2861 57.3743 17.2911C57.3743 19.0276 57.7555 20.6069 58.5082 21.9862C59.2655 23.3739 60.3432 24.4787 61.7119 25.2692C63.0762 26.0571 64.6417 26.4559 66.3664 26.4559C66.7593 26.4559 67.1437 26.4345 67.521 26.3922C68.686 26.2651 69.7674 25.9407 70.7474 25.4228C71.4473 25.0518 72.0701 24.5926 72.6203 24.0591L72.8242 24.1909L72.9327 26.0471H75.7048V8.50438H72.9327V8.50438Z" fill="#181818"/>
<path fill-rule="evenodd" clip-rule="evenodd" d="M110.658 20.4833C110.554 20.6717 110.435 20.8462 110.314 21.0188C109.841 21.6876 109.243 22.2376 108.517 22.6489C107.597 23.1692 106.519 23.4331 105.31 23.4331C104.104 23.4331 103.031 23.1698 102.122 22.6502C101.219 22.1336 100.503 21.4043 99.995 20.4833C99.4833 19.5573 99.2246 18.4784 99.2221 17.2754C99.2246 16.073 99.4833 14.9933 99.995 14.0681C100.503 13.1472 101.219 12.4177 102.122 11.9012C103.031 11.3817 104.104 11.1183 105.31 11.1183C106.519 11.1183 107.597 11.3822 108.517 11.9025C109.243 12.3131 109.841 12.8638 110.314 13.5326C110.435 13.7046 110.554 13.8797 110.658 14.0681C111.169 14.9933 111.428 16.073 111.431 17.2754C111.428 18.4784 111.169 19.5573 110.658 20.4833V20.4833ZM111.688 8.50438L111.579 10.3606L111.376 10.4923C110.825 9.95864 110.203 9.49958 109.503 9.12858C108.523 8.61026 107.441 8.28707 106.276 8.1592C105.899 8.11694 105.515 8.09546 105.122 8.09546C103.397 8.09546 101.831 8.49416 100.467 9.28227C99.0985 10.0727 98.0206 11.1776 97.2628 12.5651C96.5106 13.9445 96.1294 15.5231 96.1294 17.2596C96.1294 17.2653 96.13 17.2703 96.13 17.2754C96.13 17.281 96.1294 17.2861 96.1294 17.2911C96.1294 19.0276 96.5106 20.6069 97.2628 21.9862C98.0206 23.3739 99.0985 24.4787 100.467 25.2692C101.831 26.0571 103.397 26.4559 105.122 26.4559C105.515 26.4559 105.899 26.4345 106.276 26.3922C107.441 26.2651 108.523 25.9407 109.503 25.4228C110.203 25.0518 110.825 24.5926 111.376 24.0591L111.579 24.1909L111.688 26.0471H114.46V8.50438H111.688V8.50438Z" fill="#181818"/>
<path fill-rule="evenodd" clip-rule="evenodd" d="M86.9067 8.09521C85.4781 8.09521 84.1588 8.42963 82.9844 9.08968C82.3394 9.4518 81.764 9.90725 81.2629 10.449L81.1651 8.50388H78.3879V26.0466H81.4799V16.9764C81.4799 15.8005 81.7071 14.7574 82.1539 13.8748C82.5918 13.0088 83.2103 12.3248 83.9895 11.8429C84.7676 11.3623 85.6751 11.1186 86.686 11.1186C88.1266 11.1186 89.2296 11.5828 90.0581 12.5382C90.8981 13.5077 91.324 14.8633 91.324 16.567V26.0466H94.416V16.4095C94.416 13.9101 93.7415 11.8838 92.4119 10.386C91.0622 8.86619 89.2094 8.09521 86.9067 8.09521Z" fill="#181818"/>
<path fill-rule="evenodd" clip-rule="evenodd" d="M25.9323 27.0499C25.9323 29.0741 24.3285 30.7156 22.3494 30.7156H6.26584C4.28656 30.7156 2.68269 29.0741 2.68269 27.0499V18.9955C2.68269 17.6899 3.36156 16.4828 4.46505 15.8261L10.7119 12.11C12.9346 10.7877 15.6799 10.7877 17.9026 12.11L24.15 15.8261C25.2535 16.4828 25.9323 17.6899 25.9323 18.9955V27.0499ZM23.2496 5.39685H5.36557C2.40205 5.39685 0 7.85476 0 10.886V27.9704C0 31.0024 2.40205 33.4603 5.36557 33.4603H23.2496C26.2131 33.4603 28.615 31.0024 28.615 27.9704V10.886C28.615 7.85476 26.2131 5.39685 23.2496 5.39685Z" fill="#E56553"/>
</svg>
