<svg width="169" height="40" viewBox="0 0 169 40" fill="none" xmlns="http://www.w3.org/2000/svg">
<path fill-rule="evenodd" clip-rule="evenodd" d="M8.57767 29.6856C7.94017 31.164 7.85208 33.118 9.47714 34.0262L9.67313 34.1363L8.35235 37.2032L8.15849 37.0952C6.23199 36.0181 6.20937 33.626 6.70416 32.4759L8.03575 29.3813L2.29342 26.1695C0.596493 25.2204 -0.519037 22.8034 0.245367 21.0307C0.610567 20.1841 0.976663 19.3358 1.34295 18.4887L1.88874 18.7935C1.21308 20.3576 1.63627 21.9051 3.18713 22.8451L9.36068 26.3023L10.6878 23.219L4.94923 20.009C3.25245 19.06 2.13692 16.6429 2.90132 14.8704C3.26624 14.0232 3.63252 13.1753 3.99904 12.3282L4.54483 12.6331C3.86922 14.1971 4.29194 15.7446 5.84309 16.6845L12.0131 20.1396L13.3455 17.0441L7.60136 13.8481C5.90268 12.9025 4.7881 10.4733 5.55245 8.70004L5.81139 8.10006L5.81163 8.09953C6.09022 7.45185 6.37027 6.80556 6.65009 6.15836L7.19947 6.46514C6.52385 8.02906 6.94605 9.57948 8.49559 10.5222L14.6735 13.9605L15.9991 10.8843L10.2567 7.68925C8.55826 6.7437 7.44325 4.31448 8.20765 2.54118L8.46655 1.9411L8.46683 1.94056C8.74542 1.29303 9.02547 0.646751 9.30523 -0.000610352L9.85462 0.306133C9.179 1.87027 9.6012 3.42051 11.1507 4.36364L17.3276 7.80091C17.9541 6.32843 17.9421 4.61337 16.4184 3.48592L17.742 0.403107C19.5405 1.6655 19.6847 3.88673 19.1901 5.03586L17.8705 8.10291L18.5744 8.49473C20.272 9.43942 21.0351 11.6722 20.2712 13.4455C19.798 14.5437 19.3267 15.6399 18.852 16.7387L17.0329 20.9581L16.3411 22.5634L18.6618 23.8628C20.3576 24.8122 21.125 27.0345 20.3615 28.8073L17.2049 36.1308L17.1959 36.1513L17.1737 36.203L17.135 36.2937L17.1294 36.3058L17.1071 36.3571L17.0849 36.4087L17.0646 36.4563L17.0632 36.46L17.0409 36.5115L17.0187 36.5628L16.9968 36.6144L16.9949 36.6187L16.9747 36.6654L16.9525 36.717L16.9305 36.7683L16.9246 36.7814L16.9081 36.8198L16.8859 36.8712L16.864 36.9227L16.8546 36.9443L16.8417 36.974L16.8195 37.0257L16.7973 37.0769L16.7843 37.107L16.7753 37.1284L16.7531 37.1798L16.7309 37.2314L16.714 37.2698L16.7086 37.2827L16.6866 37.3343L16.6644 37.3855L16.644 37.4325L16.6422 37.4373L16.6199 37.4886L16.5977 37.5401L16.5535 37.643L16.5313 37.6947L16.5089 37.7459L16.5037 37.7581L16.4867 37.7975L16.4645 37.8491L16.4423 37.9003L16.4335 37.9206L16.42 37.9519L16.3979 38.0036L16.3756 38.0548L16.3534 38.1065L16.331 38.158L16.3088 38.2092L16.2932 38.2461L16.2866 38.2609L15.8723 39.2227L15.3265 38.9176L15.7408 37.9566L15.7746 37.8775C16.4755 36.21 16.6918 34.2228 14.7689 33.1475L8.57824 29.6849L8.57767 29.6856ZM16.5433 11.1871L15.219 14.264L15.9192 14.6535C17.0298 15.2715 17.7406 16.4412 17.8853 17.6726L18.3974 16.4846C19.1246 14.8011 19.3453 12.8462 17.4245 11.6775L16.5433 11.1871ZM15.8797 22.305C16.489 20.704 16.5624 18.9277 14.7694 17.8363L13.8916 17.348L12.5581 20.4448L15.8797 22.305ZM11.2323 23.5235L9.90458 26.6069L16.0059 30.0236C17.0561 30.6115 17.7503 31.6877 17.9452 32.8428L18.3962 31.7963C19.1235 30.1123 19.378 28.0797 17.4243 26.9871L11.2323 23.5235ZM21.6546 10.2376L21.3841 10.8577C22.8822 11.6938 23.6566 13.2663 22.9861 14.935L21.1017 19.3058C20.3488 21.0524 20.7725 23.0727 22.4187 24.0438C23.3496 21.8897 24.7304 18.6416 25.6875 16.4937C26.4724 14.7323 25.727 12.5133 24.0304 11.5643C23.2193 11.1109 22.4662 10.6906 21.6546 10.2376Z" fill="#181818"/>
<path d="M41.02 27.26C39.7133 27.26 38.5933 26.9533 37.66 26.34C36.74 25.7267 36.0933 24.8867 35.72 23.82L37.32 22.9C37.8667 24.5933 39.1133 25.44 41.06 25.44C42.02 25.44 42.7533 25.2467 43.26 24.86C43.7667 24.46 44.02 23.9333 44.02 23.28C44.02 22.6133 43.7667 22.1133 43.26 21.78C42.7533 21.4467 41.9067 21.0933 40.72 20.72C40.1333 20.5333 39.6867 20.3867 39.38 20.28C39.0733 20.16 38.6867 19.9867 38.22 19.76C37.7667 19.52 37.4267 19.28 37.2 19.04C36.9733 18.7867 36.7667 18.46 36.58 18.06C36.4067 17.66 36.32 17.2067 36.32 16.7C36.32 15.4867 36.7467 14.5267 37.6 13.82C38.4533 13.1 39.4933 12.74 40.72 12.74C41.8267 12.74 42.7867 13.02 43.6 13.58C44.4267 14.14 45.0467 14.88 45.46 15.8L43.9 16.7C43.3 15.26 42.24 14.54 40.72 14.54C39.96 14.54 39.3467 14.7267 38.88 15.1C38.4133 15.4733 38.18 15.98 38.18 16.62C38.18 17.2333 38.4 17.7 38.84 18.02C39.28 18.34 40.04 18.6733 41.12 19.02C41.5067 19.14 41.78 19.2267 41.94 19.28C42.1 19.3333 42.3467 19.4267 42.68 19.56C43.0267 19.6933 43.28 19.8 43.44 19.88C43.6 19.96 43.8133 20.0733 44.08 20.22C44.36 20.3667 44.5667 20.5067 44.7 20.64C44.8333 20.7733 44.9867 20.94 45.16 21.14C45.3467 21.3267 45.48 21.52 45.56 21.72C45.64 21.92 45.7067 22.1533 45.76 22.42C45.8267 22.6733 45.86 22.9467 45.86 23.24C45.86 24.4667 45.4133 25.4467 44.52 26.18C43.6267 26.9 42.46 27.26 41.02 27.26ZM56.3969 17H58.1369V27H56.3969V25.28C55.5302 26.6 54.2702 27.26 52.6169 27.26C51.2169 27.26 50.0235 26.7533 49.0369 25.74C48.0502 24.7133 47.5569 23.4667 47.5569 22C47.5569 20.5333 48.0502 19.2933 49.0369 18.28C50.0235 17.2533 51.2169 16.74 52.6169 16.74C54.2702 16.74 55.5302 17.4 56.3969 18.72V17ZM52.8369 25.58C53.8502 25.58 54.6969 25.24 55.3769 24.56C56.0569 23.8667 56.3969 23.0133 56.3969 22C56.3969 20.9867 56.0569 20.14 55.3769 19.46C54.6969 18.7667 53.8502 18.42 52.8369 18.42C51.8369 18.42 50.9969 18.7667 50.3169 19.46C49.6369 20.14 49.2969 20.9867 49.2969 22C49.2969 23.0133 49.6369 23.8667 50.3169 24.56C50.9969 25.24 51.8369 25.58 52.8369 25.58ZM65.7531 16.74C66.9265 16.74 67.8665 17.1133 68.5731 17.86C69.2798 18.5933 69.6331 19.5933 69.6331 20.86V27H67.8931V20.96C67.8931 20.1467 67.6731 19.52 67.2331 19.08C66.7931 18.6267 66.1865 18.4 65.4131 18.4C64.5465 18.4 63.8465 18.6733 63.3131 19.22C62.7798 19.7533 62.5131 20.58 62.5131 21.7V27H60.7731V17H62.5131V18.44C63.2198 17.3067 64.2998 16.74 65.7531 16.74ZM80.3422 13H82.0822V27H80.3422V25.28C79.4755 26.6 78.2155 27.26 76.5622 27.26C75.1622 27.26 73.9689 26.7533 72.9822 25.74C71.9955 24.7133 71.5022 23.4667 71.5022 22C71.5022 20.5333 71.9955 19.2933 72.9822 18.28C73.9689 17.2533 75.1622 16.74 76.5622 16.74C78.2155 16.74 79.4755 17.4 80.3422 18.72V13ZM76.7822 25.58C77.7955 25.58 78.6422 25.24 79.3222 24.56C80.0022 23.8667 80.3422 23.0133 80.3422 22C80.3422 20.9867 80.0022 20.14 79.3222 19.46C78.6422 18.7667 77.7955 18.42 76.7822 18.42C75.7822 18.42 74.9422 18.7667 74.2622 19.46C73.5822 20.14 73.2422 20.9867 73.2422 22C73.2422 23.0133 73.5822 23.8667 74.2622 24.56C74.9422 25.24 75.7822 25.58 76.7822 25.58ZM91.6984 17H93.5584L89.4784 27.62C89.0518 28.7533 88.4518 29.6133 87.6784 30.2C86.9184 30.8 86.0384 31.0667 85.0384 31V29.38C86.2651 29.4733 87.1651 28.7933 87.7384 27.34L87.9184 26.96L83.5584 17H85.4184L88.8184 24.84L91.6984 17ZM102.901 17H104.641V31H102.901V25.28C102.034 26.6 100.774 27.26 99.1208 27.26C97.7208 27.26 96.5274 26.7533 95.5408 25.74C94.5541 24.7133 94.0608 23.4667 94.0608 22C94.0608 20.5333 94.5541 19.2933 95.5408 18.28C96.5274 17.2533 97.7208 16.74 99.1208 16.74C100.774 16.74 102.034 17.4 102.901 18.72V17ZM99.3408 25.58C100.354 25.58 101.201 25.24 101.881 24.56C102.561 23.8667 102.901 23.0133 102.901 22C102.901 20.9867 102.561 20.14 101.881 19.46C101.201 18.7667 100.354 18.42 99.3408 18.42C98.3408 18.42 97.5008 18.7667 96.8208 19.46C96.1408 20.14 95.8008 20.9867 95.8008 22C95.8008 23.0133 96.1408 23.8667 96.8208 24.56C97.5008 25.24 98.3408 25.58 99.3408 25.58ZM125.957 20.06V20.9C125.957 22.7267 125.33 24.2467 124.077 25.46C122.824 26.66 121.164 27.26 119.097 27.26C116.964 27.26 115.197 26.56 113.797 25.16C112.41 23.7467 111.717 22.0267 111.717 20C111.717 17.9733 112.41 16.26 113.797 14.86C115.197 13.4467 116.95 12.74 119.057 12.74C120.35 12.74 121.537 13.0533 122.617 13.68C123.697 14.2933 124.53 15.1067 125.117 16.12L123.517 17.06C123.117 16.3 122.51 15.6933 121.697 15.24C120.897 14.7733 120.01 14.54 119.037 14.54C117.437 14.54 116.124 15.0667 115.097 16.12C114.07 17.16 113.557 18.4533 113.557 20C113.557 21.5467 114.07 22.84 115.097 23.88C116.137 24.92 117.477 25.44 119.117 25.44C120.517 25.44 121.65 25.1 122.517 24.42C123.384 23.7267 123.91 22.8333 124.097 21.74H118.957V20.06H125.957ZM129.779 18.68C130.352 17.44 131.392 16.82 132.899 16.82V18.64C132.045 18.6 131.312 18.8267 130.699 19.32C130.085 19.8133 129.779 20.6067 129.779 21.7V27H128.039V17H129.779V18.68ZM142.494 25.74C141.468 26.7533 140.221 27.26 138.754 27.26C137.288 27.26 136.041 26.7533 135.014 25.74C134.001 24.7267 133.494 23.48 133.494 22C133.494 20.52 134.001 19.2733 135.014 18.26C136.041 17.2467 137.288 16.74 138.754 16.74C140.221 16.74 141.468 17.2467 142.494 18.26C143.521 19.2733 144.034 20.52 144.034 22C144.034 23.48 143.521 24.7267 142.494 25.74ZM138.754 25.56C139.754 25.56 140.594 25.22 141.274 24.54C141.954 23.86 142.294 23.0133 142.294 22C142.294 20.9867 141.954 20.14 141.274 19.46C140.594 18.78 139.754 18.44 138.754 18.44C137.768 18.44 136.934 18.78 136.254 19.46C135.574 20.14 135.234 20.9867 135.234 22C135.234 23.0133 135.574 23.86 136.254 24.54C136.934 25.22 137.768 25.56 138.754 25.56ZM152.986 17H154.726V27H152.986V25.56C152.279 26.6933 151.199 27.26 149.746 27.26C148.572 27.26 147.632 26.8933 146.926 26.16C146.219 25.4133 145.866 24.4067 145.866 23.14V17H147.606V23.04C147.606 23.8533 147.826 24.4867 148.266 24.94C148.706 25.38 149.312 25.6 150.086 25.6C150.952 25.6 151.652 25.3333 152.186 24.8C152.719 24.2533 152.986 23.42 152.986 22.3V17ZM162.895 16.74C164.295 16.74 165.488 17.2533 166.475 18.28C167.461 19.2933 167.955 20.5333 167.955 22C167.955 23.4667 167.461 24.7133 166.475 25.74C165.488 26.7533 164.295 27.26 162.895 27.26C161.241 27.26 159.981 26.6 159.115 25.28V31H157.375V17H159.115V18.72C159.981 17.4 161.241 16.74 162.895 16.74ZM162.675 25.58C163.675 25.58 164.515 25.24 165.195 24.56C165.875 23.8667 166.215 23.0133 166.215 22C166.215 20.9867 165.875 20.14 165.195 19.46C164.515 18.7667 163.675 18.42 162.675 18.42C161.661 18.42 160.815 18.7667 160.135 19.46C159.455 20.14 159.115 20.9867 159.115 22C159.115 23.0133 159.455 23.8667 160.135 24.56C160.815 25.24 161.661 25.58 162.675 25.58Z" fill="#181818"/>
</svg>
