<svg width="40" height="40" viewBox="0 0 40 40" fill="none" xmlns="http://www.w3.org/2000/svg">
<path fill-rule="evenodd" clip-rule="evenodd" d="M36.25 30.863C36.25 33.7482 34.008 36.0879 31.2415 36.0879H8.75881C5.99205 36.0879 3.75005 33.7482 3.75005 30.863V19.3827C3.75005 17.5217 4.69902 15.8012 6.24155 14.8652L14.9738 9.56847C18.0808 7.68381 21.9184 7.68381 25.0254 9.56847L33.7585 14.8652C35.301 15.8012 36.25 17.5217 36.25 19.3827V30.863ZM32.4999 0H7.50035C3.35775 0 0 3.50336 0 7.82393V32.175C0 36.4966 3.35775 40 7.50035 40H32.4999C36.6424 40 40 36.4966 40 32.175V7.82393C40 3.50336 36.6424 0 32.4999 0Z" fill="#E56553"/>
</svg>
