<svg width="62" height="62" viewBox="0 0 62 62" fill="none" xmlns="http://www.w3.org/2000/svg">
<rect x="1" y="1" width="60" height="60" rx="12" stroke="#E56553" stroke-width="2"/>
<g clip-path="url(#clip0_1308_3406)">
<path d="M44.3333 21.668H37.6667V20.3347C37.6667 18.864 36.4708 17.668 35 17.668H27C25.5293 17.668 24.3333 18.8639 24.3333 20.3347V21.668H17.6667C16.1959 21.668 15 22.864 15 24.3347V28.3347C15 29.8054 16.1959 31.0013 17.6667 31.0013H28.3334V30.3347C28.3334 29.9662 28.6316 29.668 29.0001 29.668H33.0001C33.3686 29.668 33.6667 29.9662 33.6667 30.3347V31.0013H44.3334C45.8041 31.0013 47 29.8054 47 28.3347V24.3347C47 22.864 45.8041 21.668 44.3333 21.668ZM35 21.668H27V20.3347H35V21.668Z" fill="white"/>
<path d="M46.6302 31.7228C46.403 31.6101 46.1315 31.6362 45.9309 31.7885C45.457 32.1473 44.9049 32.3367 44.3333 32.3367H33.6667V34.3367C33.6667 34.7052 33.3685 35.0034 33 35.0034H29C28.6315 35.0034 28.3333 34.7052 28.3333 34.3367V32.3367H17.6667C17.0951 32.3367 16.543 32.1473 16.069 31.7885C15.8678 31.6349 15.597 31.6088 15.3697 31.7228C15.1432 31.8354 15 32.0665 15 32.3198V41.6701C15 43.1408 16.1959 44.3368 17.6667 44.3368H44.3334C45.8041 44.3368 47.0001 43.1408 47.0001 41.6701V32.3198C47 32.0665 46.8568 31.8354 46.6302 31.7228Z" fill="white"/>
</g>
<defs>
<clipPath id="clip0_1308_3406">
<rect width="32" height="32" fill="white" transform="translate(15 15)"/>
</clipPath>
</defs>
</svg>
