<svg width="62" height="62" viewBox="0 0 62 62" fill="none" xmlns="http://www.w3.org/2000/svg">
<rect x="1" y="1" width="60" height="60" rx="12" stroke="#E56553" stroke-width="2"/>
<path d="M18.2575 33.2826C18.2566 33.2831 18.2557 33.2835 18.2547 33.2841C17.908 33.4643 17.7574 33.8807 17.909 34.241C18.0611 34.6025 18.4657 34.786 18.8378 34.6622L29.3292 31.1716L27.3675 34.3752C27.225 34.6079 27.2551 34.9071 27.4412 35.1068C27.6272 35.3063 27.9236 35.3575 28.1659 35.2315L30.2232 34.1625C30.2823 34.1318 30.3359 34.0916 30.382 34.0434L36.4766 27.677L43.9983 23.7523C46.8469 22.2167 46.5169 21.0363 46.348 20.7112C46.217 20.459 45.9242 20.121 45.2735 19.9423C44.6135 19.7609 43.7219 19.7754 42.5481 19.9865C42.1563 20.057 41.94 20.051 41.711 20.0447C40.9058 20.0227 40.3597 20.0767 37.648 21.4857L22.817 29.1931L17.0654 26.2081C16.8485 26.0956 16.5905 26.0957 16.3736 26.2085L15.4044 26.7121C15.2049 26.8158 15.0624 27.0034 15.0161 27.2234C14.9698 27.4435 15.0245 27.6727 15.1652 27.8479L19.1572 32.8202L18.2575 33.2826Z" fill="white"/>
<path d="M45.5701 39.3223H17.4921C16.7026 39.3223 16.0625 39.9625 16.0625 40.7519C16.0625 41.5413 16.7026 42.1815 17.4921 42.1815H45.5701C46.3596 42.1815 46.9997 41.5414 46.9997 40.7519C46.9996 39.9623 46.3596 39.3223 45.5701 39.3223Z" fill="white"/>
</svg>
