<svg width="61" height="60" viewBox="0 0 61 60" fill="none" xmlns="http://www.w3.org/2000/svg">
<rect x="1.5" y="1" width="58" height="58" rx="11" stroke="#E56553" stroke-width="2"/>
<g clip-path="url(#clip0_1308_3397)">
<path d="M31.8733 16.4943L17.22 14.2676C16.54 14.161 15.8467 14.3476 15.3267 14.7876C14.8067 15.241 14.5 15.8943 14.5 16.5743V44.6676C14.5 45.4009 15.1 46.0009 15.8333 46.0009H20.1667V39.0009C20.1667 37.7076 21.2067 36.6676 22.5 36.6676H25.8333C27.1267 36.6676 28.1667 37.7076 28.1667 39.0009V46.0009H33.8333V18.801C33.8333 17.6543 33.0067 16.681 31.8733 16.4943ZM21.8333 33.6676H19.8333C19.2813 33.6676 18.8333 33.2196 18.8333 32.6676C18.8333 32.1156 19.2813 31.6676 19.8333 31.6676H21.8333C22.3853 31.6676 22.8333 32.1156 22.8333 32.6676C22.8333 33.2196 22.3853 33.6676 21.8333 33.6676ZM21.8333 29.6676H19.8333C19.2813 29.6676 18.8333 29.2196 18.8333 28.6676C18.8333 28.1156 19.2813 27.6676 19.8333 27.6676H21.8333C22.3853 27.6676 22.8333 28.1156 22.8333 28.6676C22.8333 29.2196 22.3853 29.6676 21.8333 29.6676ZM21.8333 25.6676H19.8333C19.2813 25.6676 18.8333 25.2196 18.8333 24.6676C18.8333 24.1156 19.2813 23.6676 19.8333 23.6676H21.8333C22.3853 23.6676 22.8333 24.1156 22.8333 24.6676C22.8333 25.2196 22.3853 25.6676 21.8333 25.6676ZM21.8333 21.6676H19.8333C19.2813 21.6676 18.8333 21.2196 18.8333 20.6676C18.8333 20.1156 19.2813 19.6676 19.8333 19.6676H21.8333C22.3853 19.6676 22.8333 20.1156 22.8333 20.6676C22.8333 21.2196 22.3853 21.6676 21.8333 21.6676ZM28.5 33.6676H26.5C25.948 33.6676 25.5 33.2196 25.5 32.6676C25.5 32.1156 25.948 31.6676 26.5 31.6676H28.5C29.052 31.6676 29.5 32.1156 29.5 32.6676C29.5 33.2196 29.052 33.6676 28.5 33.6676ZM28.5 29.6676H26.5C25.948 29.6676 25.5 29.2196 25.5 28.6676C25.5 28.1156 25.948 27.6676 26.5 27.6676H28.5C29.052 27.6676 29.5 28.1156 29.5 28.6676C29.5 29.2196 29.052 29.6676 28.5 29.6676ZM28.5 25.6676H26.5C25.948 25.6676 25.5 25.2196 25.5 24.6676C25.5 24.1156 25.948 23.6676 26.5 23.6676H28.5C29.052 23.6676 29.5 24.1156 29.5 24.6676C29.5 25.2196 29.052 25.6676 28.5 25.6676ZM28.5 21.6676H26.5C25.948 21.6676 25.5 21.2196 25.5 20.6676C25.5 20.1156 25.948 19.6676 26.5 19.6676H28.5C29.052 19.6676 29.5 20.1156 29.5 20.6676C29.5 21.2196 29.052 21.6676 28.5 21.6676Z" fill="white"/>
<path d="M44.6613 28.4548L35.168 26.4668V45.9988H44.168C45.4546 45.9988 46.5013 44.9521 46.5013 43.6655V30.7348C46.5013 29.6335 45.7506 28.6961 44.6613 28.4548ZM41.5013 41.9988H39.5013C38.9493 41.9988 38.5013 41.5508 38.5013 40.9988C38.5013 40.4468 38.9493 39.9988 39.5013 39.9988H41.5013C42.0533 39.9988 42.5013 40.4468 42.5013 40.9988C42.5013 41.5508 42.0533 41.9988 41.5013 41.9988ZM41.5013 37.9988H39.5013C38.9493 37.9988 38.5013 37.5508 38.5013 36.9988C38.5013 36.4468 38.9493 35.9988 39.5013 35.9988H41.5013C42.0533 35.9988 42.5013 36.4468 42.5013 36.9988C42.5013 37.5508 42.0533 37.9988 41.5013 37.9988ZM41.5013 33.9988H39.5013C38.9493 33.9988 38.5013 33.5508 38.5013 32.9988C38.5013 32.4468 38.9493 31.9988 39.5013 31.9988H41.5013C42.0533 31.9988 42.5013 32.4468 42.5013 32.9988C42.5013 33.5508 42.0533 33.9988 41.5013 33.9988Z" fill="white"/>
</g>
<defs>
<clipPath id="clip0_1308_3397">
<rect width="32" height="32" fill="white" transform="translate(14.5 14)"/>
</clipPath>
</defs>
</svg>
