<svg width="60" height="60" viewBox="0 0 60 60" fill="none" xmlns="http://www.w3.org/2000/svg">
<rect x="1" y="1" width="58" height="58" rx="11" stroke="#E56553" stroke-width="2"/>
<g clip-path="url(#clip0_1308_3376)">
<path d="M45.8166 25.6837C45.6601 25.4928 45.4266 25.3814 45.1816 25.3814H42.0672C41.2987 23.3542 40.2974 21.3681 39.1593 20.6183C35.2223 18.0283 24.7796 18.0283 20.8426 20.6183C19.7037 21.3689 18.7065 23.3575 17.9339 25.3814H14.8195C14.5721 25.3814 14.3394 25.4928 14.1845 25.6837C14.0288 25.8738 13.9665 26.1254 14.0173 26.3671L14.4786 28.6023C14.5573 28.9834 14.8932 29.2554 15.2808 29.2554H16.2034C15.3128 30.2829 14.8809 31.5767 14.8752 32.8713C14.8695 34.4707 15.4766 35.9161 16.5869 36.9387C16.5991 36.9493 16.6114 36.9567 16.6229 36.9674V40.0949C16.6229 40.7726 17.1735 41.324 17.8519 41.324H20.7246C21.403 41.324 21.9536 40.7726 21.9536 40.0949V38.838H38.0466V40.0949C38.0466 40.7726 38.5972 41.324 39.2757 41.324H42.1483C42.8251 41.324 43.3774 40.7726 43.3774 40.0949V37.0288C44.5556 35.9497 45.1185 34.465 45.1259 32.9827C45.1308 31.6439 44.6793 30.3026 43.7363 29.2537H44.7203C45.1095 29.2537 45.4454 28.9817 45.5225 28.5999L45.9846 26.3654C46.0321 26.1254 45.9723 25.8755 45.8166 25.6837ZM22.1921 22.6709C25.3302 20.6052 34.6701 20.6052 37.8066 22.6709C38.4162 23.0707 39.2003 24.6874 39.9189 26.667H20.0814C20.7983 24.6882 21.5825 23.0724 22.1921 22.6709ZM18.5164 33.1794C18.5164 31.8438 19.5996 30.7622 20.9344 30.7622C22.2707 30.7622 23.3523 31.8438 23.3523 33.1794C23.3523 34.515 22.2707 35.5974 20.9344 35.5974C19.5996 35.5974 18.5164 34.515 18.5164 33.1794ZM39.0979 35.5974C37.7631 35.5974 36.68 34.515 36.68 33.1794C36.68 31.8438 37.7631 30.7622 39.0979 30.7622C40.4342 30.7622 41.5158 31.8438 41.5158 33.1794C41.5158 34.515 40.4326 35.5974 39.0979 35.5974Z" fill="white"/>
</g>
<defs>
<clipPath id="clip0_1308_3376">
<rect width="32" height="32" fill="white" transform="translate(14 14)"/>
</clipPath>
</defs>
</svg>
