<svg width="62" height="62" viewBox="0 0 62 62" fill="none" xmlns="http://www.w3.org/2000/svg">
<rect x="1" y="1" width="60" height="60" rx="12" stroke="#E56553" stroke-width="2"/>
<g clip-path="url(#clip0_1308_3386)">
<path d="M30.9995 15C22.1762 15 15 22.1772 15 30.9995C15 39.8228 22.1762 47.001 30.9995 47.001C39.8207 47.001 46.998 39.8238 46.998 30.9995C46.998 22.1772 39.8207 15 30.9995 15ZM30.9995 44.4528C23.5804 44.4528 17.5462 38.4186 17.5462 30.9985C17.5462 23.5814 23.5804 17.5451 30.9995 17.5451C38.4175 17.5451 44.4518 23.5814 44.4518 30.9985C44.4518 38.4186 38.4175 44.4528 30.9995 44.4528Z" fill="white"/>
<path d="M34.6362 27.6205V22.4791C34.6362 21.5933 33.9188 20.877 33.034 20.877H29.5684C28.6836 20.877 27.9672 21.5944 27.9672 22.4791V27.6205H22.8238C21.9391 27.6205 21.2227 28.3379 21.2227 29.2226V32.7618C21.2227 33.6465 21.9391 34.364 22.8238 34.364H27.9662V39.5042C27.9662 40.389 28.6826 41.1064 29.5673 41.1064H33.034C33.9177 41.1064 34.6352 40.389 34.6352 39.5042V34.364H39.7765C40.6613 34.364 41.3787 33.6465 41.3787 32.7618V29.2226C41.3787 28.3369 40.6613 27.6205 39.7765 27.6205H34.6362Z" fill="white"/>
</g>
<defs>
<clipPath id="clip0_1308_3386">
<rect width="32" height="32" fill="white" transform="translate(15 15)"/>
</clipPath>
</defs>
</svg>
