<svg width="88" height="88" viewBox="0 0 88 88" fill="none" xmlns="http://www.w3.org/2000/svg">
<g clip-path="url(#clip0_901_2623)">
<path d="M88 0H0V88H88V0Z" fill="white"/>
<path d="M5 5H8.12V8.12H5V5ZM8.12 5H11.24V8.12H8.12V5ZM11.24 5H14.36V8.12H11.24V5ZM14.36 5H17.48V8.12H14.36V5ZM17.48 5H20.6V8.12H17.48V5ZM20.6 5H23.72V8.12H20.6V5ZM23.72 5H26.84V8.12H23.72V5ZM36.2 5H39.32V8.12H36.2V5ZM42.44 5H45.56V8.12H42.44V5ZM45.56 5H48.68V8.12H45.56V5ZM54.92 5H58.04V8.12H54.92V5ZM61.16 5H64.28V8.12H61.16V5ZM64.28 5H67.4V8.12H64.28V5ZM67.4 5H70.52V8.12H67.4V5ZM70.52 5H73.64V8.12H70.52V5ZM73.64 5H76.76V8.12H73.64V5ZM76.76 5H79.88V8.12H76.76V5ZM79.88 5H83V8.12H79.88V5ZM5 8.12H8.12V11.24H5V8.12ZM23.72 8.12H26.84V11.24H23.72V8.12ZM29.96 8.12H33.08V11.24H29.96V8.12ZM36.2 8.12H39.32V11.24H36.2V8.12ZM45.56 8.12H48.68V11.24H45.56V8.12ZM48.68 8.12H51.8V11.24H48.68V8.12ZM51.8 8.12H54.92V11.24H51.8V8.12ZM61.16 8.12H64.28V11.24H61.16V8.12ZM79.88 8.12H83V11.24H79.88V8.12ZM5 11.24H8.12V14.36H5V11.24ZM11.24 11.24H14.36V14.36H11.24V11.24ZM14.36 11.24H17.48V14.36H14.36V11.24ZM17.48 11.24H20.6V14.36H17.48V11.24ZM23.72 11.24H26.84V14.36H23.72V11.24ZM42.44 11.24H45.56V14.36H42.44V11.24ZM48.68 11.24H51.8V14.36H48.68V11.24ZM51.8 11.24H54.92V14.36H51.8V11.24ZM54.92 11.24H58.04V14.36H54.92V11.24ZM61.16 11.24H64.28V14.36H61.16V11.24ZM67.4 11.24H70.52V14.36H67.4V11.24ZM70.52 11.24H73.64V14.36H70.52V11.24ZM73.64 11.24H76.76V14.36H73.64V11.24ZM79.88 11.24H83V14.36H79.88V11.24ZM5 14.36H8.12V17.48H5V14.36ZM11.24 14.36H14.36V17.48H11.24V14.36ZM14.36 14.36H17.48V17.48H14.36V14.36ZM17.48 14.36H20.6V17.48H17.48V14.36ZM23.72 14.36H26.84V17.48H23.72V14.36ZM29.96 14.36H33.08V17.48H29.96V14.36ZM33.08 14.36H36.2V17.48H33.08V14.36ZM36.2 14.36H39.32V17.48H36.2V14.36ZM42.44 14.36H45.56V17.48H42.44V14.36ZM45.56 14.36H48.68V17.48H45.56V14.36ZM51.8 14.36H54.92V17.48H51.8V14.36ZM54.92 14.36H58.04V17.48H54.92V14.36ZM61.16 14.36H64.28V17.48H61.16V14.36ZM67.4 14.36H70.52V17.48H67.4V14.36ZM70.52 14.36H73.64V17.48H70.52V14.36ZM73.64 14.36H76.76V17.48H73.64V14.36ZM79.88 14.36H83V17.48H79.88V14.36ZM5 17.48H8.12V20.6H5V17.48ZM11.24 17.48H14.36V20.6H11.24V17.48ZM14.36 17.48H17.48V20.6H14.36V17.48ZM17.48 17.48H20.6V20.6H17.48V17.48ZM23.72 17.48H26.84V20.6H23.72V17.48ZM33.08 17.48H36.2V20.6H33.08V17.48ZM45.56 17.48H48.68V20.6H45.56V17.48ZM54.92 17.48H58.04V20.6H54.92V17.48ZM61.16 17.48H64.28V20.6H61.16V17.48ZM67.4 17.48H70.52V20.6H67.4V17.48ZM70.52 17.48H73.64V20.6H70.52V17.48ZM73.64 17.48H76.76V20.6H73.64V17.48ZM79.88 17.48H83V20.6H79.88V17.48ZM5 20.6H8.12V23.72H5V20.6ZM23.72 20.6H26.84V23.72H23.72V20.6ZM29.96 20.6H33.08V23.72H29.96V20.6ZM33.08 20.6H36.2V23.72H33.08V20.6ZM39.32 20.6H42.44V23.72H39.32V20.6ZM42.44 20.6H45.56V23.72H42.44V20.6ZM45.56 20.6H48.68V23.72H45.56V20.6ZM48.68 20.6H51.8V23.72H48.68V20.6ZM51.8 20.6H54.92V23.72H51.8V20.6ZM61.16 20.6H64.28V23.72H61.16V20.6ZM79.88 20.6H83V23.72H79.88V20.6ZM5 23.72H8.12V26.84H5V23.72ZM8.12 23.72H11.24V26.84H8.12V23.72ZM11.24 23.72H14.36V26.84H11.24V23.72ZM14.36 23.72H17.48V26.84H14.36V23.72ZM17.48 23.72H20.6V26.84H17.48V23.72ZM20.6 23.72H23.72V26.84H20.6V23.72ZM23.72 23.72H26.84V26.84H23.72V23.72ZM29.96 23.72H33.08V26.84H29.96V23.72ZM36.2 23.72H39.32V26.84H36.2V23.72ZM42.44 23.72H45.56V26.84H42.44V23.72ZM48.68 23.72H51.8V26.84H48.68V23.72ZM54.92 23.72H58.04V26.84H54.92V23.72ZM61.16 23.72H64.28V26.84H61.16V23.72ZM64.28 23.72H67.4V26.84H64.28V23.72ZM67.4 23.72H70.52V26.84H67.4V23.72ZM70.52 23.72H73.64V26.84H70.52V23.72ZM73.64 23.72H76.76V26.84H73.64V23.72ZM76.76 23.72H79.88V26.84H76.76V23.72ZM79.88 23.72H83V26.84H79.88V23.72ZM33.08 26.84H36.2V29.96H33.08V26.84ZM36.2 26.84H39.32V29.96H36.2V26.84ZM39.32 26.84H42.44V29.96H39.32V26.84ZM48.68 26.84H51.8V29.96H48.68V26.84ZM54.92 26.84H58.04V29.96H54.92V26.84ZM5 29.96H8.12V33.08H5V29.96ZM8.12 29.96H11.24V33.08H8.12V29.96ZM11.24 29.96H14.36V33.08H11.24V29.96ZM14.36 29.96H17.48V33.08H14.36V29.96ZM17.48 29.96H20.6V33.08H17.48V29.96ZM23.72 29.96H26.84V33.08H23.72V29.96ZM26.84 29.96H29.96V33.08H26.84V29.96ZM29.96 29.96H33.08V33.08H29.96V29.96ZM33.08 29.96H36.2V33.08H33.08V29.96ZM39.32 29.96H42.44V33.08H39.32V29.96ZM45.56 29.96H48.68V33.08H45.56V29.96ZM58.04 29.96H61.16V33.08H58.04V29.96ZM64.28 29.96H67.4V33.08H64.28V29.96ZM70.52 29.96H73.64V33.08H70.52V29.96ZM76.76 29.96H79.88V33.08H76.76V29.96ZM8.12 33.08H11.24V36.2H8.12V33.08ZM11.24 33.08H14.36V36.2H11.24V33.08ZM14.36 33.08H17.48V36.2H14.36V33.08ZM17.48 33.08H20.6V36.2H17.48V33.08ZM29.96 33.08H33.08V36.2H29.96V33.08ZM36.2 33.08H39.32V36.2H36.2V33.08ZM42.44 33.08H45.56V36.2H42.44V33.08ZM48.68 33.08H51.8V36.2H48.68V33.08ZM64.28 33.08H67.4V36.2H64.28V33.08ZM76.76 33.08H79.88V36.2H76.76V33.08ZM5 36.2H8.12V39.32H5V36.2ZM14.36 36.2H17.48V39.32H14.36V36.2ZM17.48 36.2H20.6V39.32H17.48V36.2ZM20.6 36.2H23.72V39.32H20.6V36.2ZM23.72 36.2H26.84V39.32H23.72V36.2ZM29.96 36.2H33.08V39.32H29.96V36.2ZM36.2 36.2H39.32V39.32H36.2V36.2ZM45.56 36.2H48.68V39.32H45.56V36.2ZM48.68 36.2H51.8V39.32H48.68V36.2ZM51.8 36.2H54.92V39.32H51.8V36.2ZM54.92 36.2H58.04V39.32H54.92V36.2ZM58.04 36.2H61.16V39.32H58.04V36.2ZM64.28 36.2H67.4V39.32H64.28V36.2ZM67.4 36.2H70.52V39.32H67.4V36.2ZM70.52 36.2H73.64V39.32H70.52V36.2ZM76.76 36.2H79.88V39.32H76.76V36.2ZM79.88 36.2H83V39.32H79.88V36.2ZM5 39.32H8.12V42.44H5V39.32ZM8.12 39.32H11.24V42.44H8.12V39.32ZM14.36 39.32H17.48V42.44H14.36V39.32ZM17.48 39.32H20.6V42.44H17.48V39.32ZM26.84 39.32H29.96V42.44H26.84V39.32ZM42.44 39.32H45.56V42.44H42.44V39.32ZM48.68 39.32H51.8V42.44H48.68V39.32ZM64.28 39.32H67.4V42.44H64.28V39.32ZM67.4 39.32H70.52V42.44H67.4V39.32ZM79.88 39.32H83V42.44H79.88V39.32ZM20.6 42.44H23.72V45.56H20.6V42.44ZM23.72 42.44H26.84V45.56H23.72V42.44ZM33.08 42.44H36.2V45.56H33.08V42.44ZM36.2 42.44H39.32V45.56H36.2V42.44ZM42.44 42.44H45.56V45.56H42.44V42.44ZM45.56 42.44H48.68V45.56H45.56V42.44ZM48.68 42.44H51.8V45.56H48.68V42.44ZM58.04 42.44H61.16V45.56H58.04V42.44ZM61.16 42.44H64.28V45.56H61.16V42.44ZM67.4 42.44H70.52V45.56H67.4V42.44ZM73.64 42.44H76.76V45.56H73.64V42.44ZM76.76 42.44H79.88V45.56H76.76V42.44ZM79.88 42.44H83V45.56H79.88V42.44ZM5 45.56H8.12V48.68H5V45.56ZM8.12 45.56H11.24V48.68H8.12V45.56ZM11.24 45.56H14.36V48.68H11.24V45.56ZM14.36 45.56H17.48V48.68H14.36V45.56ZM17.48 45.56H20.6V48.68H17.48V45.56ZM20.6 45.56H23.72V48.68H20.6V45.56ZM29.96 45.56H33.08V48.68H29.96V45.56ZM45.56 45.56H48.68V48.68H45.56V45.56ZM54.92 45.56H58.04V48.68H54.92V45.56ZM64.28 45.56H67.4V48.68H64.28V45.56ZM70.52 45.56H73.64V48.68H70.52V45.56ZM76.76 45.56H79.88V48.68H76.76V45.56ZM5 48.68H8.12V51.8H5V48.68ZM17.48 48.68H20.6V51.8H17.48V48.68ZM20.6 48.68H23.72V51.8H20.6V48.68ZM23.72 48.68H26.84V51.8H23.72V48.68ZM26.84 48.68H29.96V51.8H26.84V48.68ZM33.08 48.68H36.2V51.8H33.08V48.68ZM36.2 48.68H39.32V51.8H36.2V48.68ZM39.32 48.68H42.44V51.8H39.32V48.68ZM42.44 48.68H45.56V51.8H42.44V48.68ZM45.56 48.68H48.68V51.8H45.56V48.68ZM51.8 48.68H54.92V51.8H51.8V48.68ZM58.04 48.68H61.16V51.8H58.04V48.68ZM61.16 48.68H64.28V51.8H61.16V48.68ZM64.28 48.68H67.4V51.8H64.28V48.68ZM67.4 48.68H70.52V51.8H67.4V48.68ZM70.52 48.68H73.64V51.8H70.52V48.68ZM76.76 48.68H79.88V51.8H76.76V48.68ZM79.88 48.68H83V51.8H79.88V48.68ZM5 51.8H8.12V54.92H5V51.8ZM11.24 51.8H14.36V54.92H11.24V51.8ZM14.36 51.8H17.48V54.92H14.36V51.8ZM20.6 51.8H23.72V54.92H20.6V51.8ZM26.84 51.8H29.96V54.92H26.84V51.8ZM29.96 51.8H33.08V54.92H29.96V51.8ZM33.08 51.8H36.2V54.92H33.08V51.8ZM39.32 51.8H42.44V54.92H39.32V51.8ZM48.68 51.8H51.8V54.92H48.68V51.8ZM54.92 51.8H58.04V54.92H54.92V51.8ZM58.04 51.8H61.16V54.92H58.04V51.8ZM61.16 51.8H64.28V54.92H61.16V51.8ZM64.28 51.8H67.4V54.92H64.28V51.8ZM67.4 51.8H70.52V54.92H67.4V51.8ZM79.88 51.8H83V54.92H79.88V51.8ZM5 54.92H8.12V58.04H5V54.92ZM11.24 54.92H14.36V58.04H11.24V54.92ZM20.6 54.92H23.72V58.04H20.6V54.92ZM23.72 54.92H26.84V58.04H23.72V54.92ZM29.96 54.92H33.08V58.04H29.96V54.92ZM39.32 54.92H42.44V58.04H39.32V54.92ZM42.44 54.92H45.56V58.04H42.44V54.92ZM45.56 54.92H48.68V58.04H45.56V54.92ZM54.92 54.92H58.04V58.04H54.92V54.92ZM58.04 54.92H61.16V58.04H58.04V54.92ZM61.16 54.92H64.28V58.04H61.16V54.92ZM64.28 54.92H67.4V58.04H64.28V54.92ZM67.4 54.92H70.52V58.04H67.4V54.92ZM73.64 54.92H76.76V58.04H73.64V54.92ZM29.96 58.04H33.08V61.16H29.96V58.04ZM33.08 58.04H36.2V61.16H33.08V58.04ZM42.44 58.04H45.56V61.16H42.44V58.04ZM48.68 58.04H51.8V61.16H48.68V58.04ZM51.8 58.04H54.92V61.16H51.8V58.04ZM54.92 58.04H58.04V61.16H54.92V58.04ZM67.4 58.04H70.52V61.16H67.4V58.04ZM70.52 58.04H73.64V61.16H70.52V58.04ZM5 61.16H8.12V64.28H5V61.16ZM8.12 61.16H11.24V64.28H8.12V61.16ZM11.24 61.16H14.36V64.28H11.24V61.16ZM14.36 61.16H17.48V64.28H14.36V61.16ZM17.48 61.16H20.6V64.28H17.48V61.16ZM20.6 61.16H23.72V64.28H20.6V61.16ZM23.72 61.16H26.84V64.28H23.72V61.16ZM29.96 61.16H33.08V64.28H29.96V61.16ZM33.08 61.16H36.2V64.28H33.08V61.16ZM36.2 61.16H39.32V64.28H36.2V61.16ZM45.56 61.16H48.68V64.28H45.56V61.16ZM48.68 61.16H51.8V64.28H48.68V61.16ZM54.92 61.16H58.04V64.28H54.92V61.16ZM61.16 61.16H64.28V64.28H61.16V61.16ZM67.4 61.16H70.52V64.28H67.4V61.16ZM73.64 61.16H76.76V64.28H73.64V61.16ZM76.76 61.16H79.88V64.28H76.76V61.16ZM79.88 61.16H83V64.28H79.88V61.16ZM5 64.28H8.12V67.4H5V64.28ZM23.72 64.28H26.84V67.4H23.72V64.28ZM36.2 64.28H39.32V67.4H36.2V64.28ZM39.32 64.28H42.44V67.4H39.32V64.28ZM42.44 64.28H45.56V67.4H42.44V64.28ZM48.68 64.28H51.8V67.4H48.68V64.28ZM54.92 64.28H58.04V67.4H54.92V64.28ZM67.4 64.28H70.52V67.4H67.4V64.28ZM70.52 64.28H73.64V67.4H70.52V64.28ZM76.76 64.28H79.88V67.4H76.76V64.28ZM79.88 64.28H83V67.4H79.88V64.28ZM5 67.4H8.12V70.52H5V67.4ZM11.24 67.4H14.36V70.52H11.24V67.4ZM14.36 67.4H17.48V70.52H14.36V67.4ZM17.48 67.4H20.6V70.52H17.48V67.4ZM23.72 67.4H26.84V70.52H23.72V67.4ZM29.96 67.4H33.08V70.52H29.96V67.4ZM45.56 67.4H48.68V70.52H45.56V67.4ZM48.68 67.4H51.8V70.52H48.68V67.4ZM51.8 67.4H54.92V70.52H51.8V67.4ZM54.92 67.4H58.04V70.52H54.92V67.4ZM58.04 67.4H61.16V70.52H58.04V67.4ZM61.16 67.4H64.28V70.52H61.16V67.4ZM64.28 67.4H67.4V70.52H64.28V67.4ZM67.4 67.4H70.52V70.52H67.4V67.4ZM73.64 67.4H76.76V70.52H73.64V67.4ZM5 70.52H8.12V73.64H5V70.52ZM11.24 70.52H14.36V73.64H11.24V70.52ZM14.36 70.52H17.48V73.64H14.36V70.52ZM17.48 70.52H20.6V73.64H17.48V70.52ZM23.72 70.52H26.84V73.64H23.72V70.52ZM29.96 70.52H33.08V73.64H29.96V70.52ZM36.2 70.52H39.32V73.64H36.2V70.52ZM39.32 70.52H42.44V73.64H39.32V70.52ZM45.56 70.52H48.68V73.64H45.56V70.52ZM48.68 70.52H51.8V73.64H48.68V70.52ZM58.04 70.52H61.16V73.64H58.04V70.52ZM61.16 70.52H64.28V73.64H61.16V70.52ZM67.4 70.52H70.52V73.64H67.4V70.52ZM70.52 70.52H73.64V73.64H70.52V70.52ZM73.64 70.52H76.76V73.64H73.64V70.52ZM76.76 70.52H79.88V73.64H76.76V70.52ZM79.88 70.52H83V73.64H79.88V70.52ZM5 73.64H8.12V76.76H5V73.64ZM11.24 73.64H14.36V76.76H11.24V73.64ZM14.36 73.64H17.48V76.76H14.36V73.64ZM17.48 73.64H20.6V76.76H17.48V73.64ZM23.72 73.64H26.84V76.76H23.72V73.64ZM29.96 73.64H33.08V76.76H29.96V73.64ZM42.44 73.64H45.56V76.76H42.44V73.64ZM51.8 73.64H54.92V76.76H51.8V73.64ZM54.92 73.64H58.04V76.76H54.92V73.64ZM70.52 73.64H73.64V76.76H70.52V73.64ZM73.64 73.64H76.76V76.76H73.64V73.64ZM79.88 73.64H83V76.76H79.88V73.64ZM5 76.76H8.12V79.88H5V76.76ZM23.72 76.76H26.84V79.88H23.72V76.76ZM29.96 76.76H33.08V79.88H29.96V76.76ZM36.2 76.76H39.32V79.88H36.2V76.76ZM39.32 76.76H42.44V79.88H39.32V76.76ZM48.68 76.76H51.8V79.88H48.68V76.76ZM51.8 76.76H54.92V79.88H51.8V76.76ZM54.92 76.76H58.04V79.88H54.92V76.76ZM58.04 76.76H61.16V79.88H58.04V76.76ZM64.28 76.76H67.4V79.88H64.28V76.76ZM67.4 76.76H70.52V79.88H67.4V76.76ZM70.52 76.76H73.64V79.88H70.52V76.76ZM79.88 76.76H83V79.88H79.88V76.76ZM5 79.88H8.12V83H5V79.88ZM8.12 79.88H11.24V83H8.12V79.88ZM11.24 79.88H14.36V83H11.24V79.88ZM14.36 79.88H17.48V83H14.36V79.88ZM17.48 79.88H20.6V83H17.48V79.88ZM20.6 79.88H23.72V83H20.6V79.88ZM23.72 79.88H26.84V83H23.72V79.88ZM29.96 79.88H33.08V83H29.96V79.88ZM33.08 79.88H36.2V83H33.08V79.88ZM45.56 79.88H48.68V83H45.56V79.88ZM48.68 79.88H51.8V83H48.68V79.88ZM61.16 79.88H64.28V83H61.16V79.88ZM64.28 79.88H67.4V83H64.28V79.88ZM67.4 79.88H70.52V83H67.4V79.88ZM70.52 79.88H73.64V83H70.52V79.88ZM73.64 79.88H76.76V83H73.64V79.88ZM76.76 79.88H79.88V83H76.76V79.88ZM79.88 79.88H83V83H79.88V79.88Z" fill="black"/>
</g>
<defs>
<clipPath id="clip0_901_2623">
<rect width="88" height="88" rx="8" fill="white"/>
</clipPath>
</defs>
</svg>
