<svg width="40" height="46" viewBox="0 0 40 46" fill="none" xmlns="http://www.w3.org/2000/svg">
<path d="M20.1805 43.8346C19.9225 43.8346 19.6666 43.7754 19.4338 43.6549L11.931 39.7713C9.79997 38.6682 8.13456 37.4302 6.83622 35.9879C3.98782 32.8336 2.40631 28.7846 2.37905 24.5844L2.29305 10.7602C2.28256 9.16468 3.31033 7.73261 4.84989 7.19329L18.6262 2.39044C19.4463 2.09831 20.3587 2.09422 21.1894 2.37614L35.0181 7.01556C36.5661 7.53241 37.6127 8.95426 37.6211 10.5477L37.7092 24.3822C37.7365 28.5763 36.2095 32.6416 33.4072 35.8306C32.1194 37.2933 30.4708 38.5497 28.3628 39.6733L20.9272 43.6446C20.6964 43.7693 20.4385 43.8326 20.1805 43.8346" stroke="white" stroke-width="2.88462"/>
<path d="M22.2275 22.4269L25.057 19.671C25.6716 19.0725 25.6716 18.1041 25.057 17.5056C24.4425 16.907 23.4461 16.907 22.8316 17.5056L20.0021 20.2594L17.1746 17.5056C16.5601 16.907 15.5638 16.907 14.9492 17.5056C14.3346 18.1041 14.3346 19.0725 14.9492 19.671L17.7787 22.4269L14.9492 25.1828C14.3346 25.7813 14.3346 26.7497 14.9492 27.3482C15.2575 27.6485 15.6603 27.7977 16.063 27.7977C16.4636 27.7977 16.8663 27.6485 17.1746 27.3482L20.0021 24.5944L22.8316 27.3482C23.1399 27.6485 23.5405 27.7977 23.9432 27.7977C24.346 27.7977 24.7487 27.6485 25.057 27.3482C25.6716 26.7497 25.6716 25.7813 25.057 25.1828L22.2275 22.4269Z" fill="#E56553"/>
</svg>
