<svg width="44" height="50" viewBox="0 0 44 50" fill="none" xmlns="http://www.w3.org/2000/svg">
<path d="M22.1902 48.321C21.9013 48.321 21.6147 48.2546 21.3539 48.1196L12.9509 43.77C10.5641 42.5345 8.69884 41.1479 7.24469 39.5326C4.05449 35.9999 2.2832 31.465 2.25266 26.7607L2.15634 11.2776C2.14459 9.49061 3.2957 7.8867 5.02 7.28265L20.4495 1.90347C21.368 1.57628 22.3899 1.5717 23.3202 1.88745L38.8084 7.08359C40.5421 7.66247 41.7144 9.25494 41.7238 11.0396L41.8224 26.5342C41.853 31.2316 40.1428 35.7848 37.0042 39.3564C35.5618 40.9946 33.7154 42.4018 31.3544 43.6602L23.0266 48.1082C22.7681 48.2477 22.4792 48.3187 22.1902 48.321" stroke="white" stroke-width="2.70968"/>
<path d="M17.3281 24.99L20.4392 28.1011L26.6615 21.8789" stroke="#E56553" stroke-width="3.11111" stroke-linecap="round" stroke-linejoin="round"/>
</svg>
