<svg width="62" height="62" viewBox="0 0 62 62" fill="none" xmlns="http://www.w3.org/2000/svg">
<path d="M51.6711 31.0022L53.3933 32.7244C53.0507 36.9859 51.4951 41.0602 48.9104 44.4657C46.3258 47.8712 42.8201 50.4654 38.8079 51.9418C34.7956 53.4181 30.4446 53.7148 26.269 52.7969C22.0935 51.8789 18.2681 49.7846 15.2451 46.7615C12.222 43.7385 10.1277 39.9131 9.20971 35.7375C8.29173 31.562 8.58845 27.2109 10.0648 23.1987C11.5412 19.1865 14.1354 15.6808 17.5409 13.0961C20.9464 10.5115 25.0207 8.9559 29.2822 8.61328L31.0044 10.3355V29.28L32.7266 31.0022H51.6711Z" stroke="white" stroke-width="2"/>
<path d="M52.5269 23.2485C49.9436 17.2207 44.7769 12.054 38.7491 9.4707C37.0269 9.4707 35.3047 10.3318 35.3047 12.054V24.1096C35.3047 25.8318 36.1658 26.6929 37.888 26.6929H49.9436C51.6658 26.6929 52.5269 24.9707 52.5269 23.2485Z" stroke="#E56553" stroke-width="3.16943" stroke-linecap="round" stroke-linejoin="round" stroke-dasharray="0.43 3.44"/>
</svg>
