<svg width="62" height="62" fill="none" xmlns="http://www.w3.org/2000/svg"><g clip-path="url(#a)"><path d="M35.148 46.533a22.652 22.652 0 0 0 5.588-10.468l1.12 1.344a2.163 2.163 0 0 0 3.669-.581l-10.377 9.705zm0 0a17.518 17.518 0 0 0 8.258 2.054c9.72 0 17.6-7.88 17.6-17.6 0-9.72-7.88-17.6-17.6-17.6-2.986 0-5.796.743-8.258 2.054a22.62 22.62 0 0 1 6.139 14.59c.105.086.203.183.294.291l1.44 1.728a40.573 40.573 0 0 1 2.799-4.364 44.765 44.765 0 0 1 1.809-2.311c.232-.277.42-.494.554-.646L35.148 46.533zM49.26 23.915a2.163 2.163 0 0 1 2.322 3.501l-.001.002-.002.001-.03.034h-.001l-.124.14c-.111.125-.276.315-.482.561a40.42 40.42 0 0 0-1.633 2.086l-.807-.59.807.59c-1.295 1.77-2.8 4.124-3.785 6.587l3.736-12.912zm0 0-.184-.17-.674.74m.858-.57-.858.57m0 0-.008.008-.01.012-.002.002-.04.044-.002.002-.157.176.22-.245z" stroke="#E56553" stroke-width="2"/><mask id="b" style="mask-type:luminance" maskUnits="userSpaceOnUse" x="33" y="12" width="29" height="38"><path fill-rule="evenodd" clip-rule="evenodd" d="M40.106 33.788A21.647 21.647 0 0 1 33.5 46.76a18.512 18.512 0 0 0 9.883 2.84c10.273 0 18.6-8.327 18.6-18.6 0-10.272-8.327-18.6-18.6-18.6-3.631 0-7.02 1.041-9.883 2.84a21.638 21.638 0 0 1 6.78 15.383c.192.067.369.185.509.353l2.402 2.883c1.046-2.142 2.324-4.081 3.412-5.57a43.769 43.769 0 0 1 1.768-2.258 32.265 32.265 0 0 1 .688-.794l.04-.044.012-.013.004-.004.856.787-.855-.788a1.163 1.163 0 0 1 1.709 1.576l-.001.002-.008.008-.032.035-.132.148c-.116.132-.287.328-.5.581a41.345 41.345 0 0 0-1.672 2.138c-1.32 1.805-2.878 4.235-3.907 6.807a1.162 1.162 0 0 1-1.972.312l-2.495-2.994z" fill="#fff"/></mask><g mask="url(#b)"><path d="m33.513 46.758-1.066-1.126-1.45 1.374 1.691 1.064.825-1.312zm6.606-12.973 1.19-.992-2.275-2.731-.453 3.526 1.538.197zm-6.606-18.547-.825-1.313-1.692 1.064 1.451 1.374 1.066-1.125zm6.78 15.382-1.55.026.019 1.081 1.02.356.511-1.463zm2.912 3.237-1.19.992 1.532 1.84 1.05-2.152-1.392-.68zm5.867-8.622-1.147-1.043-.003.003 1.15 1.04zm.041-.045-1.143-1.047-.004.005 1.147 1.042zm.011-.013-1.14-1.049-.003.003 1.143 1.046zm.004-.003-1.14-1.05h-.001l1.14 1.05zm.856.786-1.05 1.14 2.101-2.279-1.051 1.14zm.854.789-1.14-1.051v.002l1.14 1.049zm-.001 0-1.14-1.048-.003.002 1.143 1.047zm-.007.009-1.143-1.047-.005.005 1.148 1.042zm-.033.036L49.65 25.75l-.003.003 1.15 1.04zM34.58 47.883a23.197 23.197 0 0 0 7.077-13.901l-3.075-.395a20.096 20.096 0 0 1-6.134 12.044l2.132 2.251zm8.817.164c-3.33 0-6.435-.954-9.058-2.603l-1.65 2.625a20.064 20.064 0 0 0 10.708 3.078v-3.1zm17.05-17.05c0 9.416-7.633 17.05-17.05 17.05v3.1c11.129 0 20.15-9.022 20.15-20.15h-3.1zm-17.05-17.05c9.417 0 17.05 7.633 17.05 17.05h3.1c0-11.129-9.021-20.15-20.15-20.15v3.1zm-9.058 2.602a16.962 16.962 0 0 1 9.058-2.602v-3.1a20.063 20.063 0 0 0-10.708 3.077l1.65 2.625zm7.505 14.044a23.187 23.187 0 0 0-7.264-16.482l-2.132 2.251c3.803 3.6 6.2 8.66 6.296 14.283l3.1-.052zm-2.06 1.49a.393.393 0 0 1-.172-.119l2.382-1.984a2.706 2.706 0 0 0-1.189-.824l-1.022 2.926zm-.172-.119 2.403 2.884 2.381-1.985-2.402-2.883-2.382 1.984zm4.987 2.572c.992-2.034 2.215-3.893 3.27-5.335l-2.502-1.83c-1.123 1.534-2.455 3.554-3.554 5.805l2.786 1.36zm3.27-5.335a42.26 42.26 0 0 1 1.704-2.178l-2.375-1.992c-.47.56-1.115 1.361-1.831 2.34l2.502 1.83zm1.704-2.178c.217-.258.392-.46.512-.596l-2.323-2.052c-.136.154-.329.376-.564.656l2.375 1.992zm.512-.596.138-.154-2.3-2.079a18.27 18.27 0 0 0-.16.181l2.322 2.052zm.136-.151.04-.045-2.294-2.084-.041.044 2.295 2.085zm.036-.04.012-.013-2.287-2.093-.011.012 2.286 2.093zm.01-.01.003-.004-2.282-2.099-.003.004 2.281 2.099zm.002-.003v-.001L47.99 24.12l-.002.002 2.28 2.101zm.767-1.403-.856-.788-2.1 2.28.855.787 2.101-2.279zm-.772 1.408c.02-.02-.122.145-.34.275a1.55 1.55 0 0 1-1.808-.159l-.013-.012c-.007-.006-.011-.01-.004-.003l.089.081.747.69 2.101-2.28a727.098 727.098 0 0 0-.848-.782l-.027-.024-.016-.014-.04-.034a1.774 1.774 0 0 0-.214-.145c-.021-.012-.313-.19-.727-.2a1.55 1.55 0 0 0-.828.22c-.218.13-.36.295-.34.274l2.268 2.113zm.006-.006a.388.388 0 0 1-.548.022l2.103-2.278a2.713 2.713 0 0 0-3.834.154l2.279 2.102zm-.548.022a.387.387 0 0 1-.022-.547l2.278 2.102a2.713 2.713 0 0 0-.153-3.833l-2.103 2.278zm-.024-.546v.002l2.28 2.099.002-.002-2.282-2.098zm-.003.004-.008.008 2.287 2.094.007-.008-2.286-2.094zm-.012.013-.032.035 2.295 2.084.032-.035-2.295-2.084zm-.035.038-.143.161 2.323 2.052.12-.134-2.3-2.079zm-.143.161c-.125.14-.304.347-.525.611l2.375 1.992c.203-.242.365-.428.473-.55l-2.323-2.053zm-.525.611a43.008 43.008 0 0 0-1.737 2.219l2.502 1.83a39.987 39.987 0 0 1 1.61-2.057l-2.375-1.992zm-1.737 2.219c-1.359 1.857-2.998 4.405-4.095 7.146l2.879 1.152c.96-2.404 2.436-4.715 3.718-6.468l-2.502-1.83zm-4.095 7.146a.387.387 0 0 1 .3-.238l.484 3.061a2.712 2.712 0 0 0 2.095-1.671l-2.879-1.152zm.3-.238c.134-.022.27.03.358.134l-2.382 1.985a2.712 2.712 0 0 0 2.508.942l-.484-3.061zm.358.134-2.495-2.994-2.382 1.985 2.495 2.994 2.382-1.985z" fill="#000" fill-opacity=".1"/></g><mask id="c" style="mask-type:luminance" maskUnits="userSpaceOnUse" x="0" y="12" width="38" height="38"><path fill-rule="evenodd" clip-rule="evenodd" d="M18.616 49.604c10.272 0 18.6-8.327 18.6-18.6 0-10.272-8.328-18.6-18.6-18.6-10.273 0-18.6 8.328-18.6 18.6 0 10.273 8.327 18.6 18.6 18.6zm4.7-14.52c.235-.472.353-1.01.353-1.619 0-1.004-.372-1.798-1.116-2.38-.744-.583-1.718-.992-2.92-1.228l-.298-.056v-3.31c.496.099.9.297 1.21.595.31.297.495.663.557 1.097h2.306c-.086-1.079-.508-1.934-1.264-2.567-.744-.644-1.68-1.029-2.809-1.153V22.92H17.94v1.544c-.583.05-1.128.18-1.637.39a4.274 4.274 0 0 0-1.32.8 3.47 3.47 0 0 0-.875 1.154c-.21.446-.316.942-.316 1.488 0 .917.316 1.661.949 2.232.645.558 1.569.96 2.771 1.209l.428.093v3.552c-.57-.087-1.054-.303-1.45-.65-.397-.348-.633-.813-.707-1.396h-2.344c.111 1.265.583 2.232 1.413 2.902.844.67 1.873 1.054 3.088 1.153v1.488h1.395V37.39a6.553 6.553 0 0 0 1.655-.353c.534-.186.993-.44 1.377-.763.397-.335.713-.732.948-1.19zM16.581 29c-.273-.21-.409-.52-.409-.93 0-.421.168-.768.502-1.041.335-.285.757-.471 1.265-.558v3.05c-.62-.136-1.073-.31-1.358-.52zm4.167 3.74c.347.235.52.563.52.985 0 .459-.18.83-.539 1.116-.36.285-.825.471-1.395.558v-3.274c.608.162 1.079.366 1.414.614z" fill="#fff"/></mask><g mask="url(#c)"><path d="m23.307 35.083 1.379.708.007-.015-1.386-.693zm-3.683-5.227.298-1.52-.012-.003-.286 1.523zm-.297-.055h-1.55v1.286l1.264.237.285-1.523zm0-3.311.303-1.52-1.854-.37v1.89h1.55zm1.766 1.692-1.534.22.19 1.33h1.345v-1.55zm2.307 0v1.55h1.68l-.135-1.674-1.545.124zm-1.265-2.566-1.015 1.17.01.01.01.009.995-1.19zm-2.809-1.154h-1.55v1.39l1.381.151.17-1.54zm0-1.543h1.55v-1.55h-1.55v1.55zm-1.395 0v-1.55h-1.55v1.55h1.55zm0 1.543.132 1.545 1.419-.12v-1.425h-1.55zm-1.636.391.563 1.444.015-.006.015-.006-.593-1.432zm-1.32.8 1.014 1.171.011-.01.01-.01-1.036-1.151zm-.243 4.873-1.038 1.151.012.01.012.011 1.014-1.172zm2.772 1.209.329-1.515-.016-.003-.313 1.518zm.427.093h1.55v-1.25l-1.22-.264-.33 1.514zm0 3.553-.233 1.532 1.784.271v-1.803h-1.55zm-2.157-2.046 1.537-.197-.172-1.353h-1.365v1.55zm-2.344 0v-1.55h-1.692l.148 1.686 1.544-.136zm1.414 2.901-.973 1.207.009.007.964-1.214zm3.088 1.153h1.55v-1.428l-1.424-.116-.127 1.544zm0 1.488h-1.55v1.55h1.55v-1.55zm1.395 0v1.55h1.55v-1.55h-1.55zm0-1.488-.132-1.544-1.419.12v1.424h1.55zm1.655-.353-.51-1.464-.012.004.522 1.46zm1.376-.763.996 1.188.004-.003-1-1.185zm-5.784-7.272-.948 1.226.013.01.013.01.922-1.246zm.093-1.972.979 1.202.013-.01.013-.012-1.005-1.18zm1.264-.558h1.55v-1.837l-1.81.31.26 1.527zm0 3.05-.333 1.514 1.884.415v-1.928h-1.55zm2.81 3.218-.924 1.246.026.019.027.018.87-1.283zm-1.415 2.66h-1.55v1.804l1.784-.271-.233-1.533zm0-3.273.398-1.498-1.948-.517v2.015h1.55zm16.331-1.122c0 9.416-7.634 17.05-17.05 17.05v3.1c11.129 0 20.15-9.022 20.15-20.15h-3.1zm-17.05-17.05c9.416 0 17.05 7.633 17.05 17.05h3.1c0-11.129-9.021-20.15-20.15-20.15v3.1zm-17.05 17.05c0-9.417 7.634-17.05 17.05-17.05v-3.1c-11.128 0-20.15 9.021-20.15 20.15h3.1zm17.05 17.05c-9.416 0-17.05-7.634-17.05-17.05h-3.1c0 11.128 9.022 20.15 20.15 20.15v-3.1zm3.503-14.59c0 .405-.077.7-.19.926l2.773 1.386c.359-.717.517-1.5.517-2.311h-3.1zm-.521-1.16c.342.269.521.598.521 1.16h3.1c0-1.445-.565-2.703-1.71-3.6l-1.912 2.44zm-2.263-.927c1.032.203 1.76.533 2.262.927l1.912-2.44c-.985-.772-2.204-1.26-3.578-1.529l-.596 3.043zm-.285-.053.297.056.572-3.047-.298-.056-.571 3.047zm-1.265-4.834v3.31h3.1v-3.31h-3.1zm3.833-.523c-.558-.536-1.245-.85-1.979-.997l-.608 3.04c.26.051.378.134.44.193l2.147-2.236zm1.019 1.996a3.388 3.388 0 0 0-1.02-1.996l-2.146 2.236c.055.053.083.1.097.199l3.069-.439zm.772-1.33h-2.306v3.1H23.4v-3.1zm-2.26.172c.405.338.658.793.715 1.502l3.09-.249c-.117-1.448-.708-2.705-1.816-3.631l-1.988 2.378zm-1.983-.802c.865.095 1.492.376 1.963.784l2.03-2.343c-1.017-.881-2.262-1.37-3.654-1.522l-.339 3.081zm-1.38-3.084v1.543h3.1V22.92h-3.1zm.154 1.55h1.395v-3.1h-1.395v3.1zm1.55-.007V22.92h-3.1v1.543h3.1zm-2.593 1.823c.352-.146.741-.241 1.175-.278l-.263-3.089a7.006 7.006 0 0 0-2.1.503l1.188 2.864zm-.877.52c.221-.199.497-.371.847-.508l-1.127-2.888a5.82 5.82 0 0 0-1.794 1.092l2.074 2.304zm-.51.663a1.92 1.92 0 0 1 .488-.644l-2.03-2.343a5.02 5.02 0 0 0-1.26 1.663l2.803 1.324zm-.167.826c0-.341.064-.608.168-.826l-2.804-1.324a4.989 4.989 0 0 0-.464 2.15h3.1zm.436 1.081c-.279-.252-.436-.564-.436-1.081h-3.1c0 1.318.475 2.494 1.46 3.383l2.076-2.302zm2.047.842c-1.05-.217-1.695-.538-2.07-.863l-2.029 2.344c.914.791 2.117 1.276 3.473 1.555l.626-3.036zm.444.097-.428-.094-.659 3.03.428.093.659-3.03zm1.22 5.067v-3.553h-3.1v3.553h3.1zm-4.021.515c.64.56 1.404.89 2.238 1.017l.467-3.065c-.307-.046-.51-.15-.664-.285l-2.041 2.333zm-1.224-2.365c.117.912.509 1.74 1.224 2.365l2.041-2.333c-.078-.069-.157-.171-.19-.425l-3.075.393zm-.806 1.354h2.344v-3.1H13.43v3.1zm2.387.144c-.441-.355-.76-.9-.843-1.83l-3.088.272c.141 1.598.765 2.989 1.985 3.972l1.946-2.414zm2.24.816c-.95-.078-1.677-.368-2.25-.823L13.88 37.45c1.114.885 2.446 1.363 3.925 1.484l.253-3.09zm1.425 3.032V37.39h-3.1v1.488h3.1zm-.155-1.55H17.93v3.1h1.395v-3.1zm-1.55.062v1.488h3.1V37.39h-3.1zm2.683-1.813a5 5 0 0 1-1.265.269l.263 3.089a8.104 8.104 0 0 0 2.045-.438l-1.043-2.92zm.902-.49a2.799 2.799 0 0 1-.89.486l1.02 2.927a5.892 5.892 0 0 0 1.862-1.038l-1.992-2.375zm.566-.711c-.141.275-.328.51-.57.714l2 2.369a5.385 5.385 0 0 0 1.328-1.667l-2.758-1.416zm-7.314-6.304c0 .788.286 1.595 1.012 2.156l1.895-2.453a.56.56 0 0 1 .165.212c.034.078.029.118.029.085h-3.1zm1.074-2.243a2.834 2.834 0 0 0-1.074 2.243h3.1s0 .008-.004.027a.31.31 0 0 1-.024.07c-.026.054-.053.073-.04.063l-1.958-2.403zm1.983-.885c-.736.126-1.428.411-2.01.906l2.01 2.36c.09-.075.24-.162.521-.21l-.521-3.056zm1.81 4.579v-3.05h-3.1v3.05h3.1zm-3.829.725c.549.405 1.256.636 1.946.788l.667-3.027a4.166 4.166 0 0 1-.583-.166.947.947 0 0 1-.187-.088l-1.843 2.493zm7.159 3.478c0-.932-.426-1.742-1.2-2.268l-1.741 2.565a.395.395 0 0 1-.11-.135.39.39 0 0 1-.05-.162h3.1zm-1.126 2.33a2.906 2.906 0 0 0 1.126-2.33h-3.1c-.002.012 0 .013 0 0a.257.257 0 0 1 .048-.097c.008-.01.01-.008 0 0l1.926 2.428zm-2.125.877c.77-.117 1.506-.386 2.125-.876l-1.926-2.428c-.1.08-.294.182-.666.239l.467 3.065zm-1.784-4.806v3.273h3.1v-3.273h-3.1zm3.887-.632c-.552-.409-1.229-.678-1.939-.866l-.795 2.996c.505.134.77.273.888.36l1.846-2.49z" fill="#fff"/></g></g><defs><clipPath id="a"><path fill="#fff" d="M0 0h62v62H0z"/></clipPath></defs></svg>