<svg width="52" height="51" fill="none" xmlns="http://www.w3.org/2000/svg"><g clip-path="url(#a)" stroke-width="3.722"><path d="M1.86 44.062v-26.84l23.352-15.01 23.351 15.01v26.84c0 1.426-1.218 2.697-2.866 2.697H4.727c-1.647 0-2.866-1.27-2.866-2.697z" stroke="#fff"/><path d="M22.697 47.359c-4.256-.001-7.705-3.35-7.705-7.48 0-4.131 3.45-7.48 7.704-7.48 0-5.164 4.313-9.35 9.633-9.35 5.32 0 9.632 4.186 9.632 9.35 4.252.004 7.698 3.351 7.698 7.48 0 4.128-3.446 7.475-7.698 7.48H22.697z" stroke="#E56553"/></g><defs><clipPath id="a"><path fill="#fff" d="M0 0h52v50.139H0z"/></clipPath></defs></svg>