<svg width="62" height="62" viewBox="0 0 62 62" fill="none" xmlns="http://www.w3.org/2000/svg">
<path d="M52.5243 24.9679C51.1879 20.2895 48.3638 16.1737 44.4795 13.2436C40.5952 10.3135 35.8621 8.72852 30.9965 8.72852C26.131 8.72852 21.3979 10.3135 17.5136 13.2436C13.6293 16.1737 10.8052 20.2895 9.46875 24.9679M52.5243 37.0234C51.1879 41.7018 48.3638 45.8175 44.4795 48.7476C40.5952 51.6778 35.8621 53.2628 30.9965 53.2628C26.131 53.2628 21.3979 51.6778 17.5136 48.7476C13.6293 45.8175 10.8052 41.7018 9.46875 37.0234" stroke="white" stroke-width="1.72222" stroke-linecap="round" stroke-linejoin="round" stroke-dasharray="0.43 3.44"/>
<path d="M56.8424 30.9996C56.8424 30.9996 47.3702 48.2218 31.0091 48.2218C14.648 48.2218 5.17578 30.9996 5.17578 30.9996C5.17578 30.9996 15.5091 13.7773 31.0091 13.7773C46.5091 13.7773 56.8424 30.9996 56.8424 30.9996Z" stroke="white" stroke-width="2"/>
<path d="M40.4792 29.2847L37.8958 30.1458V31.8681L40.4792 31.0069V29.2847ZM37.8958 30.1458C34.4514 30.1458 31.8681 27.5625 31.8681 24.1181H30.1458C30.1458 28.4236 33.5903 31.8681 37.8958 31.8681V30.1458ZM31.8681 24.1181L32.7292 21.5347H31.0069L30.1458 24.1181H31.8681ZM21.5347 31.0069C21.5347 25.8403 25.8403 21.5347 31.0069 21.5347V19.8125C24.9792 19.8125 19.8125 24.9792 19.8125 31.0069H21.5347ZM31.0069 40.4792C25.8403 40.4792 21.5347 36.1736 21.5347 31.0069H19.8125C19.8125 37.0347 24.9792 42.2014 31.0069 42.2014V40.4792ZM40.4792 31.0069C40.4792 36.1736 36.1736 40.4792 31.0069 40.4792V42.2014C37.0347 42.2014 42.2014 37.0347 42.2014 31.0069H40.4792ZM32.7292 21.5347L31.8681 20.6736L31.0069 19.8125V21.5347H32.7292ZM40.4792 31.0069H42.2014L41.3403 30.1458L40.4792 29.2847V31.0069Z" fill="#E56553"/>
</svg>
