<svg width="538" height="410" fill="none" xmlns="http://www.w3.org/2000/svg"><g clip-path="url(#a)"><path d="M191.387 95.401a.882.882 0 0 1-.88-.822A31.282 31.282 0 0 0 180.656 74a31.183 31.183 0 0 0-21.19-8.388c-.941 0-1.93.048-2.939.143a.885.885 0 0 1-.849-.441 37.108 37.108 0 0 0-15.514-14.747 37.033 37.033 0 0 0-40.672 4.845 37.15 37.15 0 0 0-11.629 17.98.88.88 0 0 1-.868.639l-.235-.007c-.122-.005-.244-.009-.367-.009a26.127 26.127 0 0 0-16.383 5.843 26.204 26.204 0 0 0-9.103 14.841.885.885 0 0 1-.864.702H.883a.882.882 0 0 1-.881-.884.885.885 0 0 1 .88-.885h58.454a27.987 27.987 0 0 1 9.831-15.361 27.907 27.907 0 0 1 17.196-6.025 38.917 38.917 0 0 1 12.269-18.42 38.795 38.795 0 0 1 42.098-4.952 38.877 38.877 0 0 1 16.196 15.071 32.75 32.75 0 0 1 2.54-.102 32.949 32.949 0 0 1 22.392 8.865 33.055 33.055 0 0 1 10.411 21.747.884.884 0 0 1-.882.946zM180.88 106.742H36.059a.886.886 0 0 1-.625-1.51.882.882 0 0 1 .625-.259H180.88a.88.88 0 0 1 .883.884.885.885 0 0 1-.883.885zM71.381 119.566H22.813a.875.875 0 0 1-.626-.258.88.88 0 0 1-.26-.627.89.89 0 0 1 .26-.626.879.879 0 0 1 .626-.258h48.568a.884.884 0 0 1 0 1.769z" fill="#CBCBCB"/><path d="M116.79 291.671c0 35.96-37.638 53.166-37.638 53.166s-38.024-17.206-38.796-53.166c-.453-21.137 17.11-38.28 38.217-38.28a38.176 38.176 0 0 1 27.024 11.212 38.325 38.325 0 0 1 11.193 27.068z" fill="#E5E5E5"/><path d="M91.892 346.963H66.414l-3.089-12.373H94.98l-3.088 12.373z" fill="#CBCBCB"/><path d="M91.023 368.125h-23.74v12.392h23.74v-12.392z" fill="#fff"/><path d="M91.216 380.711H67.089v-12.779h24.127v12.779zm-23.741-.387H90.83v-12.006H67.475v12.006zM84.019 348.422h-9.733l-1.117-1.758h11.967l-1.117 1.758zM66.993 346.963h-.387v18.947h.387v-18.947zM91.698 346.963h-.385v18.947h.385v-18.947zM83.022 334.381l-.236-.307c11.152-8.614 24.446-23.371 24.446-44.757a38.074 38.074 0 0 0-6.322-21.059 37.984 37.984 0 0 0-16.901-14.035l.15-.356a38.375 38.375 0 0 1 17.073 14.177 38.463 38.463 0 0 1 6.386 21.273c0 21.543-13.375 36.396-24.596 45.064z" fill="#CBCBCB"/><path d="m70.67 334.38-.236-.307c11.152-8.614 24.445-23.371 24.445-44.757a38.124 38.124 0 0 0-6.25-20.934 38.033 38.033 0 0 0-16.708-14.047l.153-.355a38.42 38.42 0 0 1 16.878 14.19 38.51 38.51 0 0 1 6.314 21.146c0 21.543-13.376 36.396-24.597 45.064z" fill="#CBCBCB"/><path d="M86.478 334.382c-11.22-8.668-24.596-23.521-24.596-45.064a38.509 38.509 0 0 1 6.313-21.146 38.42 38.42 0 0 1 16.879-14.19l.153.355a38.032 38.032 0 0 0-16.71 14.047 38.123 38.123 0 0 0-6.25 20.934c0 21.386 13.295 36.143 24.447 44.757l-.236.307z" fill="#CBCBCB"/><path d="M74.126 334.38c-11.221-8.667-24.597-23.521-24.597-45.063a38.44 38.44 0 0 1 6.429-21.347 38.344 38.344 0 0 1 17.187-14.169l.149.357a37.957 37.957 0 0 0-17.015 14.026 38.056 38.056 0 0 0-6.364 21.133c0 21.385 13.294 36.143 24.446 44.757l-.236.306zM78.767 253.391h-.386v81.2h.386v-81.2zM74.224 365.316l-7.079 7.09.273.274 7.08-7.091-.274-.273zM77.665 365.196l-10.522 11.085.28.267 10.522-11.086-.28-.266z" fill="#CBCBCB"/><path d="M93.242 365.33H64.29v3.48h28.952v-3.48z" fill="#fff"/><path d="M93.436 369.003H64.098v-3.866h29.338v3.866zm-28.952-.386H93.05v-3.094H64.484v3.094z" fill="#CBCBCB"/><path d="M189.63 200.536c0 23.735-24.843 35.092-24.843 35.092s-25.097-11.357-25.607-35.092c-.299-13.951 11.294-25.266 25.225-25.266 6.69 0 13.106 2.662 17.837 7.4a25.29 25.29 0 0 1 7.388 17.866z" fill="#E5E5E5"/><path d="M173.196 237.032h-16.817l-2.038-8.167h20.893l-2.038 8.167z" fill="#CBCBCB"/><path d="M172.623 251h-15.67v8.18h15.67V251z" fill="#fff"/><path d="M172.75 259.306h-15.925v-8.435h15.925v8.435zm-15.67-.255h15.415v-7.925H157.08v7.925zM167.999 237.996h-6.424l-.737-1.16h7.899l-.738 1.16zM156.762 237.031h-.255v12.506h.255v-12.506zM173.068 237.031h-.255v12.506h.255v-12.506zM167.342 228.728l-.155-.202c7.36-5.686 16.135-15.426 16.135-29.542a25.135 25.135 0 0 0-4.173-13.9 25.071 25.071 0 0 0-11.156-9.263l.1-.235a25.335 25.335 0 0 1 11.269 9.357 25.394 25.394 0 0 1 4.215 14.041c0 14.219-8.829 24.024-16.235 29.744z" fill="#CBCBCB"/><path d="m159.188 228.727-.156-.202c7.361-5.686 16.136-15.426 16.136-29.542a25.165 25.165 0 0 0-4.126-13.817 25.106 25.106 0 0 0-11.028-9.272l.101-.234a25.357 25.357 0 0 1 11.14 9.366 25.412 25.412 0 0 1 4.167 13.957c0 14.219-8.828 24.023-16.234 29.744z" fill="#CBCBCB"/><path d="M169.623 228.727c-7.406-5.721-16.234-15.525-16.234-29.744a25.412 25.412 0 0 1 4.167-13.957 25.354 25.354 0 0 1 11.141-9.366l.101.234a25.104 25.104 0 0 0-11.029 9.272 25.165 25.165 0 0 0-4.126 13.817c0 14.116 8.775 23.856 16.136 29.542l-.156.202z" fill="#CBCBCB"/><path d="M161.469 228.729c-7.406-5.721-16.235-15.525-16.235-29.744a25.38 25.38 0 0 1 4.243-14.09 25.312 25.312 0 0 1 11.345-9.352l.098.235a25.065 25.065 0 0 0-11.231 9.259 25.124 25.124 0 0 0-4.2 13.948c0 14.115 8.775 23.856 16.136 29.542l-.156.202zM164.533 175.27h-.255v53.595h.255V175.27zM161.535 249.144l-4.673 4.68.18.181 4.673-4.68-.18-.181zM163.807 249.066l-6.946 7.317.185.176 6.945-7.317-.184-.176z" fill="#CBCBCB"/><path d="M174.088 249.156h-19.109v2.297h19.109v-2.297z" fill="#fff"/><path d="M174.215 251.58h-19.364v-2.553h19.364v2.553zm-19.11-.256h18.855v-2.041h-18.855v2.041zM400.816 232.988a.633.633 0 0 0 .631-.59 22.425 22.425 0 0 1 7.061-14.75 22.349 22.349 0 0 1 15.189-6.012c.674 0 1.383.034 2.107.102a.634.634 0 0 0 .608-.316 26.604 26.604 0 0 1 11.12-10.571 26.554 26.554 0 0 1 29.153 3.473 26.628 26.628 0 0 1 8.335 12.888.635.635 0 0 0 .623.458l.168-.005c.088-.003.175-.006.263-.006a18.726 18.726 0 0 1 11.743 4.187 18.785 18.785 0 0 1 6.526 10.639.635.635 0 0 0 .619.503h42.405a.63.63 0 0 0 .587-.391.634.634 0 0 0-.587-.877h-41.898a20.062 20.062 0 0 0-7.047-11.011 20.005 20.005 0 0 0-12.326-4.318 27.893 27.893 0 0 0-8.794-13.204 27.804 27.804 0 0 0-30.175-3.55 27.864 27.864 0 0 0-11.61 10.804 23.257 23.257 0 0 0-1.82-.073 23.62 23.62 0 0 0-16.051 6.353 23.694 23.694 0 0 0-7.462 15.588.64.64 0 0 0 .154.461.624.624 0 0 0 .478.218zM408.347 241.116h103.806a.634.634 0 0 0 0-1.268H408.347a.633.633 0 0 0-.448 1.082c.119.119.28.186.448.186zM486.834 250.309h34.813a.631.631 0 0 0 .631-.634.633.633 0 0 0-.631-.634h-34.813a.63.63 0 0 0-.585.391.654.654 0 0 0 0 .486.633.633 0 0 0 .585.391z" fill="#CBCBCB"/><path d="M325.068 403.288h-2.084l-.992-8.05h3.076v8.05z" fill="#9F616A"/><path d="M325.599 405.312h-6.718v-.085a2.616 2.616 0 0 1 2.615-2.62h4.103v2.705z" fill="#2F2E41"/><path d="m351.935 399.334-1.786 1.075-4.989-6.389 2.636-1.586 4.139 6.9z" fill="#9F616A"/><path d="m347.672 404.26-.044-.073a2.625 2.625 0 0 1 .895-3.594l3.517-2.116 1.391 2.318-5.759 3.465zM325.609 401.628l-.036-.001a27.933 27.933 0 0 1-3.033-.174c-.384-.038-.801-.08-1.303-.121l-.017-.003c-.342-.102-.352-3.318-.206-14.326.074-5.639.158-12.029.058-16.099l-.001-.04.03-.026a15.249 15.249 0 0 1 13.44-3.418l.037.008.019.032c2.047 3.471 5.139 8.47 8.129 13.304 6.864 11.098 8.827 14.362 8.612 14.608l-.026.02c-.469.235-.821.415-1.12.569a37.128 37.128 0 0 1-3.644 1.647l-.055.022-.04-.044c-6.965-7.644-12.76-16.183-16.345-24.076-.419 2.695-.927 6.214-1.465 9.932-1.545 10.691-2.589 17.731-3.009 18.16l-.025.026z" fill="#2F2E41"/><path d="M327.486 371.726a36.423 36.423 0 0 1 12.198 2.045 27.833 27.833 0 0 0-6.225-18.132l-.03-.037.016-.046c1.094-3.166 2.224-6.439 3.235-9.695l-.016-.055c-.708-2.523-2.229-5.073-4.649-7.796a1.49 1.49 0 0 0-2.034-.103 18.993 18.993 0 0 0-6.104 15.447l.001.016-.004.016c-1.895 6.431-2.583 9.734-3.19 12.648-.443 2.126-.826 3.967-1.596 6.597a39.454 39.454 0 0 1 8.398-.905z" fill="#CBCBCB"/><path opacity=".1" d="m333.6 351.396-6.166 13.444-3.522-3.571 9.688-9.873z" fill="#000"/><path d="M330.963 336.701a4.39 4.39 0 0 0 4.387-4.393 4.39 4.39 0 0 0-4.387-4.394 4.39 4.39 0 0 0-4.386 4.394 4.39 4.39 0 0 0 4.386 4.393z" fill="#9F616A"/><path d="M325.646 329.826h6.964v-3.041c-1.528-.608-3.024-1.125-3.929 0a3.04 3.04 0 0 0-3.035 3.041z" fill="#2F2E41"/><path d="M332.996 326.248c4.164 0 5.329 5.228 5.329 8.177 0 1.645-.742 2.233-1.909 2.432l-.412-2.202-.966 2.297c-.327.001-.672-.005-1.029-.012l-.327-.675-.73.663c-2.923.005-5.285.431-5.285-2.503 0-2.949 1.022-8.177 5.329-8.177z" fill="#2F2E41"/><path d="M458.764 123.271c0 115.8-121.203 171.21-121.203 171.21s-122.447-55.41-124.933-171.21C211.167 55.206 267.728 0 335.696 0c67.968 0 123.068 55.19 123.068 123.271z" fill="#E56553"/><path d="M340.16 402.378h-2.555l-1.215-9.87h3.77v9.87z" fill="#FFB7B7"/><path d="M335.78 401.646h4.927v3.108h-8.029a3.11 3.11 0 0 1 3.102-3.108z" fill="#2F2E41"/><path d="M349.746 402.378h-2.555l-1.215-9.87h3.771l-.001 9.87z" fill="#FFB7B7"/><path d="M345.366 401.646h4.927v3.108h-8.029c0-.824.327-1.615.908-2.197a3.1 3.1 0 0 1 2.194-.911z" fill="#2F2E41"/><path d="M349.433 372.981a2.248 2.248 0 0 1-1.01-1.605 2.251 2.251 0 0 1 .58-1.806l-1.682-23.912 4.846.471.133 23.417a2.257 2.257 0 0 1-1.304 3.777 2.25 2.25 0 0 1-1.563-.342z" fill="#FFB7B7"/><path d="m340.04 397.406-2.813-.135a.937.937 0 0 1-.893-.931l-.196-28.503a.931.931 0 0 1 .321-.715.934.934 0 0 1 .751-.222l11.252 1.636a.936.936 0 0 1 .803.923l1.447 26.411a.937.937 0 0 1-.577.874.935.935 0 0 1-.361.073h-3.032a.933.933 0 0 1-.926-.794s-2.29-19.811-2.605-19.799c-.316.006-2.196 20.355-2.196 20.355a.943.943 0 0 1-.931.828l-.044-.001z" fill="#2F2E41"/><path d="M348.418 353.694a.94.94 0 0 1-.387-.71l-.355-6.445a2.58 2.58 0 0 1 3.98-2.317c.537.347.926.88 1.093 1.497l1.56 5.762a.94.94 0 0 1-.66 1.153l-4.436 1.205a.934.934 0 0 1-.795-.145z" fill="#3F3D56"/><path d="M344.274 338.376a5.123 5.123 0 0 0 5.119-5.126 5.123 5.123 0 0 0-5.119-5.127 5.123 5.123 0 0 0-5.118 5.127 5.122 5.122 0 0 0 5.118 5.126z" fill="#FFB7B7"/><path d="M347.896 337.305a1.646 1.646 0 0 1-1.719.45 1.648 1.648 0 0 1-1.133-1.37 1.67 1.67 0 0 1 .002-.324c.064-.617.42-1.177.334-1.827a.952.952 0 0 0-.175-.449c-.761-1.021-2.547.456-3.265-.467-.44-.567.078-1.459-.26-2.092-.446-.836-1.767-.423-2.595-.881-.922-.509-.867-1.926-.26-2.787a4.378 4.378 0 0 1 3.318-1.692 8.865 8.865 0 0 1 3.749.733 7.489 7.489 0 0 1 3.543 2.46 6.018 6.018 0 0 1 .606 5.114c-.309 1.036-1.365 2.3-2.145 3.132z" fill="#2F2E41"/><path d="M349.383 341.801a7.686 7.686 0 0 0-.272-.188 6.712 6.712 0 0 0-1.583-.778v-1.347h-3.959v1.25a6.953 6.953 0 0 0-5.035 5.779l-2.696 20.049a.944.944 0 0 0 .476.95c.11.06.23.097.354.109 1.889.245 3.709.869 5.351 1.836a7.935 7.935 0 0 0 3.898.996 9.356 9.356 0 0 0 3.173-.566.933.933 0 0 0 .608-.836c.097-2.157.665-13.263 2.318-20.037a6.93 6.93 0 0 0-2.633-7.217zM378.583 301.33h-82.045l-9.945-39.846h101.935l-9.945 39.846z" fill="#3F3D56"/><path d="M375.786 369.471h-76.451v39.906h76.451v-39.906z" fill="#fff"/><path d="M376.407 409.999h-77.694v-41.151h77.694v41.151zm-76.451-1.245h75.208v-38.661h-75.208v38.661zM353.231 306.029h-31.342l-3.597-5.662h38.536l-3.597 5.662zM298.402 301.328h-1.243v61.013h1.243v-61.013zM377.961 301.328h-1.243v61.013h1.243v-61.013zM350.021 260.808l-.759-.986c35.912-27.74 78.721-75.263 78.721-144.13a122.623 122.623 0 0 0-20.357-67.815 122.323 122.323 0 0 0-54.428-45.195l.485-1.147a123.57 123.57 0 0 1 54.98 45.654 123.869 123.869 0 0 1 20.563 68.503c0 69.373-43.072 117.205-79.205 145.116z" fill="#3F3D56"/><path d="m310.24 260.809-.759-.986c35.913-27.74 78.722-75.263 78.722-144.13a122.769 122.769 0 0 0-20.126-67.412A122.472 122.472 0 0 0 314.27 3.047l.493-1.143a123.717 123.717 0 0 1 54.353 45.693 124.018 124.018 0 0 1 20.33 68.096c0 69.373-43.072 117.206-79.206 145.116z" fill="#3F3D56"/><path d="M361.15 260.809c-36.133-27.91-79.206-75.743-79.206-145.116a124.011 124.011 0 0 1 20.331-68.096 123.718 123.718 0 0 1 54.354-45.693l.493 1.143a122.467 122.467 0 0 0-53.808 45.234 122.779 122.779 0 0 0-20.127 67.412c0 68.867 42.81 116.39 78.722 144.13l-.759.986z" fill="#3F3D56"/><path d="M321.371 260.809c-36.133-27.91-79.206-75.742-79.206-145.115a123.789 123.789 0 0 1 20.701-68.742 123.477 123.477 0 0 1 55.347-45.628l.48 1.15a122.235 122.235 0 0 0-54.792 45.168 122.542 122.542 0 0 0-20.493 68.052c0 68.867 42.81 116.39 78.722 144.129l-.759.986zM336.317 0h-1.243v261.484h1.243V0zM321.69 360.423l-22.794 22.833.878.88 22.795-22.832-.879-.881zM332.772 360.043l-33.885 35.697.9.858 33.886-35.697-.901-.858z" fill="#3F3D56"/><path d="M382.933 360.475H289.7v11.206h93.233v-11.206z" fill="#fff"/><path d="M383.555 372.303h-94.476v-12.451h94.476v12.451zm-93.233-1.245h91.99v-9.961h-91.99v9.961z" fill="#3F3D56"/><path d="M319.854 365.687a1.708 1.708 0 0 0 1.56-1.383 1.72 1.72 0 0 0-.021-.742l5.08-3.334-2.897-1.253-4.38 3.358a1.721 1.721 0 0 0 .658 3.354z" fill="#9F616A"/><path d="m324.743 363.285-.064-.045c-1.209-.891-2.551-1.813-3.849-2.704l-.078-.054.061-.072c2.771-3.247 5.544-6.638 8.227-9.918l-.006-.012.026-.013.01-.013.006.005.016-.009-.073.006-.827-6.495a4.166 4.166 0 0 1 .089-4.46 3.525 3.525 0 0 1 4.59-1.05 3.027 3.027 0 0 1 1.323 2.253 2.72 2.72 0 0 1-.72 2.228c.285 3.151.411 6.316.378 9.481v.029l-.019.025c-2.859 3.639-6.001 7.259-9.039 10.759l-.051.059z" fill="#CBCBCB"/><path d="M325.727 343.321c.025.113.042.227.05.342l8.951 5.173 2.176-1.254 2.32 3.041-4.655 3.323-10.213-8.07c-.416.155-.87.178-1.3.068a2.193 2.193 0 0 1-.456-4.072 2.179 2.179 0 0 1 2.465.326c.33.298.56.69.662 1.123z" fill="#FFB7B7"/><path d="M335.048 348.398a.946.946 0 0 1 .27-.763l4.556-4.564a2.58 2.58 0 0 1 3.452-.182 2.589 2.589 0 0 1 .542 3.42l-3.244 5.008a.941.941 0 0 1-1.298.277l-3.856-2.507a.932.932 0 0 1-.422-.689z" fill="#3F3D56"/><path d="M273.061 303.962a.633.633 0 0 1-.631-.589 22.425 22.425 0 0 0-7.061-14.751 22.354 22.354 0 0 0-15.189-6.012 23 23 0 0 0-2.107.102.627.627 0 0 1-.608-.316 26.596 26.596 0 0 0-11.12-10.57 26.549 26.549 0 0 0-29.153 3.473 26.624 26.624 0 0 0-8.335 12.888.632.632 0 0 1-.623.457l-.168-.005c-.088-.003-.175-.006-.263-.006a18.73 18.73 0 0 0-11.743 4.188 18.783 18.783 0 0 0-6.526 10.638.632.632 0 0 1-.619.503H136.51a.615.615 0 0 1-.449-.184.638.638 0 0 1 0-.899.651.651 0 0 1 .449-.185h41.898a20.059 20.059 0 0 1 7.048-11.01 20.001 20.001 0 0 1 12.325-4.319 27.895 27.895 0 0 1 8.794-13.203 27.81 27.81 0 0 1 30.176-3.55 27.871 27.871 0 0 1 11.609 10.803 23.756 23.756 0 0 1 1.82-.073 23.619 23.619 0 0 1 16.051 6.354 23.692 23.692 0 0 1 7.462 15.588.641.641 0 0 1-.154.46.616.616 0 0 1-.433.217l-.045.001zM265.53 312.09H161.724a.633.633 0 1 1 0-1.268H265.53a.634.634 0 0 1 0 1.268zM187.043 321.284H152.23a.63.63 0 0 1-.587-.391.634.634 0 0 1 .587-.877h34.813a.637.637 0 0 1 .449.185.635.635 0 0 1-.449 1.083z" fill="#CBCBCB"/></g><defs><clipPath id="a"><path fill="#fff" d="M0 0h538v410H0z"/></clipPath></defs></svg>